<svg id="academic" xmlns="http://www.w3.org/2000/svg" width="30" height="30" viewBox="0 0 30 30">
  <rect id="Rectangle_2144" data-name="Rectangle 2144" width="30" height="30" fill="none"/>
  <g id="Group_4934" data-name="Group 4934" transform="translate(1.112 7.018)">
    <path id="Path_6483" data-name="Path 6483" d="M283.263,152.526l-12.674,3.616,7.272,2.113v5.282l5.4,2.844,5.487-2.844v-5.282l6.947-2.113Z" transform="translate(-269.184 -151.415)" fill="#67a7ff"/>
    <path id="Path_6482" data-name="Path 6482" d="M31.714,51.6l6.829,1.951v4.656a.939.939,0,0,0,.519.84l4.152,2.076A5.131,5.131,0,0,1,44.466,62a.939.939,0,0,0,1.3,0,5.131,5.131,0,0,1,1.252-.881l4.152-2.076a.939.939,0,0,0,.519-.84V53.55l1.878-.536v7.07a.939.939,0,0,0,1.878,0V52.477l3.074-.878a.94.94,0,0,0,0-1.805L45.372,46.039a.938.938,0,0,0-.516,0L31.714,49.794A.94.94,0,0,0,31.714,51.6Zm18.095,6.027-3.633,1.816a7.008,7.008,0,0,0-1.061.654,7.014,7.014,0,0,0-1.061-.654l-3.633-1.816v-3.54l4.436,1.267a.939.939,0,0,0,.516,0l4.436-1.267Zm-4.694-9.709L54.84,50.7l-9.726,2.779L35.389,50.7Z" transform="translate(-31.035 -46.002)" fill="#3e3e3e"/>
  </g>
</svg>
