<svg xmlns="http://www.w3.org/2000/svg" width="14.883" height="16.229" viewBox="0 0 14.883 16.229">
  <g id="Group_3128" data-name="Group 3128" transform="translate(-8.976 -4)">
    <g id="Group_3127" data-name="Group 3127" transform="translate(8.976 4)">
      <path id="Path_5938" data-name="Path 5938" d="M8.976,91.884c.023-.1.047-.19.067-.285a1.981,1.981,0,0,1,1.028-1.38,11.255,11.255,0,0,1,1.351-.591c.631-.238,1.273-.445,1.934-.674l1.031,3.414L15.955,91a2.637,2.637,0,0,1-.354-.348,3.349,3.349,0,0,1-.411-.7.578.578,0,0,1,.318-.763,2.047,2.047,0,0,1,1.8-.033.633.633,0,0,1,.352.811,1.859,1.859,0,0,1-.552.836c-.064.063-.131.122-.216.2l1.57,1.366,1.035-3.387c.034,0,.058-.015.075-.008.932.339,1.873.656,2.79,1.032a3.45,3.45,0,0,1,.949.651,1.631,1.631,0,0,1,.515,1.107,8.015,8.015,0,0,1,.031,1.013.94.94,0,0,1-1.009.918H10.068a.946.946,0,0,1-1.054-.747c-.006-.018-.025-.032-.038-.048Z" transform="translate(-8.976 -77.466)" fill="#0a56bb" fill-rule="evenodd"/>
      <path id="Path_5939" data-name="Path 5939" d="M32.609,4.663a.613.613,0,0,1,.585-.628,3.621,3.621,0,0,1,1.5.132,4.78,4.78,0,0,1,1.993.973,3.158,3.158,0,0,1,1.065,3.272c-.008.041-.018.082-.024.124a.462.462,0,0,0,.007.082c.057.009.117.022.177.027.409.035.606.206.609.609a3.587,3.587,0,0,1-.365,1.633c-.146.292-.323.359-.837.375-.022.1-.039.209-.07.314A4.689,4.689,0,0,1,34.366,14.7a1.748,1.748,0,0,1-1.543-.169A4.685,4.685,0,0,1,30.3,11.4a.229.229,0,0,0-.157-.138.857.857,0,0,1-.766-.61,7.3,7.3,0,0,1-.291-1.268.584.584,0,0,1,.626-.737.485.485,0,0,0,.1-.026c-.012-.22-.042-.437-.032-.652a10.054,10.054,0,0,1,.11-1.468,2.089,2.089,0,0,1,2.064-1.78C32.162,4.7,32.379,4.682,32.609,4.663Z" transform="translate(-26.355 -4)" fill="#0a56bb" fill-rule="evenodd"/>
    </g>
  </g>
</svg>
