<svg xmlns="http://www.w3.org/2000/svg" width="92.226" height="92.261" viewBox="0 0 92.226 92.261"><defs><style>.a{fill:#2681ff;}</style></defs><path class="a" d="M32.862,92.261h-.236a5.841,5.841,0,0,1-4.166-2.088L17.2,75.16,2.309,63.988a5.275,5.275,0,0,1-2.2-4.107A5.647,5.647,0,0,1,1.58,55.825L7.5,49.839a5.391,5.391,0,0,1,4.114-1.595,4.13,4.13,0,0,1,1.371.229l9.646,2.634L33.556,40.178,6.863,25.51a5.519,5.519,0,0,1-2.816-4,5.447,5.447,0,0,1,1.562-4.736l7.748-7.748a5.291,5.291,0,0,1,5.388-1.346l38.2,9.122L65.259,8.5a30.14,30.14,0,0,1,11.8-7.4A12.252,12.252,0,0,1,89.206,2.285l.872.872A12.477,12.477,0,0,1,91.1,15.7a29.374,29.374,0,0,1-7.269,11.435L75.466,35.5l9.273,40.335a5.329,5.329,0,0,1-2.171,5.718l-7.653,5.743a5.182,5.182,0,0,1-3.478,1.069l-.773-.1h0A5.213,5.213,0,0,1,66.7,85.237L52.159,58.795,41.236,69.72l2.676,9.794a5.3,5.3,0,0,1-1.42,5.364l-5.8,5.793a5.449,5.449,0,0,1-3.835,1.589ZM8.011,59.405,22.574,70.5l10.4,13.875,3.865-3.871L33.32,67.619,53.831,47.1l18.33,33.392L77.6,76.416,67.679,33.262,78.841,22.1a23.108,23.108,0,0,0,5.7-9.069A5.759,5.759,0,0,0,84.6,7.757a5.422,5.422,0,0,0-4.865-.11,23.9,23.9,0,0,0-9.44,5.84L59.152,24.627,17.707,14.717,12.121,20.3l33.14,18.2L24.737,59.025,11.863,55.5ZM72.97,81.955l.068.128a.685.685,0,0,0-.068-.128Zm-2.3-.326a.61.61,0,0,0-.074.056Zm-33.585-.236c.013.049.025.1.04.146Zm.44-1.553-.031.031Zm40.312-2.4a.691.691,0,0,0,.034.153Zm.6-1.631a.68.68,0,0,0-.081.061Zm-72-17.584.132.1A1.461,1.461,0,0,0,6.427,58.222Zm4.548-2.957.077.02Zm-.36-33.472-.023.023.025-.023Zm-.35-2.5Zm6.586-4.779a.739.739,0,0,0,.132.031Zm1.582-.541-.07.072a.881.881,0,0,0,.07-.074Z" transform="translate(-0.1 0)"/></svg>