<svg xmlns="http://www.w3.org/2000/svg" xmlns:xlink="http://www.w3.org/1999/xlink" width="125.765" height="37.265" viewBox="0 0 125.765 37.265">
  <defs>
    <linearGradient id="linear-gradient" x1="-27.028" y1="45.174" x2="-27.028" y2="45.223" gradientUnits="objectBoundingBox">
      <stop offset="0" stop-color="#1a1a1a" stop-opacity="0.102"/>
      <stop offset="0.123" stop-color="#212121" stop-opacity="0.153"/>
      <stop offset="0.308" stop-color="#353535" stop-opacity="0.227"/>
      <stop offset="0.532" stop-color="#575757" stop-opacity="0.318"/>
      <stop offset="0.783" stop-color="#858585" stop-opacity="0.42"/>
      <stop offset="1" stop-color="#b3b3b3" stop-opacity="0.51"/>
    </linearGradient>
  </defs>
  <g id="Group_329" data-name="Group 329" transform="translate(-1708.396 -826.143)">
    <g id="Group_328" data-name="Group 328">
      <path id="Path_1188" data-name="Path 1188" d="M1833.327,859.007a3.569,3.569,0,0,1-3.57,3.569H1712.8a3.574,3.574,0,0,1-3.579-3.569V830.546a3.58,3.58,0,0,1,3.579-3.574h116.948a3.574,3.574,0,0,1,3.574,3.573h0v28.461Z" fill="none"/>
      <path id="Path_1189" data-name="Path 1189" d="M1829.753,863.407H1712.8a4.408,4.408,0,0,1-4.408-4.4v-28.46a4.41,4.41,0,0,1,4.408-4.4h116.948a4.413,4.413,0,0,1,4.408,4.4v28.46a4.408,4.408,0,0,1-4.407,4.4Z" fill="none"/>
      <path id="Path_1190" data-name="Path 1190" d="M1833.327,859.007a3.569,3.569,0,0,1-3.57,3.569H1712.8a3.574,3.574,0,0,1-3.579-3.569V830.546a3.58,3.58,0,0,1,3.579-3.574h116.948a3.574,3.574,0,0,1,3.574,3.573h0v28.461Z"/>
      <path id="Path_1191" data-name="Path 1191" d="M1736.478,844.579a5.4,5.4,0,0,1,2.574-4.533,5.538,5.538,0,0,0-4.359-2.356c-1.833-.192-3.612,1.1-4.546,1.1-.952,0-2.391-1.078-3.941-1.046a5.8,5.8,0,0,0-4.884,2.978c-2.112,3.656-.537,9.028,1.487,11.983,1.012,1.448,2.2,3.063,3.743,3.006,1.515-.062,2.081-.965,3.908-.965,1.811,0,2.343.965,3.922.928,1.625-.025,2.649-1.453,3.626-2.913a11.979,11.979,0,0,0,1.658-3.377,5.225,5.225,0,0,1-3.188-4.8Zm-2.983-8.832a5.321,5.321,0,0,0,1.218-3.811,5.417,5.417,0,0,0-3.5,1.812,5.056,5.056,0,0,0-1.249,3.669,4.475,4.475,0,0,0,3.534-1.67Z" fill="#fff"/>
      <path id="Path_1192" data-name="Path 1192" d="M1829.753,826.143h-62.642l24.536,37.264h38.106a4.411,4.411,0,0,0,4.408-4.4V830.547A4.412,4.412,0,0,0,1829.753,826.143Z" fill="url(#linear-gradient)"/>
      <g id="Group_326" data-name="Group 326">
        <path id="Path_1193" data-name="Path 1193" d="M1758.417,855.5H1756.3l-1.16-3.643h-4.03l-1.1,3.643h-2.061l3.994-12.4h2.466l4.012,12.4Zm-3.626-5.171-1.049-3.238q-.166-.5-.625-2.336h-.037q-.184.79-.589,2.336l-1.031,3.238Zm13.877.59a5.06,5.06,0,0,1-1.24,3.6,3.633,3.633,0,0,1-2.757,1.178,2.761,2.761,0,0,1-2.554-1.268v4.692h-1.987V849.5q0-1.433-.074-2.939h1.748l.111,1.417h.037a3.535,3.535,0,0,1,5.659-.351,4.943,4.943,0,0,1,1.057,3.295Zm-2.024.073a3.682,3.682,0,0,0-.59-2.154,2.034,2.034,0,0,0-1.73-.882,2.067,2.067,0,0,0-1.333.487,2.26,2.26,0,0,0-.782,1.279,2.6,2.6,0,0,0-.093.605v1.492a2.394,2.394,0,0,0,.6,1.648,1.986,1.986,0,0,0,1.554.671,2.036,2.036,0,0,0,1.748-.864A3.8,3.8,0,0,0,1766.644,850.992Zm12.312-.073a5.06,5.06,0,0,1-1.24,3.6,3.635,3.635,0,0,1-2.758,1.178,2.76,2.76,0,0,1-2.554-1.268v4.692h-1.987V849.5q0-1.433-.074-2.939h1.748l.111,1.417h.037a3.537,3.537,0,0,1,5.66-.351,4.954,4.954,0,0,1,1.057,3.295Zm-2.026.073a3.689,3.689,0,0,0-.59-2.154,2.033,2.033,0,0,0-1.728-.882,2.079,2.079,0,0,0-1.336.487,2.257,2.257,0,0,0-.781,1.279,2.694,2.694,0,0,0-.093.605v1.492a2.4,2.4,0,0,0,.6,1.648,1.993,1.993,0,0,0,1.557.671,2.034,2.034,0,0,0,1.748-.864A3.809,3.809,0,0,0,1776.93,850.992Zm13.528,1.029a3.312,3.312,0,0,1-1.1,2.577,4.888,4.888,0,0,1-3.379,1.085,5.9,5.9,0,0,1-3.212-.772l.46-1.656a5.529,5.529,0,0,0,2.871.774,2.709,2.709,0,0,0,1.747-.506,1.654,1.654,0,0,0,.627-1.352,1.732,1.732,0,0,0-.516-1.27,4.79,4.79,0,0,0-1.711-.956q-3.258-1.215-3.259-3.552a3.135,3.135,0,0,1,1.15-2.5,4.55,4.55,0,0,1,3.047-.976,6.021,6.021,0,0,1,2.815.589l-.5,1.62a4.928,4.928,0,0,0-2.384-.571,2.423,2.423,0,0,0-1.644.516,1.473,1.473,0,0,0-.5,1.124,1.517,1.517,0,0,0,.572,1.214,6.454,6.454,0,0,0,1.8.956,6.106,6.106,0,0,1,2.356,1.508,3.14,3.14,0,0,1,.758,2.15Zm6.587-3.972h-2.191v4.341c0,1.1.386,1.655,1.16,1.655a3.516,3.516,0,0,0,.883-.092l.055,1.509a4.514,4.514,0,0,1-1.546.22,2.383,2.383,0,0,1-1.841-.719,3.521,3.521,0,0,1-.662-2.41v-4.508h-1.3v-1.491h1.3v-1.637l1.951-.589v2.226h2.191v1.495Zm9.863,2.906a4.9,4.9,0,0,1-1.178,3.386,4.2,4.2,0,0,1-3.275,1.361,4.006,4.006,0,0,1-3.139-1.3,4.759,4.759,0,0,1-1.169-3.294,4.865,4.865,0,0,1,1.206-3.4,4.178,4.178,0,0,1,3.249-1.325,4.084,4.084,0,0,1,3.164,1.307,4.689,4.689,0,0,1,1.142,3.272Zm-2.06.046a4.006,4.006,0,0,0-.532-2.11,1.968,1.968,0,0,0-1.786-1.065,2,2,0,0,0-1.822,1.065,4.071,4.071,0,0,0-.533,2.147,3.993,3.993,0,0,0,.533,2.111,2.038,2.038,0,0,0,3.591-.018,4.012,4.012,0,0,0,.549-2.13Zm8.522-2.7a3.456,3.456,0,0,0-.626-.055,1.877,1.877,0,0,0-1.62.792,2.983,2.983,0,0,0-.5,1.766V855.5h-1.987v-6.126q0-1.409-.058-2.815h1.731l.073,1.711h.055a3.07,3.07,0,0,1,.993-1.418,2.409,2.409,0,0,1,1.437-.479,3.12,3.12,0,0,1,.5.037v1.9Zm8.888,2.3a4.624,4.624,0,0,1-.073.9h-5.961a2.592,2.592,0,0,0,.865,2.026,2.96,2.96,0,0,0,1.95.624,6.6,6.6,0,0,0,2.412-.422l.311,1.378a7.455,7.455,0,0,1-3,.553,4.345,4.345,0,0,1-3.268-1.223,4.517,4.517,0,0,1-1.187-3.284,5.115,5.115,0,0,1,1.106-3.365,3.8,3.8,0,0,1,3.127-1.435,3.333,3.333,0,0,1,2.928,1.435,4.827,4.827,0,0,1,.788,2.812Zm-1.9-.515a2.688,2.688,0,0,0-.386-1.528,1.736,1.736,0,0,0-1.582-.829,1.882,1.882,0,0,0-1.582.81,2.961,2.961,0,0,0-.588,1.545l4.138,0Z" fill="#fff"/>
      </g>
      <g id="Group_327" data-name="Group 327">
        <path id="Path_1194" data-name="Path 1194" d="M1750.537,838.714a12.87,12.87,0,0,1-1.429-.072v-6a10.767,10.767,0,0,1,1.682-.126c2.279,0,3.329,1.121,3.329,2.948C1754.119,837.576,1752.879,838.714,1750.537,838.714Zm.334-5.426a3.964,3.964,0,0,0-.787.064v4.557a5.093,5.093,0,0,0,.66.027,2.159,2.159,0,0,0,2.343-2.441A1.989,1.989,0,0,0,1750.871,833.288Zm6.519,5.472a2.092,2.092,0,0,1-2.117-2.261,2.141,2.141,0,0,1,2.189-2.324,2.076,2.076,0,0,1,2.117,2.253,2.153,2.153,0,0,1-2.189,2.332Zm.037-3.871c-.706,0-1.158.66-1.158,1.583,0,.9.462,1.564,1.149,1.564s1.148-.705,1.148-1.583c0-.9-.452-1.564-1.139-1.564Zm9.477-.623-1.375,4.394h-.9l-.57-1.908q-.211-.7-.353-1.419h-.018a9.464,9.464,0,0,1-.353,1.419l-.606,1.908h-.905l-1.293-4.394h1l.5,2.089c.118.5.216.967.3,1.411h.019a14.456,14.456,0,0,1,.362-1.4l.624-2.1h.8l.6,2.053c.144.5.262.986.353,1.447h.026a12.571,12.571,0,0,1,.3-1.447l.534-2.053Zm5.061,4.394h-.977v-2.523c0-.777-.3-1.167-.886-1.167a1.015,1.015,0,0,0-.977,1.077v2.613h-.977v-3.138c0-.389-.009-.8-.036-1.257h.859l.046.678h.027a1.581,1.581,0,0,1,1.393-.768c.923,0,1.529.706,1.529,1.854v2.631Zm2.694,0h-.978v-6.411h.978Zm3.561.1a2.093,2.093,0,0,1-2.117-2.261,2.141,2.141,0,0,1,2.189-2.324,2.076,2.076,0,0,1,2.117,2.253,2.153,2.153,0,0,1-2.189,2.332Zm.036-3.871c-.7,0-1.157.66-1.157,1.583,0,.9.462,1.564,1.147,1.564s1.149-.705,1.149-1.583c0-.9-.451-1.564-1.139-1.564Zm6,3.771-.071-.506h-.026a1.5,1.5,0,0,1-1.285.606,1.278,1.278,0,0,1-1.347-1.293c0-1.085.94-1.646,2.569-1.646v-.081c0-.579-.307-.868-.913-.868a2.06,2.06,0,0,0-1.148.326l-.2-.642a2.808,2.808,0,0,1,1.509-.381c1.149,0,1.729.606,1.729,1.819v1.618a6.613,6.613,0,0,0,.063,1.049Zm-.134-2.188c-1.085,0-1.629.262-1.629.886a.622.622,0,0,0,.67.686.935.935,0,0,0,.959-.894Zm5.7,2.188-.046-.7h-.027a1.473,1.473,0,0,1-1.411.8,2,2,0,0,1-1.844-2.243,2.085,2.085,0,0,1,1.924-2.343,1.322,1.322,0,0,1,1.24.6h.02v-2.523h.977v5.227c0,.425.011.823.037,1.184Zm-.144-2.585a1.064,1.064,0,0,0-1.029-1.14c-.725,0-1.167.642-1.167,1.546,0,.886.459,1.493,1.147,1.493a1.1,1.1,0,0,0,1.049-1.167v-.732Zm7.177,2.685a2.092,2.092,0,0,1-2.116-2.261,2.141,2.141,0,0,1,2.188-2.324,2.075,2.075,0,0,1,2.117,2.253,2.152,2.152,0,0,1-2.189,2.332Zm.036-3.871c-.7,0-1.157.66-1.157,1.583,0,.9.462,1.564,1.148,1.564s1.148-.705,1.148-1.583c0-.9-.45-1.564-1.139-1.564Zm7.407,3.771h-.978v-2.523c0-.777-.3-1.167-.887-1.167a1.015,1.015,0,0,0-.976,1.077v2.613h-.977v-3.138c0-.389-.01-.8-.037-1.257h.86l.045.678h.027a1.58,1.58,0,0,1,1.393-.769c.923,0,1.53.706,1.53,1.854Zm6.572-3.662h-1.075v2.134c0,.544.188.815.569.815a1.927,1.927,0,0,0,.433-.046l.027.742a2.181,2.181,0,0,1-.758.109c-.77,0-1.23-.425-1.23-1.538V835h-.641v-.732h.641v-.8l.959-.29v1.094h1.075V835Zm5.171,3.662h-.976v-2.5c0-.787-.3-1.185-.886-1.185a.958.958,0,0,0-.978,1.04v2.649h-.976v-6.411h.976v2.64h.02a1.481,1.481,0,0,1,1.321-.715c.931,0,1.5.724,1.5,1.873v2.613Zm5.3-1.962h-2.931a1.261,1.261,0,0,0,1.385,1.3,3.3,3.3,0,0,0,1.184-.208l.152.678a3.663,3.663,0,0,1-1.474.271,2.04,2.04,0,0,1-2.189-2.214,2.147,2.147,0,0,1,2.079-2.361,1.846,1.846,0,0,1,1.828,2.089,1.878,1.878,0,0,1-.034.443Zm-.9-.7c0-.679-.342-1.157-.966-1.157a1.158,1.158,0,0,0-1.068,1.157Z" fill="#fff"/>
      </g>
    </g>
  </g>
</svg>
