<svg id="Layer_1" data-name="Layer 1" xmlns="http://www.w3.org/2000/svg" xmlns:xlink="http://www.w3.org/1999/xlink" viewBox="0 0 15 58"><defs><style>.cls-1{fill:none;}.cls-2{clip-path:url(#clip-path);}.cls-3{fill:#f9a533;stroke:#f9a533;}.cls-4{clip-path:url(#clip-path-2);}.cls-5{fill:#0a56bb;stroke:#0a56bb;}</style><clipPath id="clip-path"><rect class="cls-1" x="0.05" y="8.04" width="14.9" height="11.93"/></clipPath><clipPath id="clip-path-2"><rect class="cls-1" x="0.05" y="38.04" width="14.9" height="11.93"/></clipPath></defs><title>arrow</title><rect class="cls-1" width="15" height="58"/><g class="cls-2"><g id="Symbol_4_772" data-name="Symbol 4 772"><g id="Group_2176" data-name="Group 2176"><g id="Group_2177" data-name="Group 2177"><path id="Path_4138" data-name="Path 4138" class="cls-3" d="M14.45,16.12a.61.61,0,0,1-.64.38c-3.78,0-7.55,0-11.33,0H2.32l0,0,.11.08,1.94,1.94a.52.52,0,0,1,0,.73.5.5,0,0,1-.73,0l0,0L2,17.67.71,16.39a.53.53,0,0,1,0-.73.58.58,0,0,1,.25-.15.28.28,0,0,1,.13,0H13.81a.59.59,0,0,1,.64.38Z"/><path id="Path_4139" data-name="Path 4139" class="cls-3" d="M14.45,12.13a.56.56,0,0,1-.6.39H1.15c-.34,0-.53-.14-.58-.41a.5.5,0,0,1,.4-.57H12.72l-.11-.12-2-2a.52.52,0,0,1,0-.73.54.54,0,0,1,.26-.16.48.48,0,0,1,.48.13l3,3a.69.69,0,0,1,.15.28Z"/></g></g></g></g><g class="cls-4"><g id="Symbol_4_772-2" data-name="Symbol 4 772"><g id="Group_2176-2" data-name="Group 2176"><g id="Group_2177-2" data-name="Group 2177"><path id="Path_4138-2" data-name="Path 4138" class="cls-5" d="M14.45,46.12a.61.61,0,0,1-.64.38H2.32l0,0,.11.08c.65.65,1.3,1.29,1.94,1.94a.52.52,0,0,1,0,.73.5.5,0,0,1-.73,0l0,0L2,47.67.71,46.39a.53.53,0,0,1,0-.73.58.58,0,0,1,.25-.15.28.28,0,0,1,.13,0H13.81a.59.59,0,0,1,.64.38Z"/><path id="Path_4139-2" data-name="Path 4139" class="cls-5" d="M14.45,42.13a.56.56,0,0,1-.6.39H1.15c-.34,0-.53-.14-.58-.41a.5.5,0,0,1,.4-.57H12.72l-.11-.12-2-2a.52.52,0,0,1,0-.73.54.54,0,0,1,.26-.16.48.48,0,0,1,.48.13l3,3a.69.69,0,0,1,.15.28Z"/></g></g></g></g></svg>