<svg xmlns="http://www.w3.org/2000/svg" viewBox="0 0 256 256"><defs><style>.cls-1{isolation:isolate;}.cls-2{fill:#c2af30;}.cls-3{fill:#fff;}.cls-4{mix-blend-mode:soft-light;}.cls-5,.cls-6{fill:#005b75;}.cls-5{stroke:#fff;stroke-linejoin:round;stroke-width:3px;}.cls-7{fill:#939598;}</style></defs><title>Authorize-net</title><g class="cls-1"><g id="Layer_1" data-name="Layer 1"><path class="cls-2" d="M122,231.73v-8c-1.6-.1-3.22-.24-4.82-.42l-1.4,7.88-11.76-2.08,1.4-7.86c-2.46-.59-4.91-1.29-7.31-2.07l-3,7.41-11.1-4.42,3-7.41c-2.31-1.1-4.57-2.28-6.73-3.52l-4.39,6.67-10-6.57,4.4-6.68c-2-1.49-4-3.11-5.87-4.81L58.8,205.5l-8.44-8.45L56,191.39c-1.7-1.92-3.31-3.9-4.8-5.88l-6.68,4.38-6.55-10,6.67-4.38c-1.23-2.15-2.4-4.42-3.5-6.74l-7.42,2.93-4.4-11.1,7.43-2.94c-.79-2.41-1.48-4.86-2.06-7.31l-7.87,1.38L24.79,140l7.88-1.38c-.27-2.52-.45-5.07-.53-7.57l-8-.24.36-11.94,8,.24c.24-2.54.57-5.07,1-7.52l-7.77-1.86L28.5,98.09,36.26,100c.74-2.44,1.59-4.85,2.51-7.17l-7.23-3.39,5.07-10.81L43.84,82c1.19-2.17,2.51-4.36,3.91-6.5l-6.4-4.79L48.5,61.1l6.41,4.8c1.67-2,3.39-3.83,5.14-5.59l-5.31-6,8.94-7.92,5.31,6c2-1.53,4-3,6.16-4.43l-4-6.94,10.36-6,4,6.93c2.3-1.14,4.63-2.18,6.94-3.1L90,31.32l11.34-3.73,2.5,7.59c1.09-.29,2.24-.56,3.41-.82L106,26.47l11.8-1.86,1.25,7.9c1-.09,2-.17,3-.23v-8H134v8c1.6.1,3.22.24,4.82.42l1.4-7.88L152,26.9l-1.4,7.86c2.46.59,4.92,1.29,7.31,2.07l2.95-7.41,11.1,4.42L169,41.25c2.31,1.1,4.57,2.28,6.73,3.52l4.39-6.67,10,6.57-4.4,6.68c2,1.49,4,3.11,5.87,4.81l5.67-5.66L205.64,59,200,64.61c1.7,1.92,3.31,3.9,4.8,5.88l6.68-4.38,6.55,10-6.67,4.38c1.23,2.15,2.4,4.42,3.5,6.74l7.42-2.93,4.4,11.1-7.43,2.94c.79,2.41,1.48,4.86,2.06,7.31l7.87-1.38L231.21,116l-7.88,1.38c.27,2.53.45,5.07.53,7.57l8,.24-.36,11.94-8-.24c-.24,2.54-.57,5.07-1,7.52l7.77,1.86-2.78,11.62-7.76-1.86c-.74,2.43-1.58,4.84-2.51,7.17l7.23,3.39-5.07,10.81L212.16,174c-1.19,2.17-2.51,4.36-3.91,6.5l6.4,4.79-7.15,9.57-6.41-4.8c-1.67,2-3.39,3.83-5.14,5.59l5.31,6-8.94,7.92-5.31-6c-1.95,1.53-4,3-6.16,4.43l4,6.94-10.36,6-4-6.93c-2.3,1.14-4.63,2.18-6.94,3.1l2.49,7.58-11.34,3.73-2.5-7.59c-1.09.29-2.24.56-3.41.82l1.25,7.89-11.8,1.86-1.25-7.9c-1,.09-2,.17-3,.23v8Z"/><path class="cls-3" d="M133.7,24.55v8c1.78.11,3.56.26,5.32.47l1.39-7.87,11.22,2L150.24,35c2.64.62,5.23,1.36,7.78,2.2l2.95-7.4L171.56,34l-2.95,7.4q3.67,1.72,7.17,3.74l4.38-6.65,9.52,6.27-4.39,6.66q3.24,2.43,6.25,5.12l5.66-5.65L205.25,59,199.6,64.6c1.78,2,3.49,4.1,5.1,6.26l6.67-4.38L217.63,76,211,80.39q2,3.49,3.73,7.17l7.41-2.93,4.19,10.6-7.4,2.93c.83,2.55,1.57,5.14,2.19,7.78l7.85-1.37,2,11.23L223,117.17q.45,4,.57,8.06l8,.25-.35,11.39-8-.24q-.36,4.05-1.06,8l7.76,1.85-2.65,11.09-7.75-1.85c-.78,2.59-1.67,5.14-2.66,7.63l7.21,3.38-4.84,10.32L212,173.68q-1.93,3.56-4.16,6.93l6.39,4.78-6.83,9.12-6.4-4.78c-1.74,2.06-3.56,4.05-5.47,6l5.3,6-8.53,7.55-5.29-6q-3.18,2.49-6.57,4.72l4,6.92-9.89,5.67-4-6.91c-2.4,1.2-4.86,2.31-7.38,3.3l2.49,7.57-10.83,3.55-2.49-7.56c-1.29.33-2.59.65-3.9.93l1.24,7.88-11.25,1.77-1.25-7.89c-1.17.12-2.35.21-3.53.28v8H122.3v-8c-1.78-.11-3.56-.26-5.32-.47l-1.39,7.87-11.22-2,1.39-7.85c-2.64-.62-5.23-1.36-7.78-2.2l-3,7.4L84.44,222l3-7.4q-3.67-1.73-7.17-3.74l-4.38,6.65-9.52-6.27,4.39-6.66q-3.24-2.43-6.25-5.12l-5.66,5.65-8-8.07,5.65-5.65c-1.78-2-3.49-4.1-5.1-6.26l-6.67,4.38L38.37,180,45,175.61q-2-3.5-3.73-7.17l-7.41,2.93-4.19-10.6,7.4-2.93c-.83-2.55-1.57-5.14-2.19-7.78l-7.85,1.37-2-11.23L33,138.83q-.45-4-.57-8.06l-8-.25.35-11.39,8,.24q.36-4.05,1.06-8l-7.76-1.85L28.7,98.42l7.75,1.85c.78-2.59,1.67-5.14,2.66-7.63L31.9,89.26l4.84-10.32L44,82.32q1.95-3.55,4.17-6.93l-6.39-4.78,6.83-9.12L55,66.27c1.74-2.06,3.56-4,5.47-5.95l-5.3-6,8.53-7.55,5.29,6q3.18-2.49,6.57-4.72l-4-6.92,9.89-5.67,4,6.91c2.4-1.2,4.86-2.31,7.38-3.3l-2.49-7.57,10.83-3.55,2.49,7.56c1.29-.33,2.59-.65,3.9-.93l-1.24-7.88,11.25-1.77,1.25,7.89c1.17-.12,2.35-.21,3.53-.28v-8h11.4m.54-.55H121.76v8c-.86.06-1.71.12-2.53.2l-1.17-7.39L118,24.3l-.54.08-11.26,1.78-.54.08.09.54,1.16,7.37c-1,.22-2,.45-2.92.7l-2.33-7.08-.17-.52-.52.17L90.12,31l-.52.17.17.51,2.33,7.08c-2.16.87-4.34,1.85-6.49,2.9L81.9,35.17l-.27-.47-.47.27-9.89,5.68-.47.27.27.47,3.72,6.48c-2,1.33-3.94,2.72-5.77,4.14l-5-5.59-.36-.4-.41.36-8.53,7.56-.41.36.36.41,5,5.59C58,62,56.43,63.7,54.87,65.53l-6-4.48-.43-.33-.33.44-6.83,9.13-.32.43.44.33,6,4.47c-1.31,2-2.54,4-3.67,6.09L37,78.45l-.49-.24-.23.5L31.41,89l-.23.49.49.23,6.75,3.17c-.86,2.18-1.64,4.43-2.34,6.7l-7.25-1.73-.53-.12-.13.53-2.65,11.08-.13.53.54.13,7.25,1.73c-.39,2.3-.7,4.66-.92,7l-7.47-.23h-.55l0,.54-.35,11.4v.54l.54,0,7.47.23c.08,2.33.25,4.71.51,7.08L25,139.67l-.54.09.09.54,2,11.23.09.53.54-.09,7.34-1.29c.55,2.29,1.2,4.58,1.93,6.84l-6.93,2.75-.51.2.2.5,4.2,10.6.2.51.5-.2L41,169.13c1,2.17,2.12,4.29,3.27,6.31l-6.23,4.09-.46.3.3.46,6.25,9.52.3.46.46-.3,6.24-4.1c1.4,1.86,2.91,3.71,4.49,5.51l-5.3,5.28-.38.39.38.38,8,8.07.39.39.39-.39,5.29-5.28c1.8,1.58,3.64,3.09,5.49,4.5L65.87,211l-.31.46.46.3L75.54,218l.45.3.3-.46,4.11-6.22c2,1.15,4.14,2.26,6.3,3.28l-2.76,6.93-.2.51.5.2,10.59,4.21.51.21.2-.51,2.76-6.93c2.24.73,4.54,1.38,6.83,1.94l-1.3,7.35-.09.53.54.1,11.22,2,.54.1.09-.54,1.3-7.36c1.44.16,2.89.29,4.33.38v8h12.48v-8c.86-.06,1.71-.12,2.53-.2l1.17,7.39.08.53.54-.08,11.26-1.78.54-.08-.09-.54-1.16-7.37c1-.22,2-.45,2.92-.7l2.33,7.08.17.52.52-.17L165.88,225l.52-.17-.17-.51-2.33-7.08c2.16-.87,4.34-1.85,6.49-2.9l3.71,6.47.27.47.47-.27,9.89-5.68.47-.27-.27-.47-3.72-6.48c2-1.33,3.94-2.72,5.77-4.14l5,5.59.36.4.41-.36,8.53-7.56.41-.36-.36-.41-5-5.59c1.64-1.65,3.25-3.41,4.81-5.23l6,4.48.43.33.33-.44,6.83-9.13.32-.43-.44-.33-6-4.47c1.31-2,2.54-4,3.67-6.09l6.75,3.16.49.24.23-.5L224.59,167l.23-.49-.49-.23-6.75-3.17c.86-2.18,1.64-4.43,2.34-6.7l7.25,1.73.53.12.13-.53,2.65-11.08.13-.53-.54-.13-7.25-1.73c.39-2.3.7-4.66.92-7l7.47.23h.55l0-.54.35-11.4V125l-.54,0-7.47-.23c-.08-2.33-.25-4.71-.51-7.08l7.36-1.29.54-.09-.09-.54-2-11.23-.09-.53-.54.09-7.34,1.29c-.55-2.29-1.2-4.58-1.93-6.84l6.93-2.75.51-.2-.2-.5-4.2-10.6-.2-.51-.5.2L215,86.87c-1-2.17-2.12-4.29-3.27-6.31l6.23-4.09.46-.3-.3-.46-6.25-9.52-.3-.46-.46.3-6.24,4.1c-1.4-1.86-2.91-3.71-4.49-5.51l5.3-5.28L206,59l-.38-.38-8-8.07-.39-.39-.39.39-5.29,5.28c-1.8-1.58-3.64-3.09-5.49-4.5l4.1-6.23.31-.46-.46-.3L180.46,38l-.45-.3-.3.46L175.6,44.4c-2-1.15-4.14-2.26-6.3-3.28l2.76-6.93.2-.51-.5-.2-10.59-4.21-.51-.21-.2.51L157.7,36.5c-2.24-.73-4.54-1.38-6.83-1.94l1.3-7.35.09-.53-.54-.1-11.22-2-.54-.1-.09.54-1.3,7.36c-1.44-.16-2.89-.29-4.33-.38V24Z"/><path class="cls-3" d="M53.69,174.28l16.92-13.21,2.58,3.31L64.3,177.69l-1.89,2.74c.78-.29,1.91-.7,3.41-1.23L80.71,174,83,177,66.11,190.18l-1.66-2.12L78.6,177l-17.94,6.2-1.55-2,10.62-16.07L55.34,176.4Z"/><path class="cls-3" d="M72.61,195.8l12.25-17.63,12.54,8.72L96,189l-10.25-7.12L82,187.23l9.59,6.67L90.12,196l-9.6-6.67-4.17,6L87,202.72l-1.44,2.08Z"/><path class="cls-3" d="M92.36,208.25l6.88-20.33,8.87,3a11.54,11.54,0,0,1,3.91,2,5,5,0,0,1,1.54,2.62,6,6,0,0,1-.19,3.36,5.28,5.28,0,0,1-2.71,3.24,7.58,7.58,0,0,1-4.8.4,7.1,7.1,0,0,1,1.32,1.71,15.47,15.47,0,0,1,1.2,3.3l1.62,6.71-3.33-1.12L105.44,208a28.4,28.4,0,0,0-1.21-4.13,4.65,4.65,0,0,0-1.14-1.68,6.16,6.16,0,0,0-2-1l-3.06-1-3,9Zm6.49-10.46,5.69,1.92a8.81,8.81,0,0,0,3,.59,3.58,3.58,0,0,0,1.93-.66,3.33,3.33,0,0,0,1.2-1.69,3.1,3.1,0,0,0-.26-2.78,5.33,5.33,0,0,0-2.92-2l-6.32-2.14Z"/><path class="cls-3" d="M131.82,208.13l2.79.82a9.6,9.6,0,0,1-3.45,5.28,9.1,9.1,0,0,1-5.72,1.58,10,10,0,0,1-5-1.37,8.8,8.8,0,0,1-3.27-3.95,13.79,13.79,0,0,1-1.11-6.27,12.34,12.34,0,0,1,1.54-5.95,9,9,0,0,1,3.72-3.58,10.38,10.38,0,0,1,5.11-1.08,8.73,8.73,0,0,1,5.2,1.77,8.3,8.3,0,0,1,2.91,4.76l-2.76.56c-.84-3-2.66-4.56-5.49-4.66a7.17,7.17,0,0,0-3.69.77,6.4,6.4,0,0,0-2.57,2.72,11.11,11.11,0,0,0-1.09,4.79q-.15,4.41,1.63,6.68a6.21,6.21,0,0,0,4.88,2.38,6.1,6.1,0,0,0,4-1.22A6.84,6.84,0,0,0,131.82,208.13Z"/><path class="cls-3" d="M141.7,214.81,136.29,194l2.71-.7,2.22,8.53,10.63-2.76-2.22-8.54,2.7-.7,5.41,20.78-2.71.7-2.55-9.79-10.62,2.76,2.54,9.8Z"/><path class="cls-3" d="M163.57,208.45l-4-22.61,2.56-1.53,18.41,14L177.83,200l-5.43-4.34-7.65,4.55L166.1,207Zm.71-10.67,6.18-3.68-4.92-4q-2.28-1.83-3.56-3.06a27.59,27.59,0,0,1,1.1,4.11Z"/><path class="cls-3" d="M185,194.51l-15.61-14.73,2-2.09,19.91,3.51L179,169.61l1.83-1.94,15.62,14.73-2,2.08L174.6,181l12.29,11.59Z"/><path class="cls-3" d="M203.7,170.75,187,161.86,183.71,168l-2.24-1.19L189.33,152l2.24,1.19-3.28,6.18L205,168.28Z"/><path class="cls-3" d="M78.78,86,56,76.22,58,74l16.26,7.45c1.26.58,2.45,1.17,3.58,1.77q-1.1-1.67-2.07-3.42L67.12,64.08,69.05,62,80.72,83.9Z"/><path class="cls-3" d="M87.35,77.32,75.06,57.38l13-8,1.45,2.36L78.89,58.27l3.76,6.09,9.95-6.13,1.45,2.36-10,6.13,4.18,6.78,11-6.8,1.45,2.35Z"/><path class="cls-3" d="M102.92,68.1,96.86,45.48l9-2.42a10.75,10.75,0,0,1,4.36-.49A5.23,5.23,0,0,1,113,44.08a6.85,6.85,0,0,1,1.78,3.18,6,6,0,0,1-.36,4.54A7.3,7.3,0,0,1,110.74,55a7.09,7.09,0,0,1,2.06.79,16.32,16.32,0,0,1,2.9,2.32l5.22,5.2-3.4.91-4-4a29.36,29.36,0,0,0-3.39-3.08,4.67,4.67,0,0,0-1.9-.88,5.77,5.77,0,0,0-2.2.24l-3.12.83,2.69,10Zm-.69-13.36L108,53.19A8,8,0,0,0,110.81,52,3.52,3.52,0,0,0,112,50.27,3.87,3.87,0,0,0,112,48a3.55,3.55,0,0,0-1.83-2.4,4.92,4.92,0,0,0-3.53-.1l-6.45,1.73Z"/><path class="cls-3" d="M123.12,63.87l-1.26-23.38,2.79-.15,1.26,23.38Z"/><path class="cls-3" d="M130,63.41l3-23.22L147.14,42l-.35,2.74-11.37-1.47-.93,7.19,9.83,1.27L144,54.49l-9.83-1.27-1.37,10.55Z"/><path class="cls-3" d="M147,66.51l7.25-22.27,2.66.86-7.25,22.27Z"/><path class="cls-3" d="M153.47,68.38,164.94,48l13.31,7.48-1.35,2.41L166,51.75,162.52,58l10.18,5.72-1.35,2.41-10.19-5.73-3.9,7,11.3,6.36-1.35,2.41Z"/><path class="cls-3" d="M169,77.49l16.8-16.32,5.08,5.24a14.65,14.65,0,0,1,2.56,3.25,7,7,0,0,1,.76,3.71A10.34,10.34,0,0,1,193,77.5a17,17,0,0,1-3.32,4.27A16.05,16.05,0,0,1,184,85.56a8.4,8.4,0,0,1-5.12.37,10.4,10.4,0,0,1-4.5-3Zm3.93.08,3.13,3.23a8.54,8.54,0,0,0,3.46,2.4,5.18,5.18,0,0,0,3.37-.26,14.69,14.69,0,0,0,4.79-3.26A12.16,12.16,0,0,0,191,75a5.52,5.52,0,0,0,0-3.86,10.17,10.17,0,0,0-2.15-2.88L185.8,65.1Z"/><circle class="cls-3" cx="128" cy="128" r="59.34"/><g class="cls-4"><path class="cls-5" d="M16.44,128.65v-1.77c2.68-.43,2.68-1,2.08-3-.42-1.44-1.1-3.6-1.74-5.52H8.5c-.47,1.49-1.07,3.31-1.49,4.8-.89,3,.13,3.41,3.48,3.75v1.77H0v-1.77c2.68-.39,3.36-.82,4.8-4.85L13.64,97.2l2-.44c2.72,8.36,5.61,16.91,8.37,24.93,1.57,4.47,2,4.8,4.72,5.19v1.77Zm-3.74-23c-1.23,3.46-2.42,6.67-3.48,10.18H16Z"/><path class="cls-5" d="M50.63,127.5c-2.55.39-5.27,1-8.07,1.73V126c-1.74,1.64-3.52,3.27-5.86,3.27-3.57,0-5.57-2.59-5.57-6.87v-9.94c0-2.21-.25-2.45-1.4-2.78l-.89-.29v-1.54a78.83,78.83,0,0,0,7.9-.82c-.08,2-.13,4.52-.13,7.26v7c0,3.12,1.41,4.18,2.89,4.18a3.58,3.58,0,0,0,3.06-1.4V112.47c0-2.21-.21-2.59-1.4-2.83l-1.28-.29v-1.54a70,70,0,0,0,8.2-.82v15.66c0,2.5.26,3,1.62,3.17l.93.1Z"/><path class="cls-5" d="M61.42,128.7a4.12,4.12,0,0,1-1.7.53c-3.27,0-5.22-1.73-5.22-6.1v-13.4H51.78l-.26-.57,1.23-1.83H54.5v-4c1.44-1.15,3.52-2.69,5-3.84l.55.39c0,1.29-.13,3.84-.08,7.44h4.24a2.24,2.24,0,0,1-.34,2.4H60V121.5c0,3.74,1.36,4.18,2.16,4.18a4.74,4.74,0,0,0,2-.48l.43,1.73Z"/><path class="cls-5" d="M78.11,128.65V127c1.87-.33,2-.67,2-3.26V115.3c0-3.7-1.36-4.94-3-4.94a4.07,4.07,0,0,0-3.1,1.39v12c0,2.59.22,2.93,2.17,3.26v1.63H66.05V127c2.08-.29,2.46-.43,2.46-3.46V101.33c0-2.21-.25-2.74-2.63-3.17V96.62A39,39,0,0,0,74,95v14.89c1.49-1.64,3.57-3.13,5.74-3.13,3.69,0,5.9,2.74,5.9,8v8.79c0,3,.3,3.08,2.34,3.46v1.63Z"/><path class="cls-5" d="M100.71,106.75c6,0,9.77,5.09,9.77,10.86,0,7.73-4.93,11.62-9.94,11.62-6.41,0-10.07-5.47-10.07-11.09C90.47,110.79,95.83,106.75,100.71,106.75Zm-.51,1.92c-1.83,0-3.61,2.17-3.61,8.07s1.74,10.52,4.42,10.52c1.61,0,3.35-1.25,3.35-8.26C104.36,112.33,102.83,108.67,100.2,108.67Z"/><path class="cls-5" d="M124.28,128.65H113.07V127c2.25-.29,2.46-.53,2.46-3.41V113.09c0-2.4-.17-2.64-2.16-3.12v-1.49a36.54,36.54,0,0,0,7.64-1.82v5.18c1.92-3.31,3.44-5.09,5.19-5.09a2.74,2.74,0,0,1,2.76,2.89,4.75,4.75,0,0,1-2.17,4.08,1.07,1.07,0,0,1-1.32-.24c-.72-.67-1.27-1.44-2-1.44s-1.7.62-2.47,2.45v9.12c0,2.88.3,3,3.27,3.41Z"/><path class="cls-5" d="M131,128.65V127c2.29-.33,2.55-.53,2.55-3.94v-9.36c0-3.22-.22-3.41-2.21-3.7v-1.59a42.17,42.17,0,0,0,7.69-1.72v16.37c0,3.27.16,3.61,2.63,3.94v1.63Zm5-24.87a3.31,3.31,0,0,1-3.06-3.41,3.25,3.25,0,0,1,3.1-3.41,3.19,3.19,0,0,1,3.06,3.41A3.26,3.26,0,0,1,136,103.78Z"/><path class="cls-5" d="M161.41,121.83c-.85,2.69-1.53,5.62-1.91,6.82H144.25l-.56-.81c3.53-6.29,6.38-11.91,9.65-18.3h-2.21c-2.89,0-4,.19-5.78,4.66l-1.44-.58c.55-2.16,1.14-5,1.57-7.39h1c.3.81.93,1.1,2.59,1.1h10.66l.43.67c-3.28,6.34-6.21,12.06-9.43,18.49h2.71c3,0,4.42-.62,6.59-5.23Z"/><path class="cls-5" d="M179.8,124c-2.59,4.32-6,5.28-7.77,5.28-5.7,0-8.92-4.75-8.92-10.47a13.48,13.48,0,0,1,3.18-8.64,9,9,0,0,1,6.63-3.37c4.16,0,7.05,3.89,7,7.83,0,.82-.05,1.64-.56,1.78-.8.24-6.79.58-10.91.77.17,5.09,2.67,7.68,5.73,7.68a6.84,6.84,0,0,0,4.84-2.16Zm-7.73-15.23c-1.7,0-3.15,2.26-3.4,6l5.14-.14c.59,0,.85-.14.85-1C174.7,111.27,173.72,108.72,172.07,108.72Z"/><path class="cls-5" d="M186.55,129.23c-2,0-3.44-1.68-3.44-4s1.45-4,3.44-4,3.48,1.68,3.48,4S188.59,129.23,186.55,129.23Z"/><path class="cls-5" d="M223,99.21c-2.59.39-3.4,1-3.53,3.17-.12,1.88-.25,3.51-.25,7.69v19.11h-2.38l-17.71-24V116c0,4.18.08,6,.21,7.45.17,2.11,1.06,3.22,4.2,3.41v1.77H193.05v-1.77c2.42-.24,3.48-1,3.74-3.22A73.47,73.47,0,0,0,197,116V104.64a6.31,6.31,0,0,0-.89-3.89c-.76-1.2-1.78-1.34-3.57-1.54V97.44h8.29l16.18,21.27v-8.64c0-4.18,0-5.77-.17-7.54-.13-2.07-.81-3.08-4.33-3.32V97.44H223Z"/><path class="cls-5" d="M241,124c-2.6,4.32-6,5.28-7.78,5.28-5.69,0-8.92-4.75-8.92-10.47a13.43,13.43,0,0,1,3.19-8.64,9,9,0,0,1,6.62-3.37c4.17,0,7.06,3.89,7,7.83,0,.82,0,1.64-.55,1.78-.81.24-6.8.58-10.92.77.17,5.09,2.68,7.68,5.74,7.68a6.86,6.86,0,0,0,4.84-2.16Zm-7.74-15.23c-1.69,0-3.14,2.26-3.39,6l5.14-.14c.59,0,.85-.14.85-1C235.91,111.27,234.93,108.72,233.27,108.72Z"/><path class="cls-5" d="M252.81,128.7a4.12,4.12,0,0,1-1.7.53c-3.27,0-5.22-1.73-5.22-6.1v-13.4h-2.72l-.25-.57,1.23-1.83h1.74v-4c1.44-1.15,3.53-2.69,5-3.84l.55.39c0,1.29-.12,3.84-.08,7.44h4.25a2.28,2.28,0,0,1-.34,2.4h-3.91V121.5c0,3.74,1.36,4.18,2.17,4.18a4.77,4.77,0,0,0,2-.48l.42,1.73Z"/></g><path class="cls-6" d="M16.44,128.65v-1.77c2.68-.43,2.68-1,2.08-3-.42-1.44-1.1-3.6-1.74-5.52H8.5c-.47,1.49-1.07,3.31-1.49,4.8-.89,3,.13,3.41,3.48,3.75v1.77H0v-1.77c2.68-.39,3.36-.82,4.8-4.85L13.64,97.2l2-.44c2.72,8.36,5.61,16.91,8.37,24.93,1.57,4.47,2,4.8,4.72,5.19v1.77Zm-3.74-23c-1.23,3.46-2.42,6.67-3.48,10.18H16Z"/><path class="cls-6" d="M50.63,127.5c-2.55.39-5.27,1-8.07,1.73V126c-1.74,1.64-3.52,3.27-5.86,3.27-3.57,0-5.57-2.59-5.57-6.87v-9.94c0-2.21-.25-2.45-1.4-2.78l-.89-.29v-1.54a78.83,78.83,0,0,0,7.9-.82c-.08,2-.13,4.52-.13,7.26v7c0,3.12,1.41,4.18,2.89,4.18a3.58,3.58,0,0,0,3.06-1.4V112.47c0-2.21-.21-2.59-1.4-2.83l-1.28-.29v-1.54a70,70,0,0,0,8.2-.82v15.66c0,2.5.26,3,1.62,3.17l.93.1Z"/><path class="cls-6" d="M61.42,128.7a4.12,4.12,0,0,1-1.7.53c-3.27,0-5.22-1.73-5.22-6.1v-13.4H51.78l-.26-.57,1.23-1.83H54.5v-4c1.44-1.15,3.52-2.69,5-3.84l.55.39c0,1.29-.13,3.84-.08,7.44h4.24a2.24,2.24,0,0,1-.34,2.4H60V121.5c0,3.74,1.36,4.18,2.16,4.18a4.74,4.74,0,0,0,2-.48l.43,1.73Z"/><path class="cls-6" d="M78.11,128.65V127c1.87-.33,2-.67,2-3.26V115.3c0-3.7-1.36-4.94-3-4.94a4.08,4.08,0,0,0-3.1,1.39v12c0,2.59.22,2.93,2.17,3.26v1.63H66.05V127c2.08-.29,2.46-.43,2.46-3.46V101.33c0-2.21-.25-2.74-2.63-3.17V96.62A39,39,0,0,0,74,95v14.89c1.49-1.64,3.57-3.13,5.74-3.13,3.69,0,5.9,2.74,5.9,8v8.79c0,3,.3,3.08,2.34,3.46v1.63Z"/><path class="cls-6" d="M100.71,106.75c6,0,9.77,5.09,9.77,10.86,0,7.73-4.93,11.62-9.94,11.62-6.41,0-10.07-5.47-10.07-11.09C90.47,110.79,95.83,106.75,100.71,106.75Zm-.51,1.92c-1.83,0-3.61,2.17-3.61,8.07s1.74,10.52,4.42,10.52c1.61,0,3.35-1.25,3.35-8.26C104.36,112.33,102.83,108.67,100.2,108.67Z"/><path class="cls-6" d="M124.28,128.65H113.07V127c2.25-.29,2.46-.53,2.46-3.41V113.09c0-2.4-.17-2.64-2.16-3.12v-1.49a36.54,36.54,0,0,0,7.64-1.82v5.18c1.92-3.31,3.44-5.09,5.19-5.09a2.74,2.74,0,0,1,2.76,2.89,4.75,4.75,0,0,1-2.17,4.08,1.07,1.07,0,0,1-1.32-.24c-.72-.67-1.27-1.44-2-1.44s-1.7.62-2.47,2.45v9.12c0,2.88.3,3,3.27,3.41Z"/><path class="cls-6" d="M131,128.65V127c2.29-.33,2.55-.53,2.55-3.94v-9.36c0-3.22-.22-3.41-2.21-3.7v-1.59a42.17,42.17,0,0,0,7.69-1.72v16.37c0,3.27.16,3.61,2.63,3.94v1.63Zm5-24.87a3.31,3.31,0,0,1-3.06-3.41,3.25,3.25,0,0,1,3.1-3.41,3.19,3.19,0,0,1,3.06,3.41A3.26,3.26,0,0,1,136,103.78Z"/><path class="cls-6" d="M161.41,121.83c-.85,2.69-1.53,5.62-1.91,6.82H144.25l-.56-.81c3.53-6.29,6.38-11.91,9.65-18.3h-2.21c-2.89,0-4,.19-5.78,4.66l-1.44-.58c.55-2.16,1.14-5,1.57-7.39h1c.3.81.93,1.1,2.59,1.1h10.66l.43.67c-3.27,6.34-6.21,12.06-9.43,18.49h2.71c3,0,4.42-.62,6.59-5.23Z"/><path class="cls-6" d="M179.8,124c-2.59,4.32-6,5.28-7.77,5.28-5.7,0-8.92-4.75-8.92-10.47a13.48,13.48,0,0,1,3.18-8.64,9,9,0,0,1,6.63-3.37c4.16,0,7.05,3.89,7,7.83,0,.82-.05,1.64-.56,1.78-.8.24-6.79.58-10.91.77.17,5.09,2.67,7.68,5.73,7.68a6.84,6.84,0,0,0,4.84-2.16Zm-7.73-15.23c-1.7,0-3.14,2.26-3.4,6l5.14-.14c.59,0,.85-.14.85-1C174.7,111.27,173.72,108.72,172.07,108.72Z"/><path class="cls-6" d="M186.55,129.23c-2,0-3.44-1.68-3.44-4s1.45-4,3.44-4,3.48,1.68,3.48,4S188.59,129.23,186.55,129.23Z"/><path class="cls-6" d="M223,99.21c-2.59.39-3.4,1-3.53,3.17-.12,1.88-.25,3.51-.25,7.69v19.11h-2.38l-17.71-24V116c0,4.18.08,6,.21,7.45.17,2.11,1.06,3.22,4.2,3.41v1.77H193.05v-1.77c2.42-.24,3.48-1,3.74-3.22A73.47,73.47,0,0,0,197,116V104.64a6.31,6.31,0,0,0-.89-3.89c-.76-1.2-1.78-1.34-3.57-1.54V97.44h8.29l16.18,21.27v-8.64c0-4.18,0-5.77-.17-7.54-.13-2.07-.81-3.08-4.33-3.32V97.44H223Z"/><path class="cls-6" d="M241,124c-2.6,4.32-6,5.28-7.78,5.28-5.69,0-8.92-4.75-8.92-10.47a13.43,13.43,0,0,1,3.19-8.64,9,9,0,0,1,6.62-3.37c4.17,0,7.06,3.89,7,7.83,0,.82,0,1.64-.55,1.78-.81.24-6.79.58-10.92.77.17,5.09,2.68,7.68,5.74,7.68a6.86,6.86,0,0,0,4.84-2.16Zm-7.74-15.23c-1.69,0-3.14,2.26-3.39,6l5.14-.14c.59,0,.85-.14.85-1C235.91,111.27,234.93,108.72,233.27,108.72Z"/><path class="cls-6" d="M252.81,128.7a4.12,4.12,0,0,1-1.7.53c-3.27,0-5.22-1.73-5.22-6.1v-13.4h-2.72l-.25-.57,1.23-1.83h1.74v-4c1.44-1.15,3.53-2.69,5-3.84l.56.39c-.05,1.29-.13,3.84-.09,7.44h4.25a2.28,2.28,0,0,1-.34,2.4h-3.91V121.5c0,3.74,1.36,4.18,2.17,4.18a4.77,4.77,0,0,0,2-.48l.42,1.73Z"/><path class="cls-7" d="M112.05,152.2l2.55.65a8.61,8.61,0,0,1-3,4.89,8.2,8.2,0,0,1-5.13,1.61,9,9,0,0,1-4.55-1.08,8.08,8.08,0,0,1-3.09-3.47,12.48,12.48,0,0,1-1.2-5.65,11.18,11.18,0,0,1,1.21-5.43,8.05,8.05,0,0,1,3.25-3.36,9.37,9.37,0,0,1,4.6-1.14,7.92,7.92,0,0,1,4.76,1.44,7.54,7.54,0,0,1,2.79,4.21l-2.48.6c-.85-2.7-2.56-4-5.12-4a6.53,6.53,0,0,0-3.32.81,5.78,5.78,0,0,0-2.24,2.54,10,10,0,0,0-.84,4.37c0,2.67.57,4.67,1.69,6a5.59,5.59,0,0,0,4.49,2,5.5,5.5,0,0,0,3.58-1.23A6.23,6.23,0,0,0,112.05,152.2Z"/><path class="cls-7" d="M117.35,159V139.57h2.34V159Z"/><path class="cls-7" d="M123.37,142.31v-2.74h2.34v2.74Zm0,16.71V144.93h2.34V159Z"/><path class="cls-7" d="M138.39,153.86l2.31.3a6,6,0,0,1-2,3.85,6.27,6.27,0,0,1-8.33-.54,7.76,7.76,0,0,1-1.76-5.51q0-3.68,1.78-5.51a6,6,0,0,1,4.56-1.84,5.84,5.84,0,0,1,3.62,1.11,5.23,5.23,0,0,1,1.89,3.35l-2.28.34a3.85,3.85,0,0,0-1.16-2.13,3,3,0,0,0-2-.71,3.7,3.7,0,0,0-2.88,1.28,6,6,0,0,0-1.14,4.07,6.41,6.41,0,0,0,1.1,4.17,3.46,3.46,0,0,0,2.79,1.28,3.27,3.27,0,0,0,2.28-.85A4.23,4.23,0,0,0,138.39,153.86Z"/><path class="cls-7" d="M142.73,159V139.57h2.34v11.11l5.58-5.75h3l-5.31,5.23,5.83,8.86h-2.88l-4.61-7.22-1.66,1.63V159Z"/><polygon class="cls-7" points="156.29 139.34 156.29 161.01 166.72 150.17 156.29 139.34"/></g></g></svg>