<svg id="_06_back" data-name="06_back" xmlns="http://www.w3.org/2000/svg" width="512.002" height="512" viewBox="0 0 512.002 512">
  <g id="background">
    <rect id="Rectangle_2522" data-name="Rectangle 2522" width="512" height="512" fill="none"/>
  </g>
  <g id="Icon">
    <path id="Path_2075" data-name="Path 2075" d="M502.55,226.39H109.25L252.84,82.8a15.6,15.6,0,0,0,0-18.72L231,42.23a23.67,23.67,0,0,0-12.5-3.13,11.45,11.45,0,0,0-9.36,3.13l-206,206a15.62,15.62,0,0,0,0,18.73L206,469.86a15.62,15.62,0,0,0,18.73,0L246.59,448c6.25,0,6.25-3.12,6.25-9.36a11.49,11.49,0,0,0-3.12-9.37L106.13,288.82H502.55a8.28,8.28,0,0,0,9.37-7,8.48,8.48,0,0,0,0-2.36V238.88a13.94,13.94,0,0,0-9.37-12.49Z" fill="#fff"/>
  </g>
</svg>
