<svg id="baggage" xmlns="http://www.w3.org/2000/svg" width="10.957" height="17" viewBox="0 0 10.957 17">
  <path id="Path_6468" data-name="Path 6468" d="M101.459,4.051h-2.49V1h.5a.5.5,0,0,0,0-1H93.49a.5.5,0,0,0,0,1h.5V4.051H91.5a.5.5,0,0,0-.5.5V15.506a.5.5,0,0,0,.5.5h1.494v.5a.5.5,0,0,0,1,0V16h4.98v.5a.5.5,0,0,0,1,0V16h1.494a.5.5,0,0,0,.5-.5V4.549A.5.5,0,0,0,101.459,4.051ZM94.984,1h2.988V4.051H94.984Zm-1,11.521a.5.5,0,1,1-1,0V7.537a.5.5,0,0,1,1,0Zm2.988,0a.5.5,0,1,1-1,0V7.537a.5.5,0,0,1,1,0Zm2.988,0a.5.5,0,1,1-1,0V7.537a.5.5,0,0,1,1,0Z" transform="translate(-91)" fill="#1e7dff"/>
</svg>
