<svg id="beach" xmlns="http://www.w3.org/2000/svg" width="30" height="30" viewBox="0 0 30 30">
  <rect id="Rectangle_2141" data-name="Rectangle 2141" width="30" height="30" fill="none"/>
  <g id="Group_4931" data-name="Group 4931" transform="translate(1.594 4.127)">
    <path id="Path_6504" data-name="Path 6504" d="M120.181,176.417s-.721-9.017,7.088-8.955,7.251,8.738,7.251,8.738-5.671,1.239-6.817,1.921S120.181,176.417,120.181,176.417Z" transform="translate(-113.871 -161.26)" fill="#67a7ff"/>
    <path id="Path_6495" data-name="Path 6495" d="M26.3,161.818l-.249-.092a24.967,24.967,0,0,0-4.675-1.389,8.065,8.065,0,1,0-15.938,0,24.789,24.789,0,0,0-4.855,1.46l-.074.028a.786.786,0,0,0,.554,1.47l.074-.028a17.23,17.23,0,0,1,5.96-1.493,8.4,8.4,0,0,1,2.877.734,9.684,9.684,0,0,0,3.434.837,9.684,9.684,0,0,0,3.434-.837,8.4,8.4,0,0,1,2.877-.734,17.23,17.23,0,0,1,5.787,1.429l.25.093a.785.785,0,0,0,.546-1.473Zm-10.017-.783a8.4,8.4,0,0,1-2.877.734,8.4,8.4,0,0,1-2.877-.734A9.684,9.684,0,0,0,7.1,160.2h-.09c0-.007,0-.013,0-.02a6.494,6.494,0,1,1,12.8.02h-.089a9.685,9.685,0,0,0-3.434.837Z" transform="translate(-0.002 -145.692)" fill="#3e3e3e"/>
    <path id="Path_6496" data-name="Path 6496" d="M.786,291.605H2.409a.786.786,0,0,0,0-1.571H.786a.786.786,0,0,0,0,1.571Z" transform="translate(0 -277.413)" fill="#3e3e3e"/>
    <path id="Path_6497" data-name="Path 6497" d="M32.679,171l1.406.812a.786.786,0,0,0,.786-1.361l-1.406-.812A.786.786,0,0,0,32.679,171Z" transform="translate(-30.595 -163.221)" fill="#3e3e3e"/>
    <path id="Path_6498" data-name="Path 6498" d="M121.415,83.9a.786.786,0,1,0,1.361-.786l-.812-1.406a.786.786,0,1,0-1.361.786Z" transform="translate(-114.188 -79.629)" fill="#3e3e3e"/>
    <path id="Path_6499" data-name="Path 6499" d="M241.786,52.229a.786.786,0,0,0,.786-.786V49.821a.786.786,0,1,0-1.571,0v1.623A.786.786,0,0,0,241.786,52.229Z" transform="translate(-228.379 -49.035)" fill="#3e3e3e"/>
    <path id="Path_6500" data-name="Path 6500" d="M346.391,84.192a.785.785,0,0,0,1.073-.288l.812-1.406a.786.786,0,1,0-1.361-.786l-.812,1.406A.786.786,0,0,0,346.391,84.192Z" transform="translate(-327.879 -79.63)" fill="#3e3e3e"/>
    <path id="Path_6501" data-name="Path 6501" d="M423.649,171.915a.782.782,0,0,0,.392-.105l1.406-.812a.786.786,0,1,0-.786-1.361l-1.406.812a.786.786,0,0,0,.393,1.466Z" transform="translate(-400.718 -163.222)" fill="#3e3e3e"/>
    <path id="Path_6502" data-name="Path 6502" d="M451,290.821a.786.786,0,0,0,.786.786h1.623a.786.786,0,0,0,0-1.571h-1.623A.786.786,0,0,0,451,290.821Z" transform="translate(-427.382 -277.414)" fill="#3e3e3e"/>
    <path id="Path_6503" data-name="Path 6503" d="M100.61,414.06l-.019-.007a13.33,13.33,0,0,0-4.4-1.092,6.572,6.572,0,0,0-2.349.575,3.624,3.624,0,0,1-3.576,0,6.572,6.572,0,0,0-2.349-.575,9.613,9.613,0,0,0-3.568.8c-.252.089-.525.186-.826.291a.785.785,0,1,0,.515,1.484c.305-.106.582-.2.837-.295a8.122,8.122,0,0,1,3.043-.709,5.358,5.358,0,0,1,1.788.472,5.082,5.082,0,0,0,4.7,0,5.358,5.358,0,0,1,1.788-.472,12.155,12.155,0,0,1,3.839.989l.019.007a.785.785,0,1,0,.559-1.468Z" transform="translate(-78.65 -393.903)" fill="#3e3e3e"/>
  </g>
</svg>
