<svg id="Layer_1" data-name="Layer 1" xmlns="http://www.w3.org/2000/svg" viewBox="0 0 128 128"><defs><style>.cls-1{fill:#fc7822;fill-rule:evenodd;}</style></defs><title>bestprice</title><path class="cls-1" d="M15.21,68.21a37.83,37.83,0,0,1-1.54-4.43,6.63,6.63,0,0,1,1-4.89c1.59-2.67,3.13-5.4,4.62-8.12a4.17,4.17,0,0,0,.5-1.82c0-2.27,0-4.54,0-6.81a7.11,7.11,0,0,1,3.69-6.41c2.72-1.61,5.47-3.16,8.18-4.79a4.64,4.64,0,0,0,1.48-1.51c1.14-1.87,2.15-3.82,3.25-5.7a7.13,7.13,0,0,1,6.47-3.79c3.13,0,6.25,0,9.37-.07a5.23,5.23,0,0,0,2.28-.63c1.88-1,3.69-2.19,5.55-3.26a7.11,7.11,0,0,1,7.5-.05c2.76,1.54,5.47,3.16,8.23,4.68a5,5,0,0,0,2.17.58c2.11,0,4.22,0,6.33-.06A7.19,7.19,0,0,1,91,24.91c1.56,2.66,3.06,5.34,4.67,8a5.75,5.75,0,0,0,1.87,1.8c1.79,1.11,3.67,2,5.49,3.12a7.21,7.21,0,0,1,3.73,6.41c.06,3.2,0,6.4.07,9.6a4.86,4.86,0,0,0,.56,2,40.4,40.4,0,0,0,2.42,4.07A8.7,8.7,0,0,1,111.2,68c.91.19,1.72.39,2.55.51A2.9,2.9,0,0,1,116,69.94a1.4,1.4,0,0,0,1,.41c1.42,0,2.84,0,4.26,0a2.51,2.51,0,0,1,2.56,3.42q-1.35,5.22-2.62,10.47a3,3,0,0,0,.07,1.29c.83,3.51,1.71,7,2.55,10.5a2.37,2.37,0,0,1-2.45,3.17c-3.89,0-7.78,0-11.67,0a2.5,2.5,0,0,1-2.64-1.9,1.32,1.32,0,0,0-.8-.77c-2.84-.52-5.67-1-8.51-1.41a3.61,3.61,0,0,0-1.27.24c-.12,0-.2.13-.31.18a10.28,10.28,0,0,0-5.73,5.75,25.47,25.47,0,0,1-1.64,3,7.06,7.06,0,0,1-6.36,3.77c-3.21,0-6.41,0-9.61.14a5.57,5.57,0,0,0-2.37.68c-1.82,1-3.55,2.12-5.34,3.15a7.13,7.13,0,0,1-7.4.09c-2.76-1.53-5.47-3.16-8.24-4.66a5.76,5.76,0,0,0-2.4-.64c-2.1-.06-4.21,0-6.32,0a7.09,7.09,0,0,1-6.51-3.72c-1.43-2.41-2.85-4.82-4.22-7.25a1.18,1.18,0,0,0-1.46-.66c-2.23.41-4.47.75-6.71,1.08a1.07,1.07,0,0,0-1.1,1,2.29,2.29,0,0,1-2.46,1.92c-4,0-7.94,0-11.91,0A2.37,2.37,0,0,1,4.1,96.06c.84-3.5,1.72-7,2.55-10.5a3.54,3.54,0,0,0,0-1.52c-.83-3.51-1.71-7-2.55-10.5a2.39,2.39,0,0,1,2.45-3.17c.81,0,1.63,0,2.43,0,1.08,0,2.17.2,2.8-1.09.16-.34.8-.5,1.26-.62C13.77,68.45,14.53,68.34,15.21,68.21ZM102,49.79h0c0-1.83,0-3.65,0-5.47a2.47,2.47,0,0,0-1.5-2.51c-2.29-1.22-4.54-2.5-6.78-3.81a4.06,4.06,0,0,1-1.37-1.3c-1.85-3.09-3.68-6.19-5.43-9.34a2.65,2.65,0,0,0-2.74-1.53q-3.77.17-7.54.13a4.51,4.51,0,0,1-2.06-.53Q69.78,22.78,65.07,20a2.27,2.27,0,0,0-2.59,0c-2.21,1.37-4.42,2.71-6.69,4a5.15,5.15,0,0,1-2.27.63c-3.52.07-7.05.07-10.57,0a2.53,2.53,0,0,0-2.53,1.49c-1.2,2.25-2.44,4.48-3.76,6.66A5,5,0,0,1,35,34.46c-3.05,1.85-6.13,3.63-9.23,5.38a2.27,2.27,0,0,0-1.3,2.24c.07,2.68.1,5.35.06,8A4.29,4.29,0,0,1,24,52.05c-1.35,2.48-2.81,4.92-4.19,7.39-2.2,3.9-2.23,2.81.06,6.79a1.59,1.59,0,0,0,1.93.92A252.6,252.6,0,0,1,52.48,64.1,274.31,274.31,0,0,1,104.81,67a2.08,2.08,0,0,0,1.57-.27,1.93,1.93,0,0,0,.37-2.54c-.77-1.24-1.4-2.57-2.26-3.73A12,12,0,0,1,102,51.37,11.9,11.9,0,0,0,102,49.79Zm5.51,42.06c.34-1.75.63-3.27.92-4.78.84-4.36,1.67-8.74,2.52-13.11.16-.8,0-1.19-.91-1.27-1.13-.1-2.24-.32-3.36-.51A242.65,242.65,0,0,0,76,68.89,257.47,257.47,0,0,0,48.77,69a277,277,0,0,0-31.59,3.66c-.82.15-1,.44-.81,1.21.89,4.44,1.75,8.88,2.63,13.32.3,1.52.64,3,1,4.61A248.57,248.57,0,0,1,107.48,91.85Zm-18.36,2.2a238.32,238.32,0,0,0-54.38.39c1.25,2.14,2.46,4.1,3.53,6.13a2.78,2.78,0,0,0,2.95,1.61c2.34-.12,4.7-.19,7.05-.13a6.3,6.3,0,0,1,2.74.74c3.09,1.68,6.13,3.47,9.17,5.24a2.18,2.18,0,0,0,2.49,0c2.13-1.32,4.28-2.64,6.48-3.85a5.91,5.91,0,0,1,2.6-.71c3.56-.1,7.13-.08,10.69-.08a2.21,2.21,0,0,0,2.18-1.23C86.05,99.5,87.53,96.9,89.12,94.05Zm29.42.33c-.3-1.29-.57-2.5-.88-3.7-1.51-5.84-1.51-5.84,0-11.69.31-1.23.6-2.47.91-3.77h-2.74c-1.15,6.4-2.31,12.75-3.48,19.16Zm-103.13,0c-1.26-6.5-2.48-12.83-3.7-19.17H9.42a47.67,47.67,0,0,0,1.15,4.64,14.23,14.23,0,0,1,0,9.82c-.53,1.49-.77,3.09-1.18,4.71Z"/><path class="cls-1" d="M63.71,32.65c.74.18,1.41.31,2.07.5a5.6,5.6,0,0,1,3.58,3.38c.54,1.26.16,2.42-.82,2.8s-2-.08-2.46-1.48a3.29,3.29,0,0,0-2.37-2.28c0,1.93,0,3.77,0,5.61,0,.21.34.5.6.61.51.23,1.07.34,1.61.53,3.06,1,4.5,3.1,4.34,6.21a6.32,6.32,0,0,1-5,5.68c-.47.11-1,.2-1.57.32,0,1.17,0,2.34,0,3.5,0,.64.2,1.56-.82,1.59S62,58.64,62,58c0-1.13,0-2.25,0-3.27a35.05,35.05,0,0,1-3.32-1.2,6,6,0,0,1-3.32-4.12,2,2,0,0,1,1.14-2.61c1.18-.35,1.92.11,2.43,1.53.76,2.12,1.31,2.73,3.08,3.21v-4a4.82,4.82,0,0,1,0-.85c.2-1.36-.27-2-1.68-2.47C56.58,43,55.18,40.56,56,37.11A5.36,5.36,0,0,1,60.68,33c1-.18,1.43-.46,1.33-1.51,0-.62-.11-1.47.86-1.41s.82.84.83,1.49C63.71,31.88,63.71,32.24,63.71,32.65Zm.06,18.92a3.16,3.16,0,0,0,3.09-3c.09-1.61-1-2.78-3.09-3.11Zm-1.87-16c-2.08.61-2.72,1.42-2.58,3.07.11,1.25,1,2.06,2.58,2.27Z"/><path class="cls-1" d="M30.08,79.84A9.56,9.56,0,0,1,32,82a2.54,2.54,0,0,1-1.81,3.43,36.76,36.76,0,0,1-5.22,1,1.41,1.41,0,0,1-1.07-.83c-.58-2.64-1.06-5.3-1.55-8a1,1,0,0,1,.9-1.31c1.63-.29,3.26-.62,4.9-.78a2.46,2.46,0,0,1,1.93,4.28Zm-4.28,5c1.14-.23,2.18-.39,3.17-.67a1.38,1.38,0,0,0,1-1.68,1.33,1.33,0,0,0-1.53-1.22c-1.07.06-2.12.29-3.28.45C25.41,82.86,25.6,83.79,25.8,84.86ZM25,80.36a13,13,0,0,0,2.89-.63,2,2,0,0,0,1-1.51c0-.36-.84-1-1.33-1a16.08,16.08,0,0,0-3,.4C24.65,78.59,24.8,79.41,25,80.36Z"/><path class="cls-1" d="M78.83,78.65a36.33,36.33,0,0,1,2,3.47c.17.37-.14,1-.22,1.47-.5-.22-1.19-.3-1.47-.67-.64-.87-1-1.91-1.61-2.84-.73-1.22-1.19-1.4-2.82-1.2-.08,1-.17,2.06-.22,3.1,0,.66-.18,1.22-1,1.25s-1-.55-1-1.21c.09-2.71.2-5.42.31-8.13a1,1,0,0,1,1.17-1.09c1.65.08,3.32.12,5,.33a2.73,2.73,0,0,1,.4,5.38ZM75,74.35c-.59,3-.48,3.13,2.35,3.05h.36c.84-.08,1.54-.39,1.59-1.33s-.62-1.46-1.5-1.56S75.94,74.39,75,74.35Z"/><path class="cls-1" d="M99.63,76.94c-.15,1-.28,1.71-.42,2.61,1.43.26,2.82.46,4.18.79.42.1.77.55,1.14.84-.46.19-.93.58-1.37.53-1.35-.11-2.7-.39-4.19-.63l-.5,3c1.61.29,3.13.52,4.61.88.44.11,1.13.64,1.1.92-.08.83-.77.69-1.41.57-1.68-.31-3.35-.58-5-.83-1-.16-1.52-.62-1.34-1.72.4-2.44.79-4.87,1.14-7.32.14-1,.62-1.42,1.65-1.23,1.78.32,3.59.56,5.37,1,.43.09.77.62,1.16,1-.47.18-1,.54-1.42.5C102.78,77.56,101.29,77.24,99.63,76.94Z"/><path class="cls-1" d="M34.78,76a11.07,11.07,0,0,0,0,1.17c0,.44.15.87.24,1.44l3.39-.37a3.53,3.53,0,0,1,1.19-.11,3.19,3.19,0,0,1,1,.68c-.27.24-.51.65-.81.7-1.23.22-2.49.33-3.73.5a6.42,6.42,0,0,0-.81.22c.13,1,.26,1.91.39,2.92,1.64-.19,3.16-.41,4.68-.48.42,0,.88.39,1.32.6-.39.29-.76.78-1.18.85-1.67.31-3.36.47-5,.7-1.06.16-1.66-.13-1.8-1.33-.28-2.41-.64-4.81-1-7.21-.16-1,.15-1.55,1.18-1.67,1.89-.22,3.77-.49,5.66-.65.37,0,.77.35,1.16.55-.35.29-.67.78-1.07.85C37.94,75.68,36.38,75.83,34.78,76Z"/><path class="cls-1" d="M46.38,72.82a20.41,20.41,0,0,1,2.88,1.56,1.07,1.07,0,0,1,0,1.78c-.72.54-1.08-.09-1.46-.57a2.3,2.3,0,0,0-3.19-.72A1.62,1.62,0,0,0,43.88,76c0,.3.45.79.8.91.79.27,1.69.26,2.47.56A8.25,8.25,0,0,1,50,79c.94,1,.52,2.75-.54,3.72a5.49,5.49,0,0,1-5.82.54,3.64,3.64,0,0,1-1-1c-.38-.56-.84-1.28-.07-1.82s1.21.12,1.6.74a2.31,2.31,0,0,0,3.24.89,2,2,0,0,0,1-1.45c0-.46-.68-1.06-1.19-1.26a18.28,18.28,0,0,0-2.61-.54c-1.88-.42-2.72-1.3-2.69-2.76S43,73.64,44.67,73.3c.51-.11,1-.14,1.56-.21Z"/><path class="cls-1" d="M88.27,79.63c0,2,.6,3,1.9,3.4s2.3.06,3.48-1.43c.25-.31.84-.34,1.29-.5.09.43.41,1,.26,1.27a4.85,4.85,0,0,1-1.44,1.73,5,5,0,0,1-7.19-2.35c-1.36-3.59.59-7.28,4.11-7.63a4.82,4.82,0,0,1,4.69,1.95,2.49,2.49,0,0,1,.51,1.33,1.28,1.28,0,0,1-.55,1c-.27.1-.73-.27-1.09-.45-.06,0-.08-.13-.1-.21a2.87,2.87,0,0,0-3.28-2.09c-1.34.24-2.28,1.42-2.54,3.2C88.28,79.21,88.28,79.53,88.27,79.63Z"/><path class="cls-1" d="M65.36,79a16.67,16.67,0,0,1,0,2.84c-.09.46-.65.83-1,1.24-.33-.42-.94-.84-.95-1.27q-.15-4,0-8a1.61,1.61,0,0,1,1-1.14,28.5,28.5,0,0,1,4.71.16,2.6,2.6,0,0,1,2.37,2.64,2.77,2.77,0,0,1-2.09,3.14A33.13,33.13,0,0,1,65.36,79Zm.14-5v3.43a10.68,10.68,0,0,0,2.71-.31,1.93,1.93,0,0,0,1-1.49,2,2,0,0,0-1.15-1.4A10,10,0,0,0,65.5,74Z"/><path class="cls-1" d="M53.84,74.43a15.79,15.79,0,0,1-2.42.09c-.38,0-.72-.45-1.07-.69.31-.29.61-.8.93-.83q3.59-.25,7.15-.32c.35,0,.69.5,1,.77-.35.26-.66.68-1,.76A17.36,17.36,0,0,1,56,74.4c0,.73,0,1.39,0,2.06,0,1.82.13,3.64.19,5.46,0,.65-.08,1.26-.92,1.29s-1-.51-1-1.19C54.12,79.55,54,77.09,53.84,74.43Z"/><path class="cls-1" d="M82.49,81.81c.19-2.33.33-4.67.61-7,.06-.53.51-1.34.92-1.44.94-.24,1.23.5,1.15,1.35-.25,2.69-.51,5.38-.76,8.07-.06.7-.39,1.28-1.12,1.06-.37-.11-.61-.76-.82-1.21C82.36,82.42,82.48,82.1,82.49,81.81Z"/></svg>