<svg id="Layer_1" data-name="Layer 1" xmlns="http://www.w3.org/2000/svg" viewBox="0 0 128 128"><defs><style>.cls-1{fill:#fff;}</style></defs><title>blog_white</title><path class="cls-1" d="M64,0a64,64,0,1,0,64,64A64,64,0,0,0,64,0ZM49.74,102.5A24.29,24.29,0,0,1,25.57,79.63a6.27,6.27,0,0,1-.07-.88V46.28a5.66,5.66,0,0,1,5.65-5.67h.25a5.67,5.67,0,0,1,5.65,5.67V78.16A12.68,12.68,0,1,0,49.79,65.43H47.25a5.68,5.68,0,0,1-5.79-5.55v-.52a5.68,5.68,0,0,1,5.79-5.55h2.48a24.35,24.35,0,0,1,0,48.69Zm29-32.24a20.86,20.86,0,0,0-6.11-14.83,20.64,20.64,0,0,0-14.73-6.14V40.71A29.52,29.52,0,0,1,87.35,70.26Zm15.16,0a36.14,36.14,0,0,0-36-36.18V25.5A44.72,44.72,0,0,1,102.5,70.26Z"/></svg>