<svg xmlns="http://www.w3.org/2000/svg" width="23" height="17.063" viewBox="0 0 23 17.063">
  <g id="Group_528" data-name="Group 528" transform="translate(3 -5.531)">
    <g id="Expanded" transform="translate(0 5.531)">
      <g id="Group_527" data-name="Group 527">
        <g id="Group_523" data-name="Group 523">
          <path id="Path_180" data-name="Path 180" d="M18.333,25.136H1.667A1.721,1.721,0,0,1,0,23.369v-10.6A1.721,1.721,0,0,1,1.667,11H18.333A1.721,1.721,0,0,1,20,12.767v10.6A1.721,1.721,0,0,1,18.333,25.136ZM1.667,11.883a.86.86,0,0,0-.833.883v10.6a.86.86,0,0,0,.833.883H18.333a.86.86,0,0,0,.833-.883v-10.6a.86.86,0,0,0-.833-.883Z" transform="translate(0 -11)"/>
        </g>
        <g id="Group_524" data-name="Group 524" transform="translate(1.898 4.237)">
          <path id="Path_181" data-name="Path 181" d="M14.1,23.174l-7.9-3.591c-.209-.1-.269-.291-.134-.438a.575.575,0,0,1,.622-.094L14.1,22.42l7.407-3.369a.575.575,0,0,1,.622.094c.135.147.075.342-.134.438Z" transform="translate(-6 -19)"/>
        </g>
      </g>
      <g id="Group_531" data-name="Group 531" transform="translate(0 0)">
        <g id="Group_523-2" data-name="Group 523">
          <path id="Path_180-2" data-name="Path 180" d="M18.333,25.136H1.667A1.721,1.721,0,0,1,0,23.369v-10.6A1.721,1.721,0,0,1,1.667,11H18.333A1.721,1.721,0,0,1,20,12.767v10.6A1.721,1.721,0,0,1,18.333,25.136ZM1.667,11.883a.86.86,0,0,0-.833.883v10.6a.86.86,0,0,0,.833.883H18.333a.86.86,0,0,0,.833-.883v-10.6a.86.86,0,0,0-.833-.883Z" transform="translate(0 -11)"/>
        </g>
        <g id="Group_524-2" data-name="Group 524" transform="translate(1.898 4.237)">
          <path id="Path_181-2" data-name="Path 181" d="M14.1,23.174l-7.9-3.591c-.209-.1-.269-.291-.134-.438a.575.575,0,0,1,.622-.094L14.1,22.42l7.407-3.369a.575.575,0,0,1,.622.094c.135.147.075.342-.134.438Z" transform="translate(-6 -19)"/>
        </g>
      </g>
    </g>
    <path id="Path_182" data-name="Path 182" d="M4.424,0A4.424,4.424,0,1,1,0,4.424,4.424,4.424,0,0,1,4.424,0Z" transform="translate(-3 13.746)" fill="#fff"/>
    <path id="Path_183" data-name="Path 183" d="M4346.06,4616.672l1.718,1.3,1.718-1.3" transform="translate(4618.57 -4328.969) rotate(90)" fill="none" stroke="#2b3033" stroke-linecap="round" stroke-linejoin="round" stroke-width="1.5"/>
  </g>
</svg>
