<svg xmlns="http://www.w3.org/2000/svg" xmlns:xlink="http://www.w3.org/1999/xlink" width="85.668" height="82.099" viewBox="0 0 85.668 82.099">
  <defs>
    <clipPath id="clip-path">
      <rect width="85.668" height="82.099" fill="none"/>
    </clipPath>
  </defs>
  <g id="Symbol_21_1" data-name="Symbol 21 – 1" clip-path="url(#clip-path)">
    <g id="_Group_" data-name="&lt;Group&gt;" transform="translate(1.785 1.785)">
      <path id="Path_5762" data-name="Path 5762" d="M83.1,48.4v3.569a7.139,7.139,0,0,1-7.139,7.139H8.139A7.139,7.139,0,0,1,1,51.973V9.139A7.139,7.139,0,0,1,8.139,2h67.82A7.139,7.139,0,0,1,83.1,9.139Z" transform="translate(-1 -2)" fill="#f2f2f2"/>
      <rect id="Rectangle_820" data-name="Rectangle 820" width="64.251" height="8.924" transform="translate(8.924 37.48)" fill="none"/>
    </g>
    <g id="_Group_2" data-name="&lt;Group&gt;" transform="translate(10.708 10.708)">
      <rect id="Rectangle_821" data-name="Rectangle 821" width="14.278" height="7.139" rx="1" transform="translate(49.973 1.785)" fill="#d0d7df"/>
      <circle id="Ellipse_246" data-name="Ellipse 246" cx="5.354" cy="5.354" r="5.354" fill="#d0d7df"/>
    </g>
    <path id="Path_5770" data-name="Path 5770" d="M26.771,0A26.771,26.771,0,1,1,0,26.771,26.771,26.771,0,0,1,26.771,0Z" transform="translate(30.341 26.771)" fill="#ff7878"/>
    <path id="Path_5763" data-name="Path 5763" d="M76.744,1H8.924A8.934,8.934,0,0,0,0,9.924V52.758a8.934,8.934,0,0,0,8.924,8.924H23.2a1.785,1.785,0,1,0,0-3.569H8.924a5.354,5.354,0,0,1-5.354-5.354V9.924A5.354,5.354,0,0,1,8.924,4.569h67.82A5.354,5.354,0,0,1,82.1,9.924V54.542a24.986,24.986,0,1,1-6.247-16.528,1.785,1.785,0,1,0,2.677-2.361,28.556,28.556,0,1,0,7.139,18.89V9.924A8.934,8.934,0,0,0,76.744,1Z" transform="translate(0 -1)" fill="#474c54"/>
    <path id="Path_5764" data-name="Path 5764" d="M6.785,30.569H17.493a1.785,1.785,0,1,0,0-3.569H6.785a1.785,1.785,0,0,0,0,3.569Z" transform="translate(3.924 19.403)" fill="#474c54"/>
    <path id="Path_5765" data-name="Path 5765" d="M12.139,20.278A7.139,7.139,0,1,0,5,13.139,7.139,7.139,0,0,0,12.139,20.278Zm0-10.708a3.569,3.569,0,1,1-3.569,3.569A3.569,3.569,0,0,1,12.139,9.569Z" transform="translate(3.924 2.924)" fill="#474c54"/>
    <path id="Path_5766" data-name="Path 5766" d="M47.278,17.708a3.569,3.569,0,0,0,3.569-3.569V10.569A3.569,3.569,0,0,0,47.278,7H36.569A3.569,3.569,0,0,0,33,10.569v3.569a3.569,3.569,0,0,0,3.569,3.569ZM36.569,10.569H47.278v3.569H36.569Z" transform="translate(25.896 3.708)" fill="#474c54"/>
    <path id="Path_5767" data-name="Path 5767" d="M6.785,25.569h5.354a1.785,1.785,0,1,0,0-3.569H6.785a1.785,1.785,0,1,0,0,3.569Z" transform="translate(3.924 15.48)" fill="#474c54"/>
    <path id="Path_5768" data-name="Path 5768" d="M15.569,22H13.785a1.785,1.785,0,1,0,0,3.569h1.785a1.785,1.785,0,0,0,0-3.569Z" transform="translate(9.417 15.48)" fill="#474c54"/>
    <line id="Line_99" data-name="Line 99" x2="16" y2="16" transform="translate(49.334 46.549)" fill="none" stroke="#474c54" stroke-linecap="round" stroke-width="5"/>
    <line id="Line_100" data-name="Line 100" x2="16" y2="16" transform="translate(65.334 46.549) rotate(90)" fill="none" stroke="#474c54" stroke-linecap="round" stroke-width="5"/>
  </g>
</svg>
