<svg xmlns="http://www.w3.org/2000/svg" width="28" height="28" viewBox="0 0 28 28">
  <g id="btn_swap" transform="translate(200.5 153.5) rotate(180)">
    <g id="Ellipse_47" data-name="Ellipse 47" transform="translate(172.5 125.5)" fill="#fff" stroke="#999" stroke-width="1">
      <circle cx="14" cy="14" r="14" stroke="none"/>
      <circle cx="14" cy="14" r="13.5" fill="none"/>
    </g>
    <path id="Path_2413" data-name="Path 2413" d="M459.312,113.151a3.38,3.38,0,0,0-3.362-2.632q-1.4-.006-2.8,0h-4.324a2.651,2.651,0,0,1-.511-.031,1.756,1.756,0,0,1,.345-3.481c.7,0,4.511,0,5.212,0l1.905,0h.676l-.061.061q-.311.307-.622.615a.824.824,0,0,0-.117,1.232.769.769,0,0,0,.559.244,1.024,1.024,0,0,0,.714-.334q.978-.974,1.951-1.95a.882.882,0,0,0,.012-1.447q-.974-.975-1.952-1.947a1.022,1.022,0,0,0-.719-.341.742.742,0,0,0-.291.058.816.816,0,0,0-.254.17.836.836,0,0,0-.184.262.74.74,0,0,0-.064.3,1,1,0,0,0,.338.711q.363.358.731.711l-1.164,0-1.6,0c-.67,0-4.45,0-5.119.009a3.4,3.4,0,0,0-3.272,4.247,3.436,3.436,0,0,0,3.345,2.563q1.336,0,2.671,0h4.562a1.893,1.893,0,0,1,1.36.544,1.7,1.7,0,0,1,.491,1.224,1.77,1.77,0,0,1-1.846,1.746l-1.836,0h-5.454l.076-.077c.229-.228.459-.457.685-.688a.852.852,0,0,0,.047-1.22.784.784,0,0,0-.557-.234.95.95,0,0,0-.66.295q-1.028,1.02-2.048,2.049a.859.859,0,0,0,0,1.348c.442.448.888.893,1.334,1.338l.614.613.037.039a1.707,1.707,0,0,0,.139.132,1.045,1.045,0,0,0,.281.168.8.8,0,0,0,.294.058h0a.782.782,0,0,0,.566-.249.855.855,0,0,0,.184-.273.806.806,0,0,0-.193-.885c-.236-.247-.48-.487-.723-.727l-.035-.034h1l4.587,0q.867,0,1.735,0a3.4,3.4,0,0,0,3.316-4.181Z" transform="translate(-265.623 28.379)" fill="#faa534"/>
  </g>
</svg>
