<svg xmlns="http://www.w3.org/2000/svg" xmlns:xlink="http://www.w3.org/1999/xlink" width="273.396" height="305.753" viewBox="0 0 273.396 305.753">
  <defs>
    <clipPath id="clip-path">
      <circle id="Ellipse_258" data-name="Ellipse 258" cx="122.5" cy="122.5" r="122.5" transform="translate(838 463)" fill="#fff" stroke="#707070" stroke-width="1"/>
    </clipPath>
  </defs>
  <g id="Group_5005" data-name="Group 5005" transform="translate(-833.604 -406.247)">
    <g id="Ellipse_259" data-name="Ellipse 259" transform="translate(834 459)" fill="#fff" stroke="#ebebeb" stroke-width="4">
      <circle cx="126.5" cy="126.5" r="126.5" stroke="none"/>
      <circle cx="126.5" cy="126.5" r="124.5" fill="none"/>
    </g>
    <path id="Path_6563" data-name="Path 6563" d="M849.411,481.426l62.323,2.1,23.459,36.063-26.26,4.2H832.6Z" transform="translate(1)" fill="#fff"/>
    <g id="Group_5004" data-name="Group 5004">
      <path id="Path_6565" data-name="Path 6565" d="M1002.593,486.492l17.163-17.163L1000.25,460.5,996,420.75s43-14.75,44.25-14.5,51.25,24,51.25,24,11.75,45.25,11.75,47.25,3.75,30,3.75,30l-3.75,2.5-50.3-15.493-4.244,14.051-17.068-10.844L1036,484.5l-2.477-2.441-16.6,19.614Z" fill="#fff"/>
      <g id="Group_4999" data-name="Group 4999" transform="translate(1008.368 423.938)">
        <g id="Group_4937" data-name="Group 4937" transform="translate(20.25 20.744)">
          <path id="Path_6525" data-name="Path 6525" d="M237.267,53.27a15.1,15.1,0,1,1,14.8-15.1A14.968,14.968,0,0,1,237.267,53.27Zm0-27.573a12.476,12.476,0,1,0,12.162,12.471A12.334,12.334,0,0,0,237.267,25.7Z" transform="translate(-222.47 -23.068)" fill="#f26523"/>
        </g>
        <g id="Group_4938" data-name="Group 4938" transform="translate(52.976 54.228)">
          <path id="Path_6526" data-name="Path 6526" d="M268.742,72.244,257.284,60.525l1.886-1.836,11.458,11.719Z" transform="translate(-257.284 -58.689)" fill="#247ae3"/>
        </g>
        <g id="Group_4939" data-name="Group 4939" transform="translate(52.976 3.218)">
          <path id="Path_6527" data-name="Path 6527" d="M259.171,17.289l-1.886-1.836,10.783-11.03,1.886,1.836Z" transform="translate(-257.284 -4.423)" fill="#247ae3"/>
        </g>
        <g id="Group_4940" data-name="Group 4940" transform="translate(3.101 1.84)">
          <path id="Path_6528" data-name="Path 6528" d="M216.359,17.2,204.227,4.793l1.886-1.836,12.132,12.408Z" transform="translate(-204.227 -2.957)" fill="#247ae3"/>
        </g>
        <g id="Group_4941" data-name="Group 4941" transform="translate(3.101 54.918)">
          <path id="Path_6529" data-name="Path 6529" d="M206.113,72.977l-1.886-1.836,11.458-11.719,1.886,1.836Z" transform="translate(-204.227 -59.422)" fill="#247ae3"/>
        </g>
        <g id="Group_4942" data-name="Group 4942" transform="translate(62.006 34.53)">
          <rect id="Rectangle_2149" data-name="Rectangle 2149" width="8.087" height="2.629" fill="#d0d2d3"/>
        </g>
        <g id="Group_4943" data-name="Group 4943" transform="translate(33.729)">
          <rect id="Rectangle_2150" data-name="Rectangle 2150" width="2.635" height="8.272" fill="#d0d2d3"/>
        </g>
        <g id="Group_4944" data-name="Group 4944" transform="translate(0 34.53)">
          <rect id="Rectangle_2151" data-name="Rectangle 2151" width="8.089" height="2.629" fill="#d0d2d3"/>
        </g>
        <g id="Group_4945" data-name="Group 4945" transform="translate(33.729 63.419)">
          <rect id="Rectangle_2152" data-name="Rectangle 2152" width="2.635" height="8.272" fill="#d0d2d3"/>
        </g>
      </g>
    </g>
    <g id="Group_5002" data-name="Group 5002">
      <path id="Path_6564" data-name="Path 6564" d="M992.25,476l-32-53-45.5,17.5L899,457.25l-4.5,17,13,9,78.75,4.25Z" fill="#fff"/>
      <g id="Group_5000" data-name="Group 5000" transform="translate(904.527 443.602)">
        <g id="Group_4957" data-name="Group 4957">
          <g id="Group_4955" data-name="Group 4955">
            <path id="Path_6541" data-name="Path 6541" d="M170.566,55.439H128.934V52.784h38.2a5.971,5.971,0,0,0-5.162-3.518l-1.243-.016L160.665,48c-.128-2.8-.9-4.779-2.292-5.885a5.419,5.419,0,0,0-3.945-.983l-1.313.255-.232-1.326c-1.58-8.972-7.812-15.484-14.817-15.484-7.424,0-13.5,6.452-14.785,15.691l-.161,1.168-1.957-.041-.36-.313a5.146,5.146,0,0,0-3.393-1.354c-3.645,0-6.292,3.218-6.292,7.652v1.568l-1.536-.259c-.095-.017-9.525-1.559-14.064,1.8a5.424,5.424,0,0,0-1.84,2.293h20.035v2.656H90.461l.206-1.509a8.064,8.064,0,0,1,3.3-5.582c4.285-3.171,11.513-2.808,14.6-2.473.574-5.183,4.118-8.8,8.846-8.8A7.431,7.431,0,0,1,121,38c2.014-9.563,8.823-16.084,17.064-16.084,8.1,0,15.035,6.729,17.181,16.507a7.739,7.739,0,0,1,4.758,1.6c1.8,1.429,2.876,3.679,3.205,6.7a8.7,8.7,0,0,1,7.018,7.106Z" transform="translate(-90.461 -21.919)" fill="#e0e0e0"/>
          </g>
          <g id="Group_4956" data-name="Group 4956" transform="translate(25.863 30.865)">
            <rect id="Rectangle_2156" data-name="Rectangle 2156" width="9.132" height="2.655" fill="#e0e0e0"/>
          </g>
        </g>
        <g id="Group_4958" data-name="Group 4958" transform="translate(54.562 24.691)">
          <rect id="Rectangle_2157" data-name="Rectangle 2157" width="16.959" height="2.655" fill="#e0e0e0"/>
        </g>
      </g>
    </g>
    <g id="Group_5003" data-name="Group 5003">
      <g id="Mask_Group_4" data-name="Mask Group 4" clip-path="url(#clip-path)">
        <g id="Group_4998" data-name="Group 4998" transform="translate(818.023 422.938)">
          <path id="Path_6524" data-name="Path 6524" d="M128.613,161.92l114.838-1.328v45.8c0,4.978-40.16,7.965-62.066,8.3s-52.773-7.966-52.773-7.966Z" transform="translate(-6.245 -9.573)" fill="#9fe6ff"/>
          <g id="Group_4946" data-name="Group 4946" transform="translate(190.345 1)">
            <g id="Group_4937-2" data-name="Group 4937" transform="translate(20.25 20.744)">
              <path id="Path_6525-2" data-name="Path 6525" d="M237.267,53.27a15.1,15.1,0,1,1,14.8-15.1A14.968,14.968,0,0,1,237.267,53.27Zm0-27.573a12.476,12.476,0,1,0,12.162,12.471A12.334,12.334,0,0,0,237.267,25.7Z" transform="translate(-222.47 -23.068)" fill="#f26523"/>
            </g>
            <g id="Group_4938-2" data-name="Group 4938" transform="translate(52.976 54.228)">
              <path id="Path_6526-2" data-name="Path 6526" d="M268.742,72.244,257.284,60.525l1.886-1.836,11.458,11.719Z" transform="translate(-257.284 -58.689)" fill="#247ae3"/>
            </g>
            <g id="Group_4939-2" data-name="Group 4939" transform="translate(52.976 3.218)">
              <path id="Path_6527-2" data-name="Path 6527" d="M259.171,17.289l-1.886-1.836,10.783-11.03,1.886,1.836Z" transform="translate(-257.284 -4.423)" fill="#247ae3"/>
            </g>
            <g id="Group_4940-2" data-name="Group 4940" transform="translate(3.101 1.84)">
              <path id="Path_6528-2" data-name="Path 6528" d="M216.359,17.2,204.227,4.793l1.886-1.836,12.132,12.408Z" transform="translate(-204.227 -2.957)" fill="#247ae3"/>
            </g>
            <g id="Group_4941-2" data-name="Group 4941" transform="translate(3.101 54.918)">
              <path id="Path_6529-2" data-name="Path 6529" d="M206.113,72.977l-1.886-1.836,11.458-11.719,1.886,1.836Z" transform="translate(-204.227 -59.422)" fill="#247ae3"/>
            </g>
            <g id="Group_4942-2" data-name="Group 4942" transform="translate(62.006 34.53)">
              <rect id="Rectangle_2149-2" data-name="Rectangle 2149" width="8.087" height="2.629" fill="#d0d2d3"/>
            </g>
            <g id="Group_4943-2" data-name="Group 4943" transform="translate(33.729)">
              <rect id="Rectangle_2150-2" data-name="Rectangle 2150" width="2.635" height="8.272" fill="#d0d2d3"/>
            </g>
            <g id="Group_4944-2" data-name="Group 4944" transform="translate(0 34.53)">
              <rect id="Rectangle_2151-2" data-name="Rectangle 2151" width="8.089" height="2.629" fill="#d0d2d3"/>
            </g>
            <g id="Group_4945-2" data-name="Group 4945" transform="translate(33.729 63.419)">
              <rect id="Rectangle_2152-2" data-name="Rectangle 2152" width="2.635" height="8.272" fill="#d0d2d3"/>
            </g>
          </g>
          <path id="Path_6530" data-name="Path 6530" d="M101.074,295.619h6.7l11.855-51.148.191-1.837Z" transform="translate(-4.593 -14.494)" fill="#e0e0e0"/>
          <g id="Group_4952" data-name="Group 4952" transform="translate(101.235 113.868)">
            <path id="Path_6531" data-name="Path 6531" d="M159.294,272.493v14.841a6.089,6.089,0,0,1-6.072,6.072h-9.444a6.089,6.089,0,0,1-6.072-6.072V272.493" transform="translate(-108.025 -130.153)" fill="none" stroke="#f26827" stroke-linejoin="round" stroke-width="2" stroke-dasharray="4"/>
            <path id="Path_6532" data-name="Path 6532" d="M241.105,272.493v14.841a6.089,6.089,0,0,1-6.072,6.072H225.59a6.089,6.089,0,0,1-6.072-6.072V272.493" transform="translate(-112.932 -130.153)" fill="none" stroke="#f26827" stroke-linejoin="round" stroke-width="2" stroke-dasharray="4"/>
            <line id="Line_133" data-name="Line 133" x2="125.475" transform="translate(16.19 32.381)" fill="#fff" stroke="#f26827" stroke-linejoin="round" stroke-width="2" stroke-dasharray="3"/>
            <path id="Path_6533" data-name="Path 6533" d="M126.225,221.54s58.015,9.7,122.777.126" transform="translate(-107.336 -127.097)" fill="none" stroke="#f26827" stroke-linejoin="round" stroke-width="2" stroke-dasharray="8"/>
            <circle id="Ellipse_252" data-name="Ellipse 252" cx="10.119" cy="10.119" r="10.119" transform="translate(106.586 109.285)" stroke-dasharray="5" stroke="#f26827" stroke-linejoin="round" stroke-width="2" fill="none"/>
            <circle id="Ellipse_253" data-name="Ellipse 253" cx="10.119" cy="10.119" r="10.119" transform="translate(31.031 109.285)" stroke-dasharray="5" stroke="#f26827" stroke-linejoin="round" stroke-width="2" fill="none"/>
            <line id="Line_134" data-name="Line 134" y2="22.936" transform="translate(66.11 109.285)" fill="none" stroke="#f26827" stroke-linejoin="round" stroke-width="2" stroke-dasharray="5"/>
            <line id="Line_135" data-name="Line 135" y2="22.936" transform="translate(91.745 109.285)" fill="none" stroke="#f26827" stroke-linejoin="round" stroke-width="2" stroke-dasharray="5"/>
            <path id="Path_6534" data-name="Path 6534" d="M122.321,160.741a20.238,20.238,0,0,0-16.19-8.094v41.825s13.492-2.7,16.19-10.794" transform="translate(-106.131 -122.964)" fill="none" stroke="#f26827" stroke-linejoin="round" stroke-width="2" stroke-dasharray="4"/>
            <path id="Path_6535" data-name="Path 6535" d="M256.836,160.741a20.238,20.238,0,0,1,16.19-8.094v41.825s-13.492-2.7-16.19-10.794" transform="translate(-115.171 -122.964)" fill="none" stroke="#f26827" stroke-linejoin="round" stroke-width="2" stroke-dasharray="3"/>
            <g id="Group_4948" data-name="Group 4948" transform="translate(24.278 73.745)">
              <g id="Group_4947" data-name="Group 4947">
                <rect id="Rectangle_2153" data-name="Rectangle 2153" width="29.285" height="2.851" transform="translate(0 11.303) rotate(-22.703)" fill="#fff"/>
              </g>
            </g>
            <g id="Group_4950" data-name="Group 4950" transform="translate(67.175 39.093)">
              <g id="Group_4949" data-name="Group 4949">
                <rect id="Rectangle_2154" data-name="Rectangle 2154" width="72.568" height="2.851" transform="translate(0 28.008) rotate(-22.703)" fill="#fff"/>
              </g>
            </g>
            <g id="Group_4951" data-name="Group 4951" transform="translate(26.983 6.746)">
              <path id="Path_6536" data-name="Path 6536" d="M134.836,145.787a17.591,17.591,0,0,1,17.54-17.54h66.11a17.591,17.591,0,0,1,17.54,17.54Z" transform="translate(-134.836 -128.247)" fill="#9fe6ff"/>
              <text id="EXPRESS_BUS" data-name="EXPRESS BUS" transform="translate(10.447 13.338)" fill="#fff" font-size="13" font-family="Roboto-Black, Roboto" font-weight="800" letter-spacing="0.06em"><tspan x="0" y="0">EXPRESS BUS</tspan></text>
            </g>
            <path id="Path_6537" data-name="Path 6537" d="M123.354,264.085V145.356a24.357,24.357,0,0,1,24.285-24.286h76.9a24.357,24.357,0,0,1,24.285,24.286V264.085Z" transform="translate(-107.164 -121.07)" fill="none" stroke="#f26827" stroke-linejoin="round" stroke-width="2" stroke-dasharray="4"/>
          </g>
          <g id="Group_4954" data-name="Group 4954" transform="translate(44.102 114.051)">
            <rect id="Rectangle_2155" data-name="Rectangle 2155" width="2.018" height="8.03" transform="translate(14.804 42.912)" fill="#e0e0e0"/>
            <path id="Path_6538" data-name="Path 6538" d="M63.119,160.444V168.1H61.1v-7.659" transform="translate(-46.297 -123.615)" fill="#e0e0e0"/>
            <path id="Path_6539" data-name="Path 6539" d="M62,158.827H59.246v52.611h5.506V158.827Z" transform="translate(-46.185 -123.518)" fill="#e0e0e0"/>
            <g id="Group_4953" data-name="Group 4953">
              <g id="Path_6540" data-name="Path 6540" transform="translate(-45.352 -121.265)" fill="none" stroke-miterlimit="10">
                <path d="M73.257,121.265h-24.8a3.108,3.108,0,0,0-3.109,3.109v30.612a3.109,3.109,0,0,0,3.109,3.109h24.8a3.109,3.109,0,0,0,3.109-3.109V124.374A3.109,3.109,0,0,0,73.257,121.265Z" stroke="none"/>
                <path d="M 48.46063232421875 122.7649993896484 C 47.57363128662109 122.7649993896484 46.85200500488281 123.4866180419922 46.85200500488281 124.3736267089844 L 46.85200500488281 154.9852600097656 C 46.85200500488281 155.8722839355469 47.57363128662109 156.5939025878906 48.46063232421875 156.5939025878906 L 60.85851287841797 156.5939025878906 L 73.25733184814453 156.5939025878906 C 74.14433288574219 156.5939025878906 74.865966796875 155.8722839355469 74.865966796875 154.9852600097656 L 74.865966796875 124.3736267089844 C 74.865966796875 123.4866180419922 74.14433288574219 122.7649993896484 73.25733184814453 122.7649993896484 L 60.85851287841797 122.7649993896484 L 48.46063232421875 122.7649993896484 M 48.46063232421875 121.2649993896484 L 60.85851287841797 121.2649993896484 L 73.25733184814453 121.2649993896484 C 74.97379302978516 121.2649993896484 76.365966796875 122.6562194824219 76.365966796875 124.3736267089844 L 76.365966796875 154.9852600097656 C 76.365966796875 156.7017364501953 74.97379302978516 158.0939025878906 73.25733184814453 158.0939025878906 L 60.85851287841797 158.0939025878906 L 48.46063232421875 158.0939025878906 C 46.74322509765625 158.0939025878906 45.35200500488281 156.7017364501953 45.35200500488281 154.9852600097656 L 45.35200500488281 124.3736267089844 C 45.35200500488281 122.6562194824219 46.74322509765625 121.2649993896484 48.46063232421875 121.2649993896484 Z" stroke="none" fill="#e0e0e0"/>
              </g>
            </g>
          </g>
          <g id="Group_4959" data-name="Group 4959" transform="translate(86.505 20.664)">
            <g id="Group_4957-2" data-name="Group 4957">
              <g id="Group_4955-2" data-name="Group 4955">
                <path id="Path_6541-2" data-name="Path 6541" d="M170.566,55.439H128.934V52.784h38.2a5.971,5.971,0,0,0-5.162-3.518l-1.243-.016L160.665,48c-.128-2.8-.9-4.779-2.292-5.885a5.419,5.419,0,0,0-3.945-.983l-1.313.255-.232-1.326c-1.58-8.972-7.812-15.484-14.817-15.484-7.424,0-13.5,6.452-14.785,15.691l-.161,1.168-1.957-.041-.36-.313a5.146,5.146,0,0,0-3.393-1.354c-3.645,0-6.292,3.218-6.292,7.652v1.568l-1.536-.259c-.095-.017-9.525-1.559-14.064,1.8a5.424,5.424,0,0,0-1.84,2.293h20.035v2.656H90.461l.206-1.509a8.064,8.064,0,0,1,3.3-5.582c4.285-3.171,11.513-2.808,14.6-2.473.574-5.183,4.118-8.8,8.846-8.8A7.431,7.431,0,0,1,121,38c2.014-9.563,8.823-16.084,17.064-16.084,8.1,0,15.035,6.729,17.181,16.507a7.739,7.739,0,0,1,4.758,1.6c1.8,1.429,2.876,3.679,3.205,6.7a8.7,8.7,0,0,1,7.018,7.106Z" transform="translate(-90.461 -21.919)" fill="#e0e0e0"/>
              </g>
              <g id="Group_4956-2" data-name="Group 4956" transform="translate(25.863 30.865)">
                <rect id="Rectangle_2156-2" data-name="Rectangle 2156" width="9.132" height="2.655" fill="#e0e0e0"/>
              </g>
            </g>
            <g id="Group_4958-2" data-name="Group 4958" transform="translate(54.562 24.691)">
              <rect id="Rectangle_2157-2" data-name="Rectangle 2157" width="16.959" height="2.655" fill="#e0e0e0"/>
            </g>
          </g>
          <g id="Group_4962" data-name="Group 4962" transform="translate(24.505 61.833)">
            <g id="Group_4960" data-name="Group 4960">
              <path id="Path_6542" data-name="Path 6542" d="M103.782,97.577H62.566v-2.39h38.528a6.467,6.467,0,0,0-5.518-3.5h-.9l-.053-1.124A7.669,7.669,0,0,0,92.8,85.4a5.926,5.926,0,0,0-4.881-1.478l-.873.162-.2-1.076c-1.616-8.775-7.851-14.9-15.163-14.9-7.62,0-13.842,6.206-15.13,15.093l-.145,1-1.4-.029-.233-.195a5.775,5.775,0,0,0-3.72-1.4c-3.85,0-6.645,3.1-6.645,7.378v1.36l-1.079-.175c-4-.648-14.065-1.028-16.341,4.05H47.364v2.39H24.5l.2-1.405c1.26-8.806,14.091-7.979,17.859-7.542.514-4.967,3.926-8.447,8.49-8.447a7.236,7.236,0,0,1,3.872,1.141c1.889-9.262,8.616-15.609,16.759-15.609,7.929,0,14.732,6.431,16.823,15.763a7.315,7.315,0,0,1,5.5,2.068,9.519,9.519,0,0,1,2.438,5.81,8.284,8.284,0,0,1,7,6.707Z" transform="translate(-24.505 -65.715)" fill="#e0e0e0"/>
            </g>
            <g id="Group_4961" data-name="Group 4961" transform="translate(25.466 29.472)">
              <rect id="Rectangle_2158" data-name="Rectangle 2158" width="9.121" height="2.391" fill="#e0e0e0"/>
            </g>
          </g>
          <g id="Group_4970" data-name="Group 4970" transform="translate(183.438 86.318)">
            <g id="Group_4967" data-name="Group 4967" transform="translate(11.168)">
              <g id="Group_4965" data-name="Group 4965">
                <g id="Group_4963" data-name="Group 4963">
                  <path id="Path_6543" data-name="Path 6543" d="M268.639,110.107H235.788v-1.483H266.46c-1.344-1.864-4.325-1.889-4.36-1.889h-.689l-.046-.692a3.73,3.73,0,0,0-1.262-2.762,6.1,6.1,0,0,0-4.119-.984l-.646.086-.163-.635c-1.263-4.927-6.36-8.5-12.117-8.5-6.094,0-11.065,3.538-12.089,8.6l-.121.6-1.055-.016-.169-.1a5.864,5.864,0,0,0-3.012-.812c-3.083,0-5.322,1.751-5.322,4.163v.833l-.82-.1c-3.17-.368-11.088-.592-13.011,2.2H223.67v1.483H205.461l.177-.887c1.023-5.131,11.151-4.624,14.241-4.348.433-2.844,3.131-4.833,6.733-4.833a7.408,7.408,0,0,1,3.117.678c1.511-5.315,6.86-8.956,13.328-8.956,6.291,0,11.694,3.678,13.373,9.019a7.094,7.094,0,0,1,4.6,1.352,4.955,4.955,0,0,1,1.727,3.158c1.411.145,4.643.808,5.581,3.854Z" transform="translate(-205.461 -91.762)" fill="#e0e0e0"/>
                </g>
                <g id="Group_4964" data-name="Group 4964" transform="translate(20.286 16.862)">
                  <rect id="Rectangle_2159" data-name="Rectangle 2159" width="7.271" height="1.483" fill="#e0e0e0"/>
                </g>
              </g>
              <g id="Group_4966" data-name="Group 4966" transform="translate(43.136 13.49)">
                <rect id="Rectangle_2160" data-name="Rectangle 2160" width="13.502" height="1.483" fill="#e0e0e0"/>
              </g>
            </g>
            <g id="Group_4968" data-name="Group 4968" transform="translate(0 16.862)">
              <rect id="Rectangle_2161" data-name="Rectangle 2161" width="6.152" height="1.483" fill="#e0e0e0"/>
            </g>
            <g id="Group_4969" data-name="Group 4969" transform="translate(8.754 16.862)">
              <rect id="Rectangle_2162" data-name="Rectangle 2162" width="4.259" height="1.483" fill="#e0e0e0"/>
            </g>
          </g>
          <g id="Group_4983" data-name="Group 4983" transform="translate(48.752 180.277)">
            <g id="Group_4982" data-name="Group 4982">
              <g id="Group_4981" data-name="Group 4981">
                <g id="Group_4980" data-name="Group 4980">
                  <g id="Group_4979" data-name="Group 4979">
                    <g id="Group_4978" data-name="Group 4978">
                      <g id="Group_4971" data-name="Group 4971" transform="translate(16.3)">
                        <rect id="Rectangle_2163" data-name="Rectangle 2163" width="1.214" height="14.941" transform="translate(0.416 7.365)" fill="#e0e0e0"/>
                        <rect id="Rectangle_2164" data-name="Rectangle 2164" width="1.214" height="14.941" transform="translate(15.661 7.365)" fill="#e0e0e0"/>
                        <path id="Path_6544" data-name="Path 6544" d="M70.226,191.717H82.369a2.593,2.593,0,0,1,2.587,2.587v6.229H82.9V194.3c0-.29-.243-.579-.528-.528a33.488,33.488,0,0,1-12.143,0c-.284-.053-.527.239-.527.528v6.229h-2.06V194.3A2.593,2.593,0,0,1,70.226,191.717Z" transform="translate(-67.639 -191.717)" fill="#e0e0e0" fill-rule="evenodd"/>
                      </g>
                      <g id="Group_4972" data-name="Group 4972" transform="translate(0 31.822)">
                        <path id="Path_6545" data-name="Path 6545" d="M50.3,225.569h.567v.264h.713v-.264h1.043v2.046h0v2.046h-.567V229.4h-.713v.264H50.3v-2.046h0Z" transform="translate(-50.299 -225.569)" fill="#e0e0e0" fill-rule="evenodd"/>
                      </g>
                      <path id="Path_6546" data-name="Path 6546" d="M77.832,280.953H95.3a3.6,3.6,0,0,0,3.59-3.59V219.289a3.6,3.6,0,0,0-3.59-3.59H55.391a3.6,3.6,0,0,0-3.59,3.59V260.1H74.383s3.449,0,3.449,5.774v15.083Z" transform="translate(-50.389 -193.156)" fill="none" stroke="#e0e0e0" stroke-miterlimit="10" stroke-width="1.5" fill-rule="evenodd"/>
                      <g id="Group_4974" data-name="Group 4974" transform="translate(38.378 88.48)">
                        <g id="Group_4973" data-name="Group 4973">
                          <circle id="Ellipse_254" data-name="Ellipse 254" cx="1.848" cy="1.848" r="1.848" transform="translate(0 0.528)" fill="#e0e0e0"/>
                          <circle id="Ellipse_255" data-name="Ellipse 255" cx="1.255" cy="1.255" r="1.255" transform="translate(0.593 1.121)" fill="#e6e6e6" style="mix-blend-mode: multiply;isolation: isolate"/>
                          <circle id="Ellipse_256" data-name="Ellipse 256" cx="1.029" cy="1.029" r="1.029" transform="translate(0.819 1.347)" fill="#e6e6e6" style="mix-blend-mode: multiply;isolation: isolate"/>
                          <rect id="Rectangle_2165" data-name="Rectangle 2165" width="1.32" height="2.851" rx="0.365" transform="translate(1.188)" fill="#e6e6e6" style="mix-blend-mode: multiply;isolation: isolate"/>
                        </g>
                      </g>
                      <g id="Group_4976" data-name="Group 4976" transform="translate(48.138 46.38)">
                        <g id="Group_4975" data-name="Group 4975" transform="translate(1.573 1.268)">
                          <path id="Path_6547" data-name="Path 6547" d="M105.232,257.361h0a.252.252,0,0,0-.326-.139l-1.567.633a.252.252,0,0,0-.139.326h0a.251.251,0,0,0,.326.138l1.567-.632A.251.251,0,0,0,105.232,257.361Z" transform="translate(-103.182 -243.293)" fill="#e0e0e0" fill-rule="evenodd"/>
                          <path id="Path_6548" data-name="Path 6548" d="M105.232,243.383h0a.251.251,0,0,1-.326.138l-1.567-.632a.252.252,0,0,1-.139-.326h0a.251.251,0,0,1,.326-.139l1.567.632A.252.252,0,0,1,105.232,243.383Z" transform="translate(-103.182 -242.406)" fill="#e0e0e0" fill-rule="evenodd"/>
                          <path id="Path_6549" data-name="Path 6549" d="M106.581,249.937a10.109,10.109,0,0,1-1.716,6.029c-.336.438-.3,1.3,0,1.19,1.841-.685,3.225-3.657,3.225-7.219s-1.385-6.533-3.225-7.218c-.3-.11-.336.752,0,1.19A10.108,10.108,0,0,1,106.581,249.937Z" transform="translate(-103.268 -242.424)" fill="#e0e0e0" fill-rule="evenodd"/>
                        </g>
                        <path id="Rectangle_2166" data-name="Rectangle 2166" d="M.843,0h.163a.843.843,0,0,1,.843.843v15.9a.842.842,0,0,1-.842.842H.843A.843.843,0,0,1,0,16.738V.843A.843.843,0,0,1,.843,0Z" fill="#e0e0e0"/>
                      </g>
                      <g id="Group_4977" data-name="Group 4977" transform="translate(17.436 17.238)">
                        <path id="Path_6550" data-name="Path 6550" d="M69.825,213h0a.252.252,0,0,1,.139.326l-.633,1.567a.252.252,0,0,1-.326.139h0a.252.252,0,0,1-.139-.326l.633-1.567A.251.251,0,0,1,69.825,213Z" transform="translate(-68.848 -210.231)" fill="#e0e0e0" fill-rule="evenodd"/>
                        <path id="Path_6551" data-name="Path 6551" d="M83.8,213h0a.251.251,0,0,0-.138.326L84.3,214.9a.252.252,0,0,0,.326.139h0a.252.252,0,0,0,.139-.326l-.632-1.567A.251.251,0,0,0,83.8,213Z" transform="translate(-69.736 -210.231)" fill="#e0e0e0" fill-rule="evenodd"/>
                        <path id="Path_6552" data-name="Path 6552" d="M76.4,211.564a10.109,10.109,0,0,0-6.029,1.716c-.438.336-1.3.3-1.19,0,.685-1.841,3.657-3.225,7.219-3.225s6.533,1.385,7.218,3.225c.11.3-.752.336-1.19,0A10.108,10.108,0,0,0,76.4,211.564Z" transform="translate(-68.867 -210.055)" fill="#e0e0e0" fill-rule="evenodd"/>
                      </g>
                      <path id="Path_6553" data-name="Path 6553" stroke="#e0e0e0" d="M86.067,219.733h7.966c4.148,0,3.485,3.651,3.485,7.468v7.136Z" fill="none" transform="translate(-52.445 -193.397)" stroke-linecap="round" stroke-linejoin="round" stroke-width="1.5" fill-rule="evenodd"/>
                      <line id="Line_136" data-name="Line 136" y2="17.701" transform="translate(18.963 29.157)" fill="none" stroke="#e0e0e0" stroke-linecap="round" stroke-linejoin="round" stroke-width="1.5"/>
                      <line id="Line_137" data-name="Line 137" y2="26.11" transform="translate(28.699 29.157)" fill="none" stroke="#e0e0e0" stroke-linecap="round" stroke-linejoin="round" stroke-width="1.5"/>
                    </g>
                  </g>
                </g>
              </g>
            </g>
          </g>
          <path id="Path_6554" data-name="Path 6554" d="M69.974,146.48l-.308-15.585h0l-.01-.453a.683.683,0,0,0-.378-.594c-.019-.009-.039-.02-.058-.028a.626.626,0,0,0-.192-.043h0a40.517,40.517,0,0,0-7.651-.584h0a40.521,40.521,0,0,0-7.652.584h0a.6.6,0,0,0-.188.043h0a.737.737,0,0,0-.078.036l-.013.007-.018.012a.672.672,0,0,0-.25.26.693.693,0,0,0-.082.307l-.009.453h0l-.28,14.16-.029,1.425a.626.626,0,0,0-.221.23.639.639,0,0,0-.082.313v1.219a.641.641,0,0,0,.643.643h.662V151.1a.236.236,0,0,0,.236.236H55.68a.237.237,0,0,0,.236-.236v-2.214H66.83V151.1a.236.236,0,0,0,.236.236h1.671a.237.237,0,0,0,.236-.236v-2.214h.662a.642.642,0,0,0,.643-.643v-1.219A.636.636,0,0,0,69.974,146.48Zm-13.792-.059a.75.75,0,1,1,.749-.75A.75.75,0,0,1,56.182,146.421Zm11.633,0a.96.96,0,1,1,.96-.96A.959.959,0,0,1,67.815,146.421Zm.982-4.077a2.183,2.183,0,0,1-.467.709,2.063,2.063,0,0,1-1.478.626H55.9a2.061,2.061,0,0,1-1.478-.626,2.183,2.183,0,0,1-.467-.709,2.246,2.246,0,0,1-.165-.889l.126-7.618.008-.438a.234.234,0,0,1,.224-.238H68.6a.234.234,0,0,1,.224.238l.008.438.126,7.618A2.246,2.246,0,0,1,68.8,142.344Z" transform="translate(-1.677 -7.689)" fill="#e0e0e0"/>
          <g id="Group_4997" data-name="Group 4997" transform="translate(34.69 234.636)">
            <g id="Group_4989" data-name="Group 4989">
              <g id="Group_4988" data-name="Group 4988">
                <g id="Group_4987" data-name="Group 4987">
                  <g id="Group_4986" data-name="Group 4986">
                    <g id="Group_4985" data-name="Group 4985" transform="translate(15.487)">
                      <path id="Path_6555" data-name="Path 6555" d="M68.673,253.815s-.744.025-.89-.268a8.474,8.474,0,0,0-1.835-3.229c-.932-.809-3.309-.792-4.709-.764-1.4-.028-3.779-.045-4.71.764a8.474,8.474,0,0,0-1.835,3.229c-.147.293-.89.268-.89.268l-.018.8c2.562.169,1.512-1.435,3.266-3.119.459-.44.862-.293,2.074-.055a40.158,40.158,0,0,0,4.228,0c1.211-.239,1.614-.385,2.073.055,1.754,1.684.7,3.288,3.266,3.119Z" transform="translate(-51.934 -249.545)" fill="#e0e0e0" fill-rule="evenodd"/>
                      <g id="Group_4984" data-name="Group 4984" transform="translate(0 3.877)">
                        <rect id="Rectangle_2167" data-name="Rectangle 2167" width="2.192" height="1.991" rx="0.581" transform="translate(16.416)" fill="#e0e0e0"/>
                        <rect id="Rectangle_2168" data-name="Rectangle 2168" width="2.192" height="1.991" rx="0.581" fill="#e0e0e0"/>
                      </g>
                    </g>
                    <rect id="Rectangle_2169" data-name="Rectangle 2169" width="48.142" height="31.85" rx="3.669" transform="translate(0 6.231)" fill="#fff" stroke="#e0e0e0" stroke-miterlimit="10" stroke-width="1.5"/>
                  </g>
                </g>
              </g>
            </g>
            <g id="Group_4996" data-name="Group 4996" transform="translate(12.205 5.943)">
              <g id="Group_4992" data-name="Group 4992" transform="translate(20.173)">
                <rect id="Rectangle_2170" data-name="Rectangle 2170" width="2.422" height="32.352" transform="translate(0.569 0)" fill="#e0e0e0"/>
                <g id="Group_4990" data-name="Group 4990">
                  <path id="Path_6556" data-name="Path 6556" d="M71.668,260.623a.387.387,0,1,1,.381-.387A.385.385,0,0,1,71.668,260.623Z" transform="translate(-69.874 -256.106)" fill="#e0e0e0" fill-rule="evenodd"/>
                  <path id="Path_6557" data-name="Path 6557" d="M73.344,255.867h-3.56v4.254a1.125,1.125,0,0,0,1.113,1.13h1.334a1.125,1.125,0,0,0,1.113-1.13Z" transform="translate(-69.784 -255.867)" fill="#e0e0e0" fill-rule="evenodd"/>
                </g>
                <g id="Group_4991" data-name="Group 4991" transform="translate(0 27.019)">
                  <ellipse id="Ellipse_257" data-name="Ellipse 257" cx="0.381" cy="0.387" rx="0.381" ry="0.387" transform="translate(1.413 0.867)" fill="#e0e0e0"/>
                  <path id="Path_6558" data-name="Path 6558" d="M73.344,289.993h-3.56V285.74a1.125,1.125,0,0,1,1.113-1.13h1.334a1.125,1.125,0,0,1,1.113,1.13Z" transform="translate(-69.784 -284.61)" fill="#e0e0e0" fill-rule="evenodd"/>
                </g>
              </g>
              <g id="Group_4995" data-name="Group 4995">
                <rect id="Rectangle_2171" data-name="Rectangle 2171" width="2.422" height="32.352" transform="translate(0.569 0)" fill="#e0e0e0"/>
                <g id="Group_4993" data-name="Group 4993">
                  <path id="Path_6559" data-name="Path 6559" d="M50.208,260.623a.387.387,0,1,1,.381-.387A.385.385,0,0,1,50.208,260.623Z" transform="translate(-48.414 -256.106)" fill="#e0e0e0" fill-rule="evenodd"/>
                  <path id="Path_6560" data-name="Path 6560" d="M51.884,255.867h-3.56v4.254a1.125,1.125,0,0,0,1.113,1.13h1.335a1.125,1.125,0,0,0,1.112-1.13Z" transform="translate(-48.324 -255.867)" fill="#e0e0e0" fill-rule="evenodd"/>
                </g>
                <g id="Group_4994" data-name="Group 4994" transform="translate(0 27.019)">
                  <path id="Path_6561" data-name="Path 6561" d="M50.208,286.306a.387.387,0,1,1,.381-.387A.385.385,0,0,1,50.208,286.306Z" transform="translate(-48.414 -284.665)" fill="#e0e0e0" fill-rule="evenodd"/>
                  <path id="Path_6562" data-name="Path 6562" d="M51.884,289.993h-3.56V285.74a1.125,1.125,0,0,1,1.113-1.13h1.335a1.125,1.125,0,0,1,1.112,1.13Z" transform="translate(-48.324 -284.61)" fill="#e0e0e0" fill-rule="evenodd"/>
                </g>
              </g>
            </g>
          </g>
        </g>
      </g>
      <g id="Group_5001" data-name="Group 5001" transform="translate(842.528 484.771)">
        <g id="Group_4960-2" data-name="Group 4960">
          <path id="Path_6542-2" data-name="Path 6542" d="M103.782,97.577H62.566v-2.39h38.528a6.467,6.467,0,0,0-5.518-3.5h-.9l-.053-1.124A7.669,7.669,0,0,0,92.8,85.4a5.926,5.926,0,0,0-4.881-1.478l-.873.162-.2-1.076c-1.616-8.775-7.851-14.9-15.163-14.9-7.62,0-13.842,6.206-15.13,15.093l-.145,1-1.4-.029-.233-.195a5.775,5.775,0,0,0-3.72-1.4c-3.85,0-6.645,3.1-6.645,7.378v1.36l-1.079-.175c-4-.648-14.065-1.028-16.341,4.05H47.364v2.39H24.5l.2-1.405c1.26-8.806,14.091-7.979,17.859-7.542.514-4.967,3.926-8.447,8.49-8.447a7.236,7.236,0,0,1,3.872,1.141c1.889-9.262,8.616-15.609,16.759-15.609,7.929,0,14.732,6.431,16.823,15.763a7.315,7.315,0,0,1,5.5,2.068,9.519,9.519,0,0,1,2.438,5.81,8.284,8.284,0,0,1,7,6.707Z" transform="translate(-24.505 -65.715)" fill="#e0e0e0"/>
        </g>
        <g id="Group_4961-2" data-name="Group 4961" transform="translate(25.466 29.472)">
          <rect id="Rectangle_2158-2" data-name="Rectangle 2158" width="9.121" height="2.391" fill="#e0e0e0"/>
        </g>
      </g>
    </g>
  </g>
</svg>
