<svg xmlns="http://www.w3.org/2000/svg" width="25.869" height="12.074" viewBox="0 0 25.869 12.074">
  <path id="bus_2_" data-name="bus (2)" d="M25.675-6.012l-1.332-2.94a2.947,2.947,0,0,0-2.673-1.716H2.557A2.559,2.559,0,0,0,0-8.111v6.389A1.4,1.4,0,0,0,1.4-.32H3.492A2.156,2.156,0,0,0,5.6,1.406,2.156,2.156,0,0,0,7.717-.32H18.151a2.156,2.156,0,0,0,2.113,1.727A2.156,2.156,0,0,0,22.377-.32H24.67a1.2,1.2,0,0,0,1.151-.862,1.241,1.241,0,0,0,.047-.336v-3.6a2.156,2.156,0,0,0-.194-.893ZM2.156-5.494a.431.431,0,0,1-.431-.431V-9.375a.431.431,0,0,1,.431-.431H5.174a.431.431,0,0,1,.431.431v3.449a.431.431,0,0,1-.431.431ZM5.6.542A1.293,1.293,0,0,1,4.311-.752,1.294,1.294,0,0,1,5.6-2.045,1.294,1.294,0,0,1,6.9-.752,1.3,1.3,0,0,1,5.6.542Zm4.743-6.467a.431.431,0,0,1-.431.431H6.9a.431.431,0,0,1-.431-.431V-9.375A.431.431,0,0,1,6.9-9.806H9.916a.431.431,0,0,1,.431.431Zm4.743,0a.431.431,0,0,1-.431.431H11.641a.431.431,0,0,1-.431-.431V-9.375a.431.431,0,0,1,.431-.431h3.018a.431.431,0,0,1,.431.431Zm1.293.431a.431.431,0,0,1-.431-.431V-9.375a.431.431,0,0,1,.431-.431H19.4a.431.431,0,0,1,.431.431v3.449a.431.431,0,0,1-.431.431ZM20.264.542A1.293,1.293,0,0,1,18.97-.752a1.294,1.294,0,0,1,1.293-1.293A1.294,1.294,0,0,1,21.557-.752,1.3,1.3,0,0,1,20.264.542Zm.828-6.036a.435.435,0,0,1-.4-.431V-9.378a.427.427,0,0,1,.427-.427h.547a2.086,2.086,0,0,1,1.889,1.212l1.332,2.94A1.258,1.258,0,0,1,25-5.167Zm0,0" transform="translate(0 10.668)" fill="#ccc"/>
</svg>
