<svg id="Icon" xmlns="http://www.w3.org/2000/svg" viewBox="0 0 512 512"><defs><style>.cls-1{opacity:0.4;}.cls-2,.cls-3{fill:#f2a437;}.cls-3{opacity:0.6;}.cls-4{fill:#4869ef;}</style></defs><title>03_bus</title><g class="cls-1"><path class="cls-2" d="M204.81,336.35v12.3a15.07,15.07,0,1,0,30.14,0v-12.3Z"/></g><path class="cls-3" d="M309.91,335.47V349a14.44,14.44,0,1,0,28.87,0V310.71l-11.42,15Z"/><path class="cls-3" d="M167.66,192.5a12.91,12.91,0,0,0-8.59,12.15v16.06a12.89,12.89,0,1,0,25.78,0V204.65a12.91,12.91,0,0,0-8.59-12.15"/><polygon class="cls-3" points="276.73 273.51 225.78 273.51 213.63 273.51 210.88 273.51 195.22 257.73 195.22 254.46 195.22 188.97 268.65 188.97 276.73 188.97 285.33 188.97 293.41 188.97 354.88 188.97 354.88 254.46 354.88 257.73 339.23 273.51 336.47 273.51 324.32 273.51 285.33 273.51 276.73 273.51"/><path class="cls-4" d="M259.72,147.26a4.29,4.29,0,1,0,1.26,3A4.33,4.33,0,0,0,259.72,147.26Z"/><path class="cls-4" d="M357.41,187.53v-12.1a11.84,11.84,0,0,0-11.82-11.82h-7.46A21.52,21.52,0,0,0,317,146H275.05a4.3,4.3,0,1,0,0,8.59H317a12.91,12.91,0,0,1,12.89,12.89v12.9H288.66v-12.9a4.3,4.3,0,0,0-4.3-4.29H227.64a4.3,4.3,0,0,0-4.3,4.29v12.9H182.15v-12.9A12.91,12.91,0,0,1,195,154.59h43.13a4.3,4.3,0,0,0,0-8.59H195a21.52,21.52,0,0,0-21.13,17.61h-7.5a11.84,11.84,0,0,0-11.82,11.82v12.1A12.91,12.91,0,0,0,146,199.68v16a12.89,12.89,0,1,0,25.78,0v-16a12.91,12.91,0,0,0-8.59-12.15v-12.1a3.23,3.23,0,0,1,3.22-3.23h7.15V314.87A21.5,21.5,0,0,0,186,334.36v15.31a16.33,16.33,0,1,0,32.66,0V336.35h74.73v13.32a16.33,16.33,0,1,0,32.66,0V334.33a21.49,21.49,0,0,0,12.4-19.46V172.2h7.11a3.23,3.23,0,0,1,3.22,3.23v12.1a12.91,12.91,0,0,0-8.59,12.15v16a12.89,12.89,0,1,0,25.78,0v-16A12.91,12.91,0,0,0,357.41,187.53Zm-194.22,28.2a4.3,4.3,0,0,1-8.6,0v-16a4.3,4.3,0,1,1,8.6,0ZM286.35,189,273,202.35a4.3,4.3,0,1,0,6.08,6.08L298.51,189h25.28L260.3,252.46V189Zm-54.41-17.19h48.12v8.6H231.94Zm1.41,75a4.32,4.32,0,0,0-6.08,0l-26.71,26.71h-2.75l-13.29-13.29L251.71,193v80.47h-39l20.63-20.63A4.3,4.3,0,0,0,233.35,246.8ZM182.15,189h61.47l-61.47,61.47Zm27.95,160.7a7.74,7.74,0,1,1-15.47,0V336.35H210.1Zm107.38,0a7.74,7.74,0,1,1-15.47,0V336.35h15.47Zm12.41-34.8A12.91,12.91,0,0,1,317,327.76H195a12.91,12.91,0,0,1-12.89-12.89V270L193,280.85a4.33,4.33,0,0,0,3,1.26H316a4.33,4.33,0,0,0,3-1.26L329.89,270Zm0-57.05-15.7,15.69H260.3v-8.9L329.89,195Zm27.52-42.09a4.3,4.3,0,1,1-8.6,0v-16a4.3,4.3,0,1,1,8.6,0Z"/><path class="cls-4" d="M206.17,292a12.89,12.89,0,1,0,12.9,12.89A12.91,12.91,0,0,0,206.17,292Zm0,17.19a4.3,4.3,0,1,1,4.3-4.3A4.3,4.3,0,0,1,206.17,309.23Z"/><path class="cls-4" d="M305.83,292a12.89,12.89,0,1,0,12.89,12.89A12.91,12.91,0,0,0,305.83,292Zm0,17.19a4.3,4.3,0,1,1,4.29-4.3A4.31,4.31,0,0,1,305.83,309.23Z"/><path class="cls-4" d="M278.38,292H233.69a4.3,4.3,0,0,0-4.29,4.3v17.19a4.29,4.29,0,0,0,4.29,4.29h44.69a4.3,4.3,0,0,0,4.3-4.29V296.34A4.31,4.31,0,0,0,278.38,292Zm-4.3,17.19H238v-8.59h36.09Z"/></svg>