<svg id="calendar" xmlns="http://www.w3.org/2000/svg" width="30" height="30" viewBox="0 0 30 30">
  <rect id="Rectangle_2176" data-name="Rectangle 2176" width="30" height="30" fill="none"/>
  <g id="Group_4942" data-name="Group 4942" transform="translate(4 4.177)">
    <rect id="Rectangle_2175" data-name="Rectangle 2175" width="22" height="19" rx="3" transform="translate(0 2.823)" fill="#67a7ff"/>
    <path id="Path_6604" data-name="Path 6604" d="M19.166,62.51H2.48A2.482,2.482,0,0,1,0,60.03V45.148a2.482,2.482,0,0,1,2.48-2.48H19.166a2.482,2.482,0,0,1,2.48,2.48V60.03A2.482,2.482,0,0,1,19.166,62.51ZM2.48,44.021a1.129,1.129,0,0,0-1.127,1.127V60.03A1.129,1.129,0,0,0,2.48,61.158H19.166a1.129,1.129,0,0,0,1.127-1.127V45.148a1.129,1.129,0,0,0-1.127-1.127Zm0,0" transform="translate(0.177 -40.864)" fill="#3e3e3e"/>
    <path id="Path_6605" data-name="Path 6605" d="M20.97,172.021H.676a.676.676,0,0,1,0-1.353H20.97a.676.676,0,0,1,0,1.353Zm0,0" transform="translate(0.177 -163.452)" fill="#3e3e3e"/>
    <path id="Path_6606" data-name="Path 6606" d="M107.344,5.412a.677.677,0,0,1-.676-.676V.676a.676.676,0,0,1,1.353,0V4.735A.677.677,0,0,1,107.344,5.412Zm0,0" transform="translate(-101.981)" fill="#3e3e3e"/>
    <path id="Path_6607" data-name="Path 6607" d="M374.008,5.412a.677.677,0,0,1-.676-.676V.676a.676.676,0,0,1,1.353,0V4.735A.677.677,0,0,1,374.008,5.412Zm0,0" transform="translate(-357.371)" fill="#3e3e3e"/>
  </g>
</svg>
