<svg id="Icon" xmlns="http://www.w3.org/2000/svg" viewBox="0 0 512 512"><defs><style>.cls-1{opacity:0.6;}.cls-2{fill:#f2a437;}.cls-3{fill:#4869ef;}</style></defs><title>13_Callus</title><g class="cls-1"><path class="cls-2" d="M312.23,295.27q10.31-12.84,13.74-12.84t25.81,11.64c14.93,7.78,22.8,12.45,23.71,14a11.26,11.26,0,0,1,.51,4c0,5.81-1.49,12.53-4.48,20.11q-4.25,10.32-18.81,17.35t-27,7q-15.09,0-50.29-16.42a151.22,151.22,0,0,1-45-31.23q-19-19.32-39.17-49-19.08-28.32-18.79-51.36v-2.11q.78-24.09,19.59-41.82c4.22-3.88,8.82-5.83,13.76-5.83a41,41,0,0,1,4.77.4,43.76,43.76,0,0,0,5,.4q5,0,7,1.71c1.31,1.16,2.68,3.58,4.09,7.29q2.13,5.29,8.75,23.29t6.62,19.85q0,5.56-9.14,15.23t-9.14,12.31a7.38,7.38,0,0,0,1.34,4q9,19.35,27,36.28,14.82,14,40,26.73a11.81,11.81,0,0,0,5.82,1.85Q301.9,308.1,312.23,295.27Z"/></g><path class="cls-3" d="M293.51,359.11c-10.8,0-27.84-5.5-52.08-16.82a155.43,155.43,0,0,1-46.24-32.09c-12.86-13-26.2-29.72-39.67-49.56C142.37,241.09,135.81,223,136,206.83v-2.05c.55-17.26,7.58-32.32,20.91-44.9,5.05-4.65,10.65-7,16.69-7a44.72,44.72,0,0,1,5.29.43,39.84,39.84,0,0,0,4.49.36c4.43,0,7.62.9,9.77,2.73,1.94,1.7,3.6,4.55,5.31,9,1.39,3.49,4.31,11.29,8.76,23.34,6.88,18.78,6.88,20.13,6.88,21.32,0,5-3.28,10.73-10.31,18.14-6.49,6.87-7.76,9.29-8,9.83h0c.08,0,.21.49.7,1.25,6,12.86,14.79,24.62,26.33,35.46,9.57,9.07,22.68,17.81,39,26a8.12,8.12,0,0,0,3.91,1.4c0-.05,2.77-1,11-11.25h0c9.66-12,13.68-14.41,17.05-14.41,1.58,0,4.52,0,27.76,12.11,23.45,12.22,24.6,14.22,25.44,15.69A14.65,14.65,0,0,1,348,310.4c0,6.33-1.6,13.63-4.77,21.67S333,346.55,322.34,351.68C312.1,356.62,302.4,359.11,293.51,359.11ZM173.6,161.37c-3.9,0-7.46,1.53-10.9,4.7-11.78,11.11-17.74,23.82-18.21,38.84v2c-.18,14.46,5.89,30.93,18.06,49,13.18,19.41,26.19,35.68,38.68,48.35A147.24,147.24,0,0,0,245,334.6c22.81,10.64,39.12,16,48.53,16,7.61,0,16.06-2.22,25.14-6.59,8.7-4.2,14.34-9.29,16.74-15.13,2.75-7,4.16-13.24,4.16-18.51a14,14,0,0,0-.1-1.84c-1.35-1.06-6-4.15-21.84-12.39-19-9.9-23.16-11.06-24-11.18.34.07-2.28,1.3-10.3,11.26h0c-10.19,12.67-14.49,14.42-17.6,14.42a15.74,15.74,0,0,1-8-2.45c-16.8-8.45-30.58-17.68-40.74-27.29-12.33-11.58-21.72-24.22-27.93-37.57a10.69,10.69,0,0,1-1.73-5.75c0-2.68,1.72-6.17,10.29-15.24,7.21-7.58,8-11.13,8-12.3-.09-.35-.9-3.51-6.36-18.4q-6.58-17.89-8.71-23.17c-1.68-4.41-2.75-5.51-3-5.68h0s-.91-.66-4.22-.66a45.16,45.16,0,0,1-5.55-.43A39.48,39.48,0,0,0,173.6,161.37Z"/></svg>