<svg xmlns="http://www.w3.org/2000/svg" width="25.022" height="27.2" viewBox="0 0 25.022 27.2">
  <path id="customer-service" d="M25.02,12.323A12.51,12.51,0,0,0,0,12.323c0,.117,0,.089,0,4.163a2.909,2.909,0,0,0,2.906,2.906h0a2.909,2.909,0,0,0,2.906-2.906V12.412A2.909,2.909,0,0,0,2.906,9.506a2.938,2.938,0,0,0-.344.021,10.387,10.387,0,0,1,19.9,0,2.943,2.943,0,0,0-.344-.021,2.909,2.909,0,0,0-2.906,2.906v4.074a2.909,2.909,0,0,0,2.906,2.906h0l.084,0a6.416,6.416,0,0,1-5.711,3.5h-.912a3.245,3.245,0,1,0,0,2.125h.912a8.542,8.542,0,0,0,8.533-8.532h0V12.412c0-.03,0-.06,0-.089ZM2.906,11.631a.781.781,0,0,1,.781.781v4.074a.781.781,0,0,1-.781.781h0a.782.782,0,0,1-.781-.781c0-2.7,0-3.819,0-4.106a.781.781,0,0,1,.779-.748Zm9.6,13.444a1.12,1.12,0,1,1,1.12-1.12A1.121,1.121,0,0,1,12.511,25.075ZM22.9,16.486a.782.782,0,0,1-.781.781h0a.782.782,0,0,1-.781-.781V12.412a.78.78,0,0,1,1.56-.033C22.9,12.634,22.9,12.325,22.9,16.486Zm0,0" fill="#999"/>
</svg>
