<svg id="Icon" xmlns="http://www.w3.org/2000/svg" viewBox="0 0 512 512"><defs><style>.cls-1{fill:#333;}.cls-2{fill:#fff;}.cls-3{fill:#1e7dff;}</style></defs><title>20_Cards</title><path class="cls-1" d="M432.74,356.84H126.05a23.29,23.29,0,0,1-23.27-23.27V130.88a23.29,23.29,0,0,1,23.27-23.26H432.74A23.29,23.29,0,0,1,456,130.88V333.57A23.29,23.29,0,0,1,432.74,356.84ZM126.05,120.69a10.21,10.21,0,0,0-10.21,10.19V333.57a10.21,10.21,0,0,0,10.21,10.2H432.74a10.2,10.2,0,0,0,10.2-10.2V130.88a10.2,10.2,0,0,0-10.2-10.19Z"/><rect class="cls-2" x="62.53" y="161.69" width="340.16" height="236.15"/><rect class="cls-3" x="66.29" y="215.22" width="332.63" height="51.58"/><path class="cls-1" d="M386,404.38H79.26A23.29,23.29,0,0,1,56,381.11V178.42a23.28,23.28,0,0,1,23.26-23.26H386a23.28,23.28,0,0,1,23.26,23.26V381.11A23.29,23.29,0,0,1,386,404.38ZM79.26,168.23a10.2,10.2,0,0,0-10.2,10.19V381.11a10.2,10.2,0,0,0,10.2,10.2H386a10.2,10.2,0,0,0,10.2-10.2V178.42A10.2,10.2,0,0,0,386,168.23Z"/><path class="cls-3" d="M304.23,335.63a3.72,3.72,0,0,1,3.67,3.66v13.76a3.72,3.72,0,0,1-3.67,3.66H283.64a3.71,3.71,0,0,1-3.66-3.66V339.29a3.71,3.71,0,0,1,3.66-3.66h20.59m0-13.07H283.64a16.78,16.78,0,0,0-16.73,16.73v13.76a16.78,16.78,0,0,0,16.73,16.73h20.59A16.78,16.78,0,0,0,321,353.05V339.29a16.78,16.78,0,0,0-16.73-16.73Z"/><path class="cls-3" d="M358.28,335.63a3.72,3.72,0,0,1,3.67,3.66v13.76a3.72,3.72,0,0,1-3.67,3.66H337.69a3.71,3.71,0,0,1-3.66-3.66V339.29a3.71,3.71,0,0,1,3.66-3.66h20.59m0-13.07H337.69A16.78,16.78,0,0,0,321,339.29v13.76a16.78,16.78,0,0,0,16.73,16.73h20.59A16.78,16.78,0,0,0,375,353.05V339.29a16.78,16.78,0,0,0-16.74-16.73Z"/></svg>