<svg xmlns="http://www.w3.org/2000/svg" width="14.102" height="16.229" viewBox="0 0 14.102 16.229">
  <g id="Group_3125" data-name="Group 3125" transform="translate(0 0)">
    <g id="Group_3124" data-name="Group 3124" transform="translate(0 0)">
      <g id="Group_3120" data-name="Group 3120" transform="translate(0 4.74)">
        <path id="Path_5935" data-name="Path 5935" d="M18.9,48.582H17.8c.178-.86.353-1.7.526-2.544s.345-1.684.517-2.525l-.047-.021c-.2.244-.4.486-.6.732a.483.483,0,0,1-.495.193.7.7,0,0,1-.319-.155q-1.031-.939-2.047-1.894a.483.483,0,0,1-.052-.742.509.509,0,0,1,.75-.019c.514.44,1.024.885,1.535,1.328l.1.085c.039-.049.076-.093.11-.139.384-.524.764-1.05,1.152-1.57a1.85,1.85,0,0,1,2.7-.221,1.641,1.641,0,0,1,.207.277q1.243,2.023,2.483,4.049c.034.056.07.112.1.171a.482.482,0,0,1-.126.622.5.5,0,0,1-.652.013,1.07,1.07,0,0,1-.19-.226q-.664-.985-1.323-1.974a.351.351,0,0,0-.133-.131l.966,4.685H21.838c0,.078,0,.136,0,.194.027.929.058,1.859.08,2.788a.506.506,0,0,1-.65.519.439.439,0,0,1-.368-.394c-.058-.535-.108-1.072-.16-1.608-.048-.491-.093-.982-.142-1.483h-.5c-.032.415-.064.825-.1,1.235-.045.6-.087,1.207-.134,1.81a.485.485,0,0,1-.547.451.48.48,0,0,1-.489-.511c.018-.742.048-1.485.069-2.227C18.911,49.1,18.9,48.855,18.9,48.582Z" transform="translate(-15.128 -40.605)" fill="#0a56bb" fill-rule="evenodd"/>
      </g>
      <g id="Group_3121" data-name="Group 3121" transform="translate(1.771)">
        <path id="Path_5936" data-name="Path 5936" d="M28.765,10.027a1.357,1.357,0,0,0-.2.728c-.025.3-.04.592-.063.888a1.076,1.076,0,0,1-.517.857c-.172.111-.358.2-.551.311-.015-.059-.031-.084-.024-.1a4.375,4.375,0,0,0,.2-1.41,6.139,6.139,0,0,1,.168-.97.9.9,0,0,1,.9-.692.168.168,0,0,0,.116-.11,2.113,2.113,0,0,1,4.166-.045c.009.048.022.1.035.15.083.007.165.008.246.02a.912.912,0,0,1,.734.614,3.724,3.724,0,0,1,.2,1.165c.02.29.033.582.069.871a2.988,2.988,0,0,0,.126.447c-.02.007-.04.023-.057.02a1.4,1.4,0,0,1-1.016-1c-.04-.249-.045-.5-.072-.755s-.059-.512-.1-.766a1.132,1.132,0,0,0-.108-.24,2.077,2.077,0,0,1-2.2,1.907C29.7,11.891,29.122,11.31,28.765,10.027Z" transform="translate(-27.407 -7.75)" fill="#0a56bb" fill-rule="evenodd"/>
      </g>
      <g id="Group_3123" data-name="Group 3123" transform="translate(8.036 8.319)">
        <g id="Group_3122" data-name="Group 3122">
          <path id="Path_5937" data-name="Path 5937" d="M74.657,68.955a1.7,1.7,0,0,0,.288.8,3.021,3.021,0,0,1,.632,1.292.38.38,0,0,1-.13.43.316.316,0,0,1-.4.02.745.745,0,0,1-.185-.277c-.118-.259-.223-.523-.337-.784a1.071,1.071,0,0,0-.11-.155c-.047.072-.084.123-.115.177a1.429,1.429,0,0,1-.17.3.744.744,0,0,0-.147.645,3.461,3.461,0,0,1-.146,1.235.369.369,0,0,1-.377.261.388.388,0,0,1-.341-.332.756.756,0,0,1,.02-.161c.035-.332.069-.663.1-1,.01-.1-.019-.149-.131-.163a.962.962,0,0,1-.648-.358c-.081-.1-.151-.094-.251-.036a2.258,2.258,0,0,0-.661.611.619.619,0,0,1-.278.21.313.313,0,0,1-.363-.133.346.346,0,0,1-.011-.416,2.181,2.181,0,0,1,.891-.86,1.392,1.392,0,0,0,.661-.69c.164-.3.222-.525-.053-.8a3.512,3.512,0,0,1-.429-.65l.6-.468c.036.068.078.16.131.246.11.177.23.348.341.525a.135.135,0,0,0,.207.052c.086-.044.18-.075.277-.114-.054-.148-.114-.282-.153-.423a1.177,1.177,0,0,1,.065-.79.247.247,0,0,0-.021-.269.953.953,0,0,1,.041-1.1.97.97,0,0,1,1.064-.331.956.956,0,0,1,.668.889c.007.191.049.213.218.113a.967.967,0,0,1,1.489.79.919.919,0,0,1-.87.962.37.37,0,0,0-.336.176A1.312,1.312,0,0,1,74.657,68.955ZM73.905,68a.539.539,0,0,0,.549.553.559.559,0,0,0,.554-.558.55.55,0,0,0-.551-.542A.528.528,0,0,0,73.905,68Zm.791-1.682a.428.428,0,0,0-.312-.4.49.49,0,0,0-.552.187.4.4,0,0,0-.02.489Zm1,.548a.279.279,0,0,0,.017.067,1.357,1.357,0,0,1,.215.717c0,.109.064.122.157.09a.489.489,0,0,0,.3-.642A.477.477,0,0,0,75.7,66.862Z" transform="translate(-70.836 -65.417)" fill="#0a56bb" fill-rule="evenodd"/>
        </g>
      </g>
    </g>
  </g>
</svg>
