<svg xmlns="http://www.w3.org/2000/svg" width="54.09" height="86.51" viewBox="0 0 54.09 86.51"><defs><style>.a{fill:#2681ff;}.b{fill:none;stroke:#2681ff;stroke-linecap:round;stroke-miterlimit:10;stroke-width:5px;}</style></defs><g transform="translate(-32.981 -19.643)"><g transform="translate(32.981 19.643)"><path class="a" d="M59.978,98.283a9.008,9.008,0,0,1-4.735-1.349A8.329,8.329,0,0,1,51.9,93.157L34.782,56.6A23.272,23.272,0,0,1,33,46.742,26.406,26.406,0,0,1,40.935,27.6a25.727,25.727,0,0,1,19.147-7.946,26.04,26.04,0,0,1,19.147,8.016,26.432,26.432,0,0,1,7.833,19.147,23.107,23.107,0,0,1-1.845,9.7L68.08,93.209a8.756,8.756,0,0,1-3.4,3.751,8.947,8.947,0,0,1-4.7,1.323Zm-.261-72.7a20.235,20.235,0,0,0-14.6,6.188,20.548,20.548,0,0,0-6.214,15.013,17.407,17.407,0,0,0,1.314,7.372L57.314,90.711a2.611,2.611,0,0,0,1.027,1.175,3.081,3.081,0,0,0,3.238,0,2.82,2.82,0,0,0,1.114-1.21L79.778,54.062a17.146,17.146,0,0,0,1.271-7.128v-.157A20.531,20.531,0,0,0,74.9,31.825,20.018,20.018,0,0,0,60.03,25.576Zm.426,36.345h-.418A15.039,15.039,0,0,1,44.982,46.786a14.656,14.656,0,0,1,4.413-10.644,14.926,14.926,0,0,1,21.227.07,15.152,15.152,0,0,1,0,21.288,14.587,14.587,0,0,1-10.479,4.439Zm-.165-5.944a8.7,8.7,0,0,0,6.4-2.611l.07-.07a8.782,8.782,0,0,0,2.611-6.38,9.095,9.095,0,0,0-9.034-9.217h0a8.982,8.982,0,0,0-6.4,2.611,9.208,9.208,0,0,0-.07,12.933A8.7,8.7,0,0,0,59.978,55.985Z" transform="translate(-32.981 -19.643)"/></g><path class="b" d="M75.236,101.32c3.777,1.305,8.3,3.673,8.3,5.588,0,4.056-10.279,7.337-22.959,7.337s-22.959-3.281-22.959-7.337c0-2.15,2.907-4.091,7.537-5.431l.566-.157" transform="translate(-0.602 -10.591)"/></g></svg>