<svg id="Icon" xmlns="http://www.w3.org/2000/svg" viewBox="0 0 512 512"><defs><style>.cls-1{fill:#fff;}.cls-2{fill:#1e7dff;}.cls-3{fill:#333;}.cls-4{fill:none;}</style></defs><title>18_COD</title><path class="cls-1" d="M438.38,302.17l-8.12-46.52a46.15,46.15,0,0,0-2.62-9.5,44.64,44.64,0,0,0-41.24-27.76H326.56a7.24,7.24,0,0,0-6.95,7V328.52h-8.55V124.35a44.46,44.46,0,0,0-44.37-44.57H75.79A44.66,44.66,0,0,0,31,124.3V388.84c0,5.76,4.69,10.88,10.44,10.88H81.26a47,47,0,0,1-.67-6.92c0-.34,0-.73,0-1.11a47,47,0,0,1,12.7-32.18l.1-.11.2-.21c.55-.58,1.12-1.14,1.69-1.69a47.14,47.14,0,0,1,66.65,1.69l.2.21.1.11a46.92,46.92,0,0,1,12.7,32.18c0,.38,0,.77,0,1.15a47.72,47.72,0,0,1-.68,6.88h172.1a47,47,0,0,1-.66-6.92c0-.34,0-.73,0-1.11v-.42a47.17,47.17,0,0,1,94.34.42c0,.38,0,.77,0,1.15a47.72,47.72,0,0,1-.68,6.88h31.25c5.75,0,10.44-5.12,10.44-10.87V355.46C481,332,462.17,303.8,438.38,302.17Z"/><path class="cls-2" d="M96.8,257.55l71.1,41.11a6.53,6.53,0,0,0,6.58,0l71.38-41.11a6.81,6.81,0,0,0,3.49-5.76V169.58a6.82,6.82,0,0,0-3.5-5.76l-71.3-41.1a6.71,6.71,0,0,0-6.69,0l-71,41.1a6.49,6.49,0,0,0-3.16,5.76v82.21A6.45,6.45,0,0,0,96.8,257.55ZM107,181.08l57.91,33.43v66.88L107,248ZM171.14,203l-23-13.29L206,156.29l23,13.28Zm7,78.38V214.52l57.91-33.44V248Zm-7-145.25,21.6,12.47-57.9,33.44-21.61-12.48Z"/><path class="cls-2" d="M392.83,357.81a33.92,33.92,0,0,1,33.88,33.88c0,.25,0,.51,0,.8a33.88,33.88,0,0,1-67.74,0c0-.25,0-.51,0-.76a33.92,33.92,0,0,1,33.88-33.88Z"/><path class="cls-3" d="M392.84,432.22l-1,0a40.47,40.47,0,0,1-39.56-39.6c0-.25,0-.54,0-.84a40.66,40.66,0,0,1,40.52-40.6h0a40.62,40.62,0,0,1,40.51,40.51c0,.31,0,.61,0,1A40.58,40.58,0,0,1,392.84,432.22Zm0-67.76A27.31,27.31,0,0,0,365.6,391.7c0,.23,0,.39,0,.55a27.24,27.24,0,0,0,54.46.08v-.64A27.31,27.31,0,0,0,392.83,364.46Z"/><path class="cls-2" d="M103,368.58l.07-.08.13-.13A33.85,33.85,0,0,1,151,367.1c.44.41.86.84,1.27,1.27l.11.11.09.1a33.73,33.73,0,0,1,9.12,23.11v.8a33.88,33.88,0,0,1-67.75,0c0-.25,0-.51,0-.76A33.68,33.68,0,0,1,103,368.58Z"/><path class="cls-3" d="M127.78,432.22h-1A40.46,40.46,0,0,1,87.24,392.6c0-.26,0-.54,0-.83A40.29,40.29,0,0,1,98.14,364l0,0,.25-.26a40.53,40.53,0,0,1,57.2-1.47c.52.49,1,1,1.52,1.52v0l.12.13.09.1a40.27,40.27,0,0,1,10.95,27.69c0,.3,0,.62,0,1a40.54,40.54,0,0,1-40.49,39.55Zm-19.94-59.1h0a27,27,0,0,0-7.32,18.56v.6a27.21,27.21,0,0,0,26.59,26.64A27.24,27.24,0,0,0,155,392.34c0-.25,0-.45,0-.65a27,27,0,0,0-7.33-18.57h0l-.18-.18c-.31-.33-.65-.67-1-1A27.22,27.22,0,0,0,108,373Z"/><path class="cls-4" d="M393,344.31a47.17,47.17,0,0,1,46.68,42.12h28v-31c0-21.21-17.61-40.24-31.5-40.24H332.9v71.21h13A47.17,47.17,0,0,1,393,344.31Z"/><path class="cls-4" d="M93.38,359.4l.2-.21c.55-.58,1.12-1.14,1.69-1.69a47.14,47.14,0,0,1,66.65,1.69l.2.21.1.11a46.94,46.94,0,0,1,12.4,26.92h145V341.81H44.29v44.62H80.88a47,47,0,0,1,12.4-26.92Z"/><path class="cls-4" d="M266.49,93.07H75.7a31.35,31.35,0,0,0-31.41,31.28V328.52H297.77V124.12A31.17,31.17,0,0,0,266.49,93.07Z"/><rect class="cls-4" x="332.9" y="231.68" width="39.87" height="70.25"/><path class="cls-4" d="M415.36,251.22a31.41,31.41,0,0,0-29-19.54h-.34v70.25h38.81l-7.71-44.17A31.54,31.54,0,0,0,415.36,251.22Z"/><path class="cls-3" d="M438.38,302.17l-8.12-46.52a46.15,46.15,0,0,0-2.62-9.5,44.64,44.64,0,0,0-41.24-27.76H326.56a7.24,7.24,0,0,0-6.95,7V328.52h-8.55V124.35a44.46,44.46,0,0,0-44.37-44.57H75.79A44.66,44.66,0,0,0,31,124.3V388.84c0,5.76,4.69,10.88,10.44,10.88H81.26a47,47,0,0,1-.67-6.92c0-.34,0-.73,0-1.11a48.38,48.38,0,0,1,.3-5.26H44.29V341.81H319.61v44.62h-145a43.81,43.81,0,0,1,.3,5.26c0,.38,0,.77,0,1.15a47.72,47.72,0,0,1-.68,6.88h172.1a47,47,0,0,1-.66-6.92c0-.34,0-.73,0-1.11v-.42a48.22,48.22,0,0,1,.27-4.84h-13V315.22H436.21c13.89,0,31.5,19,31.5,40.24v31h-28a45.74,45.74,0,0,1,.28,5.26c0,.38,0,.77,0,1.15a47.72,47.72,0,0,1-.68,6.88h31.25c5.75,0,10.44-5.12,10.44-10.87V355.46C481,332,462.17,303.8,438.38,302.17ZM297.77,124.35V328.52H44.29V124.35A31.35,31.35,0,0,1,75.7,93.07H266.49a31.17,31.17,0,0,1,31.28,31.05Zm75,177.58H332.9V231.68h39.87Zm13.29,0V231.68h.34a31,31,0,0,1,30.76,26.08l7.71,44.17Z"/></svg>