<svg id="combo" xmlns="http://www.w3.org/2000/svg" width="30" height="30" viewBox="0 0 30 30">
  <rect id="Rectangle_2139" data-name="Rectangle 2139" width="30" height="30" fill="none"/>
  <g id="Group_4929" data-name="Group 4929" transform="translate(0.734 3)">
    <circle id="Ellipse_250" data-name="Ellipse 250" cx="7" cy="7" r="7" transform="translate(1.266 8.749)" fill="#67a7ff"/>
    <g id="Group_3208" data-name="Group 3208">
      <path id="Path_6056" data-name="Path 6056" d="M30.509,54.058a1.068,1.068,0,0,1-.027-.134,7.674,7.674,0,0,0-1.067-3.211,7.933,7.933,0,0,0-6.323-3.921.86.86,0,0,0-.639.183.747.747,0,0,0-.26.521.77.77,0,0,0,.772.825c.215.024.47.054.721.1a6.372,6.372,0,0,1,4.176,2.724,6.469,6.469,0,0,1-10.668,7.321c-.037-.052-.045-.062,0-.149a7.992,7.992,0,0,0,.782-4.39,1.718,1.718,0,0,0,1.633,1.171A1.719,1.719,0,0,0,21.3,53.069a.781.781,0,0,0-.894-.7.759.759,0,0,0-.632.875c.017.272-.054.286-.128.3-.1.019-.165.017-.255-.191A.751.751,0,0,0,18.4,52.9a.743.743,0,0,0-.48.665,8.57,8.57,0,0,0-.734-2.315c-.037-.078-.033-.091.009-.151a6.7,6.7,0,0,1,1.775-1.733.928.928,0,0,0,.43-.587.722.722,0,0,0-.129-.556.785.785,0,0,0-1.147-.139,8.076,8.076,0,0,0-1.864,1.7l-.031-.037a7.9,7.9,0,0,0-5.764-2.962,8.027,8.027,0,0,0-8.249,6.164c-.06.259-.106.522-.151.777-.021.119-.042.238-.064.356l0,1.3.034.233c.022.141.044.283.071.423a7.712,7.712,0,0,0,5.478,6.346,8.429,8.429,0,0,0,2.589.428,7.858,7.858,0,0,0,5.488-2.375c.191-.181.365-.382.534-.575l.074-.085.051.059a7.723,7.723,0,0,0,7.651,2.8,7.7,7.7,0,0,0,6.2-5.5,7.955,7.955,0,0,0,.266-1.175c.031-.177.061-.353.1-.528l0-1.252Zm-20.5,7.2H10a6.474,6.474,0,0,1,.009-12.947h.008A6.474,6.474,0,0,1,10.01,61.26Z" transform="translate(-2 -38.657)" fill="#3e3e3e"/>
      <path id="Path_6057" data-name="Path 6057" d="M82.907,83.474a.784.784,0,0,0-.437,1.067A2.454,2.454,0,0,0,84.8,86.22h.006a2.47,2.47,0,0,0,1.925-.916,2.436,2.436,0,0,0,.5-2.049.932.932,0,0,0-.38-.6.7.7,0,0,0-.544-.095.785.785,0,0,0-.575,1,.94.94,0,0,1-.639,1.089.93.93,0,0,1-1.175-.614A.763.763,0,0,0,82.907,83.474Z" transform="translate(-63.907 -66.19)" fill="#3e3e3e"/>
      <path id="Path_6058" data-name="Path 6058" d="M93.54,66.716c-.047.017-.147.052-.246-.163a.769.769,0,0,0-1.029-.468.784.784,0,0,0-.383,1.069,1.7,1.7,0,0,0,1.6,1.107h.006a1.714,1.714,0,0,0,1.691-2.046.76.76,0,0,0-.879-.673.74.74,0,0,0-.5.286.835.835,0,0,0-.14.627C93.694,66.646,93.628,66.685,93.54,66.716Z" transform="translate(-71.144 -53.099)" fill="#3e3e3e"/>
      <path id="Path_6059" data-name="Path 6059" d="M60.931,15.439a.738.738,0,0,0,.517.207h.02a.773.773,0,0,0,.746-.826c0-.288,0-.577,0-.865V13.2c0-.3,0-.591,0-.886a.765.765,0,0,0-.742-.827.735.735,0,0,0-.544.206.855.855,0,0,0-.247.618c-.005.813-.005,1.654,0,2.5A.864.864,0,0,0,60.931,15.439Z" transform="translate(-47.176 -11.491)" fill="#3e3e3e"/>
      <path id="Path_6060" data-name="Path 6060" d="M73.893,24.226a.873.873,0,0,0,.6-.269c.189-.183.374-.369.56-.556l.483-.484c.229-.228.458-.457.683-.689a.783.783,0,0,0,.214-.566.768.768,0,0,0-.272-.554.751.751,0,0,0-1.066.085l-.629.625c-.354.351-.708.7-1.058,1.057a.758.758,0,0,0-.049,1.111A.735.735,0,0,0,73.893,24.226Z" transform="translate(-56.77 -18.752)" fill="#3e3e3e"/>
      <path id="Path_6061" data-name="Path 6061" d="M61.459,32.952a.779.779,0,0,0-.759.765.779.779,0,0,0,.769.767H61.5a.761.761,0,0,0,.733-.784A.772.772,0,0,0,61.459,32.952Z" transform="translate(-47.193 -28.014)" fill="#3e3e3e"/>
      <path id="Path_6062" data-name="Path 6062" d="M30.284,84.7c-.418-.017-.718.278-.8.783a1.434,1.434,0,0,1-.224.582.872.872,0,0,1-.983.294.929.929,0,0,1-.657-.841A.79.79,0,0,0,26.8,84.7a.782.782,0,0,0-.716.907,2.462,2.462,0,0,0,2.46,2.329h0a2.468,2.468,0,0,0,2.472-2.343A.779.779,0,0,0,30.284,84.7Z" transform="translate(-20.541 -67.854)" fill="#3e3e3e"/>
      <path id="Path_6063" data-name="Path 6063" d="M41.711,69.023h0a1.756,1.756,0,0,0-1.231.527,1.644,1.644,0,0,0-.493,1.17.781.781,0,0,0,.633.783.764.764,0,0,0,.844-.47,1.077,1.077,0,0,0,.049-.215c.006-.034.01-.068.018-.1.034-.134.108-.15.18-.15.092,0,.159.029.184.165a.408.408,0,0,1,0,.041.758.758,0,0,0,.012.1.789.789,0,0,0,.754.646c.022,0,.044,0,.066,0a.771.771,0,0,0,.7-.8,1.649,1.649,0,0,0-.5-1.177A1.74,1.74,0,0,0,41.711,69.023Z" transform="translate(-31.243 -55.785)" fill="#3e3e3e"/>
      <path id="Path_6064" data-name="Path 6064" d="M20.59,70.84a.759.759,0,0,0,.744.68.777.777,0,0,0,.775-.849,1.722,1.722,0,0,0-3.44,0,.77.77,0,0,0,.674.847.779.779,0,0,0,.85-.682c.052-.276.141-.27.185-.266C20.48,70.573,20.556,70.6,20.59,70.84Z" transform="translate(-14.833 -55.787)" fill="#3e3e3e"/>
      <path id="Path_6065" data-name="Path 6065" d="M41.35,22.944l.484.485c.185.186.37.373.558.555a.872.872,0,0,0,.6.269.736.736,0,0,0,.534-.24.758.758,0,0,0-.048-1.111c-.5-.5-1.085-1.1-1.689-1.685a.8.8,0,0,0-1.107-.061.735.735,0,0,0-.261.525.814.814,0,0,0,.245.573C40.892,22.487,41.121,22.716,41.35,22.944Z" transform="translate(-31.58 -18.779)" fill="#3e3e3e"/>
    </g>
  </g>
</svg>
