<svg id="culture" xmlns="http://www.w3.org/2000/svg" width="30" height="30" viewBox="0 0 30 30">
  <rect id="Rectangle_2148" data-name="Rectangle 2148" width="30" height="30" fill="none"/>
  <path id="Path_6523" data-name="Path 6523" d="M71.806,21.979H66.044V10.946h5.762Z" transform="translate(-53.459 1.633)" fill="#67a7ff"/>
  <g id="Group_4936" data-name="Group 4936" transform="translate(6.094 3.246)">
    <path id="Path_6521" data-name="Path 6521" d="M75.41,191.37h-5.1V180.7a.7.7,0,0,0-.7-.7H63.968a.7.7,0,0,0-.7.7V191.37h-5.1a.7.7,0,1,0,0,1.409,1.835,1.835,0,0,1,1.65,1.02,3.237,3.237,0,0,0,2.911,1.8h8.124a3.237,3.237,0,0,0,2.911-1.8,1.835,1.835,0,0,1,1.65-1.02.7.7,0,1,0,0-1.409Zm-6.509-9.96v4.933a.7.7,0,0,1-1.409,0v-1.409a2.117,2.117,0,0,0-2.114-2.114h-.7v-1.409Zm-4.228,2.819h.7a.706.706,0,0,1,.7.7v1.409a2.113,2.113,0,0,0,2.819,1.993v3.034H64.673Zm7.826,8.94a1.835,1.835,0,0,1-1.65,1.02H62.725a1.835,1.835,0,0,1-1.65-1.02,3.314,3.314,0,0,0-.229-.39H72.728A3.31,3.31,0,0,0,72.5,193.169Z" transform="translate(-57.459 -171.543)" fill="#3e3e3e"/>
    <path id="Path_6522" data-name="Path 6522" d="M188.047,4.727A4.733,4.733,0,0,0,183.32,0h-.206a.705.705,0,0,0-.586,1.1,1.28,1.28,0,0,1-.376,1.8A2.433,2.433,0,0,0,181,5.139a3.322,3.322,0,0,0,3.318,3.318A3.733,3.733,0,0,0,188.047,4.727Zm-3.729,2.32a1.911,1.911,0,0,1-1.909-1.909,1.038,1.038,0,0,1,.474-1.035,2.658,2.658,0,0,0,1.255-2.592,3.324,3.324,0,0,1,2.5,3.216A2.322,2.322,0,0,1,184.318,7.047Z" transform="translate(-175.196)" fill="#3e3e3e"/>
  </g>
</svg>
