<svg id="Icon" xmlns="http://www.w3.org/2000/svg" viewBox="0 0 512 512"><defs><style>.cls-1{opacity:0.6;}.cls-2{fill:#f2a437;}.cls-3{fill:#4869ef;}</style></defs><title>10_Currency</title><g class="cls-1"><path class="cls-2" d="M296.19,291.36a13.66,13.66,0,0,0-4-10.07q-4-4-13.37-7.28-15.21-5.13-22.81-12.36T248.41,242q0-11.82,7.28-19.45t19.74-9V197.94H287v15.67q12.31,1.86,19.28,10.44t6.95,22.75H295.76q0-9-4-14.21a13.24,13.24,0,0,0-11.1-5.23q-7.35,0-11,3.89t-3.68,10.48a13.56,13.56,0,0,0,3.86,10q3.86,3.87,13.87,7.38,15.21,5.4,22.63,12.53t7.43,19.52q0,12.31-7.57,19.66t-20.69,8.69v13.89H274V319.6q-12.9-1.35-21.22-9.23t-8-23.18l.14-.36h17q0,10.16,5,14.52a18.36,18.36,0,0,0,12.51,4.36q8,0,12.4-3.86C294.73,299.29,296.19,295.78,296.19,291.36Z"/></g><path class="cls-3" d="M174.32,185.33l-7.44-6.5c1.48-1.7,36.9-41.62,87.11-42.81,30.07-.66,59.7,13.13,86.61,41.18L333.48,184c-24.9-25.93-51.5-38.66-79.18-38.14C208.47,146.94,174.65,184.94,174.32,185.33Z"/><polygon class="cls-3" points="346.34 188.47 299.98 188.47 299.98 178.59 336.46 178.59 336.46 151.55 346.34 151.55 346.34 188.47"/><path class="cls-3" d="M255.74,376c-29.73,0-58.1-13.85-84.34-41.2l7.12-6.85c24.9,25.94,51.85,38.76,79.18,38.15,45.83-1,79.65-39.05,80-39.43l7.44,6.5c-1.48,1.7-36.9,41.62-87.11,42.8C257.26,376,256.5,376,255.74,376Z"/><polygon class="cls-3" points="175.54 360.45 165.66 360.45 165.66 323.53 212.03 323.53 212.03 333.41 175.54 333.41 175.54 360.45"/><path class="cls-3" d="M274.18,287.83a14.94,14.94,0,0,0-4.28-10.91C267,274,262.27,271.4,255.58,269q-16.29-5.57-24.43-13.4T223,234.3q0-12.81,7.8-21.07T252,203.42V186.59H264.3v17q13.2,2,20.65,11.31t7.45,24.66H273.72q0-9.74-4.32-15.4a14.15,14.15,0,0,0-11.89-5.68c-5.25,0-9.19,1.42-11.81,4.22s-3.94,6.62-3.94,11.36a14.8,14.8,0,0,0,4.13,10.86q4.13,4.2,14.86,8Q277,258.77,285,266.49t7.95,21.15q0,13.35-8.1,21.31t-22.16,9.41v15.06H250.41v-15q-13.82-1.47-22.74-10t-8.6-25.12l.15-.39h18.22q0,11,5.36,15.74a19.53,19.53,0,0,0,13.4,4.72q8.57,0,13.27-4.18T274.18,287.83Z"/></svg>