<svg id="Layer_1" data-name="Layer 1" xmlns="http://www.w3.org/2000/svg" viewBox="0 0 128 128"><defs><style>.cls-1{fill:#ed58bf;}</style></defs><title>247customercare</title><path class="cls-1" d="M124,55.44a51.53,51.53,0,0,0-93.58-29.7l3.92,3.92a46,46,0,1,1,64,63.8l3.92,3.92A51.28,51.28,0,0,0,124,55.44Z"/><path class="cls-1" d="M85.89,88.67a9.32,9.32,0,0,0-12.68-.56c-6.21,6.21-8.27,5.4-10.55,3l-26-25.76c-2.38-2.37-3.19-4.34,3-10.54a9.29,9.29,0,0,0-.58-12.65L24.49,27.48a9.29,9.29,0,0,0-12.58-.66C-.48,38,2.36,64.37,15.73,76.72l35.78,35.72c12,12.77,37.68,16.31,49.68,3.71a9.21,9.21,0,0,0-.66-12.54Z"/><path class="cls-1" d="M53,62.3h7.57a2.76,2.76,0,0,1,1.73.47A1.53,1.53,0,0,1,62.89,64a1.69,1.69,0,0,1-.47,1.2,1.88,1.88,0,0,1-1.43.49H50.32a2.31,2.31,0,0,1-1.69-.6A1.9,1.9,0,0,1,48,63.71a3.64,3.64,0,0,1,.39-1.39A4.76,4.76,0,0,1,49.27,61q1.92-2,3.48-3.42A23.06,23.06,0,0,1,55,55.68a12.41,12.41,0,0,0,2-1.69,6.84,6.84,0,0,0,1.21-1.74,4.17,4.17,0,0,0,.41-1.74,3.19,3.19,0,0,0-.44-1.66,3.13,3.13,0,0,0-1.21-1.13,3.49,3.49,0,0,0-1.66-.41,3.41,3.41,0,0,0-3,1.67,8.38,8.38,0,0,0-.48,1.18A4.77,4.77,0,0,1,51,51.65a1.51,1.51,0,0,1-1.25.52,1.64,1.64,0,0,1-1.21-.47,1.81,1.81,0,0,1-.47-1.31,5.46,5.46,0,0,1,.45-2.08,5.8,5.8,0,0,1,1.34-2,6.56,6.56,0,0,1,2.26-1.42,8.7,8.7,0,0,1,3.21-.54,9.32,9.32,0,0,1,3.78.69,5.63,5.63,0,0,1,1.78,1.27,6,6,0,0,1,1.63,4.08,6.22,6.22,0,0,1-.89,3.27A10.08,10.08,0,0,1,59.82,56c-.62.55-1.66,1.42-3.11,2.61a23.44,23.44,0,0,0-3,2.76A8.82,8.82,0,0,0,53,62.3Z"/><path class="cls-1" d="M74.42,63.88V61.19H67.14a3,3,0,0,1-2.07-.62,2.18,2.18,0,0,1-.69-1.7,1.58,1.58,0,0,1,.11-.55,2.8,2.8,0,0,1,.3-.6l.42-.59c.14-.2.33-.44.54-.72l7.68-10.25a11.21,11.21,0,0,1,1.24-1.47,1.61,1.61,0,0,1,1.17-.46c1.47,0,2.2.84,2.2,2.52V58h.62a4.44,4.44,0,0,1,1.79.3,1.3,1.3,0,0,1,.68,1.33,1.42,1.42,0,0,1-.55,1.23,3,3,0,0,1-1.66.38H78v2.69a2.39,2.39,0,0,1-.49,1.66,1.71,1.71,0,0,1-1.33.54,1.66,1.66,0,0,1-1.3-.56A2.33,2.33,0,0,1,74.42,63.88ZM68.18,58h6.24V49.54Z"/><path class="cls-1" d="M89.32,47.08,85.26,63.77c-.14.54-.25,1-.36,1.3a1.54,1.54,0,0,1-.46.74,1.35,1.35,0,0,1-.91.27c-1,0-1.47-.42-1.47-1.27a10.36,10.36,0,0,1,.29-1.67l4-16.68A7.26,7.26,0,0,1,87,44.64a1.2,1.2,0,0,1,1.13-.5,1.62,1.62,0,0,1,1.11.35,1.24,1.24,0,0,1,.38,1A8,8,0,0,1,89.32,47.08Z"/><path class="cls-1" d="M96.7,44.71h9.66a3.62,3.62,0,0,1,2,.43,1.61,1.61,0,0,1,.62,1.43,3,3,0,0,1-.73,1.61c-.49.67-1,1.4-1.67,2.21a23.15,23.15,0,0,0-1.92,3,23.93,23.93,0,0,0-1.82,4.39,18.29,18.29,0,0,0-.5,1.89c-.09.5-.2,1.15-.31,1.95s-.22,1.42-.31,1.84a4.15,4.15,0,0,1-.86,2.05,2,2,0,0,1-1.49.57A1.84,1.84,0,0,1,98,65.47a2.76,2.76,0,0,1-.53-1.82,11.24,11.24,0,0,1,.39-2.52,29.6,29.6,0,0,1,1.27-3.81,37.1,37.1,0,0,1,5.36-9.21H96.7a3.11,3.11,0,0,1-1.82-.44,1.61,1.61,0,0,1-.6-1.38c0-.67.21-1.1.64-1.29A4.25,4.25,0,0,1,96.7,44.71Z"/></svg>