<svg xmlns="http://www.w3.org/2000/svg" xmlns:xlink="http://www.w3.org/1999/xlink" width="86" height="86" viewBox="0 0 86 86"><defs><filter id="a" x="0" y="0" width="86" height="86" filterUnits="userSpaceOnUse"><feOffset input="SourceAlpha"/><feGaussianBlur stdDeviation="9" result="b"/><feFlood flood-opacity="0"/><feComposite operator="in" in2="b"/><feComposite in="SourceGraphic"/></filter></defs><g transform="translate(59 27) rotate(90)"><g transform="matrix(0, -1, 1, 0, -27, 59)" filter="url(#a)"><circle cx="16" cy="16" r="16" transform="translate(59 27) rotate(90)" fill="rgba(0,11,38,0.4)" opacity="0"/></g><path d="M7.1,5.108,2.321.328a1.13,1.13,0,0,0-1.593,0l-.4.4a1.13,1.13,0,0,0,0,1.593L3.976,5.968.328,9.615a1.13,1.13,0,0,0,0,1.593l.4.4a1.13,1.13,0,0,0,1.593,0L7.1,6.826a1.117,1.117,0,0,0,.323-.859A1.121,1.121,0,0,0,7.1,5.108Z" transform="translate(11.842 10)" fill="#404040"/></g></svg>