<svg id="Layer_1" data-name="Layer 1" xmlns="http://www.w3.org/2000/svg" viewBox="0 0 128 128"><defs><style>.cls-1,.cls-2{fill:#1ac392;}.cls-1{fill-rule:evenodd;}</style></defs><title>easybooking</title><path class="cls-1" d="M54.25,70.23c0-4.42,0-8.84,0-13.25,0-3.86,0-7.73,0-11.59,0-.23,0-.47,0-.71.17-4.93,2.93-5.44,6.56-4.79a3.91,3.91,0,0,1,2.24,1.92,7.22,7.22,0,0,1,.76,3.2c.11,2.9,0,5.81.06,8.71v4c.87-.23,1.47-.38,2.05-.56a3.38,3.38,0,0,1,4,1.16,1.42,1.42,0,0,0,1.94.46,7.21,7.21,0,0,1,8.37,2,4.92,4.92,0,0,0,3.84,2,4.38,4.38,0,0,1,4.29,3.54c1.61,5.61,1.94,11.27-.5,16.69a48.54,48.54,0,0,0-3.6,13c-.38,2.55-.85,5.09-1.28,7.68-.36,0-.67.07-1,.07-7.26,0-14.53,0-21.8,0-.8,0-1.17-.19-1.4-1-1.16-4.05-2.34-8.09-3.61-12.1A15.86,15.86,0,0,0,48,82c-1.21-.76-2.59-1.22-3.84-1.93a21.3,21.3,0,0,1-4.08-2.61A4.8,4.8,0,0,1,38.82,72a5,5,0,0,1,4.28-3.35,20,20,0,0,1,9.74,1.26l1.12.4S54,70.28,54.25,70.23Z"/><path class="cls-1" d="M54.91,32.34c-.41.33-.85,1-1.37,1a1.75,1.75,0,0,1-1.48-.8,68.75,68.75,0,0,1-1.8-6.91,1.67,1.67,0,0,1,.94-1.38c.5-.11,1.54.24,1.66.62C53.62,27.23,54.19,29.63,54.91,32.34Z"/><path class="cls-1" d="M67.07,25.28C66.35,28,65.76,30.36,65,32.7a1.74,1.74,0,0,1-1.55.62c-.45-.12-1.1-.94-1-1.32.5-2.41,1.11-4.8,1.84-7.14.12-.36,1.08-.7,1.58-.62S66.72,25,67.07,25.28Z"/><path class="cls-1" d="M38.41,37.41c0-1.36.84-2.14,1.82-1.75,2.18.86,4.33,1.82,6.46,2.79a1.26,1.26,0,0,1,.56,1.84,1.27,1.27,0,0,1-1.79.71c-2.08-.9-4.18-1.78-6.24-2.73C38.82,38.08,38.57,37.58,38.41,37.41Z"/><path class="cls-1" d="M69.72,39.31c.19-.21.47-.74.91-1,2-.93,4-1.78,6-2.64a1.45,1.45,0,1,1,1.1,2.67c-2,.83-3.95,1.71-5.93,2.54C70.73,41.39,69.72,40.74,69.72,39.31Z"/><path class="cls-1" d="M40.52,53.57c-.39-.42-1-.81-1.1-1.28A1.79,1.79,0,0,1,40,50.73a69.37,69.37,0,0,1,6.72-2.49,1.72,1.72,0,0,1,1.47.79c.19.43,0,1.49-.34,1.63C45.56,51.68,43.17,52.55,40.52,53.57Z"/><path class="cls-1" d="M77.83,51.54c0,1.35-.84,2.08-1.84,1.74-2.18-.75-4.35-1.56-6.49-2.41a1.24,1.24,0,0,1-.68-1.79,1.27,1.27,0,0,1,1.72-.84c2.14.77,4.27,1.53,6.38,2.38C77.36,50.8,77.64,51.34,77.83,51.54Z"/><path class="cls-2" d="M64,123C30.92,123,4,96.54,4,64S30.92,5,64,5s60,26.47,60,59S97.09,123,64,123ZM64,11.74C34.64,11.74,10.74,35.18,10.74,64S34.64,116.26,64,116.26,117.26,92.82,117.26,64,93.37,11.74,64,11.74Z"/></svg>