<svg id="Layer_1" data-name="Layer 1" xmlns="http://www.w3.org/2000/svg" viewBox="0 0 128 128"><defs><style>.cls-1{fill:#f0f0f0;}.cls-2{fill:#fff;}.cls-3{fill:#d80027;}.cls-4{fill:#00247d;}</style></defs><title>english_language</title><g id="Group_4291" data-name="Group 4291"><rect id="Rectangle_1937" data-name="Rectangle 1937" class="cls-1" x="9" y="27.34" width="110" height="73.33"/><path id="Rectangle_1937-2" data-name="Rectangle 1937" class="cls-2" d="M119,27.34v73.33H9V27.34H119m0-7H9a7,7,0,0,0-7,7v73.33a7,7,0,0,0,7,7H119a7,7,0,0,0,7-7V27.34a7,7,0,0,0-7-7Z"/><path id="Path_6192" data-name="Path 6192" class="cls-3" d="M70.87,27.34H57.12V57.13H9V70.88H57.12v29.79H70.87V70.88H119V57.13H70.87Z"/><g id="Group_4291-2" data-name="Group 4291-2"><path id="Path_6193" data-name="Path 6193" class="cls-4" d="M93.59,76.75,119,90.87V76.75Z"/><path id="Path_6194" data-name="Path 6194" class="cls-4" d="M76,76.75l43,23.92V93.91L88.12,76.75Z"/><path id="Path_6195" data-name="Path 6195" class="cls-4" d="M107.53,100.67,76,83.12v17.55Z"/></g><path id="Path_6196" data-name="Path 6196" class="cls-1" d="M76,76.76l43,23.91V93.91L88.12,76.76Z"/><path id="Path_6197" data-name="Path 6197" class="cls-3" d="M76,76.76l43,23.91V93.91L88.12,76.76Z"/><g id="Group_4292" data-name="Group 4292"><path id="Path_6198" data-name="Path 6198" class="cls-4" d="M28.41,76.75,9,87.54V76.75Z"/><path id="Path_6199" data-name="Path 6199" class="cls-4" d="M52,79.79v20.87H14.48Z"/></g><path id="Path_6200" data-name="Path 6200" class="cls-3" d="M39.87,76.76,9,93.91v6.76H9L52,76.76Z"/><g id="Group_4293" data-name="Group 4293"><path id="Path_6201" data-name="Path 6201" class="cls-4" d="M34.4,51.24,9,37.13V51.24Z"/><path id="Path_6202" data-name="Path 6202" class="cls-4" d="M52,51.25,9,27.34V34.1L39.87,51.25Z"/><path id="Path_6203" data-name="Path 6203" class="cls-4" d="M20.46,27.34,52,44.88V27.34Z"/></g><path id="Path_6204" data-name="Path 6204" class="cls-1" d="M52,51.25,9,27.34V34.1L39.87,51.25Z"/><path id="Path_6205" data-name="Path 6205" class="cls-3" d="M52,51.25,9,27.34V34.1L39.87,51.25Z"/><g id="Group_4294" data-name="Group 4294"><path id="Path_6206" data-name="Path 6206" class="cls-4" d="M99.59,51.25,119,40.47V51.25Z"/><path id="Path_6207" data-name="Path 6207" class="cls-4" d="M76,48.21V27.33h37.57Z"/></g><path id="Path_6208" data-name="Path 6208" class="cls-3" d="M88.12,51.25,119,34.1V27.34h0L76,51.25Z"/></g></svg>