<svg xmlns="http://www.w3.org/2000/svg" width="31" height="31" viewBox="0 0 31 31">
  <g id="Group_5009" data-name="Group 5009" transform="translate(-0.373)">
    <circle id="Ellipse_260" data-name="Ellipse 260" cx="15.5" cy="15.5" r="15.5" transform="translate(0.373)" fill="none"/>
    <g id="ticket" transform="translate(4.077 15.175) rotate(-31)">
      <g id="Group_4954" data-name="Group 4954" transform="translate(0 0)">
        <g id="Group_4953" data-name="Group 4953">
          <path id="Path_6595" data-name="Path 6595" d="M19.2,8.361,18.976,6.47a.375.375,0,0,0-.411-.329,1.384,1.384,0,0,1-.328-2.748.375.375,0,0,0,.322-.416l-.226-1.891A1.232,1.232,0,0,0,16.964.009L3.785,1.582a1.224,1.224,0,0,0-.816.454H1.232A1.233,1.233,0,0,0,0,3.268v1.9a.375.375,0,0,0,.369.375c.75.013.75,2.754,0,2.767A.375.375,0,0,0,0,8.69v1.9a1.233,1.233,0,0,0,1.232,1.232H14.5a1.233,1.233,0,0,0,1.232-1.232v-.579l2.388-.285A1.232,1.232,0,0,0,19.2,8.361Zm-.845.444a.478.478,0,0,1-.321.18l-2.3.274V8.69a.375.375,0,0,0-.369-.375,1.384,1.384,0,0,1,0-2.767.375.375,0,0,0,.369-.375v-1.9A1.233,1.233,0,0,0,14.5,2.036H6.315L17.053.754a.481.481,0,0,1,.535.421l.186,1.556a2.135,2.135,0,0,0,.5,4.162l.186,1.556A.478.478,0,0,1,18.357,8.8Z" fill="#3e3e3e"/>
          <path id="Path_6597" data-name="Path 6597" d="M5.765,1.942,4.117,1.7,3.38.209a.375.375,0,0,0-.673,0L2.058,1.523,1.969,1.7l-.624.091L.321,1.942a.375.375,0,0,0-.208.64l.993.968.2.2-.113.662-.168.98a.375.375,0,0,0,.544.4l1.474-.775,1.474.775a.375.375,0,0,0,.544-.4L4.78,3.745,5.973,2.582a.375.375,0,0,0-.208-.64Zm-1.65,1.4a.375.375,0,0,0-.108.332l.186,1.087-.976-.513a.375.375,0,0,0-.349,0l-.976.513.186-1.087a.38.38,0,0,0-.108-.332l-.462-.451-.327-.319.377-.055.714-.1.033-.007a.375.375,0,0,0,.249-.2l.488-.989.488.989a.375.375,0,0,0,.282.205L4.9,2.576Z" transform="translate(3.31 4.019)" fill="#fff"/>
        </g>
      </g>
    </g>
  </g>
</svg>
