<svg id="iconfinder_weather-09_1530384" xmlns="http://www.w3.org/2000/svg" width="24.319" height="22.201" viewBox="0 0 24.319 22.201">
  <path id="Path_5817" data-name="Path 5817" d="M179.5,183.943A5.979,5.979,0,0,0,175.516,175a6.005,6.005,0,0,0-6.329,8.944H179.5Z" transform="translate(-162.195 -168.727)" fill="#67a7ff"/>
  <path id="Path_5818" data-name="Path 5818" d="M321.021,256.69a6.123,6.123,0,0,1-.851,3.056H321.4a7.163,7.163,0,0,0,.717-3.056A.551.551,0,0,1,321.021,256.69Z" transform="translate(-302.863 -244.53)" fill="#3e3e3e"/>
  <path id="Path_5819" data-name="Path 5819" d="M155.394,163.958a6,6,0,0,1,11.129,3.11.551.551,0,0,1,1.1,0,7.1,7.1,0,1,0-13.506,3.056h1.238A6.078,6.078,0,0,1,155.394,163.958Z" transform="translate(-148.364 -154.908)" fill="#3e3e3e"/>
  <path id="Path_5820" data-name="Path 5820" d="M331.77,249.963a.551.551,0,0,0,1.1,0A.551.551,0,0,0,331.77,249.963Z" transform="translate(-313.612 -237.803)" fill="#3e3e3e"/>
  <path id="Path_5821" data-name="Path 5821" d="M242.5,91.466v2.469a.551.551,0,0,0,1.1,0V91.466A.551.551,0,0,0,242.5,91.466Zm.55,2.469Z" transform="translate(-230.89 -90.935)" fill="#3e3e3e"/>
  <path id="Path_5822" data-name="Path 5822" d="M163.284,112.819l1.235,2.138a.552.552,0,0,0,.954-.555l-1.235-2.138A.552.552,0,0,0,163.284,112.819Zm.475-.278,1.235,2.138Z" transform="translate(-157.414 -110.452)" fill="#3e3e3e"/>
  <path id="Path_5823" data-name="Path 5823" d="M106.122,170.014a.552.552,0,0,0-.555.954l2.138,1.235a.552.552,0,0,0,.555-.954Zm-.278.475,2.138,1.235Z" transform="translate(-103.756 -164.14)" fill="#3e3e3e"/>
  <path id="Path_5824" data-name="Path 5824" d="M84.776,250.29h2.469a.551.551,0,0,0,0-1.1H84.776A.551.551,0,0,0,84.776,250.29Zm2.469-.55Z" transform="translate(-84.245 -237.58)" fill="#3e3e3e"/>
  <path id="Path_5825" data-name="Path 5825" d="M370.615,249.19h-2.469a.551.551,0,0,0,0,1.1h2.469A.551.551,0,0,0,370.615,249.19Zm-2.469.55Z" transform="translate(-346.827 -237.58)" fill="#3e3e3e"/>
  <path id="Path_5826" data-name="Path 5826" d="M353.108,170l-2.138,1.235a.552.552,0,0,0,.555.954l2.138-1.235A.552.552,0,0,0,353.108,170Zm-1.86,1.709,2.138-1.235Z" transform="translate(-331.155 -164.126)" fill="#3e3e3e"/>
  <path id="Path_5827" data-name="Path 5827" d="M306.245,112.261l-1.231,2.138a.552.552,0,0,0,.954.555l1.235-2.138A.554.554,0,0,0,306.245,112.261Zm-.759,2.416,1.235-2.138Z" transform="translate(-288.746 -110.45)" fill="#3e3e3e"/>
  <path id="Path_5828" data-name="Path 5828" d="M338.452,298.35h-5.159q-.136.282-.293.55h2.912v.55h2.54A.55.55,0,0,0,338.452,298.35Z" transform="translate(-314.751 -283.134)" fill="#3e3e3e"/>
  <path id="Path_5829" data-name="Path 5829" d="M85.966,298.9H91.4q-.16-.27-.293-.55H85.966a.551.551,0,0,0,0,1.1h2.54v-.55Z" transform="translate(-85.348 -283.134)" fill="#3e3e3e"/>
  <path id="Path_5830" data-name="Path 5830" d="M189.866,298.35H179.55a5.651,5.651,0,0,0,.367.55H189.5A6.142,6.142,0,0,0,189.866,298.35Z" transform="translate(-172.558 -283.134)" fill="#3e3e3e"/>
  <path id="Path_5831" data-name="Path 5831" d="M164.269,298.9a5.649,5.649,0,0,1-.367-.55H162.66q.133.28.293.55Z" transform="translate(-156.908 -283.134)" fill="#3e3e3e"/>
  <path id="Path_5832" data-name="Path 5832" d="M315.18,298.9h1.307q.159-.268.293-.55h-1.235A6.15,6.15,0,0,1,315.18,298.9Z" transform="translate(-298.239 -283.134)" fill="#3e3e3e"/>
  <path id="Path_5833" data-name="Path 5833" d="M130.221,305.909l-.034-.059H127.3v.55h3.248C130.432,306.243,130.324,306.081,130.221,305.909Z" transform="translate(-124.142 -290.084)" fill="#3e3e3e"/>
  <path id="Path_5834" data-name="Path 5834" d="M185.067,306.4h8.64a6.06,6.06,0,0,0,.463-.55h-9.58q.068.089.139.175Q184.89,306.221,185.067,306.4Z" transform="translate(-177.229 -290.084)" fill="#3e3e3e"/>
  <path id="Path_5835" data-name="Path 5835" d="M328.45,305.85q-.168.283-.36.55h3.273v-.55Z" transform="translate(-310.202 -290.084)" fill="#3e3e3e"/>
  <path id="Path_5836" data-name="Path 5836" d="M308.87,306.4h1.4q.192-.267.36-.55h-1.3A6.061,6.061,0,0,1,308.87,306.4Z" transform="translate(-292.392 -290.084)" fill="#3e3e3e"/>
  <path id="Path_5837" data-name="Path 5837" d="M168.1,306.025q-.073-.086-.139-.175H166.65l.034.059q.154.254.327.491h1.431Q168.267,306.22,168.1,306.025Z" transform="translate(-160.605 -290.084)" fill="#3e3e3e"/>
  <path id="Path_5838" data-name="Path 5838" d="M372.88,339.05h-.18v.55h.18a.551.551,0,0,0,0-1.1h-.18v.55Z" transform="translate(-351.539 -320.339)" fill="#3e3e3e"/>
  <path id="Path_5839" data-name="Path 5839" d="M118.136,339.05h.18v-.55h-.18a.551.551,0,0,0,0,1.1h.18v-.55Z" transform="translate(-115.158 -320.339)" fill="#3e3e3e"/>
  <path id="Path_5840" data-name="Path 5840" d="M202.89,351.26l.169.161h.22Z" transform="translate(-194.186 -332.163)" fill="#3e3e3e"/>
  <path id="Path_5841" data-name="Path 5841" d="M288.455,338.27a6.887,6.887,0,0,1-1.065.567h6.258v-.55H289.3C289.02,338.284,288.738,338.274,288.455,338.27Z" transform="translate(-272.487 -320.126)" fill="#3e3e3e"/>
  <path id="Path_5842" data-name="Path 5842" d="M291.8,351.421h.22l.169-.161Z" transform="translate(-276.574 -332.163)" fill="#3e3e3e"/>
  <path id="Path_5843" data-name="Path 5843" d="M139.368,346l-3.066,2.934L133.235,346H127.3v.55h5.714l-.169-.161.389.161h-.22l2.9,2.774a.561.561,0,0,0,.778,0l2.9-2.774h-.22l.389-.161-.169.161H145.3V346Z" transform="translate(-124.142 -327.289)" fill="#3e3e3e"/>
  <path id="Path_5844" data-name="Path 5844" d="M133.235,338.763h.375a7.216,7.216,0,0,1-1.115-.573c-.175.01-.339.023-.472.023H127.3v.55Z" transform="translate(-124.142 -320.052)" fill="#3e3e3e"/>
  <path id="Path_5845" data-name="Path 5845" d="M281.792,338.272c-.318.022-.53.293-.746.5l-.046.05h.472a6.884,6.884,0,0,0,1.065-.564C282.286,338.255,282.037,338.255,281.792,338.272Z" transform="translate(-266.566 -320.114)" fill="#3e3e3e"/>
  <path id="Path_5846" data-name="Path 5846" d="M199.25,338.182a1.681,1.681,0,0,0-1.14-.194,7.231,7.231,0,0,0,1.115.573h.45Q199.464,338.369,199.25,338.182Z" transform="translate(-189.757 -319.853)" fill="#3e3e3e"/>
  <path id="Path_5847" data-name="Path 5847" d="M245.478,375.934q-.194-.186-.387-.374l-.391.374Z" transform="translate(-232.929 -354.68)" fill="#3e3e3e"/>
  <path id="Path_5848" data-name="Path 5848" d="M212.621,346.837l-1.355,1.294q.193.189.387.374h-.775l.391-.374c-.654-.639-1.3-1.294-1.97-1.918a7.257,7.257,0,0,1-.724-.252H208.2l3.066,2.937,3.066-2.934h-.324a6.785,6.785,0,0,1-.751.268Z" transform="translate(-199.107 -327.252)" fill="#3e3e3e"/>
  <path id="Path_5849" data-name="Path 5849" d="M277.15,346.264A6.772,6.772,0,0,0,277.9,346h-.469Z" transform="translate(-262.999 -327.289)" fill="#3e3e3e"/>
  <path id="Path_5850" data-name="Path 5850" d="M213.76,346h-.45a7.235,7.235,0,0,0,.724.252Q213.9,346.123,213.76,346Z" transform="translate(-203.842 -327.289)" fill="#3e3e3e"/>
  <path id="Path_5851" data-name="Path 5851" d="M285.086,378.57a.551.551,0,0,0,0,1.1H289.1a.551.551,0,0,0,0-1.1Zm0,.55Z" transform="translate(-269.86 -357.469)" fill="#3e3e3e"/>
  <path id="Path_5852" data-name="Path 5852" d="M150.8,378.57h-4.013a.551.551,0,0,0,0,1.1H150.8A.551.551,0,0,0,150.8,378.57Zm-4.013.55Z" transform="translate(-141.706 -357.469)" fill="#3e3e3e"/>
</svg>
