<svg id="family" xmlns="http://www.w3.org/2000/svg" width="30" height="30" viewBox="0 0 30 30">
  <rect id="Rectangle_2145" data-name="Rectangle 2145" width="30" height="30" fill="none"/>
  <g id="Group_4935" data-name="Group 4935" transform="translate(3 5.349)">
    <path id="Path_6492" data-name="Path 6492" d="M3.694,11.81S.85,7.91,4.953,7.057s3.534,4.266,2.275,4.753,1.3,1.462,1.3,1.462L9.707,14.41a2.179,2.179,0,0,1,1.909-1.138,2.855,2.855,0,0,1,1.909,1.138,17.671,17.671,0,0,1,2.681-1.991c.406-.041-2.925-4.753,1.1-5.363s2.4,4.956,1.869,5.363,1.1-.163,2.031,1.259S22.26,23.51,22.26,23.51H.708V15.75a3.49,3.49,0,0,1,1.889-2.7C4.263,12.379,3.694,11.81,3.694,11.81Z" transform="translate(0 -6.433)" fill="#67a7ff"/>
    <path id="Path_6491" data-name="Path 6491" d="M20.169,126.762a3.395,3.395,0,1,0-4.864-.01,4.8,4.8,0,0,0-1.763,1.191,2.709,2.709,0,0,0-3.912,0,4.8,4.8,0,0,0-1.763-1.191,3.394,3.394,0,1,0-4.864.01,4.76,4.76,0,0,0-3,4.419v6.789a.679.679,0,0,0,.679.679H22.494a.679.679,0,0,0,.679-.679v-6.789A4.76,4.76,0,0,0,20.169,126.762Zm-2.427-4.407a2.037,2.037,0,1,1-2.037,2.037A2.039,2.039,0,0,1,17.742,122.356Zm-6.155,6.11a1.358,1.358,0,1,1-1.358,1.358A1.359,1.359,0,0,1,11.587,128.466Zm-6.155-6.11a2.037,2.037,0,1,1-2.037,2.037A2.039,2.039,0,0,1,5.431,122.356Zm-4.073,8.826a3.4,3.4,0,0,1,3.394-3.394h1.4a3.414,3.414,0,0,1,2.781,1.448,2.7,2.7,0,0,0,.522,2.272,3.4,3.4,0,0,0-1.945,3.069v2.716H1.358Zm7.513,6.11v-2.716a2.039,2.039,0,0,1,2.037-2.037h1.358a2.039,2.039,0,0,1,2.037,2.037v2.716Zm12.944,0H15.66v-2.716a3.4,3.4,0,0,0-1.945-3.069,2.7,2.7,0,0,0,.522-2.272,3.414,3.414,0,0,1,2.781-1.448h1.4a3.4,3.4,0,0,1,3.394,3.394Z" transform="translate(0 -120.998)" fill="#3e3e3e"/>
  </g>
</svg>
