<svg xmlns="http://www.w3.org/2000/svg" width="30" height="30" viewBox="0 0 30 30">
  <g id="Group_5006" data-name="Group 5006" transform="translate(0.244)">
    <circle id="Ellipse_260" data-name="Ellipse 260" cx="15" cy="15" r="15" transform="translate(-0.244)" fill="none"/>
    <g id="surface1" transform="translate(3.156 2.854)">
      <path id="Path_6586" data-name="Path 6586" d="M17.38,7.892a3.148,3.148,0,0,0-1.79-1.145,25.617,25.617,0,0,0-3.448-.223,3.425,3.425,0,0,1-.378-.022,2.537,2.537,0,0,1-.3-.3L6.9.557A2.824,2.824,0,0,0,6.47.117a1.776,1.776,0,0,0-.843-.11L5.5.016a1.777,1.777,0,0,0-.621.132C4.8.2,4.532.352,4.775,1.1c0,0,1.744,5.37,1.751,5.394-.026,0-2.5,0-2.5,0a3.529,3.529,0,0,1-.384-.02,2.49,2.49,0,0,1-.306-.3l-1.612-1.9a2.783,2.783,0,0,0-.449-.431A1.231,1.231,0,0,0,.6,3.785a1.14,1.14,0,0,0-.41.162c-.2.144-.234.459-.1.937.363,1.3.88,3.22.918,3.514C.972,8.692.456,10.614.1,11.911a2,2,0,0,0-.09.625c.057.368.58.47.6.474a1.6,1.6,0,0,0,.421.019c.272-.033.627-.435.7-.516l1.61-1.894a3.418,3.418,0,0,1,.262-.276,2.613,2.613,0,0,1,.428-.04l2.5,0c-.007.025-1.744,5.393-1.744,5.393a1.794,1.794,0,0,0-.113.623c.037.268.321.423.842.462l.124.009c.079.006.2.012.311.012a1.61,1.61,0,0,0,.3-.022c.26-.056.617-.49.657-.539l4.565-5.639a3.494,3.494,0,0,1,.253-.281,2.511,2.511,0,0,1,.419-.041,25.609,25.609,0,0,0,3.448-.219,3.138,3.138,0,0,0,1.789-1.143A.921.921,0,0,0,17.38,7.892Zm0,0" transform="translate(0 11.037) rotate(-39)" fill="#3e3e3e"/>
    </g>
  </g>
</svg>
