<svg id="Icon" xmlns="http://www.w3.org/2000/svg" viewBox="0 0 512 512"><defs><style>.cls-1{opacity:0.6;}.cls-2{fill:#f2a437;}.cls-3{fill:#4869ef;}</style></defs><title>01_flight</title><g class="cls-1"><path class="cls-2" d="M220.59,313.73l-7.77,6a.07.07,0,0,0-.06,0l-6.58,5.13a85.47,85.47,0,0,1-11.54,7.65,94.63,94.63,0,0,1-8.61,4.3,1.74,1.74,0,0,0-.25.11,7.58,7.58,0,0,1-9.71-10,93.49,93.49,0,0,1,4.32-8.68,85.8,85.8,0,0,1,7.67-11.59l5.09-6.54s0,0,0,0l6.1-7.86L300.17,176.91a49.06,49.06,0,0,1,35.94-15.71,47.9,47.9,0,0,1,7,.51l4.33.61a3.81,3.81,0,0,1,3.21,3.19l.61,4.36a49,49,0,0,1-15.19,42.87Z"/><path class="cls-2" d="M222.18,361.87l0,5.58a3.88,3.88,0,0,1-1.41,3l-19.16-33.21c.74-.45,1.42-.92,2.14-1.38.56-.38,1.13-.72,1.68-1.09,1.83-1.23,3.61-2.49,5.28-3.82l.11-.08,3.1-2.4A71.92,71.92,0,0,1,222.18,361.87Z"/><path class="cls-2" d="M340,319a11.38,11.38,0,0,1-4.73,9.16l-40.33-69.86,23.43-19.81,4,6.9A132.16,132.16,0,0,1,340,312Z"/></g><path class="cls-3" d="M311,220.27,328,205.21l.07-.05a56.59,56.59,0,0,0,17.54-49.51l-.61-4.36a11.41,11.41,0,0,0-9.61-9.6l-4.32-.61a56.61,56.61,0,0,0-49.59,17.61l-15.06,16.94L258.23,171a141.19,141.19,0,0,0-70.41-18.71l-7,0a18.91,18.91,0,0,0-16.28,9.43L163.22,164a3.79,3.79,0,0,0,1.38,5.16l71.89,41.5-56.18,63.64-4.3,5.53a79.22,79.22,0,0,0-38-9.75l-5.69,0a11.49,11.49,0,0,0-9.76,5.66l-1.61,2.75a3.83,3.83,0,0,0-.38,2.87,3.76,3.76,0,0,0,1.76,2.29l36.6,21.14c-1,2-2,4-2.91,6.08a15.18,15.18,0,0,0,13.81,21.09,15.48,15.48,0,0,0,6-1.25l.28-.14c1.88-.81,3.83-1.76,5.8-2.78L203,364.34a3.78,3.78,0,0,0,5.16,1.4l2.78-1.61h0a11.51,11.51,0,0,0,5.63-9.81l0-5.61a79.34,79.34,0,0,0-9.78-38.08l5.45-4.24L276,250.15,317.48,322a3.77,3.77,0,0,0,5.15,1.38l2.29-1.32a18.93,18.93,0,0,0,9.44-16.28v-7a139.69,139.69,0,0,0-18.69-70.4ZM180.84,159.82l7,0a133.06,133.06,0,0,1,66.61,17.7l6.88,4-19.82,23.42-69.84-40.34A11.35,11.35,0,0,1,180.84,159.82ZM132.29,277.59l5.66,0a71.73,71.73,0,0,1,33.4,8.24l-2.37,3c-1.37,1.73-2.67,3.56-3.94,5.44-.37.54-.71,1.1-1.07,1.65-.47.72-1,1.42-1.4,2.15L129.36,279A3.79,3.79,0,0,1,132.29,277.59ZM209,348.72l0,5.58a3.81,3.81,0,0,1-1.41,3l-19.15-33.2c.73-.45,1.42-.92,2.13-1.38s1.13-.72,1.69-1.09c1.83-1.23,3.6-2.5,5.28-3.82l.11-.08,3.1-2.4A71.92,71.92,0,0,1,209,348.72Zm-1.59-48.14-7.77,6s0,0-.06,0L193,311.78a87.08,87.08,0,0,1-11.54,7.65,94.63,94.63,0,0,1-8.61,4.3.8.8,0,0,0-.25.11,7.58,7.58,0,0,1-9.71-10,89.9,89.9,0,0,1,4.32-8.68,86.16,86.16,0,0,1,7.66-11.6L180,287a.08.08,0,0,1,0-.06l6.1-7.85L287,163.76A49.07,49.07,0,0,1,323,148a47.87,47.87,0,0,1,7,.51l4.33.62a3.78,3.78,0,0,1,3.21,3.19l.62,4.36a49,49,0,0,1-15.19,42.86Zm119.38,5.22A11.36,11.36,0,0,1,322.1,315L281.77,245.1l23.43-19.81,4,6.9a132.16,132.16,0,0,1,17.67,66.63Z"/><path class="cls-3" d="M302.64,168.49A11.32,11.32,0,0,1,318.14,184a3.77,3.77,0,0,0,6.49,3.85A18.86,18.86,0,0,0,298.8,162a3.77,3.77,0,1,0,3.84,6.49Z"/></svg>