<svg xmlns="http://www.w3.org/2000/svg" xmlns:xlink="http://www.w3.org/1999/xlink" width="125.765" height="37.265" viewBox="0 0 125.765 37.265">
  <defs>
    <linearGradient id="linear-gradient" x1="-129.56" y1="66.362" x2="-129.63" y2="66.398" gradientUnits="objectBoundingBox">
      <stop offset="0" stop-color="#00a0ff"/>
      <stop offset="0.007" stop-color="#00a1ff"/>
      <stop offset="0.26" stop-color="#00beff"/>
      <stop offset="0.512" stop-color="#00d2ff"/>
      <stop offset="0.76" stop-color="#00dfff"/>
      <stop offset="1" stop-color="#00e3ff"/>
    </linearGradient>
    <linearGradient id="linear-gradient-2" x1="-167.164" y1="194.267" x2="-167.293" y2="194.267" gradientUnits="objectBoundingBox">
      <stop offset="0" stop-color="#ffe000"/>
      <stop offset="0.409" stop-color="#ffbd00"/>
      <stop offset="0.775" stop-color="orange"/>
      <stop offset="1" stop-color="#ff9c00"/>
    </linearGradient>
    <linearGradient id="linear-gradient-3" x1="-100.876" y1="127.808" x2="-100.95" y2="127.903" gradientUnits="objectBoundingBox">
      <stop offset="0" stop-color="#ff3a44"/>
      <stop offset="1" stop-color="#c31162"/>
    </linearGradient>
    <linearGradient id="linear-gradient-4" x1="-100.933" y1="129.31" x2="-100.9" y2="129.352" gradientUnits="objectBoundingBox">
      <stop offset="0" stop-color="#32a071"/>
      <stop offset="0.069" stop-color="#2da771"/>
      <stop offset="0.476" stop-color="#15cf74"/>
      <stop offset="0.801" stop-color="#06e775"/>
      <stop offset="1" stop-color="#00f076"/>
    </linearGradient>
  </defs>
  <g id="Group_331" data-name="Group 331" transform="translate(-1570.493 -826.143)">
    <path id="Path_1195" data-name="Path 1195" d="M1691.6,863.407H1575.151a4.613,4.613,0,0,1-4.658-4.658V830.8a4.613,4.613,0,0,1,4.658-4.658H1691.6a4.612,4.612,0,0,1,4.658,4.658v27.948A4.613,4.613,0,0,1,1691.6,863.407Z"/>
    <path id="Path_1196" data-name="Path 1196" d="M1691.6,826.888a3.936,3.936,0,0,1,3.913,3.913v27.948a3.936,3.936,0,0,1-3.913,3.912H1575.151a3.936,3.936,0,0,1-3.913-3.912V830.8a3.936,3.936,0,0,1,3.913-3.913H1691.6m0-.745H1575.151a4.672,4.672,0,0,0-4.658,4.658v27.948a4.613,4.613,0,0,0,4.658,4.658H1691.6a4.613,4.613,0,0,0,4.658-4.658V830.8A4.671,4.671,0,0,0,1691.6,826.143Z" fill="none"/>
    <path id="Path_1197" data-name="Path 1197" d="M1614.651,835.645a2.54,2.54,0,0,1-.652,1.863,2.9,2.9,0,1,1-2.05-4.937,2.485,2.485,0,0,1,1.118.279,2.033,2.033,0,0,1,.838.652l-.465.466a1.738,1.738,0,0,0-1.491-.652,1.854,1.854,0,0,0-1.491.652,2.25,2.25,0,0,0,0,3.168,2.4,2.4,0,0,0,1.491.652,2.043,2.043,0,0,0,1.584-.652,1.545,1.545,0,0,0,.466-1.118h-2.05v-.745h2.7v.372Zm4.285-2.329h-2.515v1.77h2.329v.652h-2.329v1.77h2.515v.746h-3.261v-5.59h3.261Zm3.074,4.938h-.745v-4.938h-1.584v-.652h3.913v.652h-1.584Zm4.286,0v-5.59h.745v5.59Zm3.912,0h-.745v-4.938h-1.584v-.652h3.82v.652h-1.584v4.938Zm8.85-.746a2.923,2.923,0,1,1,.839-2.049A2.739,2.739,0,0,1,1639.058,837.508Zm-3.54-.465a2.2,2.2,0,0,0,1.491.652,1.854,1.854,0,0,0,1.49-.652,2.249,2.249,0,0,0,.653-1.584,1.92,1.92,0,0,0-.653-1.584,2.194,2.194,0,0,0-1.49-.652,1.854,1.854,0,0,0-1.491.652,2.252,2.252,0,0,0-.652,1.584A1.923,1.923,0,0,0,1635.518,837.043Zm5.4,1.211v-5.59h.838l2.7,4.379v-4.379h.745v5.59h-.745l-2.888-4.565v4.565Z" fill="#fff" stroke="#fff" stroke-miterlimit="10" stroke-width="0.2"/>
    <path id="Path_1198" data-name="Path 1198" d="M1633.935,846.452a3.919,3.919,0,0,0-4.006,4.006,3.976,3.976,0,0,0,4.006,4.005,3.919,3.919,0,0,0,4.006-4.005A3.865,3.865,0,0,0,1633.935,846.452Zm0,6.334a2.43,2.43,0,0,1,0-4.844,2.257,2.257,0,0,1,2.236,2.422A2.312,2.312,0,0,1,1633.935,852.786Zm-8.664-6.334a3.919,3.919,0,0,0-4.006,4.006,3.976,3.976,0,0,0,4.006,4.005,3.919,3.919,0,0,0,4.006-4.005A3.865,3.865,0,0,0,1625.271,846.452Zm0,6.334a2.43,2.43,0,0,1,0-4.844,2.257,2.257,0,0,1,2.236,2.422A2.312,2.312,0,0,1,1625.271,852.786Zm-10.341-5.123v1.677h4.006a3.521,3.521,0,0,1-.932,2.142,4.122,4.122,0,0,1-3.074,1.211,4.337,4.337,0,0,1-4.378-4.471,4.394,4.394,0,0,1,4.378-4.472,4.619,4.619,0,0,1,3.074,1.211l1.212-1.211a5.969,5.969,0,0,0-4.193-1.677,6.149,6.149,0,1,0,0,12.3,5.362,5.362,0,0,0,4.286-1.77,5.605,5.605,0,0,0,1.49-3.912,3.5,3.5,0,0,0-.093-1.025Zm42.295,1.3a3.62,3.62,0,0,0-3.354-2.515,3.752,3.752,0,0,0-3.727,4.006,3.9,3.9,0,0,0,3.913,4.005,3.823,3.823,0,0,0,3.261-1.77l-1.3-.931a2.272,2.272,0,0,1-1.957,1.118,2.022,2.022,0,0,1-1.956-1.211l5.31-2.236-.186-.466Zm-5.4,1.3a2.263,2.263,0,0,1,2.05-2.329,1.647,1.647,0,0,1,1.49.839l-3.54,1.49Zm-4.378,3.82h1.77V842.446h-1.77Zm-2.8-6.8a3.067,3.067,0,0,0-2.143-.932,4,4,0,0,0-3.819,4.006,3.857,3.857,0,0,0,3.819,3.913,2.676,2.676,0,0,0,2.05-.932h.093v.559a2.118,2.118,0,0,1-4.1.932l-1.491.652a3.844,3.844,0,0,0,3.541,2.329c2.049,0,3.726-1.211,3.726-4.1v-7.08h-1.677v.652Zm-2.049,5.5a2.43,2.43,0,0,1,0-4.844,2.44,2.44,0,0,1,0,4.844Zm22.73-10.34h-4.192v11.645h1.77v-4.379h2.422a3.638,3.638,0,1,0,0-7.266Zm.094,5.589h-2.516v-4h2.516a2.045,2.045,0,0,1,2.049,1.956,2.131,2.131,0,0,1-2.049,2.049Zm10.713-1.677a3.13,3.13,0,0,0-3.074,1.77l1.583.653a1.645,1.645,0,0,1,1.584-.839,1.75,1.75,0,0,1,1.863,1.491v.093a3.7,3.7,0,0,0-1.77-.466c-1.677,0-3.354.932-3.354,2.609a2.73,2.73,0,0,0,2.888,2.608,2.621,2.621,0,0,0,2.236-1.118h.093v.932h1.677v-4.472a3.526,3.526,0,0,0-3.726-3.261Zm-.186,6.428c-.559,0-1.4-.279-1.4-1.024,0-.932,1.025-1.211,1.863-1.211a3.608,3.608,0,0,1,1.584.372A2.169,2.169,0,0,1,1675.95,852.786Zm9.781-6.148-1.956,5.031h-.093l-2.05-5.031h-1.863l3.074,7.08-1.77,3.913h1.77l4.752-10.993Zm-15.65,7.453h1.77V842.446h-1.77Z" fill="#fff"/>
    <g id="Group_330" data-name="Group 330">
      <path id="Path_1199" data-name="Path 1199" d="M1580.182,833.13a1.817,1.817,0,0,0-.373,1.3v20.588a1.839,1.839,0,0,0,.466,1.3l.093.094,11.552-11.552v-.186Z" fill="url(#linear-gradient)"/>
      <path id="Path_1200" data-name="Path 1200" d="M1595.646,848.781l-3.819-3.82v-.279l3.819-3.82.093.093,4.565,2.609c1.3.745,1.3,1.956,0,2.7Z" fill="url(#linear-gradient-2)"/>
      <path id="Path_1201" data-name="Path 1201" d="M1595.739,848.688l-3.912-3.913-11.645,11.645c.465.466,1.118.466,1.956.093l13.6-7.825" fill="url(#linear-gradient-3)"/>
      <path id="Path_1202" data-name="Path 1202" d="M1595.739,840.862l-13.6-7.732a1.509,1.509,0,0,0-1.956.093l11.645,11.552,3.912-3.913Z" fill="url(#linear-gradient-4)"/>
      <path id="Path_1203" data-name="Path 1203" d="M1595.646,848.594l-13.508,7.639a1.522,1.522,0,0,1-1.863,0l-.093.093.093.094a1.524,1.524,0,0,0,1.863,0Z" opacity="0.2"/>
      <path id="Path_1204" data-name="Path 1204" d="M1580.182,856.233a1.817,1.817,0,0,1-.373-1.3v.093a1.839,1.839,0,0,0,.466,1.3v-.093Zm20.122-10.247-4.658,2.608.093.094,4.565-2.609a1.549,1.549,0,0,0,.932-1.3C1601.236,845.241,1600.863,845.613,1600.3,845.986Z" opacity="0.12"/>
      <path id="Path_1205" data-name="Path 1205" d="M1582.138,833.223l18.166,10.341c.559.372.932.745.932,1.211a1.548,1.548,0,0,0-.932-1.3l-18.166-10.341c-1.3-.745-2.329-.186-2.329,1.3v.093C1579.809,833.13,1580.834,832.478,1582.138,833.223Z" fill="#fff" opacity="0.25"/>
    </g>
  </g>
</svg>
