<svg id="health_wellness" data-name="health&amp;wellness" xmlns="http://www.w3.org/2000/svg" width="30" height="30" viewBox="0 0 30 30">
  <rect id="Rectangle_2143" data-name="Rectangle 2143" width="30" height="30" fill="none"/>
  <g id="Group_4933" data-name="Group 4933" transform="translate(2.059 5.151)">
    <path id="Path_6480" data-name="Path 6480" d="M278.942,166.177s11.089-7.218,10.574-14.137-10.655-2.43-10.655-2.43-10.333-4.678-10.406,2.461S278.942,166.177,278.942,166.177Z" transform="translate(-265.435 -147.155)" fill="#67a7ff"/>
    <path id="Path_6070" data-name="Path 6070" d="M27.99,27.5a1.188,1.188,0,0,0-.272-.02H26.029a7.461,7.461,0,0,0,.481-4.118,6.157,6.157,0,0,0-7.171-4.993,11.2,11.2,0,0,0-4,1.648.28.28,0,0,1-.078.039.2.2,0,0,1-.062-.031,11.787,11.787,0,0,0-3.511-1.551A6.126,6.126,0,0,0,4.208,22.6,6.908,6.908,0,0,0,4.4,27.221c.087.242.185.472.289.714h-.3c-.628,0-1.22,0-1.824-.005a.823.823,0,0,0-.772.386.27.27,0,0,0-.042.144v.256a.267.267,0,0,0,.027.118.776.776,0,0,0,.76.439h.008q.6,0,1.2,0c.515,0,1.03,0,1.545,0,.132,0,.159.014.221.112a12.88,12.88,0,0,0,.777,1.086,29.168,29.168,0,0,0,5.22,5.08c.68.526,1.4,1.014,2.1,1.485.355.239.709.479,1.06.724a1.067,1.067,0,0,0,.62.212,1.282,1.282,0,0,0,.675-.225,36.43,36.43,0,0,0,6.412-5.071,18.467,18.467,0,0,0,3-3.782c.056-.1.072-.1.159-.1.8.013,1.6.008,2.341,0A.647.647,0,0,0,27.99,27.5Zm-5.558-.07c-.192-.313-.377-.631-.562-.948q-.147-.253-.3-.505a.7.7,0,0,0-1.288-.046c-.153.224-.305.449-.463.682l-.208-.678q-.486-1.581-.968-3.163a.716.716,0,0,0-.707-.576h0a.678.678,0,0,0-.671.591c0,.016-.008.032-.015.068l-2.056,7.082L14.1,27.151q-.548-1.4-1.094-2.8a.7.7,0,0,0-.61-.535l-.056,0a.724.724,0,0,0-.649.463q-.349.689-.7,1.378-.551,1.081-1.1,2.165c-.044.087-.053.087-.124.087-1.091-.009-2.234-.009-3.494,0-.083,0-.08,0-.113-.067a7.73,7.73,0,0,1-.88-2.973,4.99,4.99,0,0,1,1.653-4.05A4.678,4.678,0,0,1,11,19.717a10.413,10.413,0,0,1,3.78,1.642.735.735,0,0,0,1.024-.014,10.015,10.015,0,0,1,4.024-1.674,4.842,4.842,0,0,1,5.386,3.952,6.462,6.462,0,0,1-.638,3.849c-.785.01-1.473.01-2.1,0A.182.182,0,0,1,22.432,27.429ZM7.753,29.27c.745,0,1.514,0,2.269.006a.915.915,0,0,0,.9-.56c.361-.736.729-1.457,1.118-2.22l.183-.361,1.309,3.35q.523,1.337,1.041,2.675a.742.742,0,0,0,.71.555.723.723,0,0,0,.665-.613q.861-2.957,1.727-5.913l.283-.969q.452,1.466.906,2.942a.748.748,0,0,0,.575.619.768.768,0,0,0,.781-.42c.2-.29.395-.579.6-.879l.036-.053.015.025c.174.287.338.558.487.837a.884.884,0,0,0,.882.508c.466-.012.93-.01,1.421-.007h.149a19.759,19.759,0,0,1-3.209,3.7,38.529,38.529,0,0,1-5.285,4.062l-.041.025,0,0a34,34,0,0,1-7.133-5.947c-.3-.339-.584-.71-.858-1.069l-.22-.288Z" transform="translate(-1.75 -18.266)" fill="#3e3e3e"/>
  </g>
</svg>
