<svg xmlns="http://www.w3.org/2000/svg" width="71.833" height="60.116" viewBox="0 0 71.833 60.116"><g transform="translate(25.667 11.916)"><path d="M12.161,6.253A6.081,6.081,0,1,1,6.08.172,6.081,6.081,0,0,1,12.161,6.253Zm0,0" transform="translate(-4.741 -3.967)" fill="#1e7dff" opacity="0.45"/><path d="M22.931,11.638A11.466,11.466,0,1,1,11.465.172,11.466,11.466,0,0,1,22.931,11.638Zm0,0" transform="translate(-25.666 11.818)" fill="#1e7dff" opacity="0.3"/><path d="M39,19.671A19.5,19.5,0,1,1,19.5.172,19.5,19.5,0,0,1,39,19.671Zm0,0" transform="translate(5.575 -1.2)" fill="#80b6ff" opacity="0.61"/><path d="M31.3,15.823A15.651,15.651,0,1,1,15.65.172,15.651,15.651,0,0,1,31.3,15.823Zm0,0" transform="translate(-18.24 -12.088)" fill="#80b6ff" opacity="0.61"/><ellipse cx="30" cy="2.5" rx="30" ry="2.5" transform="translate(-18.703 43.2)" fill="#e9e9e9"/><g transform="translate(-23.742 -1.214)"><g transform="translate(0.04 0.414)" fill="#ffce56" stroke="#4c241d" stroke-width="2"><rect width="55" height="14" rx="7" stroke="none"/><rect x="1" y="1" width="53" height="12" rx="6" fill="none"/></g><g transform="translate(0.04 16.414)" fill="#ffec95" stroke="#4c241d" stroke-width="2"><rect width="55" height="14" rx="7" stroke="none"/><rect x="1" y="1" width="53" height="12" rx="6" fill="none"/></g><g transform="translate(6.718 20.299)"><path d="M5.99,0H.908A.862.862,0,0,0,0,.808a.862.862,0,0,0,.908.807H5.99A.862.862,0,0,0,6.9.808.862.862,0,0,0,5.99,0Zm0,0" transform="translate(6.02 1.142) rotate(135)" fill="#4c241d"/><path d="M5.99,0H.908A.862.862,0,0,0,0,.808a.862.862,0,0,0,.908.807H5.99A.862.862,0,0,0,6.9.808.862.862,0,0,0,5.99,0Zm0,0" transform="translate(14.908 1.142) rotate(135)" fill="#4c241d"/><path d="M5.99,0H.908A.862.862,0,0,0,0,.808a.862.862,0,0,0,.908.807H5.99A.862.862,0,0,0,6.9.808.862.862,0,0,0,5.99,0Zm0,0" transform="translate(23.795 1.142) rotate(135)" fill="#4c241d"/><path d="M5.99,0H.908A.862.862,0,0,0,0,.808a.862.862,0,0,0,.908.807H5.99A.862.862,0,0,0,6.9.808.862.862,0,0,0,5.99,0Zm0,0" transform="translate(32.683 1.142) rotate(135)" fill="#4c241d"/><path d="M5.99,0H.908A.862.862,0,0,0,0,.808a.862.862,0,0,0,.908.807H5.99A.862.862,0,0,0,6.9.808.862.862,0,0,0,5.99,0Zm0,0" transform="translate(41.571 1.142) rotate(135)" fill="#4c241d"/><path d="M5.99,1.615H.908A.862.862,0,0,1,0,.807.862.862,0,0,1,.908,0H5.99A.862.862,0,0,1,6.9.807.862.862,0,0,1,5.99,1.615Zm0,0" transform="translate(1.142 0) rotate(45)" fill="#4c241d"/><path d="M5.99,1.615H.908A.862.862,0,0,1,0,.807.862.862,0,0,1,.908,0H5.99A.862.862,0,0,1,6.9.807.862.862,0,0,1,5.99,1.615Zm0,0" transform="translate(10.03 0) rotate(45)" fill="#4c241d"/><path d="M5.99,1.615H.908A.862.862,0,0,1,0,.807.862.862,0,0,1,.908,0H5.99A.862.862,0,0,1,6.9.807.862.862,0,0,1,5.99,1.615Zm0,0" transform="translate(18.917 0) rotate(45)" fill="#4c241d"/><path d="M5.99,1.615H.908A.862.862,0,0,1,0,.807.862.862,0,0,1,.908,0H5.99A.862.862,0,0,1,6.9.807.862.862,0,0,1,5.99,1.615Zm0,0" transform="translate(27.805 0) rotate(45)" fill="#4c241d"/><path d="M5.99,1.615H.908A.862.862,0,0,1,0,.807.862.862,0,0,1,.908,0H5.99A.862.862,0,0,1,6.9.807.862.862,0,0,1,5.99,1.615Zm0,0" transform="translate(36.693 0) rotate(45)" fill="#4c241d"/></g><g transform="translate(6.718 4.139)"><path d="M5.99,0H.908A.862.862,0,0,0,0,.808a.862.862,0,0,0,.908.807H5.99A.862.862,0,0,0,6.9.808.862.862,0,0,0,5.99,0Zm0,0" transform="translate(6.02 1.142) rotate(135)" fill="#4c241d"/><path d="M5.99,0H.908A.862.862,0,0,0,0,.808a.862.862,0,0,0,.908.807H5.99A.862.862,0,0,0,6.9.808.862.862,0,0,0,5.99,0Zm0,0" transform="translate(14.908 1.142) rotate(135)" fill="#4c241d"/><path d="M5.99,0H.908A.862.862,0,0,0,0,.808a.862.862,0,0,0,.908.807H5.99A.862.862,0,0,0,6.9.808.862.862,0,0,0,5.99,0Zm0,0" transform="translate(23.795 1.142) rotate(135)" fill="#4c241d"/><path d="M5.99,0H.908A.862.862,0,0,0,0,.808a.862.862,0,0,0,.908.807H5.99A.862.862,0,0,0,6.9.808.862.862,0,0,0,5.99,0Zm0,0" transform="translate(32.683 1.142) rotate(135)" fill="#4c241d"/><path d="M5.99,0H.908A.862.862,0,0,0,0,.808a.862.862,0,0,0,.908.807H5.99A.862.862,0,0,0,6.9.808.862.862,0,0,0,5.99,0Zm0,0" transform="translate(41.571 1.142) rotate(135)" fill="#4c241d"/><path d="M5.99,1.615H.908A.862.862,0,0,1,0,.807.862.862,0,0,1,.908,0H5.99A.862.862,0,0,1,6.9.807.862.862,0,0,1,5.99,1.615Zm0,0" transform="translate(1.142 0) rotate(45)" fill="#4c241d"/><path d="M5.99,1.615H.908A.862.862,0,0,1,0,.807.862.862,0,0,1,.908,0H5.99A.862.862,0,0,1,6.9.807.862.862,0,0,1,5.99,1.615Zm0,0" transform="translate(10.03 0) rotate(45)" fill="#4c241d"/><path d="M5.99,1.615H.908A.862.862,0,0,1,0,.807.862.862,0,0,1,.908,0H5.99A.862.862,0,0,1,6.9.807.862.862,0,0,1,5.99,1.615Zm0,0" transform="translate(18.917 0) rotate(45)" fill="#4c241d"/><path d="M5.99,1.615H.908A.862.862,0,0,1,0,.807.862.862,0,0,1,.908,0H5.99A.862.862,0,0,1,6.9.807.862.862,0,0,1,5.99,1.615Zm0,0" transform="translate(27.805 0) rotate(45)" fill="#4c241d"/><path d="M5.99,1.615H.908A.862.862,0,0,1,0,.807.862.862,0,0,1,.908,0H5.99A.862.862,0,0,1,6.9.807.862.862,0,0,1,5.99,1.615Zm0,0" transform="translate(36.693 0) rotate(45)" fill="#4c241d"/></g></g><g transform="translate(22.878 3.464)"><path d="M296.784,115.144A11.144,11.144,0,1,1,285.64,104,11.144,11.144,0,0,1,296.784,115.144Zm0,0" transform="translate(-274.497 -104)" fill="#fff" stroke="#4c241d" stroke-width="2"/><g transform="translate(-313.895 -123.858)" fill="#e66353"><path d="M 329.7380065917969 140.1242980957031 L 320.9999694824219 140.1242980957031 L 320.9999389648438 134.9656066894531 L 321.1930847167969 134.9655914306641 L 321.9827575683594 134.9655914306641 L 322.9827575683594 134.9655914306641 L 327.7552490234375 134.9655914306641 L 328.7552490234375 134.9655914306641 L 329.544921875 134.9655914306641 L 329.7379760742188 134.9655914306641 L 329.7380065917969 140.1242980957031 Z" stroke="none"/><path d="M 321.9999389648438 135.9655914306641 L 321.9999389648438 139.1242980957031 L 328.7380065917969 139.1242980957031 L 328.7380065917969 135.9655914306641 L 327.544921875 135.9655914306641 L 323.1930847167969 135.9655914306641 L 321.9999389648438 135.9655914306641 M 325.3689880371094 128 C 326.5124206542969 128 327.4942321777344 128.4101409912109 328.3145141601563 129.2304077148438 C 329.1347961425781 130.0506744384766 329.544921875 131.0325012207031 329.544921875 132.1759033203125 L 329.544921875 133.9655914306641 L 329.8432006835938 133.9655914306641 C 330.0917358398438 133.9655914306641 330.3030395507813 134.0525817871094 330.4770202636719 134.2265930175781 C 330.6510009765625 134.4005737304688 330.7380065917969 134.6118469238281 330.7380065917969 134.8604431152344 L 330.7380065917969 140.2294464111328 C 330.7380065917969 140.47802734375 330.6510009765625 140.6893157958984 330.4770202636719 140.8632965087891 C 330.3030395507813 141.0372772216797 330.0917358398438 141.1242980957031 329.8432006835938 141.1242980957031 L 320.8948059082031 141.1242980957031 C 320.6462097167969 141.1242980957031 320.4349670410156 141.0372772216797 320.2609558105469 140.8632965087891 C 320.0869750976563 140.6893157958984 319.9999389648438 140.47802734375 319.9999389648438 140.2294464111328 L 319.9999389648438 134.8604431152344 C 319.9999389648438 134.6118469238281 320.0869750976563 134.4005737304688 320.2609558105469 134.2265930175781 C 320.4349670410156 134.0525817871094 320.6462097167969 133.9655914306641 320.8948059082031 133.9655914306641 L 321.1930847167969 133.9655914306641 L 321.1930847167969 132.1759033203125 C 321.1930847167969 131.0325012207031 321.6032104492188 130.0506744384766 322.4234924316406 129.2304077148438 C 323.2437438964844 128.4101409912109 324.2255859375 128 325.3689880371094 128 Z M 327.7552490234375 133.9655914306641 L 327.7552490234375 132.1759033203125 C 327.7552490234375 131.5171966552734 327.5221862792969 130.9548187255859 327.0561218261719 130.4887847900391 C 326.590087890625 130.0227203369141 326.0276794433594 129.7896881103516 325.3689880371094 129.7896881103516 C 324.7102966308594 129.7896881103516 324.1479187011719 130.0227203369141 323.6818237304688 130.4887847900391 C 323.2158203125 130.9548187255859 322.9827575683594 131.5171966552734 322.9827575683594 132.1759033203125 L 322.9827575683594 133.9655914306641 L 327.7552490234375 133.9655914306641 Z" stroke="none" fill="#4c241d"/></g></g></g></svg>