<svg id="Icon" xmlns="http://www.w3.org/2000/svg" viewBox="0 0 512 512"><defs><style>.cls-1,.cls-3{fill:#f2a437;}.cls-1,.cls-2{opacity:0.6;}.cls-4{fill:#4869ef;}</style></defs><title>07_Home</title><path class="cls-1" d="M243.92,242h57V341.7h-57Z"/><g class="cls-2"><path class="cls-3" d="M180.73,342.61H381.6v25.54H180.73Z"/><path class="cls-3" d="M359.37,202.45V159H332.74v23.73Z"/><path class="cls-3" d="M171,237.25l98.75-76.42,103.64,81L390.2,225,280.49,139.27l-117,90.52Z"/></g><path class="cls-4" d="M343.32,249.87l6.61,5.12a4.59,4.59,0,0,0,6.06-.39l16.32-16.33a4.58,4.58,0,0,0-.44-6.88l-28.05-21.71v-40.9a4.6,4.6,0,0,0-4.59-4.6H313.49a4.6,4.6,0,0,0-4.6,4.6v13.87L258.81,143.9a4.59,4.59,0,0,0-5.62,0L140.13,231.39a4.58,4.58,0,0,0-.44,6.88L156,254.62a4.59,4.59,0,0,0,6.07.38l6.63-5.13v87.92H158.57a4.6,4.6,0,0,0-4.6,4.6v22.08a4.59,4.59,0,0,0,4.6,4.59H353.43a4.59,4.59,0,0,0,4.6-4.59V342.39a4.6,4.6,0,0,0-4.6-4.6H343.32v-26a4.6,4.6,0,1,0-9.19,0v26h-47.8V243.11a4.59,4.59,0,0,0-4.59-4.59H230.26a4.59,4.59,0,0,0-4.59,4.59v94.68h-47.8v-95L256,182.3l78.13,60.46v32.29a4.6,4.6,0,1,0,9.19,0Zm-108.46-2.16h42.28v90.08H234.86Zm114,99.27v12.89H163.16V347ZM318.08,173.37h16.55v29.2l-16.55-12.8Zm-64.89-.52-93.56,72.4-9.76-9.78L256,153.35l106.12,82.12-9.77,9.77-93.54-72.39A4.59,4.59,0,0,0,253.19,172.85Z"/><path class="cls-4" d="M338.73,288.84a4.6,4.6,0,1,0,0,9.19,4.6,4.6,0,0,0,0-9.19Z"/><path class="cls-4" d="M250.94,288.16h-6a4.6,4.6,0,1,0,0,9.19h6a4.6,4.6,0,1,0,0-9.19Z"/></svg>