<svg id="honeymoon" xmlns="http://www.w3.org/2000/svg" width="30" height="30" viewBox="0 0 30 30">
  <rect id="Rectangle_2146" data-name="Rectangle 2146" width="30" height="30" fill="none"/>
  <g id="love-hot-air-balloon" transform="translate(-19.859 4.242)" fill="#67a7ff">
    <path d="M 37.53400802612305 21.05074310302734 L 32.84057235717773 21.05074310302734 L 31.69182586669922 17.85065460205078 L 31.5492057800293 17.45337295532227 L 31.12710571289063 17.45337295532227 L 30.0377254486084 17.45337295532227 L 30.0377254486084 16.5318431854248 L 31.67417526245117 16.5318431854248 L 32.47430419921875 16.5318431854248 L 32.25014495849609 15.76375389099121 L 30.69552612304688 10.43678379058838 L 30.64369583129883 10.25918388366699 L 30.50085639953613 10.14161396026611 C 29.0576057434082 8.953693389892578 28.50771522521973 8.285674095153809 28.30055618286133 7.93445348739624 C 27.6542854309082 6.839043617248535 27.39023590087891 5.846183776855469 27.4443359375 4.715123653411865 C 27.4975757598877 3.603833675384521 27.91641616821289 2.562883615493774 28.62370491027832 1.784063696861267 C 29.31713485717773 1.020513653755188 30.2133960723877 0.6000036597251892 31.14739608764648 0.6000036597251892 C 33.20421600341797 0.6000036597251892 34.72488403320313 2.266743659973145 34.74000549316406 2.283583641052246 L 35.17568588256836 2.768703699111938 L 35.62400436401367 2.295413732528687 C 35.63930511474609 2.279313564300537 37.25817489624023 0.6000036597251892 39.22728729248047 0.6000036597251892 C 40.16134643554688 0.6000036597251892 41.05762481689453 1.020513653755188 41.75103378295898 1.784063696861267 C 42.45828628540039 2.56286358833313 42.87710571289063 3.603813648223877 42.93034744262695 4.715163707733154 C 42.98514556884766 5.859203815460205 42.72897720336914 6.822093486785889 42.07379531860352 7.93484354019165 C 41.86480712890625 8.289913177490234 41.31291580200195 8.962783813476563 39.87024688720703 10.15247344970703 L 39.72774505615234 10.26998329162598 L 39.67600631713867 10.44729328155518 L 38.12443542480469 15.76375389099121 L 37.90026473999023 16.5318431854248 L 38.70040512084961 16.5318431854248 L 40.27543640136719 16.5318431854248 L 40.27543640136719 17.45337295532227 L 39.24748611450195 17.45337295532227 L 38.82538604736328 17.45337295532227 L 38.68276596069336 17.85065460205078 L 37.53400802612305 21.05074310302734 Z M 30.90814590454102 10.51053333282471 L 31.40638542175293 12.21764373779297 L 32.53946685791016 16.09994316101074 L 32.6655158996582 16.5318431854248 L 33.11543655395508 16.5318431854248 L 37.25923538208008 16.5318431854248 L 37.70915603637695 16.5318431854248 L 37.835205078125 16.09994316101074 L 38.96450424194336 12.23046398162842 L 39.46300506591797 10.52238368988037 L 38.03196716308594 11.57981395721436 C 36.84376525878906 12.45779991149902 35.72784805297852 13.21287155151367 35.19506072998047 13.56754302978516 C 34.65923690795898 13.21076011657715 33.53371429443359 12.44920539855957 32.3387565612793 11.56686401367188 L 30.90814590454102 10.51053333282471 Z" stroke="none"/>
    <path d="M 31.14739608764648 1.200004577636719 C 29.52959442138672 1.200004577636719 28.13726425170898 2.789773941040039 28.04365539550781 4.743793487548828 C 27.99482727050781 5.764594078063965 28.2261848449707 6.62761402130127 28.81735610961914 7.629633903503418 C 28.96686553955078 7.883113861083984 29.43392562866211 8.486333847045898 30.88215637207031 9.678353309631348 L 31.1678466796875 9.913494110107422 L 31.1838264465332 9.968247413635254 L 32.69515609741211 11.08418369293213 C 33.67147827148438 11.80508518218994 34.60134124755859 12.44484710693359 35.19510650634766 12.84527587890625 C 35.78444671630859 12.44784164428711 36.70522308349609 11.81413459777832 37.67539596557617 11.09725379943848 L 39.18732452392578 9.980061531066895 L 39.20351409912109 9.924593925476074 L 39.48851776123047 9.689573287963867 C 40.93619537353516 8.495753288269043 41.40566635131836 7.887124061584473 41.55675506591797 7.630414009094238 C 42.14826583862305 6.625813484191895 42.37982559204102 5.762543678283691 42.33102416992188 4.743873596191406 C 42.2374153137207 2.789773941040039 40.84508514404297 1.200004577636719 39.22728729248047 1.200004577636719 C 37.52517700195313 1.200004577636719 36.07168579101563 2.695463180541992 36.06058502197266 2.706993103027344 L 35.16752624511719 3.688604354858398 L 34.29262161254883 2.683444976806641 C 34.23156356811523 2.617650985717773 32.89253616333008 1.200004577636719 31.14739608764648 1.200004577636719 M 32.0712776184082 17.13184356689453 L 32.25653457641602 17.64793395996094 L 33.26266860961914 20.45074462890625 L 37.11191177368164 20.45074462890625 L 38.11805725097656 17.64793395996094 L 38.30332183837891 17.13184356689453 L 37.10013580322266 17.13184356689453 L 33.27444458007813 17.13184356689453 L 32.0712776184082 17.13184356689453 M 31.14739608764648 3.814697265625e-06 C 33.5128059387207 3.814697265625e-06 35.18743515014648 1.883823394775391 35.18743515014648 1.883823394775391 C 35.18743515014648 1.883823394775391 36.96342468261719 3.814697265625e-06 39.22728729248047 3.814697265625e-06 C 41.52821350097656 3.814697265625e-06 43.40669631958008 2.119684219360352 43.52965545654297 4.686452865600586 C 43.59910583496094 6.136384010314941 43.1819953918457 7.235243797302246 42.59082794189453 8.239274024963379 C 42.20839691162109 8.889023780822754 41.30296325683594 9.748693466186523 40.25197601318359 10.61538410186768 L 38.70040512084961 15.93184375762939 L 40.87543487548828 15.93184375762939 L 40.87543487548828 18.05337333679199 L 39.24748611450195 18.05337333679199 L 37.95611572265625 21.65074348449707 L 32.41846466064453 21.65074348449707 L 31.12710571289063 18.05337333679199 L 29.43772506713867 18.05337333679199 L 29.43772506713867 15.93184375762939 L 31.67417526245117 15.93184375762939 L 30.11955642700195 10.60487365722656 C 29.06792449951172 9.739294052124023 28.16323471069336 8.88265323638916 27.78375625610352 8.239274024963379 C 27.19406509399414 7.239763259887695 26.77566528320313 6.136384010314941 26.84502410888672 4.686452865600586 C 26.96798706054688 2.119684219360352 28.84664535522461 3.814697265625e-06 31.14739608764648 3.814697265625e-06 Z M 35.19499588012695 14.28646373748779 C 35.19499588012695 14.28646373748779 33.66767501831055 13.29395389556885 31.98235702514648 12.0495433807373 L 33.11543655395508 15.93184375762939 L 37.25923538208008 15.93184375762939 L 38.38853454589844 12.06236362457275 C 36.71142578125 13.30161380767822 35.19499588012695 14.28646373748779 35.19499588012695 14.28646373748779 Z" stroke="none" fill="#3e3e3e"/>
  </g>
</svg>
