<svg id="Icon" xmlns="http://www.w3.org/2000/svg" viewBox="0 0 512 512"><defs><style>.cls-1{fill:#f2a437;opacity:0.6;}.cls-2{fill:#4869ef;}</style></defs><title>02_hotel</title><path class="cls-1" d="M339.43,360.07h-34.7a2.73,2.73,0,0,1-2.73-2.73V204.28a7.27,7.27,0,0,0-7.27-7.27H250.16a2.72,2.72,0,0,1-2.72-2.73V154.5a2.72,2.72,0,0,1,2.72-2.73h89.27a2.73,2.73,0,0,1,2.73,2.73V357.34A2.73,2.73,0,0,1,339.43,360.07Z"/><path class="cls-2" d="M319.9,136H229a4.55,4.55,0,0,0-4.54,4.55v62.66h-50a4.55,4.55,0,0,0-4.55,4.55V371.45a4.55,4.55,0,0,0,4.55,4.55H319.9a4.55,4.55,0,0,0,4.54-4.55V140.55A4.54,4.54,0,0,0,319.9,136Zm-141,76.3H279V366.9h-100ZM315.35,366.9H288.06V207.76a4.54,4.54,0,0,0-4.54-4.55h-50V145.1h81.85Z"/><path class="cls-2" d="M219.86,221.4H201.68a4.55,4.55,0,0,0-4.56,4.54v18.19a4.56,4.56,0,0,0,4.56,4.55h18.18a4.54,4.54,0,0,0,4.55-4.55V225.94A4.54,4.54,0,0,0,219.86,221.4Zm-4.54,18.18h-9.1v-9.09h9.1Z"/><path class="cls-2" d="M256.24,221.4H238.05a4.55,4.55,0,0,0-4.55,4.54v18.19a4.55,4.55,0,0,0,4.55,4.55h18.19a4.54,4.54,0,0,0,4.54-4.55V225.94A4.54,4.54,0,0,0,256.24,221.4Zm-4.55,18.18H242.6v-9.09h9.09Z"/><path class="cls-2" d="M219.86,276H201.68a4.57,4.57,0,0,0-4.56,4.56V298.7a4.56,4.56,0,0,0,4.56,4.55h18.18a4.55,4.55,0,0,0,4.55-4.55V280.51A4.56,4.56,0,0,0,219.86,276Zm-4.54,18.2h-9.1v-9.09h9.1Z"/><path class="cls-2" d="M256.24,276H238.05a4.56,4.56,0,0,0-4.55,4.56V298.7a4.55,4.55,0,0,0,4.55,4.55h18.19a4.55,4.55,0,0,0,4.54-4.55V280.51A4.55,4.55,0,0,0,256.24,276Zm-4.55,18.2H242.6v-9.09h9.09Z"/><path class="cls-2" d="M219.86,330.53H201.68a4.56,4.56,0,0,0-4.56,4.55v18.18a4.56,4.56,0,0,0,4.56,4.55h18.18a4.55,4.55,0,0,0,4.55-4.55V335.08A4.55,4.55,0,0,0,219.86,330.53Zm-4.54,18.19h-9.1v-9.1h9.1Z"/><path class="cls-2" d="M256.24,330.53H238.05a4.55,4.55,0,0,0-4.55,4.55v18.18a4.55,4.55,0,0,0,4.55,4.55h18.19a4.55,4.55,0,0,0,4.54-4.55V335.08A4.55,4.55,0,0,0,256.24,330.53Zm-4.55,18.19H242.6v-9.1h9.09Z"/><path class="cls-2" d="M247.4,188.64h18.19a4.55,4.55,0,0,0,4.55-4.54V165.91a4.55,4.55,0,0,0-4.55-4.55H247.4a4.55,4.55,0,0,0-4.55,4.55V184.1A4.55,4.55,0,0,0,247.4,188.64ZM252,170.46H261v9.1H252Z"/><path class="cls-2" d="M283.78,188.64H302a4.55,4.55,0,0,0,4.55-4.54V165.91a4.55,4.55,0,0,0-4.55-4.55H283.78a4.55,4.55,0,0,0-4.55,4.55V184.1A4.55,4.55,0,0,0,283.78,188.64Zm4.54-18.18h9.1v9.1h-9.1Z"/></svg>