<svg xmlns="http://www.w3.org/2000/svg" xmlns:xlink="http://www.w3.org/1999/xlink" width="31" height="31" viewBox="0 0 31 31">
  <defs>
    <clipPath id="clip-path">
      <circle id="Ellipse_259" data-name="Ellipse 259" cx="15.5" cy="15.5" r="15.5" transform="translate(0.006)" fill="#fff" stroke="#d6d6d6" stroke-width="2"/>
    </clipPath>
  </defs>
  <g id="Group_5007" data-name="Group 5007" transform="translate(-0.006)">
    <circle id="Ellipse_260" data-name="Ellipse 260" cx="15.5" cy="15.5" r="15.5" transform="translate(0.006)" fill="none"/>
    <g id="bed" transform="translate(7.039 8.361)">
      <g id="Group_4937" data-name="Group 4937">
        <path id="Path_6587" data-name="Path 6587" d="M16.748,31.938a.34.34,0,0,0,.011-.222l-1.382-4.491V23.081a1.749,1.749,0,0,0-1.747-1.747H3.145A1.749,1.749,0,0,0,1.4,23.081v4.143L.016,31.716a.34.34,0,0,0,.011.222,1.036,1.036,0,0,0-.027.23v4.194a.35.35,0,0,0,.349.349h1.4a.35.35,0,0,0,.349-.349V35.313H14.678v1.048a.35.35,0,0,0,.349.349h1.4a.35.35,0,0,0,.349-.349V32.168A1.038,1.038,0,0,0,16.748,31.938ZM13.011,27.49a.349.349,0,0,1-.276.134h-2.6a.35.35,0,0,1-.349-.349v-1.4a.35.35,0,0,1,.349-.349h2.251a.349.349,0,0,1,.339.264l.349,1.4A.347.347,0,0,1,13.011,27.49ZM6.99,25.877v1.394s0,0,0,0h0a.35.35,0,0,1-.349.348h-2.6a.349.349,0,0,1-.34-.435l.349-1.4a.35.35,0,0,1,.34-.264h2.25A.35.35,0,0,1,6.99,25.877ZM2.005,27.625H3.057a1.019,1.019,0,0,0,.983.7h2.6a1.047,1.047,0,0,0,.984-.7H9.151a1.047,1.047,0,0,0,.984.7h2.6a1.045,1.045,0,0,0,.827-.4,1.029,1.029,0,0,0,.156-.3H14.77l1.079,3.507a1.009,1.009,0,0,0-.122-.013H1.048a.984.984,0,0,0-.122.013Z" transform="translate(0 -21.334)" fill="#3e3e3e"/>
      </g>
    </g>
  </g>
</svg>
