<svg xmlns="http://www.w3.org/2000/svg" width="59.308" height="92.077" viewBox="0 0 59.308 92.077"><defs><style>.a{fill:#2681ff;}</style></defs><g transform="translate(-19.58 -2.14)"><path class="a" d="M77.154,2.14H42.264a1.749,1.749,0,0,0-1.749,1.742V27.928H21.329a1.749,1.749,0,0,0-1.749,1.742V92.475a1.749,1.749,0,0,0,1.749,1.742H77.147a1.742,1.742,0,0,0,1.742-1.742V3.882A1.741,1.741,0,0,0,77.154,2.14ZM24.559,32.9h35.4V89.238h-35.4ZM73.924,89.238H64.941V29.7A1.742,1.742,0,0,0,63.2,27.957H45.494V7.863h28.43Z"/><path class="a" d="M42.372,48.16H35.4A1.749,1.749,0,0,0,33.65,49.9v6.981A1.749,1.749,0,0,0,35.4,58.631h6.973a1.741,1.741,0,0,0,1.742-1.749V49.9a1.742,1.742,0,0,0-1.742-1.742Zm-1.764,6.981H37.14V51.65h3.468Z" transform="translate(-3.599 -11.77)"/><path class="a" d="M61.122,48.16H54.142A1.742,1.742,0,0,0,52.4,49.9v6.981a1.749,1.749,0,0,0,1.742,1.749h6.981a1.749,1.749,0,0,0,1.749-1.749V49.9a1.749,1.749,0,0,0-1.749-1.742Zm-1.742,6.981H55.89V51.65h3.49Z" transform="translate(-8.394 -11.77)"/><path class="a" d="M42.372,74.29H35.4a1.749,1.749,0,0,0-1.749,1.742V83A1.749,1.749,0,0,0,35.4,84.761h6.973A1.742,1.742,0,0,0,44.114,83V76.032A1.742,1.742,0,0,0,42.372,74.29Zm-1.764,6.981H37.14V77.8h3.468Z" transform="translate(-3.599 -18.453)"/><path class="a" d="M61.122,74.29H54.142A1.742,1.742,0,0,0,52.4,76.032V83a1.749,1.749,0,0,0,1.742,1.749h6.981A1.749,1.749,0,0,0,62.871,83V76.032A1.749,1.749,0,0,0,61.122,74.29Zm-1.742,6.981H55.89V77.8h3.49Z" transform="translate(-8.394 -18.453)"/><path class="a" d="M42.372,100.42H35.4a1.749,1.749,0,0,0-1.749,1.749v6.973a1.749,1.749,0,0,0,1.749,1.742h6.973a1.742,1.742,0,0,0,1.742-1.742v-6.973a1.742,1.742,0,0,0-1.742-1.749ZM40.609,107.4H37.14v-3.49h3.468Z" transform="translate(-3.599 -25.137)"/><path class="a" d="M61.122,100.42H54.142a1.749,1.749,0,0,0-1.742,1.749v6.973a1.742,1.742,0,0,0,1.742,1.742h6.981a1.749,1.749,0,0,0,1.749-1.742v-6.973A1.749,1.749,0,0,0,61.122,100.42ZM59.381,107.4H55.89v-3.49h3.49Z" transform="translate(-8.394 -25.137)"/><path class="a" d="M58.969,25.681h6.973a1.749,1.749,0,0,0,1.749-1.749V16.959a1.749,1.749,0,0,0-1.749-1.749H58.969a1.749,1.749,0,0,0-1.749,1.749v6.973A1.749,1.749,0,0,0,58.969,25.681ZM60.71,18.7H64.2v3.49H60.71Z" transform="translate(-9.627 -3.343)"/><path class="a" d="M77.727,25.681H84.7a1.749,1.749,0,0,0,1.719-1.749V16.959A1.749,1.749,0,0,0,84.67,15.21H77.727A1.749,1.749,0,0,0,76,16.959v6.973a1.749,1.749,0,0,0,1.727,1.749ZM79.468,18.7h3.49v3.49h-3.49Z" transform="translate(-14.43 -3.343)"/></g></svg>