<svg xmlns="http://www.w3.org/2000/svg" width="55.354" height="35.491" viewBox="0 0 55.354 35.491"><defs><style>.a{fill:#fff;}</style></defs><path class="a" d="M7.884,81.422l2.258-11.265h3.674L11.571,81.422ZM18.97,77.735h2.335l-.6-4.133L18.97,77.735Zm-5.154,3.687,5.562-11.265H23l2.284,11.265H21.879l-.2-1.34H18.052l-.574,1.34Zm14.85,0,1.263-8.471H26.714l.549-2.845h9.874l-.549,2.845H33.526l-1.237,8.471Zm12.349-3.687H43.35l-.6-4.133-1.735,4.133Zm-5.141,3.687,5.55-11.265h3.623L47.33,81.422H43.9l-.166-1.34H40.109l-.574,1.34Zm19.481-24H38.068c-.638,3.164-2.832,5.8-7.208,7.629a4.451,4.451,0,0,0,3.955,2.9h9.377a3.659,3.659,0,0,0,3.024-2.169h-9.53c-.587-.1-.612-.574-.026-.625h9.364A3.8,3.8,0,0,0,49.971,63H39.063c-.549-.089-.549-.549,0-.638h11c1.11,0,2.118-1.288,2.539-2.156H40.53c-.6-.077-.6-.638,0-.651H52.816c.957,0,1.888-1.046,2.539-2.131ZM0,57.426H17.286c.625,3.164,2.832,5.8,7.2,7.629a4.451,4.451,0,0,1-3.955,2.9H11.163a3.659,3.659,0,0,1-3.024-2.169h9.53c.574-.1.612-.574.026-.625H8.318A3.759,3.759,0,0,1,5.384,63H16.3c.549-.089.549-.549,0-.638h-11c-1.11,0-2.118-1.288-2.539-2.156H14.837c.6-.077.6-.638,0-.651H2.552c-.97,0-1.9-1.046-2.552-2.131Zm22.07-9.492a7.716,7.716,0,0,0,2.118,1.34,12.054,12.054,0,0,1,2.6-3.342,9.341,9.341,0,0,0-4.72,2Zm-3.062,6.289h3.853a12.359,12.359,0,0,1,1.046-4.4A9.275,9.275,0,0,1,21.6,48.368a8.835,8.835,0,0,0-2.59,5.856Zm8.369-3.61v3.61H23.525a10.655,10.655,0,0,1,.957-4.184,9.349,9.349,0,0,0,2.9.574Zm5.907-2.679a7.716,7.716,0,0,1-2.118,1.34,12.093,12.093,0,0,0-2.615-3.33,9.21,9.21,0,0,1,4.733,1.99Zm3.049,6.289h-3.84a11.755,11.755,0,0,0-1.021-4.4,9.837,9.837,0,0,0,2.271-1.454,8.6,8.6,0,0,1,2.59,5.856ZM28,50.613v3.61H31.83a10.181,10.181,0,0,0-.957-4.184,9.265,9.265,0,0,1-2.87.574ZM22.07,61.151a8.364,8.364,0,0,1,2.118-1.314,11.985,11.985,0,0,0,2.6,3.3,8.725,8.725,0,0,1-4.72-1.99Zm-3.062-6.3h3.853a12.562,12.562,0,0,0,1.046,4.44A9.611,9.611,0,0,0,21.6,60.73a8.912,8.912,0,0,1-2.59-5.881Zm8.369,3.623V54.848H23.525a10.406,10.406,0,0,0,.957,4.184,9.333,9.333,0,0,1,2.9-.561Zm5.907,2.679a7.863,7.863,0,0,0-2.118-1.314,11.794,11.794,0,0,1-2.615,3.3,9.429,9.429,0,0,0,4.733-1.99Zm3.049-6.3h-3.84a11.705,11.705,0,0,1-1.021,4.44,10.185,10.185,0,0,1,2.271,1.442,8.778,8.778,0,0,0,2.59-5.881ZM28,58.472V54.848H31.83a10.089,10.089,0,0,1-.957,4.184A9.248,9.248,0,0,0,28,58.472ZM27.378,46.3a10.119,10.119,0,0,0-2.59,3.189,8.2,8.2,0,0,0,2.59.51V46.3Zm.625,0a9.969,9.969,0,0,1,2.564,3.189A7.521,7.521,0,0,1,28,50V46.3Zm-.625,16.483a9.758,9.758,0,0,1-2.59-3.2,7.8,7.8,0,0,1,2.59-.459v3.661Zm.625.026a10.405,10.405,0,0,0,2.564-3.228A8.484,8.484,0,0,0,28,59.122v3.687Z" transform="translate(0 -45.931)"/></svg>