<svg xmlns="http://www.w3.org/2000/svg" width="12.666" height="16.229" viewBox="0 0 12.666 16.229">
  <g id="Group_3119" data-name="Group 3119" transform="translate(-42.17 -4)">
    <g id="Group_3118" data-name="Group 3118" transform="translate(42.17 4)">
      <g id="Group_3117" data-name="Group 3117" transform="translate(0 0)">
        <g id="Group_3113" data-name="Group 3113" transform="translate(0 4.943)">
          <path id="Path_5931" data-name="Path 5931" d="M25.889,42.938v1.941h-4.7V42.9a1.227,1.227,0,0,0-.124.067q-1.3.938-2.6,1.879a.808.808,0,0,1-1.132-.155.794.794,0,0,1,.142-1.119q1.739-1.383,3.485-2.759a.726.726,0,0,1,.378-.139c.839-.053,1.678-.114,2.518-.125.607-.008,1.215.046,1.821.1a.849.849,0,0,1,.425.184c1.137.891,2.266,1.791,3.4,2.689a.807.807,0,0,1,.155,1.153.826.826,0,0,1-1.162.111c-.837-.611-1.685-1.209-2.529-1.811A.547.547,0,0,0,25.889,42.938Z" transform="translate(-17.17 -40.551)" fill="#0a56bb" fill-rule="evenodd"/>
        </g>
        <g id="Group_3114" data-name="Group 3114" transform="translate(3.864)">
          <path id="Path_5932" data-name="Path 5932" d="M48.183,8.4a2.582,2.582,0,0,1-1.862-.785,2.015,2.015,0,0,1,.024-2.857,2.684,2.684,0,0,1,3.738.009A2.042,2.042,0,0,1,49.74,7.92,2.709,2.709,0,0,1,48.183,8.4Z" transform="translate(-45.739 -4)" fill="#0a56bb" fill-rule="evenodd"/>
        </g>
        <g id="Group_3115" data-name="Group 3115" transform="translate(6.676 9.984)">
          <path id="Path_5933" data-name="Path 5933" d="M68.4,80.3,67,79.378a1.032,1.032,0,0,1,.094-.131q.665-.67,1.331-1.339c.11-.112.19-.109.311,0,.583.539,1.175,1.067,1.766,1.6a.858.858,0,0,1,.357.875.97.97,0,0,1-.208.4q-1.336,1.5-2.687,2.986a.814.814,0,0,1-1.15.11.825.825,0,0,1-.1-1.141C67.279,81.934,67.832,81.121,68.4,80.3Z" transform="translate(-66.534 -77.825)" fill="#0a56bb" fill-rule="evenodd"/>
        </g>
        <g id="Group_3116" data-name="Group 3116" transform="translate(1.713 9.991)">
          <path id="Path_5934" data-name="Path 5934" d="M32.335,80.337c.114.167.219.324.326.48l1.4,2.025A.807.807,0,0,1,32.8,83.849c-.547-.6-1.086-1.2-1.629-1.8l-1.063-1.18a.8.8,0,0,1,.018-1.211c.638-.6,1.3-1.184,1.954-1.769a.166.166,0,0,1,.156.014c.209.18.415.362.609.557.3.3.594.616.908.944Z" transform="translate(-29.839 -77.874)" fill="#0a56bb" fill-rule="evenodd"/>
        </g>
      </g>
    </g>
  </g>
</svg>
