<svg id="Layer_1" data-name="Layer 1" xmlns="http://www.w3.org/2000/svg" viewBox="0 0 128 128"><defs><style>.cls-1{fill:#fff;}</style></defs><title>instagram_white</title><path class="cls-1" d="M83.07,34.05H44.93a11.07,11.07,0,0,0-11,11.05V83.25a11.06,11.06,0,0,0,11,11H83.07a11.06,11.06,0,0,0,11.05-11V45.1A11.06,11.06,0,0,0,83.07,34.05ZM64,84A19.83,19.83,0,1,1,83.83,64.17,19.85,19.85,0,0,1,64,84ZM84.47,48.44a4.69,4.69,0,1,1,4.69-4.69A4.69,4.69,0,0,1,84.47,48.44Z"/><path class="cls-1" d="M64,52.72A11.45,11.45,0,1,0,75.45,64.17,11.47,11.47,0,0,0,64,52.72Z"/><path class="cls-1" d="M64,0a64,64,0,1,0,64,64A64,64,0,0,0,64,0Zm38.5,83.25a19.44,19.44,0,0,1-19.43,19.42H44.93A19.45,19.45,0,0,1,25.5,83.25V45.1A19.46,19.46,0,0,1,44.93,25.67H83.07A19.45,19.45,0,0,1,102.5,45.1Z"/></svg>