<svg xmlns="http://www.w3.org/2000/svg" width="62.057" height="90.268" viewBox="0 0 62.057 90.268"><defs><style>.a{fill:#2681ff;}</style></defs><g transform="translate(-80.004 0.034)"><path class="a" d="M111.031,90.234A10.365,10.365,0,0,1,105.6,88.7a9.626,9.626,0,0,1-3.834-4.345L82.119,42.376a26.649,26.649,0,0,1-2.1-11.3A30.3,30.3,0,0,1,89.13,9.1,29.543,29.543,0,0,1,111.082-.028a29.924,29.924,0,0,1,21.927,9.2,30.358,30.358,0,0,1,9.039,21.989A26.565,26.565,0,0,1,140,42.251L120.327,84.4a10.015,10.015,0,0,1-3.9,4.314A10.327,10.327,0,0,1,111.031,90.234Zm-.3-83.426a23.2,23.2,0,0,0-16.748,7.1,23.623,23.623,0,0,0-7.136,17.233A20.032,20.032,0,0,0,88.362,39.6l19.62,41.907a2.953,2.953,0,0,0,1.171,1.349,3.538,3.538,0,0,0,3.723.018,3.228,3.228,0,0,0,1.269-1.384l19.607-42.011a19.6,19.6,0,0,0,1.463-8.161v-.18a23.56,23.56,0,0,0-7.052-17.157,22.976,22.976,0,0,0-17.072-7.172C110.964,6.809,110.855,6.809,110.732,6.809Zm.492,41.709h-.483a16.677,16.677,0,0,1-11.93-5.125A16.848,16.848,0,0,1,93.82,31.141a16.855,16.855,0,0,1,5.067-12.215,17.13,17.13,0,0,1,24.36.079,16.848,16.848,0,0,1,4.991,12.251,16.859,16.859,0,0,1-5.026,12.177A16.737,16.737,0,0,1,111.223,48.518Zm-.243-6.835a9.941,9.941,0,0,0,7.343-3.023l.078-.076a10.07,10.07,0,0,0,3.013-7.329,10.435,10.435,0,0,0-10.331-10.542,10.31,10.31,0,0,0-7.339,3.023,10.128,10.128,0,0,0-3.09,7.4,10.144,10.144,0,0,0,3.013,7.44,9.883,9.883,0,0,0,7.314,3.1Z"/></g></svg>