<svg id="Layer_1" data-name="Layer 1" xmlns="http://www.w3.org/2000/svg" viewBox="0 0 128 128"><defs><style>.cls-1{fill:#707070;}</style></defs><title>login</title><path class="cls-1" d="M96.5,64A4.82,4.82,0,0,1,95,67.52L52.52,110A5,5,0,0,1,44,106.48V84H9a4.81,4.81,0,0,1-3.51-1.48A4.79,4.79,0,0,1,4,79V49a4.79,4.79,0,0,1,1.48-3.51A4.81,4.81,0,0,1,9,44H44V21.51A5,5,0,0,1,52.52,18L95,60.48A4.82,4.82,0,0,1,96.5,64ZM124,36.51v55A22.53,22.53,0,0,1,101.5,114h-25a2.43,2.43,0,0,1-1.76-.74,2.39,2.39,0,0,1-.74-1.76c0-.21,0-.73-.08-1.56s-.06-1.53,0-2.07a12.42,12.42,0,0,1,.24-1.84,2.55,2.55,0,0,1,.78-1.52,2.35,2.35,0,0,1,1.6-.51h25A12.5,12.5,0,0,0,114,91.48v-55A12.5,12.5,0,0,0,101.5,24H77.12c-.15,0-.45,0-.89-.08a2.11,2.11,0,0,1-.9-.24l-.63-.43a1.4,1.4,0,0,1-.55-.7A3,3,0,0,1,74,21.51c0-.2,0-.72-.08-1.55s-.06-1.53,0-2.07a12.42,12.42,0,0,1,.24-1.84,2.52,2.52,0,0,1,.78-1.52A2.35,2.35,0,0,1,76.5,14h25a21.67,21.67,0,0,1,15.9,6.6A21.69,21.69,0,0,1,124,36.51Z"/></svg>