<svg id="Icon" xmlns="http://www.w3.org/2000/svg" viewBox="0 0 512 512"><defs><style>.cls-1{opacity:0.6;}.cls-2{fill:#f2a437;}.cls-3{fill:#4869ef;}</style></defs><title>14_login</title><g class="cls-1"><path class="cls-2" d="M330.73,364.63H209.44A13.5,13.5,0,0,1,196,351.15v-97a13.5,13.5,0,0,1,13.48-13.48H335.22a13.5,13.5,0,0,1,13.48,13.48v97a13.5,13.5,0,0,1-9,12.7Z"/></g><g class="cls-1"><path class="cls-2" d="M315.45,231.66V211a43.13,43.13,0,0,0-86.25,0v20.67H213.93V211a58.4,58.4,0,0,1,116.8,0v20.67Z"/></g><g id="surface1"><path class="cls-3" d="M316,229.5V208.38a67.39,67.39,0,0,0-134.77,0V229.5a22.5,22.5,0,0,0-18,22V277a4.5,4.5,0,0,0,9,0v-25.5A13.49,13.49,0,0,1,185.76,238H311.55A13.49,13.49,0,0,1,325,251.51v97a13.49,13.49,0,0,1-9,12.7V334.16a4.5,4.5,0,0,0-9,0V362H185.76a13.49,13.49,0,0,1-13.47-13.48V313.05a4.5,4.5,0,0,0-9,0v35.49A22.49,22.49,0,0,0,185.76,371H311.55A22.49,22.49,0,0,0,334,348.54v-97A22.5,22.5,0,0,0,316,229.5Zm-101.53-.45V208.38a34.15,34.15,0,0,1,68.29,0v20.67Zm77.27,0V208.38a43.13,43.13,0,0,0-86.25,0v20.67H190.26V208.38a58.4,58.4,0,1,1,116.79,0v20.67Z"/><path class="cls-3" d="M167.8,299.34A4.48,4.48,0,0,0,171,298a4.5,4.5,0,1,0-3.17,1.31Z"/><path class="cls-3" d="M248.65,346.74a13.48,13.48,0,0,0,13.48-13.47V309.41a24.26,24.26,0,1,0-26.95-.08v23.94A13.48,13.48,0,0,0,248.65,346.74ZM233.44,289.2a15.28,15.28,0,1,1,22.17,13.63,4.49,4.49,0,0,0-2.46,4v26.43a4.5,4.5,0,0,1-9,0V306.78a4.49,4.49,0,0,0-2.43-4A15.24,15.24,0,0,1,233.44,289.2Z"/><path class="cls-3" d="M311.55,320.24a4.51,4.51,0,1,0-3.18-1.32A4.49,4.49,0,0,0,311.55,320.24Z"/></g></svg>