<svg id="Layer_1" data-name="Layer 1" xmlns="http://www.w3.org/2000/svg" viewBox="0 0 128 128"><defs><style>.cls-1{fill:#707070;}</style></defs><title>login</title><path class="cls-1" d="M91,64a3.32,3.32,0,0,1-1,2.43L60.57,95.78a3.46,3.46,0,0,1-4.89,0,3.5,3.5,0,0,1-1-2.41V77.82H15.5a3.5,3.5,0,0,1-3.45-3.46V53.64a3.5,3.5,0,0,1,3.45-3.46H54.68V34.64a3.46,3.46,0,0,1,3.48-3.42,3.4,3.4,0,0,1,2.41,1L89.92,61.57A3.32,3.32,0,0,1,91,64ZM119,36.51v55A22.53,22.53,0,0,1,96.5,114h-25a2.43,2.43,0,0,1-1.76-.74A2.4,2.4,0,0,1,69,111.5a15.39,15.39,0,0,0-.08-1.56,10.12,10.12,0,0,1,0-2.07,11.44,11.44,0,0,1,.24-1.84,2.55,2.55,0,0,1,.78-1.52,2.36,2.36,0,0,1,1.6-.51h25A12.49,12.49,0,0,0,109,91.48v-55A12.49,12.49,0,0,0,96.5,24H72.12a4.66,4.66,0,0,1-.89-.08,2,2,0,0,1-.9-.24l-.63-.43a1.41,1.41,0,0,1-.55-.7,3.08,3.08,0,0,1-.15-1A15.36,15.36,0,0,0,68.92,20a10.12,10.12,0,0,1,0-2.07,11.44,11.44,0,0,1,.24-1.84,2.55,2.55,0,0,1,.78-1.52A2.33,2.33,0,0,1,71.5,14h25a21.68,21.68,0,0,1,15.9,6.6A21.7,21.7,0,0,1,119,36.51Z"/></svg>