<svg id="Layer_1" data-name="Layer 1" xmlns="http://www.w3.org/2000/svg" viewBox="0 0 128 128"><defs><style>.cls-1{fill:#707070;}</style></defs><title>logout</title><path class="cls-1" d="M41.13,61.57,70.48,32.22a3.39,3.39,0,0,1,2.4-1,3.46,3.46,0,0,1,3.49,3.42V50.18h39.18A3.5,3.5,0,0,1,119,53.64V74.36a3.5,3.5,0,0,1-3.45,3.46H76.37V93.35a3.5,3.5,0,0,1-1,2.41,3.46,3.46,0,0,1-4.89,0L41.13,66.43a3.36,3.36,0,0,1,0-4.86Zm-22.48-41A21.66,21.66,0,0,1,34.55,14h25a2.33,2.33,0,0,1,1.56.53,2.55,2.55,0,0,1,.78,1.52,14.25,14.25,0,0,1,.24,1.84,10.12,10.12,0,0,1,0,2.07,15.36,15.36,0,0,0-.08,1.55,3.08,3.08,0,0,1-.15,1,1.41,1.41,0,0,1-.55.7l-.63.43a2,2,0,0,1-.9.24,4.66,4.66,0,0,1-.89.08H34.55a12.49,12.49,0,0,0-12.5,12.48v55A12.49,12.49,0,0,0,34.51,104h25a2.36,2.36,0,0,1,1.6.51,2.55,2.55,0,0,1,.78,1.52,14.25,14.25,0,0,1,.24,1.84,10.12,10.12,0,0,1,0,2.07,15.39,15.39,0,0,0-.08,1.56,2.4,2.4,0,0,1-.74,1.76,2.43,2.43,0,0,1-1.76.74h-25a22.53,22.53,0,0,1-22.5-22.49v-55A21.7,21.7,0,0,1,18.65,20.6Z"/></svg>