<svg id="Icon" xmlns="http://www.w3.org/2000/svg" viewBox="0 0 512 512"><defs><style>.cls-1{opacity:0.6;}.cls-2{fill:#f2a437;}.cls-3{fill:#4869ef;}.cls-4{fill:#fff;}</style></defs><title>16_Logout</title><g class="cls-1"><path class="cls-2" d="M371.34,140.6H301.78c-10.65,0-19.3,10.19-19.3,22.72v95.81H158.05l6.83-6.83,27.86-27.87a4.47,4.47,0,0,0-6.32-6.32l-42.33,42.33a4.53,4.53,0,0,0-1,4.87,4.29,4.29,0,0,0,1,1.46l42.36,42.36,0,0,0,0a4.47,4.47,0,1,0,6.43-6.21l-.1-.11,0,0,0,0-27.9-27.91-6.83-6.83H282.47V347c0,12.54,8.66,22.73,19.31,22.73h69.56c10.64,0,19.3-10.19,19.3-22.73V163.32a24.69,24.69,0,0,0-5.84-16.27A17.82,17.82,0,0,0,371.34,140.6Z"/></g><path class="cls-3" d="M370.6,162.81a21.41,21.41,0,0,0-21.41-21.42H239.05a21.45,21.45,0,0,0-21.42,21.42v50.83a4.48,4.48,0,0,0,9,0V162.81a12.49,12.49,0,0,1,12.47-12.48H349.19a12.49,12.49,0,0,1,12.47,12.48V349.19a12.49,12.49,0,0,1-12.47,12.48H239.05a12.49,12.49,0,0,1-12.47-12.48V298.36a4.48,4.48,0,0,0-9,0v50.83a21.45,21.45,0,0,0,21.42,21.42H349.19a21.44,21.44,0,0,0,21.41-21.42Z"/><path class="cls-4" d="M230.58,162.81a8.45,8.45,0,0,1,2.48-6,8.45,8.45,0,0,0-2.48,6Z"/><path class="cls-4" d="M213.63,349.19a25.46,25.46,0,0,0,.8,6.35,25.46,25.46,0,0,1-.8-6.35Z"/><path class="cls-4" d="M222.11,222.11a8.48,8.48,0,0,1-8.48-8.47h0a8.48,8.48,0,0,0,17,0h0A8.47,8.47,0,0,1,222.11,222.11Z"/><path class="cls-4" d="M227.8,292.1a8.43,8.43,0,0,0-11.38,0,8.43,8.43,0,0,1,11.38,0Z"/><path class="cls-3" d="M306.83,260.47a4.47,4.47,0,1,0,0-8.94H156.65l6.83-6.83,27.87-27.87a4.47,4.47,0,0,0-6.32-6.32L142.7,252.84a4.23,4.23,0,0,0-1,1.44,4.48,4.48,0,0,0,0,3.43,4.55,4.55,0,0,0,1,1.46l42.37,42.36,0,0,0,0a4.47,4.47,0,0,0,6.44-6.21l-.11-.11,0,0,0,0L163.48,267.3l-6.83-6.83H306.83Z"/><path class="cls-4" d="M178.27,235.57l15.94-15.94a8.51,8.51,0,0,0,2.38-6,8.51,8.51,0,0,1-2.38,6Z"/><path class="cls-4" d="M192.69,206.61a8.45,8.45,0,0,0-9.43.2A8.48,8.48,0,0,1,192.69,206.61Z"/></svg>