<svg xmlns="http://www.w3.org/2000/svg" width="20" height="17.5" viewBox="0 0 20 17.5">
  <g id="luggage_2_" data-name="luggage (2)" transform="translate(-64 -170.666)">
    <g id="Group_3109" data-name="Group 3109" transform="translate(64 170.666)">
      <g id="Group_3108" data-name="Group 3108">
        <path id="Path_5923" data-name="Path 5923" d="M81.5,173.166a.625.625,0,0,0-.625-.625h-1.25a.625.625,0,0,0-.625.625H77.75v-.625a1.877,1.877,0,0,0-1.875-1.875h-3.75a1.877,1.877,0,0,0-1.875,1.875v.625H69a.625.625,0,0,0-.625-.625h-1.25a.625.625,0,0,0-.625.625,2.5,2.5,0,0,0-2.5,2.5v10a2.5,2.5,0,0,0,2.5,2.5h15a2.5,2.5,0,0,0,2.5-2.5v-10A2.5,2.5,0,0,0,81.5,173.166Zm-13.75,13.75H66.5a1.251,1.251,0,0,1-1.25-1.25v-10a1.251,1.251,0,0,1,1.25-1.25h1.25Zm3.75-14.375a.626.626,0,0,1,.625-.625h3.75a.626.626,0,0,1,.625.625v.625h-5ZM79,186.916H69v-12.5H79Zm3.75-1.25a1.251,1.251,0,0,1-1.25,1.25H80.25v-12.5H81.5a1.251,1.251,0,0,1,1.25,1.25Z" transform="translate(-64 -170.666)" fill="#c5c5c5"/>
      </g>
    </g>
  </g>
</svg>
