<?xml version="1.0" encoding="utf-8"?>
<!-- Generator: Adobe Illustrator 23.0.0, SVG Export Plug-In . SVG Version: 6.00 Build 0)  -->
<svg version="1.1" id="Layer_1" xmlns="http://www.w3.org/2000/svg" xmlns:xlink="http://www.w3.org/1999/xlink" x="0px" y="0px"
	 viewBox="0 0 30 30" style="enable-background:new 0 0 30 30;" xml:space="preserve">
<style type="text/css">
	.st0{fill:none;}
	.st1{opacity:0.6;fill:#F2A437;enable-background:new    ;}
	.st2{fill:#4869EF;}
</style>
<rect class="st0" width="30" height="30"/>
<title>about</title>
<g>
	<circle class="st1" cx="16.7" cy="14.3" r="6.8"/>
	<path class="st2" d="M15.1,7.5c-4.2,0-7.7,3.5-7.5,7.8c0.1,4,3.4,7.2,7.4,7.4c4.3,0.1,7.8-3.3,7.8-7.5C22.6,10.9,19.2,7.5,15.1,7.5
		z M15.1,21.9c-4,0-7.4-3.6-6.9-7.7c0.3-3.2,2.9-5.7,6-6.1c4.9-0.6,9,4,7.4,9.1C20.8,20,18.1,21.9,15.1,21.9L15.1,21.9z"/>
	<path class="st2" d="M15.1,13.6c-0.3,0-0.6,0.2-0.6,0.6v4.3c0,0.3,0.2,0.6,0.6,0.6c0.3,0,0.6-0.2,0.6-0.6v-4.3
		C15.8,13.9,15.4,13.6,15.1,13.6z"/>
	<path class="st2" d="M15.1,11c-0.3,0-0.6,0.3-0.6,0.6v0.2c0,0.3,0.2,0.6,0.6,0.6l0,0c0.3,0,0.6-0.3,0.6-0.6v-0.2
		c0.1-0.3-0.2-0.6-0.5-0.6C15.2,11,15.1,11,15.1,11z"/>
</g>
</svg>
