<svg id="Icon" xmlns="http://www.w3.org/2000/svg" viewBox="0 0 40 40"><defs><style>.cls-1{fill:#f2a437;opacity:0.6;}.cls-2{fill:#4869ef;}</style></defs><title>17_My Account</title><path class="cls-1" d="M23.84,24a26.21,26.21,0,0,0-11.63,3.07l-.14.07A14,14,0,0,0,36,27.43c-.16-.1-.39-.26-.54-.34A26.21,26.21,0,0,0,23.84,24Z"/><circle class="cls-1" cx="24.04" cy="16.18" r="5.98"/><path class="cls-2" d="M20.26,22.67a6.49,6.49,0,1,1,6.49-6.49A6.5,6.5,0,0,1,20.26,22.67Zm0-12a5.48,5.48,0,1,0,5.47,5.47A5.48,5.48,0,0,0,20.26,10.71Z"/><path class="cls-2" d="M20.54,34.54A14.54,14.54,0,1,1,35.08,20,14.56,14.56,0,0,1,20.54,34.54Zm0-28.07A13.53,13.53,0,1,0,34.07,20,13.55,13.55,0,0,0,20.54,6.47Z"/><path class="cls-2" d="M20.51,34.5a14.45,14.45,0,0,1-7.27-2A14.63,14.63,0,0,1,8,27.42L7.76,27l.49-.28.12-.06a26.65,26.65,0,0,1,11.86-3.13A26.7,26.7,0,0,1,32.1,26.64a4.51,4.51,0,0,1,.47.3l.11.07.41.27-.27.42A14.46,14.46,0,0,1,20.51,34.5ZM9.18,27.36a13.54,13.54,0,0,0,22.52.22l-.07,0a25.62,25.62,0,0,0-11.4-3A25.57,25.57,0,0,0,9.18,27.36Z"/></svg>