<?xml version="1.0" encoding="utf-8"?>
<!-- Generator: Adobe Illustrator 23.0.0, SVG Export Plug-In . SVG Version: 6.00 Build 0)  -->
<svg version="1.1" id="Icon" xmlns="http://www.w3.org/2000/svg" xmlns:xlink="http://www.w3.org/1999/xlink" x="0px" y="0px"
	 viewBox="0 0 512 512" style="enable-background:new 0 0 512 512;" xml:space="preserve">
<style type="text/css">
	.st0{fill:#F7C887;}
	.st1{fill:#4869EF;}
	.st2{fill:none;}
</style>
<title>24_attraction</title>
<path class="st0" d="M268,365.2c-9.6-0.6-19.1-2.4-28.3-5.3l23.2-61.4c1.7,0.4,3.5,0.7,5.1,1V365.2 M284.3,365.1v-65.7
	c1.7-0.2,3.4-0.6,5.1-1l23.2,61.4C303.5,362.7,294,364.4,284.3,365.1 M224.5,353.9c-10.5-4.9-20.3-11.3-29-18.9l0,0l46.4-46.4
	c1.8,1.4,3.8,2.6,5.8,3.8L224.5,353.9 M327.8,353.9l-23.2-61.5c2-1.2,3.9-2.4,5.8-3.8l46.4,46.4C348.1,342.6,338.3,349,327.8,353.9
	 M184,323.5c-17.8-20.1-28.4-45.6-30.1-72.5h65.7c1.3,9.5,5.1,18.4,10.8,26.1L184,323.5 M368.3,323.5l-46.4-46.4
	c5.7-7.6,9.4-16.6,10.8-26.1h65.7C396.7,277.8,386.1,303.3,368.3,323.5 M153.9,234.7c1.7-26.8,12.3-52.3,30.1-72.5l46.4,46.4
	c-5.7,7.6-9.5,16.6-10.8,26.1H153.9 M398.4,234.7h-65.6c-1.4-9.5-5.1-18.4-10.8-26.1l46.3-46.4C386.1,182.4,396.7,207.9,398.4,234.7
	 M241.9,197.1l-46.4-46.4c20.2-17.8,45.7-28.4,72.5-30.1v65.7C258.5,187.6,249.6,191.3,241.9,197.1 M310.4,197
	c-7.6-5.7-16.6-9.5-26.1-10.8v-65.6c26.8,1.7,52.3,12.3,72.4,30.1L310.4,197 M276.1,54.9c-18,0-32.7,14.6-32.7,32.7
	c0,6.8,2.1,13.4,6,18.9c-18.2,3.5-35.5,10.7-50.9,21.1c-2.7-15.7-16.2-27.2-32.2-27.2c-1.8,0-3.7,0.2-5.5,0.5
	c-17.8,3-29.8,19.9-26.8,37.6c2.3,13.7,13.1,24.5,26.8,26.8c-10.4,15.4-17.6,32.7-21.1,50.9c-14.7-10.5-35.1-7-45.5,7.7
	c-3.9,5.5-6.1,12.2-6,19l0,0c0,18,14.6,32.7,32.6,32.7h0l0,0c6.8,0,13.4-2.1,18.9-6c3.5,18.2,10.7,35.5,21.1,50.9
	c-17.8,3-29.8,19.9-26.7,37.7c3,17.8,19.9,29.8,37.7,26.7c13.7-2.3,24.4-13.1,26.7-26.8c6.3,4.3,13,8,20,11.2l-33.1,87.6h-40.4
	c-4.5,0.1-8.1,3.8-8.1,8.3c0.1,4.3,3.5,7.8,7.8,8h94.8c4.5,0.1,8.2-3.5,8.3-8c0.1-4.5-3.5-8.2-8-8.3h-36.9l30.9-81.8
	c5.1,1.6,10.3,3,15.6,4c-10.5,14.7-7,35.1,7.7,45.6c14.7,10.5,35.1,7,45.6-7.7c8.1-11.3,8.1-26.5,0-37.9c5.3-1,10.5-2.4,15.6-4
	l30.9,81.8h-36.4c-4.5,0-8.2,3.7-8.2,8.2c0,4.5,3.7,8.2,8.2,8.2h94.2c4.5,0.1,8.2-3.5,8.3-8s-3.5-8.2-8-8.3l0,0h-40.7l-33.1-87.6
	c7-3.2,13.7-6.9,20-11.2c2.7,15.7,16.2,27.2,32.2,27.2c1.8,0,3.7-0.2,5.5-0.5c17.8-3,29.8-19.9,26.7-37.7
	c-2.3-13.7-13.1-24.4-26.7-26.7c10.4-15.4,17.6-32.7,21.1-50.9c14.7,10.4,35.1,7,45.6-7.7c10.4-14.7,7-35.1-7.7-45.6
	c-11.3-8-26.5-8-37.8,0c-3.5-18.2-10.7-35.5-21.1-50.9c17.8-3,29.8-19.9,26.7-37.7c-2.7-15.7-16.2-27.2-32.2-27.2
	c-1.8,0-3.7,0.2-5.5,0.5c-13.7,2.3-24.4,13.1-26.8,26.8c-15.4-10.4-32.7-17.6-50.9-21.1c10.4-14.7,7-35.1-7.7-45.6
	C289.5,56.9,282.9,54.8,276.1,54.9"/>
<path class="st0" d="M276.1,456.9c-4.5,0-8.1,3.7-8.1,8.2c0,4.5,3.6,8.1,8.1,8.1l0,0c4.5,0,8.1-3.7,8.1-8.2
	C284.3,460.5,280.6,456.9,276.1,456.9"/>
<path class="st1" d="M276.4,227.8c0-13.5-11-24.5-24.5-24.5c-13.5,0-24.5,11-24.5,24.5s11,24.5,24.5,24.5h0
	C265.5,252.3,276.4,241.4,276.4,227.8z M251.9,236c-4.5,0-8.2-3.7-8.2-8.2s3.7-8.2,8.2-8.2c4.5,0,8.2,3.7,8.2,8.2l0,0l0,0
	C260.1,232.3,256.4,236,251.9,236C251.9,236,251.9,236,251.9,236L251.9,236z"/>
<path class="st1" d="M260.1,450c0,4.5-3.7,8.2-8.2,8.2c-4.5,0-8.2-3.7-8.2-8.2c0-4.5,3.7-8.2,8.2-8.2c2.2,0,4.2,0.9,5.8,2.4
	C259.2,445.8,260.1,447.9,260.1,450z"/>
<g>
	<path class="st2" d="M206.2,193.6l-46.4-46.4v0c-17.8,20.2-28.4,45.6-30.1,72.4h65.7C196.7,210.2,200.5,201.2,206.2,193.6z"/>
	<path class="st2" d="M153.7,129.6c6.4-6.4,6.4-16.7,0-23.1l0,0c-6.4-6.4-16.7-6.4-23.1,0c-6.4,6.4-6.4,16.7,0,23.1
		C137,136,147.3,136,153.7,129.6z"/>
	<path class="st2" d="M130.6,325.9c-6.4,6.4-6.4,16.7,0,23.1c6.4,6.4,16.7,6.4,23.1,0V349c6.3-6.4,6.3-16.7,0-23.1
		C147.4,319.5,137,319.5,130.6,325.9z"/>
	<path class="st2" d="M243.8,171.2v-65.6v0c-26.8,1.7-52.3,12.3-72.5,30.1l46.4,46.4C225.4,176.3,234.3,172.6,243.8,171.2z"/>
	<path class="st2" d="M217.7,273.6L171.4,320c8.7,7.7,18.4,14,28.9,18.9l23.2-61.5C221.5,276.2,219.6,275,217.7,273.6z"/>
	<path class="st2" d="M195.4,236h-65.7c1.7,26.8,12.3,52.3,30.1,72.5l46.4-46.4C200.5,254.4,196.7,245.5,195.4,236z"/>
	<path class="st2" d="M243.8,284.4c-1.7-0.2-3.4-0.6-5.1-1l-23.2,61.4c9.2,2.9,18.7,4.7,28.3,5.3V284.4z"/>
	<path class="st2" d="M373.2,129.6c6.4-6.4,6.4-16.7,0-23.1c-6.4-6.4-16.7-6.4-23.1,0c-3.1,3.1-4.8,7.2-4.8,11.5
		c0,4.3,1.7,8.5,4.8,11.5C356.5,136,366.8,136,373.2,129.6z"/>
	<path class="st2" d="M308.6,219.6l65.6,0.1c-1.7-26.8-12.3-52.3-30.1-72.5l-46.3,46.3C303.5,201.2,307.2,210.2,308.6,219.6z"/>
	<circle class="st2" cx="96.7" cy="227.8" r="16.3"/>
	<path class="st2" d="M252,187c-22.6,0-40.9,18.3-40.9,40.8s18.3,40.8,40.9,40.8c22.6,0,40.8-18.3,40.8-40.8l0,0
		C292.8,205.2,274.5,187,252,187z"/>
	<path class="st2" d="M260.1,171.2c9.5,1.4,18.4,5.1,26.1,10.8l46.4-46.3h0c-20.1-17.8-45.6-28.4-72.4-30.1V171.2z"/>
	<path class="st2" d="M251.9,88.9c9,0,16.3-7.3,16.3-16.3c0-9-7.3-16.3-16.3-16.3c-9,0-16.3,7.3-16.3,16.3c0,0,0,0,0,0
		C235.6,81.6,242.9,88.9,251.9,88.9z"/>
	<path class="st2" d="M268.3,383c0-9-7.4-16.3-16.4-16.3c-9,0-16.3,7.4-16.3,16.4c0,9,7.4,16.3,16.4,16.3
		C261,399.3,268.3,392,268.3,383L268.3,383C268.3,383,268.3,383,268.3,383z"/>
	<path class="st2" d="M407.2,211.4L407.2,211.4c-9.1,0.1-16.3,7.4-16.3,16.4c0,9,7.3,16.3,16.3,16.3c8.7-0.2,15.7-7.2,15.9-15.9
		C423.3,219.2,416.2,211.7,407.2,211.4z"/>
	<path class="st2" d="M280.5,277.4l23.2,61.5c10.5-4.9,20.2-11.2,28.9-18.9l-46.4-46.5C284.4,274.9,282.5,276.2,280.5,277.4z"/>
	<path class="st2" d="M297.7,262.1l46.4,46.4c17.8-20.2,28.4-45.7,30.1-72.5h-65.7C307.2,245.5,303.4,254.4,297.7,262.1z"/>
	<path class="st2" d="M260.2,284.3V350l-0.1,0.1c9.6-0.7,19.2-2.5,28.4-5.4l-23.2-61.4C263.6,283.8,261.9,284.1,260.2,284.3z"/>
	<path class="st1" d="M426,201.2c-11.3-8-26.5-8-37.8,0c-3.5-18.2-10.7-35.5-21.1-50.9c17.8-3,29.8-19.9,26.8-37.7
		c-3-17.8-19.9-29.8-37.7-26.8c-13.7,2.3-24.4,13.1-26.8,26.8c-15.4-10.4-32.7-17.6-50.9-21.1c10.5-14.7,7-35.1-7.7-45.6
		c-14.7-10.5-35.1-7-45.6,7.7c-8.1,11.3-8.1,26.5,0,37.9c-18.2,3.5-35.5,10.7-50.9,21.1c-3-17.8-19.9-29.8-37.7-26.7
		c-17.8,3-29.8,19.9-26.7,37.7c2.3,13.7,13,24.4,26.7,26.7c-10.4,15.4-17.6,32.7-21.1,50.9c-14.7-10.4-35.1-7-45.5,7.7
		c-3.9,5.5-6,12.2-6,19c0,18,14.6,32.7,32.6,32.7c6.8,0,13.4-2.1,19-6c3.5,18.2,10.7,35.5,21.1,50.9c-17.8,3-29.8,19.9-26.7,37.7
		c3,17.8,19.9,29.8,37.7,26.7c13.7-2.3,24.4-13.1,26.8-26.8c6.3,4.3,13,8,20,11.2l-33.1,87.6h-40.1c-4.5-0.2-8.3,3.3-8.5,7.8
		c-0.2,4.5,3.3,8.3,7.8,8.5c0.1,0,0.1,0,0.2,0c0.2,0,0.4,0,0.5,0h93.9c4.5,0.1,8.3-3.5,8.4-8c0.1-4.4-3.4-8.2-7.8-8.4h-36.9
		l30.9-81.8c5.1,1.6,10.3,3,15.6,4c-10.5,14.7-7,35.1,7.7,45.6c14.7,10.5,35.1,7,45.6-7.7c8.1-11.3,8.1-26.5,0-37.9
		c5.3-1,10.5-2.4,15.6-4l30.9,81.8h-36.4c-4.5,0.2-8,3.9-7.9,8.5c0.2,4.3,3.6,7.7,7.9,7.9h93.9c4.5,0.1,8.3-3.5,8.4-8
		c0.1-4.4-3.4-8.2-7.8-8.4h-40.7l-33.1-87.6c7-3.2,13.7-6.9,20-11.2c3,17.8,19.9,29.8,37.6,26.8c17.8-3,29.8-19.9,26.8-37.7
		c-2.3-13.7-13.1-24.4-26.8-26.8c10.4-15.4,17.6-32.7,21.1-50.9c14.8,10.3,35.2,6.7,45.5-8C443.9,231.7,440.5,211.6,426,201.2z
		 M96.7,244.2c-9,0-16.3-7.3-16.3-16.3c0-9,7.3-16.3,16.3-16.3s16.3,7.3,16.3,16.3C113,236.9,105.7,244.2,96.7,244.2z M350.1,106.5
		c6.4-6.4,16.7-6.4,23.1,0c6.4,6.4,6.4,16.7,0,23.1s-16.7,6.4-23.1,0c-3.1-3.1-4.8-7.2-4.8-11.5C345.3,113.7,347,109.6,350.1,106.5z
		 M344.1,147.2c17.8,20.2,28.4,45.7,30.1,72.5l-65.6-0.1c-1.4-9.5-5.1-18.4-10.8-26.1L344.1,147.2z M332.5,135.7L332.5,135.7
		L286.2,182c-7.6-5.7-16.6-9.5-26.1-10.8v-65.6C286.9,107.3,312.4,117.9,332.5,135.7z M292.8,227.8L292.8,227.8
		c0,22.6-18.3,40.8-40.8,40.8c-22.6,0-40.9-18.3-40.9-40.8S229.4,187,252,187S292.8,205.2,292.8,227.8z M235.6,72.6
		c0-9,7.3-16.3,16.3-16.3c9,0,16.3,7.3,16.3,16.3c0,9-7.3,16.3-16.3,16.3C242.9,88.9,235.6,81.6,235.6,72.6
		C235.6,72.6,235.6,72.6,235.6,72.6z M243.8,105.6L243.8,105.6v65.7c-9.4,1.3-18.4,5-26,10.8l-46.4-46.4
		C191.5,117.9,217,107.3,243.8,105.6z M130.6,129.6c-6.4-6.4-6.4-16.7,0-23.1c6.4-6.4,16.7-6.4,23.1,0l0,0c6.4,6.4,6.3,16.7,0,23.1
		C147.3,136,137,136,130.6,129.6z M159.8,147.2L159.8,147.2l46.4,46.4c-5.7,7.6-9.5,16.6-10.8,26.1h-65.7
		C131.4,192.8,142,167.4,159.8,147.2z M153.8,349L153.8,349c-6.4,6.4-16.7,6.4-23.1,0.1c-6.4-6.4-6.4-16.7,0-23.1
		c6.4-6.4,16.7-6.4,23.1,0C160.1,332.3,160.1,342.6,153.8,349z M159.8,308.5c-17.8-20.2-28.4-45.7-30.1-72.5h65.7
		c1.3,9.5,5.1,18.4,10.8,26.1L159.8,308.5z M200.3,338.9c-10.5-4.9-20.2-11.2-28.9-18.9l46.4-46.4c1.8,1.4,3.8,2.7,5.8,3.8
		L200.3,338.9z M215.5,344.8L215.5,344.8L215.5,344.8C215.5,344.8,215.5,344.8,215.5,344.8l23.2-61.4c1.7,0.4,3.4,0.8,5.1,1v65.7
		C234.2,349.5,224.7,347.7,215.5,344.8z M252,399.3c-9,0-16.4-7.3-16.4-16.3c0-9,7.3-16.4,16.3-16.4c9,0,16.4,7.3,16.4,16.3
		c0,0,0,0.1,0,0.1l0.1,0C268.3,392,261,399.3,252,399.3z M260.1,350.1L260.1,350.1L260.1,350.1C260.1,350.1,260.1,350.1,260.1,350.1
		L260.1,350.1l0.1-65.8c1.7-0.2,3.4-0.6,5.1-1l23.2,61.4C279.3,347.6,269.7,349.5,260.1,350.1z M303.7,338.9L303.7,338.9
		L303.7,338.9C303.7,338.9,303.7,338.9,303.7,338.9l-23.2-61.5c2-1.2,3.9-2.4,5.8-3.8l46.4,46.5C323.9,327.6,314.2,334,303.7,338.9z
		 M361.6,321.7 M378,338.1c0,9-7.3,16.3-16.3,16.3c-9,0-16.4-7.3-16.4-16.3c0-9,7.3-16.4,16.3-16.4C370.6,321.7,377.9,329,378,338.1
		 M361.7,354.4 M345.3,338.1 M344.1,308.5l-46.4-46.4c5.7-7.6,9.5-16.6,10.8-26.1h65.7C372.5,262.8,361.9,288.3,344.1,308.5z
		 M407.2,244.1c-9,0-16.3-7.3-16.3-16.3c0-9,7.3-16.3,16.3-16.3l0.1-0.1c9,0.2,16.2,7.7,15.9,16.7
		C422.9,236.9,415.9,243.9,407.2,244.1z"/>
	<path class="st1" d="M215.5,344.8L215.5,344.8C215.5,344.8,215.5,344.8,215.5,344.8L215.5,344.8z"/>
	<path class="st1" d="M426,201.1C426,201.1,426,201.2,426,201.1C426,201.2,426,201.2,426,201.1L426,201.1z"/>
	<path class="st1" d="M303.7,338.9L303.7,338.9C303.7,338.9,303.7,338.9,303.7,338.9L303.7,338.9z"/>
	<path class="st1" d="M260.1,350.1L260.1,350.1C260.1,350.1,260.1,350.1,260.1,350.1L260.1,350.1z"/>
</g>
</svg>
