<svg xmlns="http://www.w3.org/2000/svg" width="35" height="35" viewBox="0 0 35 35"><circle cx="17.5" cy="17.5" r="17.5" fill="none"/><g transform="translate(-16.5 -18.165)"><path d="M32.007,57.223a6.52,6.52,0,0,1-6.488-6.139,1.683,1.683,0,0,1-.019-.236V42.132a1.519,1.519,0,0,1,1.517-1.522h.067A1.522,1.522,0,0,1,28.6,42.132v8.557a3.4,3.4,0,1,0,3.42-3.417h-.682a1.525,1.525,0,0,1-1.554-1.49v-.14a1.525,1.525,0,0,1,1.554-1.49H32a6.535,6.535,0,1,1,0,13.071Z" transform="translate(0 -11.054)" fill="#f7c886"/><path d="M57.94,25.5v2.3A9.7,9.7,0,0,1,67.6,37.515h2.3A12,12,0,0,0,57.94,25.5Z" transform="translate(-23.732)" fill="#f7c886"/><path d="M57.93,40.71v2.3a5.54,5.54,0,0,1,3.954,1.648,5.6,5.6,0,0,1,1.64,3.981h2.3A7.924,7.924,0,0,0,57.93,40.71Z" transform="translate(-23.725 -11.127)" fill="#f7c886"/></g><g transform="translate(-18.5 -18.165)"><path d="M32.007,57.223a6.52,6.52,0,0,1-6.488-6.139,1.683,1.683,0,0,1-.019-.236V42.132a1.519,1.519,0,0,1,1.517-1.522h.067A1.522,1.522,0,0,1,28.6,42.132v8.557a3.4,3.4,0,1,0,3.42-3.417h-.682a1.525,1.525,0,0,1-1.554-1.49v-.14a1.525,1.525,0,0,1,1.554-1.49H32a6.535,6.535,0,1,1,0,13.071Z" transform="translate(0 -11.054)" fill="none" stroke="#4869ef" stroke-width="1"/><path d="M57.94,25.5v2.3A9.7,9.7,0,0,1,67.6,37.515h2.3A12,12,0,0,0,57.94,25.5Z" transform="translate(-23.732)" fill="none" stroke="#4869ef" stroke-width="1"/><path d="M57.93,40.71v2.3a5.54,5.54,0,0,1,3.954,1.648,5.6,5.6,0,0,1,1.64,3.981h2.3A7.924,7.924,0,0,0,57.93,40.71Z" transform="translate(-23.725 -11.127)" fill="none" stroke="#4869ef" stroke-width="1"/></g></svg>