<svg id="Layer_1" data-name="Layer 1" xmlns="http://www.w3.org/2000/svg" viewBox="0 0 128 128"><defs><style>.cls-1{fill:#fff;}</style></defs><title>blog_icon_white</title><path class="cls-1" d="M49.74,102.5A24.29,24.29,0,0,1,25.57,79.63a6.27,6.27,0,0,1-.07-.88V46.28a5.66,5.66,0,0,1,5.65-5.67h.25a5.67,5.67,0,0,1,5.65,5.67V78.16A12.68,12.68,0,1,0,49.79,65.43H47.25a5.68,5.68,0,0,1-5.79-5.55v-.52a5.68,5.68,0,0,1,5.79-5.55h2.48a24.35,24.35,0,0,1,0,48.69Z"/><path class="cls-1" d="M57.94,25.5v8.58a36.14,36.14,0,0,1,36,36.18h8.57A44.72,44.72,0,0,0,57.94,25.5Z"/><path class="cls-1" d="M57.93,40.71v8.58a20.64,20.64,0,0,1,14.73,6.14,20.86,20.86,0,0,1,6.11,14.83h8.58A29.52,29.52,0,0,0,57.93,40.71Z"/></svg>