<svg id="Layer_1" data-name="Layer 1" xmlns="http://www.w3.org/2000/svg" viewBox="0 0 30 30"><defs><style>.cls-1{opacity:0.6;}.cls-2{fill:#f2a437;}.cls-3{fill:#4869ef;}</style></defs><title>bus</title><g class="cls-1"><path class="cls-2" d="M9.88,23v1.22a1.51,1.51,0,1,0,3,0V23Z"/></g><g class="cls-1"><path class="cls-2" d="M20.39,23V24.3a1.45,1.45,0,1,0,2.89,0V20.47L22.14,22Z"/></g><g class="cls-1"><path class="cls-2" d="M6.17,8.65a1.29,1.29,0,0,0-.86,1.22v1.6a1.29,1.29,0,1,0,2.57,0V9.87A1.28,1.28,0,0,0,7,8.65"/></g><g class="cls-1"><polygon class="cls-2" points="17.07 16.75 11.98 16.75 10.76 16.75 10.49 16.75 8.92 15.17 8.92 14.85 8.92 8.3 16.27 8.3 17.07 8.3 17.93 8.3 18.74 8.3 24.89 8.3 24.89 14.85 24.89 15.17 23.32 16.75 23.05 16.75 21.83 16.75 17.93 16.75 17.07 16.75"/></g><path class="cls-3" d="M15.37,4.13a.43.43,0,0,0-.3-.13.44.44,0,0,0-.31.13.43.43,0,0,0,0,.6.44.44,0,0,0,.31.13.42.42,0,0,0,.3-.73Z"/><path class="cls-3" d="M25.14,8.15V6.94A1.18,1.18,0,0,0,24,5.76h-.75A2.15,2.15,0,0,0,21.1,4H16.9a.43.43,0,0,0,0,.86h4.2a1.29,1.29,0,0,1,1.29,1.29V7.44H18.27V6.15a.43.43,0,0,0-.43-.43H12.16a.43.43,0,0,0-.43.43V7.44H7.62V6.15A1.28,1.28,0,0,1,8.9,4.86h4.32a.43.43,0,0,0,0-.86H8.9A2.15,2.15,0,0,0,6.79,5.76H6A1.18,1.18,0,0,0,4.86,6.94V8.15A1.3,1.3,0,0,0,4,9.37V11a1.29,1.29,0,0,0,2.58,0V9.37a1.3,1.3,0,0,0-.86-1.22V6.94A.32.32,0,0,1,6,6.62h.72V20.89A2.16,2.16,0,0,0,8,22.84v1.53a1.64,1.64,0,0,0,3.27,0V23h7.47v1.33a1.64,1.64,0,0,0,3.27,0V22.83a2.14,2.14,0,0,0,1.24-1.94V6.62H24a.32.32,0,0,1,.32.32V8.15a1.3,1.3,0,0,0-.86,1.22V11A1.29,1.29,0,0,0,26,11V9.37A1.3,1.3,0,0,0,25.14,8.15ZM5.72,11a.43.43,0,0,1-.86,0V9.37a.43.43,0,0,1,.86,0ZM18,8.3,16.7,9.64a.42.42,0,0,0,0,.6.41.41,0,0,0,.6,0L19.25,8.3h2.53l-6.35,6.35V8.3ZM12.59,6.58h4.82v.86H12.59Zm.14,7.5a.42.42,0,0,0-.6,0L9.46,16.75H9.18L7.85,15.42,14.57,8.7v8.05h-3.9l2.06-2.06A.43.43,0,0,0,12.73,14.08ZM7.62,8.3h6.14L7.62,14.44Zm2.79,16.07a.78.78,0,0,1-1.55,0V23h1.55Zm10.74,0a.78.78,0,0,1-1.55,0V23h1.55Zm1.24-3.48a1.29,1.29,0,0,1-1.29,1.29H8.9a1.28,1.28,0,0,1-1.28-1.29V16.4L8.7,17.48a.39.39,0,0,0,.3.13H21a.39.39,0,0,0,.3-.13l1.09-1.08Zm0-5.71-1.57,1.57H15.43v-.89l7-7ZM25.14,11a.43.43,0,0,1-.86,0V9.37a.43.43,0,1,1,.86,0Z"/><path class="cls-3" d="M10,18.6a1.29,1.29,0,1,0,1.29,1.29A1.29,1.29,0,0,0,10,18.6Zm0,1.72a.43.43,0,0,1-.43-.43.43.43,0,0,1,.43-.43.44.44,0,0,1,.43.43A.43.43,0,0,1,10,20.32Z"/><path class="cls-3" d="M20,18.6a1.29,1.29,0,1,0,1.29,1.29A1.29,1.29,0,0,0,20,18.6Zm0,1.72a.43.43,0,0,1-.43-.43.44.44,0,0,1,.43-.43.43.43,0,0,1,.43.43A.43.43,0,0,1,20,20.32Z"/><path class="cls-3" d="M17.24,18.6H12.77a.43.43,0,0,0-.43.43v1.72a.43.43,0,0,0,.43.43h4.47a.43.43,0,0,0,.43-.43V19A.43.43,0,0,0,17.24,18.6Zm-.43,1.72H13.2v-.86h3.61Z"/></svg>