<svg id="Layer_1" data-name="Layer 1" xmlns="http://www.w3.org/2000/svg" viewBox="0 0 30 30"><defs><style>.cls-1{opacity:0.6;}.cls-2{fill:#f2a437;}.cls-3{fill:#4869ef;}</style></defs><title>call us</title><g class="cls-1"><path class="cls-2" d="M21.05,18.43c.61-.76,1-1.14,1.22-1.14a11.2,11.2,0,0,1,2.28,1,9.9,9.9,0,0,1,2.09,1.24.86.86,0,0,1,.05.36,4.82,4.82,0,0,1-.4,1.77,3.16,3.16,0,0,1-1.66,1.54,5.59,5.59,0,0,1-2.39.62A12.52,12.52,0,0,1,17.8,22.4a13.62,13.62,0,0,1-4-2.76,30.72,30.72,0,0,1-3.47-4.34,8.15,8.15,0,0,1-1.66-4.54v-.18a5.17,5.17,0,0,1,1.73-3.7,1.76,1.76,0,0,1,1.22-.52,2.82,2.82,0,0,1,.42,0l.44,0a1,1,0,0,1,.63.15,2,2,0,0,1,.36.65c.12.31.38,1,.77,2.06A14.25,14.25,0,0,1,14.85,11,2.37,2.37,0,0,1,14,12.39c-.54.57-.81.93-.81,1.09a.64.64,0,0,0,.12.35A10.41,10.41,0,0,0,15.74,17a15.1,15.1,0,0,0,3.53,2.36,1,1,0,0,0,.52.16C20,19.56,20.44,19.19,21.05,18.43Z"/></g><path class="cls-3" d="M19.4,24.08a12.82,12.82,0,0,1-4.61-1.49,13.81,13.81,0,0,1-4.09-2.84,31.75,31.75,0,0,1-3.51-4.38,8.58,8.58,0,0,1-1.72-4.76v-.18a5.55,5.55,0,0,1,1.85-4,2.13,2.13,0,0,1,1.47-.62,3.38,3.38,0,0,1,.47,0l.4,0a1.3,1.3,0,0,1,.86.24A2,2,0,0,1,11,7c.12.31.38,1,.78,2.06a7.77,7.77,0,0,1,.6,1.89,2.58,2.58,0,0,1-.91,1.6,3.91,3.91,0,0,0-.7.87h0a.38.38,0,0,0,.06.11,10.22,10.22,0,0,0,2.33,3.14,14.55,14.55,0,0,0,3.44,2.3.76.76,0,0,0,.35.12s.24-.09,1-1h0c.85-1.06,1.21-1.28,1.51-1.28s.55.08,2.45,1.07C24,18.92,24,19.09,24.12,19.23a1.33,1.33,0,0,1,.1.54,5.13,5.13,0,0,1-.43,1.91A3.49,3.49,0,0,1,22,23.42,5.93,5.93,0,0,1,19.4,24.08ZM8.79,6.59a1.35,1.35,0,0,0-1,.42,4.74,4.74,0,0,0-1.61,3.43v.17A7.82,7.82,0,0,0,7.82,15a30.17,30.17,0,0,0,3.42,4.27,12.8,12.8,0,0,0,3.86,2.69,12.54,12.54,0,0,0,4.3,1.42,5.16,5.16,0,0,0,2.22-.59A2.78,2.78,0,0,0,23.1,21.4a4.64,4.64,0,0,0,.37-1.63c0-.08,0-.13,0-.16a14.65,14.65,0,0,0-1.93-1.1,10.69,10.69,0,0,0-2.13-1,9.56,9.56,0,0,0-.91,1h0c-.9,1.12-1.28,1.27-1.55,1.27a1.44,1.44,0,0,1-.71-.21,15.42,15.42,0,0,1-3.6-2.42,10.88,10.88,0,0,1-2.47-3.32,1,1,0,0,1-.15-.51c0-.24.15-.54.91-1.35s.7-1,.7-1.08a16.83,16.83,0,0,0-.56-1.63c-.39-1.06-.64-1.74-.77-2s-.24-.49-.26-.5h0a.69.69,0,0,0-.37-.06,3.39,3.39,0,0,1-.49,0Z"/></svg>