<svg id="Icon" xmlns="http://www.w3.org/2000/svg" viewBox="0 0 40 40"><defs><style>.cls-1,.cls-3{opacity:0.6;}.cls-2,.cls-3{fill:#f2a437;}.cls-4{fill:#4869ef;}</style></defs><title>06_car-rental</title><g class="cls-1"><path class="cls-2" d="M30.08,21.93c-1.31,0-2.33.68-2.33,1.55s1,1.55,2.33,1.55,2.33-.68,2.33-1.55S31.39,21.93,30.08,21.93Z"/></g><path class="cls-3" d="M29.29,28.35v1.36a.83.83,0,0,0,.76.89h2.36a.83.83,0,0,0,.76-.89V26.54l-1.52,1.58Z"/><g class="cls-1"><path class="cls-3" d="M9.76,28.35v1.36a.83.83,0,0,0,.76.89h2.36a.83.83,0,0,0,.76-.89V28.09l-1.51,0Z"/></g><g class="cls-1"><path class="cls-2" d="M26.52,26.21V23a2.25,2.25,0,0,0-2.25-2.25H19.72A2.25,2.25,0,0,0,17.47,23v3.22Z"/></g><g class="cls-1"><path class="cls-2" d="M32.13,15.68,30.66,11.5a.79.79,0,0,0-.74-.52H16.08a.79.79,0,0,0-.74.52l-1.47,4.18a.38.38,0,0,0,.36.51H31.78a.4.4,0,0,0,.31-.16A.39.39,0,0,0,32.13,15.68Z"/></g><path class="cls-4" d="M28.19,21.62c-1.51,0-2.7.79-2.7,1.79s1.19,1.8,2.7,1.8,2.71-.79,2.71-1.8S29.71,21.62,28.19,21.62Zm0,2.73c-1.05,0-1.84-.49-1.84-.94s.79-.93,1.84-.93S30,23,30,23.41,29.25,24.35,28.19,24.35Z"/><path class="cls-4" d="M11.8,21.62c-1.51,0-2.7.79-2.7,1.79s1.19,1.8,2.7,1.8,2.71-.79,2.71-1.8S13.32,21.62,11.8,21.62Zm0,2.73c-1.05,0-1.84-.49-1.84-.94s.79-.93,1.84-.93,1.85.49,1.85.93S12.86,24.35,11.8,24.35Z"/><path class="cls-4" d="M28.94,16l-1.66-4.71a.88.88,0,0,0-.83-.58H13.55a.88.88,0,0,0-.83.58L11.06,16a.43.43,0,0,0,.4.57H28.54a.44.44,0,0,0,.35-.18A.42.42,0,0,0,28.94,16ZM12.06,15.7l1.46-4.13,0,0h12.9l0,0,1.46,4.13Z"/><path class="cls-4" d="M33.66,15.25H31.38a.43.43,0,0,0-.41.32l-.3,1.2-2.1-5.94a2.25,2.25,0,0,0-2.12-1.5H13.55a2.25,2.25,0,0,0-2.12,1.5l-2.1,5.94L9,15.57a.43.43,0,0,0-.41-.32H6.34a.42.42,0,0,0-.42.42V17.5a.42.42,0,0,0,.42.42H8.7L7.24,20a2.26,2.26,0,0,0-.41,1.31V26.6a2.23,2.23,0,0,0,.91,1.81h0v1.37a.87.87,0,0,0,.88.88h2.73a.87.87,0,0,0,.88-.88v-.94H27.77v.94a.87.87,0,0,0,.88.88h2.73a.87.87,0,0,0,.88-.88V28.42h0a2.23,2.23,0,0,0,.91-1.81V21.27A2.26,2.26,0,0,0,32.76,20l-1.46-2h2.36a.42.42,0,0,0,.42-.42V15.67A.42.42,0,0,0,33.66,15.25ZM6.77,17.07v-1H8.28l.25,1Zm4.61,12.72a0,0,0,0,1,0,0H8.62a0,0,0,0,1,0,0v-.94h2.79Zm20,0a0,0,0,0,1,0,0H28.65a0,0,0,0,1,0,0v-.94h2.79ZM30.93,28H9.07a1.39,1.39,0,0,1-1.32-1h24.5A1.39,1.39,0,0,1,30.93,28Zm-7.26-4.61v1H16.33v-1Zm-7.27-.86a1.39,1.39,0,0,1,1.32-1h4.56a1.39,1.39,0,0,1,1.32,1Zm7.27,2.68v1H16.33v-1Zm8.39-4.75a1.35,1.35,0,0,1,.26.81v4.9h-7.8V23a2.24,2.24,0,0,0-2.24-2.25H17.72A2.24,2.24,0,0,0,15.48,23v3.21H7.68v-4.9a1.35,1.35,0,0,1,.26-.81l1.81-2.54H25.46a.43.43,0,1,0,0-.85H10.13l2.1-6a1.42,1.42,0,0,1,1.32-.93h12.9a1.42,1.42,0,0,1,1.32.93l2.1,6H27.28a.43.43,0,0,0,0,.85h3Zm1.17-3.39H31.47l.24-1h1.52Z"/><path class="cls-4" d="M13.17,20.26H10.44a.43.43,0,1,0,0,.85h2.73a.43.43,0,1,0,0-.85Z"/><path class="cls-4" d="M29.56,20.26H26.83a.43.43,0,1,0,0,.85h2.73a.43.43,0,1,0,0-.85Z"/></svg>