<svg id="Icon" xmlns="http://www.w3.org/2000/svg" viewBox="0 0 512 512"><defs><style>.cls-1,.cls-3{opacity:0.6;}.cls-2,.cls-3{fill:#f2a437;}.cls-4{fill:#4869ef;}</style></defs><title>06_car-rental</title><g class="cls-1"><path class="cls-2" d="M341.87,272.46c-11.14,0-19.88,5.79-19.88,13.18s8.74,13.19,19.88,13.19,19.89-5.79,19.89-13.19S353,272.46,341.87,272.46Z"/></g><path class="cls-3" d="M335.12,327.12v11.64c0,4.15,2.91,7.51,6.48,7.51h20.11c3.57,0,6.48-3.36,6.48-7.51v-27l-12.89,13.4Z"/><g class="cls-1"><path class="cls-3" d="M168.74,327.12v11.64c0,4.15,2.91,7.51,6.49,7.51h20.1c3.57,0,6.48-3.36,6.48-7.51V324.88l-12.89.27Z"/></g><g class="cls-1"><path class="cls-2" d="M311.52,308.87V281.48a19.18,19.18,0,0,0-19.15-19.16h-38.8a19.18,19.18,0,0,0-19.14,19.16v27.39Z"/></g><g class="cls-1"><path class="cls-2" d="M359.38,219.22,346.8,183.61a6.69,6.69,0,0,0-6.29-4.46H222.63a6.7,6.7,0,0,0-6.3,4.46l-12.57,35.61a3.27,3.27,0,0,0,3.05,4.31H356.32a3.24,3.24,0,0,0,3.06-4.31Z"/></g><path class="cls-4" d="M325.82,269.82c-12.91,0-23,6.71-23,15.27s10.12,15.28,23,15.28,23-6.71,23-15.28S338.74,269.82,325.82,269.82Zm0,23.27c-9,0-15.76-4.22-15.76-8s6.74-8,15.76-8,15.76,4.23,15.76,8S334.84,293.09,325.82,293.09Z"/><path class="cls-4" d="M186.18,269.82c-12.92,0-23,6.71-23,15.27s10.11,15.28,23,15.28,23-6.71,23-15.28S199.09,269.82,186.18,269.82Zm0,23.27c-9,0-15.76-4.22-15.76-8s6.74-8,15.76-8,15.76,4.23,15.76,8S195.2,293.09,186.18,293.09Z"/><path class="cls-4" d="M332.2,221.82l-14.15-40.08a7.53,7.53,0,0,0-7.09-5H201a7.53,7.53,0,0,0-7.09,5L179.8,221.82a3.68,3.68,0,0,0,3.43,4.85H328.76a3.65,3.65,0,0,0,3.44-4.85Zm-143.82-2.43,12.43-35.23A.25.25,0,0,1,201,184H311a.25.25,0,0,1,.23.16l12.43,35.23Z"/><path class="cls-4" d="M372.36,215.52H353a3.64,3.64,0,0,0-3.53,2.75l-2.56,10.22L329,177.87A19.17,19.17,0,0,0,311,165.09H201A19.18,19.18,0,0,0,183,177.87l-17.85,50.62-2.56-10.22a3.64,3.64,0,0,0-3.53-2.75H139.64a3.63,3.63,0,0,0-3.64,3.63v15.52a3.64,3.64,0,0,0,3.64,3.63h20.08l-12.4,17.36a19.08,19.08,0,0,0-3.56,11.13v45.45a19.12,19.12,0,0,0,7.76,15.39V339.4a7.52,7.52,0,0,0,7.51,7.51h23.28a7.51,7.51,0,0,0,7.5-7.51v-8H322.18v8a7.52,7.52,0,0,0,7.51,7.51H353a7.52,7.52,0,0,0,7.51-7.51V327.63a19.12,19.12,0,0,0,7.76-15.39V266.79a19.08,19.08,0,0,0-3.56-11.13l-12.4-17.36h20.08a3.64,3.64,0,0,0,3.64-3.63V219.15A3.63,3.63,0,0,0,372.36,215.52ZM143.27,231v-8.25h12.92l2.06,8.25ZM182.54,339.4a.24.24,0,0,1-.23.24H159a.25.25,0,0,1-.25-.24v-8h23.76Zm170.67,0a.24.24,0,0,1-.24.24H329.69a.24.24,0,0,1-.24-.24v-8h23.76Zm-4.12-15.28H162.9a11.89,11.89,0,0,1-11.3-8.24H360.4A11.89,11.89,0,0,1,349.09,324.12Zm-61.82-39.27v8.24H224.73v-8.24Zm-62-7.27a11.89,11.89,0,0,1,11.3-8.25h38.8a11.9,11.9,0,0,1,11.3,8.25Zm62,22.78v8.25H224.73v-8.25Zm71.49-40.47a11.77,11.77,0,0,1,2.21,6.9v41.82H294.55v-27.4a19.17,19.17,0,0,0-19.15-19.15H236.6a19.17,19.17,0,0,0-19.15,19.15v27.4H151V266.79a11.77,11.77,0,0,1,2.21-6.9l15.42-21.59H302.55a3.64,3.64,0,0,0,0-7.27H171.92l17.92-50.74a11.89,11.89,0,0,1,11.2-7.93H311a11.89,11.89,0,0,1,11.2,7.93L340.07,231h-22a3.64,3.64,0,1,0,0,7.27h25.28Zm10-28.86h-15l2.06-8.25h12.91Z"/><path class="cls-4" d="M197.81,258.19H174.54a3.63,3.63,0,0,0,0,7.26h23.27a3.63,3.63,0,1,0,0-7.26Z"/><path class="cls-4" d="M337.46,258.19H314.19a3.63,3.63,0,1,0,0,7.26h23.27a3.63,3.63,0,0,0,0-7.26Z"/></svg>