<?xml version="1.0" encoding="utf-8"?>
<!-- Generator: Adobe Illustrator 23.0.0, SVG Export Plug-In . SVG Version: 6.00 Build 0)  -->
<svg version="1.1" id="Layer_1" xmlns="http://www.w3.org/2000/svg" xmlns:xlink="http://www.w3.org/1999/xlink" x="0px" y="0px"
	 viewBox="0 0 30 30" style="enable-background:new 0 0 30 30;" xml:space="preserve">
<style type="text/css">
	.st0{opacity:0.6;enable-background:new    ;}
	.st1{fill:#F2A437;}
	.st2{fill:#4869EF;}
</style>
<title>careers</title>
<g>
	<g class="st0">
		<g>
			<path class="st1" d="M17,7.3c-3,0-5.4,2.4-5.4,5.4c0,1,0.3,2,0.8,2.8l4.2,6.9c0.1,0.1,0.2,0.2,0.4,0.2l0,0c0.1,0,0.3-0.1,0.4-0.2
				l4.2-6.9c0.5-0.8,0.7-1.8,0.7-2.8C22.3,9.7,19.9,7.3,17,7.3z"/>
		</g>
	</g>
	<g>
		<g>
			<g>
				<path class="st2" d="M15,6.6c-3,0-5.4,2.4-5.4,5.4c0,1,0.3,2,0.8,2.8l4.2,6.9c0.1,0.1,0.2,0.2,0.4,0.2l0,0
					c0.1,0,0.3-0.1,0.4-0.2l4.2-6.9c0.5-0.8,0.7-1.8,0.7-2.8C20.5,9.1,18,6.6,15,6.6z M19.2,14.3l-4.1,6.8l-4.2-6.7
					c-0.4-0.7-0.7-1.6-0.7-2.5c0-2.6,2.2-4.8,4.8-4.8s4.8,2.2,4.8,4.8C19.8,12.8,19.6,13.6,19.2,14.3z"/>
			</g>
		</g>
		<g>
			<g>
				<path class="st2" d="M15,9.4c-1.5,0-2.7,1.2-2.7,2.7s1.2,2.7,2.7,2.7s2.7-1.3,2.7-2.7C17.7,10.6,16.5,9.4,15,9.4z M15,14.2
					c-1.1,0-2.1-1-2.1-2.1s1-2.1,2.1-2.1s2.1,1,2.1,2.1S16.2,14.2,15,14.2z"/>
			</g>
		</g>
	</g>
</g>
</svg>
