<?xml version="1.0" encoding="utf-8"?>
<!-- Generator: Adobe Illustrator 23.0.0, SVG Export Plug-In . SVG Version: 6.00 Build 0)  -->
<svg version="1.1" id="Layer_1" xmlns="http://www.w3.org/2000/svg" xmlns:xlink="http://www.w3.org/1999/xlink" x="0px" y="0px"
	 viewBox="0 0 30 30" style="enable-background:new 0 0 30 30;" xml:space="preserve">
<style type="text/css">
	.st0{fill:none;}
	.st1{opacity:0.6;enable-background:new    ;}
	.st2{fill:#F2A437;}
	.st3{fill:#4869EF;}
</style>
<rect class="st0" width="30" height="30"/>
<title>careers</title>
<g>
	<g class="st1">
		<g>
			<path class="st2" d="M20.5,8.9h-7c-0.5,0-1,0.4-1,1v13.8c0,0.5,0.4,1,1,1h7c0.5,0,1-0.4,1-1V9.9C21.5,9.3,21.1,8.9,20.5,8.9z"/>
		</g>
	</g>
	<g>
		<g>
			<g>
				<path class="st3" d="M15.5,20.6h-0.6c-0.4,0-0.7,0.4-0.7,0.7v0.1c0,0.4,0.4,0.7,0.7,0.7h0.6c0.4,0,0.7-0.4,0.7-0.7v-0.1
					C16.2,20.9,15.8,20.6,15.5,20.6z M15.7,21.4c0,0.1-0.1,0.2-0.2,0.2h-0.6c-0.1,0-0.2-0.1-0.2-0.2v-0.1c0-0.1,0.1-0.2,0.2-0.2h0.6
					C15.6,21.1,15.7,21.2,15.7,21.4L15.7,21.4z"/>
			</g>
		</g>
		<g>
			<g>
				<path class="st3" d="M18.6,7.3h-7c-0.5,0-1,0.4-1,1V22c0,0.5,0.4,1,1,1h7c0.5,0,1-0.4,1-1V8.2C19.6,7.7,19.1,7.3,18.6,7.3z
					 M19,22c0,0.3-0.2,0.4-0.4,0.4h-7c-0.3,0-0.4-0.2-0.4-0.4V8.2c0-0.3,0.2-0.4,0.4-0.4h7C18.9,7.8,19,8,19,8.2V22L19,22z"/>
			</g>
		</g>
		<g>
			<g>
				<path class="st3" d="M19.3,8.8H11c-0.2,0-0.3,0.1-0.3,0.3v11c0,0.2,0.1,0.3,0.3,0.3h8.3c0.2,0,0.3-0.1,0.3-0.3v-11
					C19.6,9,19.5,8.8,19.3,8.8z M19,19.8h-7.8V9.3H19V19.8z"/>
			</g>
		</g>
	</g>
</g>
</svg>
