<?xml version="1.0" encoding="utf-8"?>
<!-- Generator: Adobe Illustrator 23.0.0, SVG Export Plug-In . SVG Version: 6.00 Build 0)  -->
<svg version="1.1" id="Layer_1" xmlns="http://www.w3.org/2000/svg" xmlns:xlink="http://www.w3.org/1999/xlink" x="0px" y="0px"
	 viewBox="0 0 30 30" style="enable-background:new 0 0 30 30;" xml:space="preserve">
<style type="text/css">
	.st0{display:none;}
	.st1{display:inline;fill:none;}
	.st2{display:inline;fill:#4869EF;stroke:#FFFFFF;stroke-width:0.3;stroke-miterlimit:10;}
	.st3{opacity:0.6;fill:#F2A437;enable-background:new    ;}
	.st4{fill:#4869EF;}
</style>
<title>faqs-2</title>
<g class="st0">
	<path class="st1" d="M24.5,4.9h-9.9c-1,0-1.8,0.8-1.9,1.8v11.1l1.3-1.2l0.2-0.1c0.4-0.5,0.9-0.7,1.5-0.6h8.8c1,0,1.8-0.8,1.8-1.8
		V6.7C26.3,5.7,25.5,4.9,24.5,4.9z M19.9,13c0,0.4-0.2,0.7-0.6,0.7c-0.3,0-0.6-0.3-0.6-0.6s0.2-0.6,0.6-0.6
		C19.7,12.5,20,12.8,19.9,13z M20.4,10.8C20.3,11,20,11.2,20,11.3c0,0.4-0.3,0.6-0.6,0.6c-0.3,0-0.6-0.3-0.6-0.6
		c0.1-0.6,0.4-1.1,0.9-1.5c0.3-0.3,0.5-0.5,0.5-0.6c0-0.4-0.3-0.6-0.6-0.6c-0.4,0-0.6,0.3-0.6,0.6c0,0.4-0.4,0.6-0.7,0.6
		s-0.5-0.3-0.6-0.6c0-1.1,0.9-1.9,1.9-1.9s1.8,0.9,1.8,1.9C21.3,9.9,21,10.5,20.4,10.8z"/>
	<path class="st2" d="M19.3,12.5c-0.4,0-0.6,0.3-0.6,0.6s0.3,0.6,0.6,0.6c0.4,0,0.6-0.3,0.6-0.7C20,12.8,19.7,12.5,19.3,12.5z"/>
	<path class="st2" d="M19.6,7.3c-1,0-1.9,0.8-1.9,1.9c0.1,0.3,0.3,0.6,0.6,0.6S19,9.6,19,9.2c0-0.3,0.2-0.6,0.6-0.6
		c0.3,0,0.6,0.2,0.6,0.6c0,0.1-0.2,0.3-0.5,0.6c-0.5,0.4-0.8,0.9-0.9,1.5c0,0.3,0.3,0.6,0.6,0.6c0.3,0,0.6-0.2,0.6-0.6
		c0-0.1,0.3-0.3,0.4-0.5c0.6-0.3,0.9-0.9,1-1.6C21.4,8.2,20.6,7.3,19.6,7.3z"/>
	<path class="st2" d="M6.3,17.1c-0.4,0-0.7,0.2-0.7,0.6s0.2,0.7,0.6,0.7c0.1,0,0.1,0,0.2,0h0.1c0.4,0,0.7-0.2,0.7-0.6
		S7,17.1,6.6,17.1C6.5,17.1,6.4,17.1,6.3,17.1z"/>
	<path class="st2" d="M24.5,3.6h-9.9c-1.8,0-3.2,1.4-3.2,3.1v4.6H4.6c-1.7,0-3.1,1.4-3.1,3.1v7.3c0,1.7,1.4,3.1,3.1,3.1h9.1l2.8,2.6
		c0.1,0.1,0.2,0.2,0.4,0.2c0.2,0,0.6-0.3,0.7-0.6c0.1-0.3,0-7.6,0-7.6c0-0.1,0-0.1,0-0.2c0-0.4-0.3-0.6-0.7-0.6
		c-0.4,0-0.6,0.3-0.6,0.7v6.1l-1.9-1.8c-0.1-0.1-0.2-0.2-0.4-0.2H4.6c-1,0-1.8-0.8-1.8-1.8v-7.3c0-1,0.8-1.8,1.8-1.8h6.8v6.8
		c0,0.1,0.1,0.3,0.2,0.4c0.2,0.3,0.6,0.3,0.9,0.1l2.4-2.2l0.2-0.2c0.1-0.1,0.2-0.2,0.3-0.3h9.1c1.7,0,3.1-1.4,3.1-3.1V6.9
		c0,0,0-0.1,0-0.4C27.5,4.8,26.1,3.6,24.5,3.6z M26.3,14.1c0,1-0.8,1.8-1.8,1.8h-8.8c-0.6-0.1-1.1,0.1-1.5,0.6L14,16.6l-1.3,1.2V6.7
		c0.1-1,0.9-1.8,1.9-1.8h9.9c1,0,1.8,0.8,1.8,1.8V14.1z"/>
	<path class="st2" d="M8,17.8c0,0.3,0.3,0.5,0.6,0.6h0.1c0.4,0,0.6-0.4,0.6-0.7c-0.1-0.4-0.4-0.6-0.7-0.6C8.2,17.1,8,17.5,8,17.8z"
		/>
</g>
<g>
	<path class="st3" d="M25.8,12h-6.9V6.2c0-0.5-0.4-0.9-0.9-0.9H8.4c-0.6,0-1,0.4-1,0.9v6.4c0,0.5,0.4,0.9,0.9,0.9h1.4v1l1.8-1h3.7
		v5.8c0,0.5,0.4,0.9,0.9,0.9h6.4l1.8,1v-1h1.4c0.5,0,0.9-0.4,0.9-0.9v-6.4C26.6,12.4,26.2,12,25.8,12z"/>
	<g>
		<g>
			<g>
				<path class="st4" d="M12.2,6.8c-0.2,0-0.3-0.1-0.3-0.2c-0.1-0.2,0-0.3,0.1-0.4c0.2-0.1,0.3-0.1,0.4,0c0.2,0.1,0.2,0.2,0.2,0.4
					C12.6,6.6,12.4,6.8,12.2,6.8L12.2,6.8z"/>
			</g>
			<path class="st4" d="M23.5,12.5h-5V7.2c0-0.6-0.5-1.1-1.1-1.1h-3.4c-0.2,0-0.4,0.2-0.4,0.4c0,0.2,0.2,0.4,0.4,0.4h3.4
				c0.2,0,0.4,0.2,0.4,0.4v7c0,0.2-0.2,0.4-0.4,0.4h-5.1c-0.1,0-0.1,0-0.2,0.1L9.7,16v-1c0-0.2-0.2-0.4-0.4-0.4H7.1
				c-0.2,0-0.4-0.2-0.4-0.4V7.2c0-0.2,0.2-0.4,0.4-0.4h3.5c0.2,0,0.4-0.2,0.4-0.4C11,6.1,10.8,6,10.6,6H7.1C6.4,6,6,6.5,6,7.1v7
				c0,0.6,0.5,1.1,1.1,1.1h1.8v1.2c0,0.2,0.1,0.2,0.2,0.3c0.1,0,0.2,0.1,0.2,0.1c0.1,0,0.1,0,0.2-0.1l2.9-1.5h0.2v5.7
				c0,0.6,0.5,1.1,1.1,1.1h4.7l2.9,1.5c0.1,0,0.1,0.1,0.2,0.1s0.2,0,0.2-0.1c0.1-0.1,0.2-0.2,0.2-0.3v-1.2h1.8
				c0.6,0,1.1-0.5,1.1-1.1v-7.4C24.6,13.1,24.1,12.5,23.5,12.5L23.5,12.5z M23.9,21.1c0,0.2-0.2,0.4-0.4,0.4h-2.1
				c-0.2,0-0.4,0.2-0.4,0.4v1l-2.4-1.3c-0.1,0-0.1-0.1-0.2-0.1h-4.8c-0.2,0-0.4-0.2-0.4-0.4v-5.7h4.1c0.6,0,1.1-0.5,1.1-1.1v-1h4.9
				c0.2,0,0.4,0.2,0.4,0.4L23.9,21.1L23.9,21.1z"/>
			<path class="st4" d="M20.4,20.2l-1.5-4.1l0,0c-0.1-0.2-0.2-0.3-0.4-0.3l0,0c-0.2,0-0.3,0.1-0.4,0.3l0,0l-1.6,4.1
				c-0.1,0.2,0,0.4,0.2,0.5c0.2,0.1,0.4,0,0.5-0.2l0.3-0.8h2l0.3,0.8c0.1,0.2,0.2,0.2,0.3,0.2c0.1,0,0.1,0,0.2,0
				C20.4,20.5,20.5,20.3,20.4,20.2z M17.8,18.9l0.7-1.9l0.7,1.9H17.8z"/>
			<path class="st4" d="M14.5,12.4L14.2,12c0.3-0.4,0.5-0.9,0.5-1.4c0-1.4-1.1-2.5-2.5-2.5s-2.4,1.2-2.4,2.5s1.1,2.5,2.5,2.5
				c0.6,0,1-0.2,1.4-0.5l0.4,0.4c0.1,0.1,0.2,0.1,0.2,0.1c0.1,0,0.2,0,0.2-0.1C14.7,12.7,14.7,12.5,14.5,12.4L14.5,12.4z M12.2,12.3
				c-1,0-1.7-0.8-1.7-1.7c0-0.9,0.8-1.7,1.7-1.7c0.9,0,1.7,0.8,1.7,1.7c0,0.3-0.1,0.6-0.2,0.9l-0.4-0.4c-0.2-0.2-0.4-0.2-0.5,0
				c-0.2,0.2-0.2,0.4,0,0.5l0.5,0.5C12.9,12.2,12.6,12.3,12.2,12.3L12.2,12.3z"/>
		</g>
	</g>
</g>
</svg>
