<svg id="Icon" xmlns="http://www.w3.org/2000/svg" viewBox="0 0 40 40"><defs><style>.cls-1{fill:none;}.cls-2{opacity:0.6;}.cls-3{fill:#f2a437;}.cls-4{fill:#4869ef;}</style></defs><title>01_flight</title><rect class="cls-1" width="40" height="40"/><g class="cls-2"><path class="cls-3" d="M17.07,28.25l-1,.75h0l-.82.64a9.59,9.59,0,0,1-1.43.95,11.91,11.91,0,0,1-1.07.54h0a.94.94,0,0,1-1.2-1.25c.16-.36.34-.72.53-1.08a11.27,11.27,0,0,1,1-1.44l.63-.81h0l.76-1L27,11.23a6.07,6.07,0,0,1,4.47-2,6.36,6.36,0,0,1,.87.06l.53.08a.47.47,0,0,1,.4.4l.08.54a6.09,6.09,0,0,1-1.89,5.33Z"/><path class="cls-3" d="M17.27,34.24v.69a.47.47,0,0,1-.18.37l-2.38-4.13L15,31l.21-.14c.23-.15.45-.31.66-.47h0l.39-.3A9,9,0,0,1,17.27,34.24Z"/><path class="cls-3" d="M31.93,28.9A1.41,1.41,0,0,1,31.34,30l-5-8.69,2.92-2.47.49.86A16.51,16.51,0,0,1,31.93,28Z"/></g><path class="cls-4" d="M28.32,16.62l2.11-1.87h0a7,7,0,0,0,2.18-6.16L32.55,8a1.44,1.44,0,0,0-1.2-1.2l-.54-.07A7,7,0,0,0,24.64,9l-1.87,2.11-1-.59A17.61,17.61,0,0,0,13,8.16h-.87a2.35,2.35,0,0,0-2,1.17l-.16.29a.46.46,0,0,0,.17.64l8.94,5.16-7,7.92-.53.69a9.8,9.8,0,0,0-4.74-1.21h-.7a1.45,1.45,0,0,0-1.22.71l-.2.34a.48.48,0,0,0,0,.35.51.51,0,0,0,.22.29L9.4,27.13c-.13.25-.25.5-.37.76a1.88,1.88,0,0,0,1.72,2.62,1.9,1.9,0,0,0,.75-.15l0,0c.23-.1.48-.22.72-.35l2.63,4.56a.51.51,0,0,0,.29.22.48.48,0,0,0,.35-.05l.35-.2h0a1.43,1.43,0,0,0,.7-1.22v-.7a9.84,9.84,0,0,0-1.22-4.74l.68-.52,7.92-7,5.17,8.94a.46.46,0,0,0,.64.17l.29-.16a2.37,2.37,0,0,0,1.17-2v-.87a17.5,17.5,0,0,0-2.32-8.76ZM12.13,9.1H13a16.51,16.51,0,0,1,8.29,2.2l.85.49L19.68,14.7,11,9.69A1.4,1.4,0,0,1,12.13,9.1Zm-6,14.65h.7a9,9,0,0,1,4.16,1l-.3.38c-.17.21-.33.44-.49.68L10,26c-.06.09-.12.18-.17.27L5.72,23.93A.49.49,0,0,1,6.09,23.75Zm9.55,8.85v.7a.51.51,0,0,1-.18.37l-2.38-4.13.27-.18.21-.13c.22-.16.44-.31.65-.48h0l.38-.3A8.9,8.9,0,0,1,15.64,32.6Zm-.2-6-1,.75h0l-.81.64a12.34,12.34,0,0,1-1.44.95c-.35.19-.71.37-1.07.53l0,0a1,1,0,0,1-1-.23.94.94,0,0,1-.19-1,10.88,10.88,0,0,1,.54-1.08,10,10,0,0,1,1-1.44l.63-.82h0l.76-1L25.34,9.59a6.06,6.06,0,0,1,4.47-1.95,6.36,6.36,0,0,1,.87.06l.54.07a.49.49,0,0,1,.4.4l.07.54a6.08,6.08,0,0,1-1.89,5.34Zm14.85.65a1.4,1.4,0,0,1-.59,1.14l-5-8.69,2.91-2.46.49.85a16.31,16.31,0,0,1,2.2,8.29Z"/><path class="cls-4" d="M27.28,10.18a1.41,1.41,0,0,1,1.93,1.93.46.46,0,0,0,.17.64.47.47,0,0,0,.64-.16,2.35,2.35,0,0,0-3.21-3.22.47.47,0,0,0,0,.82A.46.46,0,0,0,27.28,10.18Z"/></svg>