<svg id="Layer_1" data-name="Layer 1" xmlns="http://www.w3.org/2000/svg" viewBox="0 0 30 30"><defs><style>.cls-1{opacity:0.6;}.cls-2{fill:#f2a437;}.cls-3{fill:#4869ef;}</style></defs><title>home</title><g class="cls-1"><path class="cls-2" d="M13.22,13.94h5v8.71h-5Z"/></g><g class="cls-1"><path class="cls-2" d="M7.7,22.73H25.25V25H7.7Z"/><path class="cls-2" d="M23.31,10.48V6.69H21V8.76Z"/><path class="cls-2" d="M6.85,13.52l8.62-6.67,9.06,7.07L26,12.45,16.42,5,6.2,12.87Z"/></g><path class="cls-3" d="M21.91,14.62l.57.45A.4.4,0,0,0,23,15l1.43-1.43a.39.39,0,0,0,.11-.31A.38.38,0,0,0,24.4,13L22,11.11V7.54a.4.4,0,0,0-.4-.4H19.3a.4.4,0,0,0-.4.4V8.75L14.52,5.37a.4.4,0,0,0-.49,0L4.16,13a.39.39,0,0,0,0,.6L5.54,15a.39.39,0,0,0,.28.12.38.38,0,0,0,.25-.09l.58-.45V22.3H5.77a.4.4,0,0,0-.4.41v1.92a.4.4,0,0,0,.4.41h17a.4.4,0,0,0,.4-.41V22.71a.4.4,0,0,0-.4-.41h-.88V20a.41.41,0,1,0-.81,0V22.3H16.93V14a.4.4,0,0,0-.4-.4H12a.4.4,0,0,0-.4.4V22.3H7.45V14l6.83-5.28L21.1,14v2.82a.41.41,0,1,0,.81,0Zm-9.48-.18h3.69V22.3H12.43Zm10,8.67v1.12H6.17V23.11ZM19.7,7.94h1.45v2.55L19.7,9.37ZM14,7.9,5.86,14.22,5,13.37l9.27-7.18,9.27,7.18-.86.85L14.52,7.9A.4.4,0,0,0,14,7.9Z"/><path class="cls-3" d="M21.5,18a.38.38,0,0,0-.28.12.39.39,0,0,0,0,.56.38.38,0,0,0,.28.12.4.4,0,1,0,0-.8Z"/><path class="cls-3" d="M13.84,18h-.53a.4.4,0,0,0,0,.8h.53a.4.4,0,0,0,0-.8Z"/></svg>