<svg id="Layer_1" data-name="Layer 1" xmlns="http://www.w3.org/2000/svg" viewBox="0 0 30 30"><defs><style>.cls-1{opacity:0.6;}.cls-2{fill:#f2a437;}.cls-3{fill:#4869ef;}</style></defs><title>hotel</title><g class="cls-1"><path class="cls-2" d="M22.76,23.89H19.71a.24.24,0,0,1-.24-.24V10.18a.64.64,0,0,0-.64-.64H14.91a.24.24,0,0,1-.24-.24V5.8a.24.24,0,0,1,.24-.24h7.85A.24.24,0,0,1,23,5.8V23.65A.24.24,0,0,1,22.76,23.89Z"/></g><path class="cls-3" d="M21,4.18H13a.4.4,0,0,0-.4.4v5.51H8.24a.4.4,0,0,0-.4.4v14.4a.4.4,0,0,0,.4.4H21a.4.4,0,0,0,.4-.4V4.58A.4.4,0,0,0,21,4.18ZM8.64,10.89h8.8v13.6H8.64Zm12,13.6h-2.4v-14a.4.4,0,0,0-.4-.4h-4.4V5h7.2Z"/><path class="cls-3" d="M12.24,11.69h-1.6a.4.4,0,0,0-.4.4v1.6a.4.4,0,0,0,.4.4h1.6a.4.4,0,0,0,.4-.4v-1.6A.4.4,0,0,0,12.24,11.69Zm-.4,1.6H11v-.8h.8Z"/><path class="cls-3" d="M15.44,11.69h-1.6a.4.4,0,0,0-.4.4v1.6a.4.4,0,0,0,.4.4h1.6a.4.4,0,0,0,.4-.4v-1.6A.4.4,0,0,0,15.44,11.69Zm-.4,1.6h-.8v-.8H15Z"/><path class="cls-3" d="M12.24,16.49h-1.6a.4.4,0,0,0-.4.4v1.6a.4.4,0,0,0,.4.4h1.6a.4.4,0,0,0,.4-.4v-1.6A.4.4,0,0,0,12.24,16.49Zm-.4,1.6H11v-.8h.8Z"/><path class="cls-3" d="M15.44,16.49h-1.6a.4.4,0,0,0-.4.4v1.6a.4.4,0,0,0,.4.4h1.6a.4.4,0,0,0,.4-.4v-1.6A.4.4,0,0,0,15.44,16.49Zm-.4,1.6h-.8v-.8H15Z"/><path class="cls-3" d="M12.24,21.29h-1.6a.4.4,0,0,0-.4.4v1.6a.4.4,0,0,0,.4.4h1.6a.4.4,0,0,0,.4-.4v-1.6A.4.4,0,0,0,12.24,21.29Zm-.4,1.6H11v-.8h.8Z"/><path class="cls-3" d="M15.44,21.29h-1.6a.4.4,0,0,0-.4.4v1.6a.4.4,0,0,0,.4.4h1.6a.4.4,0,0,0,.4-.4v-1.6A.4.4,0,0,0,15.44,21.29Zm-.4,1.6h-.8v-.8H15Z"/><path class="cls-3" d="M14.67,8.81h1.6a.4.4,0,0,0,.4-.4V6.81a.4.4,0,0,0-.4-.4h-1.6a.39.39,0,0,0-.4.4v1.6A.39.39,0,0,0,14.67,8.81Zm.4-1.6h.8V8h-.8Z"/><path class="cls-3" d="M17.87,8.81h1.59a.39.39,0,0,0,.4-.4V6.81a.39.39,0,0,0-.4-.4H17.87a.39.39,0,0,0-.4.4v1.6A.39.39,0,0,0,17.87,8.81Zm.39-1.6h.8V8h-.8Z"/></svg>