<svg id="Layer_1" data-name="Layer 1" xmlns="http://www.w3.org/2000/svg" viewBox="0 0 30 30"><defs><style>.cls-1{opacity:0.6;}.cls-2{fill:#f2a437;}.cls-3{fill:#4869ef;}</style></defs><title>Language</title><g id="btn_language" data-name="btn language" class="cls-1"><g id="Group_2057" data-name="Group 2057"><g id="Path_2613" data-name="Path 2613"><path class="cls-2" d="M15.17,8.64A6,6,0,0,1,17,8.91a17.38,17.38,0,0,1,2.29.92,3.58,3.58,0,0,0,1.61.36,5.57,5.57,0,0,0,1.76-.31,8.42,8.42,0,0,0,1.49-.63l.32-.18v7.24a7.69,7.69,0,0,1-3.43,1.09,2.84,2.84,0,0,1-.95-.17,6.59,6.59,0,0,1-1-.45,8,8,0,0,0-1.57-.65,6.68,6.68,0,0,0-2-.32,11.59,11.59,0,0,0-5,1.37V10.12L11,9.86a9.51,9.51,0,0,1,4.17-1.22"/></g></g></g><g id="btn_language-2" data-name="btn language"><g id="Group_2057-2" data-name="Group 2057"><g id="Path_2613-2" data-name="Path 2613"><path class="cls-3" d="M19.71,16.4a3.36,3.36,0,0,1-1.16-.2,7.92,7.92,0,0,1-1.08-.48A7.36,7.36,0,0,0,16,15.1a6.37,6.37,0,0,0-1.89-.29,11.35,11.35,0,0,0-4.78,1.3.5.5,0,0,1-.74-.44v-7a.51.51,0,0,1,.26-.44l.53-.27a9.9,9.9,0,0,1,4.27-1.26.44.44,0,0,1,.16,0,7,7,0,0,1,2,.29,22.8,22.8,0,0,1,2.36,1,3.13,3.13,0,0,0,1.38.31,4.91,4.91,0,0,0,1.61-.28,7.29,7.29,0,0,0,1.41-.6l.33-.18a.5.5,0,0,1,.74.44v7.25a.5.5,0,0,1-.25.43A8.38,8.38,0,0,1,19.71,16.4Zm-5.62-2.59a7.37,7.37,0,0,1,2.2.33,9.28,9.28,0,0,1,1.66.7,5.07,5.07,0,0,0,.93.41,2.26,2.26,0,0,0,.8.15,7.37,7.37,0,0,0,2.93-.88V8.39a8.74,8.74,0,0,1-1.16.46,6,6,0,0,1-1.91.33h-.05a4.08,4.08,0,0,1-1.79-.41,20.15,20.15,0,0,0-2.22-.89,5.89,5.89,0,0,0-1.62-.25h-.07A9,9,0,0,0,9.84,8.79l-.26.13v5.95a12.34,12.34,0,0,1,4.5-1.06Z"/></g></g></g><rect class="cls-3" x="6.8" y="7.49" width="1" height="16.1"/><circle class="cls-3" cx="7.3" cy="7.06" r="1.05"/></svg>