<svg id="Icon" xmlns="http://www.w3.org/2000/svg" viewBox="0 0 40 40"><defs><style>.cls-1{opacity:0.6;}.cls-2{fill:#f2a437;}.cls-3{fill:#4869ef;}.cls-4{fill:#fff;}</style></defs><title>16_Logout</title><g class="cls-1"><path class="cls-2" d="M31.37,7.58H23.86A2.29,2.29,0,0,0,21.78,10V20.38H8.34l.74-.74,3-3a.48.48,0,0,0,0-.68.51.51,0,0,0-.33-.13.49.49,0,0,0-.33.13L6.84,20.52a.57.57,0,0,0-.11.16.48.48,0,0,0,0,.37.57.57,0,0,0,.11.16l4.57,4.57h0a.48.48,0,0,0,.34.14.51.51,0,0,0,.34-.13.53.53,0,0,0,.15-.34.52.52,0,0,0-.14-.35h0l-3-3-.74-.73H21.78v8.51a2.29,2.29,0,0,0,2.08,2.46h7.51a2.3,2.3,0,0,0,2.09-2.46V10a2.71,2.71,0,0,0-.63-1.76A1.94,1.94,0,0,0,31.37,7.58Z"/></g><path class="cls-3" d="M31.29,10A2.3,2.3,0,0,0,29,7.67H17.09A2.31,2.31,0,0,0,14.78,10v5.49a.48.48,0,1,0,1,0V10a1.36,1.36,0,0,1,1.35-1.35H29A1.36,1.36,0,0,1,30.33,10V30.11A1.35,1.35,0,0,1,29,31.45H17.09a1.35,1.35,0,0,1-1.35-1.34V24.62a.48.48,0,1,0-1,0v5.49a2.31,2.31,0,0,0,2.31,2.31H29a2.31,2.31,0,0,0,2.31-2.31Z"/><path class="cls-4" d="M16.17,10a1,1,0,0,1,.27-.65,1,1,0,0,0-.27.65Z"/><path class="cls-4" d="M14.34,30.11a2.59,2.59,0,0,0,.09.68,2.59,2.59,0,0,1-.09-.68Z"/><path class="cls-4" d="M15.26,16.38a.92.92,0,0,1-.92-.91h0a.92.92,0,0,0,1.83,0h0A.91.91,0,0,1,15.26,16.38Z"/><path class="cls-4" d="M15.87,23.94a.88.88,0,0,0-.61-.24.92.92,0,0,0-.62.24.92.92,0,0,1,.62-.24A.88.88,0,0,1,15.87,23.94Z"/><path class="cls-3" d="M24.41,20.53a.49.49,0,0,0,0-1H8.19l.74-.74,3-3a.47.47,0,0,0,.13-.34.45.45,0,0,0-.15-.34.51.51,0,0,0-.33-.13.44.44,0,0,0-.33.13L6.68,19.7a.86.86,0,0,0-.1.16.48.48,0,0,0,0,.37.57.57,0,0,0,.11.16L11.26,25h0a.49.49,0,0,0,.35.15A.51.51,0,0,0,12,25a.5.5,0,0,0,0-.69h0l-3-3-.74-.73H24.41Z"/><path class="cls-4" d="M10.53,17.84l1.72-1.72a.93.93,0,0,0,.25-.66.93.93,0,0,1-.25.66Z"/><path class="cls-4" d="M12.08,14.71a.87.87,0,0,0-.49-.14.92.92,0,0,0-.53.16A.92.92,0,0,1,12.08,14.71Z"/></svg>