<svg id="Layer_1" data-name="Layer 1" xmlns="http://www.w3.org/2000/svg" viewBox="0 0 30 30"><defs><style>.cls-1{opacity:0.6;}.cls-2{fill:#f2a437;}.cls-3{fill:#4869ef;}</style></defs><title>login</title><g class="cls-1"><path class="cls-2" d="M21.42,23.5H11.93a1,1,0,0,1-1-1.05v-7.6a1,1,0,0,1,1-1h9.84a1.05,1.05,0,0,1,1.06,1v7.6a1.05,1.05,0,0,1-.7,1Z"/></g><g class="cls-1"><path class="cls-2" d="M20.23,13.09V11.48a3.38,3.38,0,1,0-6.75,0v1.61h-1.2V11.48a4.57,4.57,0,1,1,9.14,0v1.61Z"/></g><g id="surface1"><path class="cls-3" d="M20.27,12.93V11.27a5.27,5.27,0,1,0-10.54,0v1.66a1.76,1.76,0,0,0-1.41,1.72v2a.36.36,0,0,0,.35.36A.35.35,0,0,0,9,16.64v-2a1.07,1.07,0,0,1,1.06-1.06h9.84A1.07,1.07,0,0,1,21,14.65v7.59a1.07,1.07,0,0,1-.71,1V21.12a.34.34,0,0,0-.35-.35.35.35,0,0,0-.35.35V23.3H10.08A1.07,1.07,0,0,1,9,22.24V19.46a.35.35,0,0,0-.35-.35.35.35,0,0,0-.35.35v2.78A1.76,1.76,0,0,0,10.08,24h9.84a1.76,1.76,0,0,0,1.76-1.76V14.65A1.76,1.76,0,0,0,20.27,12.93Zm-7.94,0V11.27a2.67,2.67,0,0,1,5.34,0v1.62Zm6,0V11.27a3.38,3.38,0,0,0-6.75,0v1.62h-1.2V11.27a4.57,4.57,0,0,1,9.14,0v1.62Z"/><path class="cls-3" d="M8.67,18.39a.37.37,0,0,0,.25-.1.36.36,0,0,0,0-.5.37.37,0,0,0-.25-.1.35.35,0,1,0,0,.7Z"/><path class="cls-3" d="M15,22.1a1,1,0,0,0,1.05-1.05V19.18a1.9,1.9,0,1,0-2.94-1.58A1.86,1.86,0,0,0,14,19.17v1.88A1,1,0,0,0,15,22.1Zm-1.19-4.5a1.2,1.2,0,1,1,1.73,1.07.35.35,0,0,0-.19.31v2.07a.35.35,0,0,1-.7,0V19a.36.36,0,0,0-.19-.31A1.18,1.18,0,0,1,13.81,17.6Z"/><path class="cls-3" d="M19.92,20a.34.34,0,0,0,.25-.11.31.31,0,0,0,.1-.24.32.32,0,0,0-.1-.25.34.34,0,0,0-.25-.11.36.36,0,0,0-.35.36.35.35,0,0,0,.1.24A.36.36,0,0,0,19.92,20Z"/></g></svg>