<svg id="Layer_1" data-name="Layer 1" xmlns="http://www.w3.org/2000/svg" viewBox="0 0 30 30"><defs><style>.cls-1{opacity:0.6;}.cls-2{fill:#f2a437;}.cls-3{fill:#4869ef;}</style></defs><title>Nationality</title><g class="cls-1"><path class="cls-2" d="M19.26,12H14.09a1.45,1.45,0,0,0-1.46,1.45V17a1.46,1.46,0,0,0,1.46,1.46h.06v5.29h0a.27.27,0,0,0,.27.27h4.5a.27.27,0,0,0,.27-.27V18.44h.07A1.45,1.45,0,0,0,20.71,17V13.47A1.45,1.45,0,0,0,19.26,12Z"/><path class="cls-2" d="M16.67,10.88A2.69,2.69,0,1,0,14,8.19,2.69,2.69,0,0,0,16.67,10.88Z"/></g><path class="cls-3" d="M12.75,24.35a.62.62,0,0,1-.62-.62v-5A1.82,1.82,0,0,1,10.61,17V13.47a1.81,1.81,0,0,1,1.81-1.8h5.16a1.81,1.81,0,0,1,1.81,1.8V17a1.8,1.8,0,0,1-1.52,1.78v5a.58.58,0,0,1-.18.43.6.6,0,0,1-.44.19Zm4.42-.62Zm-4.34-.08h4.34V18.09h.35A1.13,1.13,0,0,0,18.69,17V13.47a1.11,1.11,0,0,0-1.11-1.1H12.42a1.11,1.11,0,0,0-1.11,1.1V17a1.11,1.11,0,0,0,1.11,1.11h.34l.07.35Z"/><path class="cls-3" d="M15,11.26h0a3,3,0,1,1,3-3A3,3,0,0,1,15,11.26Zm0-5.38a2.34,2.34,0,1,0,2.34,2.34A2.34,2.34,0,0,0,15,5.88Z"/></svg>