<svg xmlns="http://www.w3.org/2000/svg" width="35" height="35" viewBox="0 0 35 35"><circle cx="17.5" cy="17.5" r="17.5" fill="none"/><g transform="translate(7.914 6.611)"><g transform="translate(0 0)"><g transform="translate(3.683)"><path d="M4156.809,2395.133h-9.517a1.478,1.478,0,0,0-1.478,1.478V2411a1.479,1.479,0,0,0,1.478,1.478h11.927A1.479,1.479,0,0,0,4160.7,2411V2399.02Z" transform="translate(-4145.814 -2395.133)" fill="#f7c886"/></g><g transform="translate(0 1.115)"><path d="M4156.809,2395.133h-9.517a1.478,1.478,0,0,0-1.478,1.478V2411a1.479,1.479,0,0,0,1.478,1.478h11.927A1.479,1.479,0,0,0,4160.7,2411V2399.02Z" transform="translate(-4144.361 -2395.133)" fill="none" stroke="#4869ef" stroke-width="1"/><path d="M4156.018,2453.57v8.463a1.078,1.078,0,0,1-1.075,1.075h-15.5a1.075,1.075,0,0,1-1.072-1.075v-8.463l8.82,5.2Z" transform="translate(-4136.146 -2443.276)" fill="#f7c886"/><g transform="translate(-4138.376 -2442.16)" fill="#fff" stroke-linejoin="round"><path d="M 4154.943359375 2463.60791015625 L 4139.44775390625 2463.60791015625 C 4138.5810546875 2463.60791015625 4137.8759765625 2462.9013671875 4137.8759765625 2462.032958984375 L 4137.8759765625 2453.5703125 L 4137.8759765625 2452.695068359375 L 4138.6298828125 2453.1396484375 L 4147.19580078125 2458.191162109375 L 4155.76416015625 2453.1396484375 L 4156.51806640625 2452.695068359375 L 4156.51806640625 2453.5703125 L 4156.51806640625 2462.032958984375 C 4156.51806640625 2462.9013671875 4155.8115234375 2463.60791015625 4154.943359375 2463.60791015625 Z" stroke="none"/><path d="M 4138.3759765625 2453.5703125 L 4138.3759765625 2462.032958984375 C 4138.3759765625 2462.62451171875 4138.85595703125 2463.10791015625 4139.44775390625 2463.10791015625 L 4154.943359375 2463.10791015625 C 4155.53466796875 2463.10791015625 4156.01806640625 2462.62451171875 4156.01806640625 2462.032958984375 L 4156.01806640625 2453.5703125 L 4147.19580078125 2458.771728515625 L 4138.3759765625 2453.5703125 M 4138.3759765625 2452.5703125 C 4138.5517578125 2452.5703125 4138.7275390625 2452.616455078125 4138.8837890625 2452.708984375 L 4147.19580078125 2457.61083984375 L 4155.51025390625 2452.708984375 C 4155.6669921875 2452.616455078125 4155.84228515625 2452.5703125 4156.01806640625 2452.5703125 C 4156.18896484375 2452.5703125 4156.3603515625 2452.6142578125 4156.51416015625 2452.701904296875 C 4156.82568359375 2452.880126953125 4157.01806640625 2453.21142578125 4157.01806640625 2453.5703125 L 4157.01806640625 2462.032958984375 C 4157.01806640625 2463.177001953125 4156.08740234375 2464.10791015625 4154.943359375 2464.10791015625 L 4139.44775390625 2464.10791015625 C 4138.30517578125 2464.10791015625 4137.3759765625 2463.177001953125 4137.3759765625 2462.032958984375 L 4137.3759765625 2453.5703125 C 4137.3759765625 2453.21142578125 4137.568359375 2452.8798828125 4137.8798828125 2452.701904296875 C 4138.03369140625 2452.6142578125 4138.205078125 2452.5703125 4138.3759765625 2452.5703125 Z" stroke="none" fill="#4869ef"/></g><path d="M20.23,21.43H11.308a.357.357,0,0,0-.368.357.368.368,0,0,0,.368.357H20.23a.357.357,0,1,0,0-.714Z" transform="translate(-6.57 -10.525)" fill="#f7c886"/><path d="M20.23,20.15H11.308a.368.368,0,0,0-.368.357.357.357,0,0,0,.368.357H20.23a.357.357,0,1,0,0-.714Z" transform="translate(-6.57 -10.673)" fill="#f7c886"/><path d="M19.145,21.671H10.223a.379.379,0,0,0,0,.747h8.922a.379.379,0,1,0,0-.747Z" transform="translate(-6.205 -10.498)" fill="#4869ef"/><path d="M19.145,20.341H10.223a.379.379,0,0,0,0,.747h8.922a.379.379,0,1,0,0-.747Z" transform="translate(-6.205 -10.651)" fill="#4869ef"/></g></g><ellipse cx="2.431" cy="1.944" rx="2.431" ry="1.944" transform="translate(4.725 3.111)" fill="#f7c886"/><circle cx="2.431" cy="2.431" r="2.431" transform="translate(3.753 3.111)" fill="#4869ef"/></g></svg>