<?xml version="1.0" encoding="utf-8"?>
<!-- Generator: Adobe Illustrator 22.0.1, SVG Export Plug-In . SVG Version: 6.00 Build 0)  -->
<svg version="1.1" id="Icon" xmlns="http://www.w3.org/2000/svg" xmlns:xlink="http://www.w3.org/1999/xlink" x="0px" y="0px"
	 viewBox="0 0 512 512" style="enable-background:new 0 0 512 512;" xml:space="preserve">
<style type="text/css">
	.st0{opacity:0.6;fill:#F2A437;enable-background:new    ;}
	.st1{fill:#FFFFFF;}
	.st2{fill:#4869EF;}
</style>
<title>06_car-rental</title>
<g id="custom_1">
	<g id="Group_1" transform="translate(30.233 21.022)">
		<path id="Path_6011" class="st0" d="M244.1,41.7c-85.4,0-154.7,79.8-154.7,163.9S244.1,442,244.1,442s154.7-152.4,154.7-236.5
			S329.5,41.7,244.1,41.7"/>
		<g id="Group_3151" transform="translate(0 0)">
			<path id="Path_6012" class="st1" d="M214.5,33.4c-85.4,0-154.7,79.8-154.7,163.9s154.7,236.5,154.7,236.5
				s154.7-152.4,154.7-236.5S299.9,33.4,214.5,33.4"/>
			<path id="Path_6013" class="st2" d="M214.5,443.3l-5.9-5.6c-6.2-6.2-155.7-154.4-155.7-240.1c0.7-44,17.4-86,47-118.2
				c31.2-33.8,71.9-52.5,114.3-52.5s83.1,18.7,114.3,52.5c29.6,32.2,46.3,74.2,47,117.9c0,85.7-149.1,233.8-155.7,240.1L214.5,443.3
				z M214.5,43c-77.2,0-145.2,72.3-145.2,154.4c0,70.3,117.2,194.4,145.2,223c27.6-28.2,145.2-152.7,145.2-223
				C359.4,114.9,291.7,43,214.5,43z"/>
		</g>
		<g id="Group_3152" transform="translate(8.435 10.307)">
			<path id="Path_6014" class="st1" d="M178,257.7c-55.8,0-100.8-45.3-100.8-100.8S122.1,56,178,56s100.5,45.3,100.5,100.8l0,0
				C278.5,212.3,233.5,257.7,178,257.7L178,257.7"/>
		</g>
		<path id="Path_6015" class="st0" d="M294.3,189.1c0-6.2-3.6-11.8-9.2-14.8c-1.6-1-2.6-2.3-3.6-3.9c-3.3-8.9-6.2-18.1-9.2-26.9
			c-3-8.5-7.6-12.2-16.4-12.2c-4.6,0-9.5,0-14.5,0c0-3,0-5.6,0-7.9c0-3.3-1.3-4.9-4.6-4.9c-5.9,0-11.5,0-17.4-0.3
			c-3.6,0-4.6,1.6-4.9,4.9c0,2.6,0,4.9,0,7.9c-4.9,0-9.5,0-14.1,0c-9.5,0-13.8,3-17.4,12.8c-3.3,8.9-6.6,18.1-9.9,26.9
			c-0.3,1.3-1.3,2.3-2.3,3c-6.9,3-11.2,9.9-10.8,17.1c0,7.9,0,15.4-0.3,23.3c0,5.3,0,10.5,0,16.4h9.9c0,0.7,0,1.3,0,2V245
			c-0.3,6.6,4.9,11.8,11.2,12.2h1.3c6.6-0.3,11.5-5.6,11.2-12.2v-13.5c0-0.7,0-1,0-1.6l70.3,0.7c0,0.3,0,0.7,0,1V244
			c-0.3,6.6,4.9,11.8,11.2,12.2h1.3c6.6-0.3,11.5-5.6,11.2-12.2v-12.5c0-0.3,0-0.7,0-1h5.6c0-0.7,0.3-1.6,0.3-2.3
			C294.3,215.4,294.3,202.3,294.3,189.1z"/>
		<path id="Path_6016" class="st2" d="M285.5,236.4l-17.7-0.3l-120.5-1c-3.9,0-7.6,0-11.5,0h-7.6l0.3-32.8c0-4.9,0-9.5,0-14.5
			c-0.3-10.2,5.6-19.4,14.8-23.6c2-5.3,4.3-10.5,6.2-15.8c1.3-3.3,2.6-6.9,3.9-10.2c4.9-12.5,12.2-17.7,25.6-17.7h0.3
			c2.3,0,4.9,0,7.2,0v-0.3c0-3.6,1.3-6.9,3.6-9.2c2.6-2.3,5.9-3.3,9.2-3.3c5.6,0.3,11.5,0.3,18.4,0.3h0.3
			c6.6-0.3,12.2,4.6,12.5,11.2c0,0.3,0,1,0,1.3v0.3c2.6,0,5.3,0,7.9,0c11.2-0.7,21.3,6.6,24.6,17.4c1,2.6,2,5.6,3,8.2
			c2.3,5.9,4.6,12.5,6.9,18.4l0.3,0.3c8.2,3.9,13.8,12.2,13.8,21.3c0,9.5,0,19.4-0.3,28.9c0,3.6,0,7.2,0,10.5c0,1,0,1.6-0.3,2.6
			c0,0.3,0,0.7,0,0.7L285.5,236.4z M143.6,219.7h3.9l124.1,1c0-1.6,0-3.6,0-5.3c0-9.5,0.3-19,0.3-28.6c0-2.3-0.7-5.3-5.9-7.9
			c-3.3-1.6-5.9-4.6-7.2-7.9c-2.3-6.2-4.9-12.8-6.9-19c-1-2.6-2-5.6-3-8.2c-2-5.6-4.3-7.2-10.5-7.2c-3,0-5.9,0-8.9,0h-14.1V129
			c0-1,0-2,0-3c0-0.7,0-1.3,0-2.3c-4.9,0-9.2,0-13.1,0c0,1,0,1.6,0,2.6v10.2h-12.2c-3.6,0-6.9,0-10.2,0h-0.3
			c-6.9,0-8.5,1.3-11.2,7.9c-1.3,3.3-2.6,6.9-3.9,10.2c-2,5.6-4.3,11.2-6.6,16.7c-1.3,3-3.6,5.6-6.6,6.9c-4.3,1.3-7.2,5.6-6.9,10.2
			c0,4.9,0,9.5,0,14.5L143.6,219.7z"/>
		<path id="Path_6017" class="st2" d="M259.8,228.2L259.8,228.2c-8.5,0.3-15.8-6.6-16.1-15.1c0-0.3,0-0.7,0-1
			c-0.3-8.9,6.6-16.1,15.4-16.1c0.3,0,0.3,0,0.7,0l0,0c8.9,0,16.1,7.2,16.1,16.1c0,4.3-1.6,8.2-4.6,11.5
			C268.4,226.2,264.1,228.2,259.8,228.2z M259.8,205.2c-3.6,0-6.6,2.6-6.9,6.6c0,0.3,0,0.3,0,0.7c-0.3,3.6,2.6,6.6,6.2,6.9
			c0.3,0,0.7,0,0.7,0l0,0c2,0,3.6-0.7,4.9-2c1.3-1.3,2-3,2-4.9C266.7,208.2,263.8,205.2,259.8,205.2L259.8,205.2L259.8,205.2z"/>
		<path id="Path_6018" class="st2" d="M158,228.2L158,228.2c-8.5,0.3-15.8-6.6-16.1-15.1c0-0.3,0-0.7,0-1
			c-0.3-8.9,6.6-16.1,15.4-16.1c0.3,0,0.3,0,0.7,0l0,0c8.9,0,16.1,7.2,16.1,16.1c0,4.3-1.6,8.2-4.6,11.5
			C166.6,226.2,162.3,228.2,158,228.2z M158,205.2c-3.6,0-6.6,2.6-6.9,6.6c0,0.3,0,0.3,0,0.7c-0.3,3.6,2.6,6.6,6.2,6.9
			c0.3,0,0.7,0,0.7,0l0,0c2,0,3.6-0.7,4.9-2c1.3-1.3,2-3,2-4.9C164.9,208.2,162,205.2,158,205.2L158,205.2L158,205.2z"/>
		<rect id="Rectangle_1525" x="147.2" y="166.1" class="st2" width="122.2" height="15.4"/>
		<path id="Rectangle_1526" class="st2" d="M150.8,239.7L150.8,239.7c7.2,0,12.8,5.9,12.8,12.8v11.2c0,7.2-5.9,12.8-12.8,12.8l0,0
			c-7.2,0-12.8-5.9-12.8-12.8v-11.2C138,245.6,143.9,239.7,150.8,239.7z"/>
		<path id="Rectangle_1527" class="st2" d="M273,239.7L273,239.7c7.2,0,12.8,5.9,12.8,12.8v11.2c0,7.2-5.9,12.8-12.8,12.8l0,0
			c-7.2,0-12.8-5.9-12.8-12.8v-11.2C260.2,245.6,266.1,239.7,273,239.7z"/>
	</g>
</g>
</svg>
