<svg id="Icon" xmlns="http://www.w3.org/2000/svg" viewBox="0 0 40 40"><defs><style>.cls-1{opacity:0.6;}.cls-2{fill:#f2a437;}.cls-3{fill:#4869ef;}</style></defs><title>08_topup</title><g class="cls-1"><rect class="cls-2" x="11.06" y="18.08" width="20.8" height="15.4" rx="1.85"/></g><g class="cls-1"><path class="cls-2" d="M16.37,15.51l1.79-3.7s.14.22.3.24l1.75-3.88A.91.91,0,0,1,20.28,8a1.93,1.93,0,0,0-2.41.83l-3.12,6.63Z"/></g><path class="cls-3" d="M11.93,15.46v.67H10.8c-.45,0-.45,1.13,0,1.13H27.55A1.43,1.43,0,0,1,29,18.78V20H25a3.26,3.26,0,1,0,0,6.51h4v3.1a1.53,1.53,0,0,1-1.46,1.62H10.69A1.71,1.71,0,0,1,9,29.56V17a1.49,1.49,0,0,1,1.68-1.52h1.24m.87-.88H10.69A2.35,2.35,0,0,0,8.13,17V29.56a2.59,2.59,0,0,0,2.56,2.49H27.55a2.38,2.38,0,0,0,2.33-2.49v-4H25a2.38,2.38,0,1,1,0-4.76h4.91v-2a2.31,2.31,0,0,0-2.33-2.4H12.8v-1.8Z"/><path class="cls-3" d="M29.9,21.74H25.39a1.51,1.51,0,1,0,0,3H29.9c.1,0,.21-.06.21-.16v-2.7C30.11,21.79,30,21.74,29.9,21.74ZM25.45,24a.7.7,0,0,1,0-1.4.7.7,0,1,1,0,1.4Z"/><path class="cls-3" d="M29.12,15.48h-2.7l1-1.93A2.5,2.5,0,0,1,26,10.93l-1.67-.8a2.38,2.38,0,0,1-2.66,1.12l-2,4.23H17.26l3.59-7.77a1.89,1.89,0,0,1,1.09-1A2.77,2.77,0,0,1,24,6.8l5.48,2.32a2.4,2.4,0,0,1,1.31,1.31,2.17,2.17,0,0,1-.07,1.71Zm-1.55-.7h1.11l1.45-2.94a1.51,1.51,0,0,0,.05-1.16,1.73,1.73,0,0,0-.94-.92L23.76,7.44a2.08,2.08,0,0,0-1.57-.12,1.31,1.31,0,0,0-.71.68l-3.13,6.78h.82l2.11-4.39.29.11a1.74,1.74,0,0,0,2.26-1L24,9.19l2.83,1.36-.1.3c0,.05-.44,1.43,1.34,2.22l.34.15Z"/><path class="cls-3" d="M24.73,17.11H21.81a.56.56,0,0,1-.49-.29,2.88,2.88,0,0,1-.07-2.19,2.27,2.27,0,0,1,2.9-1.24,2.21,2.21,0,0,1,1.16,1.24,2.28,2.28,0,0,1,0,1.74,1.09,1.09,0,0,0-.05.14C25.15,16.8,25.05,17.11,24.73,17.11Zm-2.84-.7h2.64l0-.1a1.32,1.32,0,0,1,.08-.22h0a1.61,1.61,0,0,0,0-1.2,1.5,1.5,0,0,0-.79-.85,1.57,1.57,0,0,0-2,.89A2.28,2.28,0,0,0,21.89,16.41Z"/></svg>