<svg id="Icon" xmlns="http://www.w3.org/2000/svg" viewBox="0 0 512 512"><defs><style>.cls-1{opacity:0.6;}.cls-2{fill:#f2a437;}.cls-3{fill:#4869ef;}</style></defs><title>23_tournew</title><g id="Group_2210" data-name="Group 2210"><g id="_85_Tour" data-name=" 85 Tour"><g id="Group_3158" data-name="Group 3158" class="cls-1"><path id="Path_6025" data-name="Path 6025" class="cls-2" d="M167.57,111.36a39.93,39.93,0,1,0,39.9,40v0A39.94,39.94,0,0,0,167.57,111.36Z"/></g><g id="Group_3159" data-name="Group 3159" class="cls-1"><path id="Path_6026" data-name="Path 6026" class="cls-2" d="M399.3,143.74a5.38,5.38,0,0,0,.38-.66,13.31,13.31,0,0,0-24.48-10.44,5,5,0,0,0-.24.62c-.11.32-.21.65-.29,1A119,119,0,0,0,233.42,206a6.68,6.68,0,0,0,3.7,8.65h0L336.06,254,294.14,359.47a171.2,171.2,0,0,0-49.9-7.51c-72.08,0-136.47,45.37-156.55,110.33A6.6,6.6,0,0,0,94,470.91H394.42a6.6,6.6,0,0,0,6.66-6.55v-.05a6.24,6.24,0,0,0-.3-2,157.47,157.47,0,0,0-94-98.42l41.72-105,98.94,39.28a6.6,6.6,0,0,0,8.61-3.63l0-.07h0A118.85,118.85,0,0,0,399.3,143.74Z"/></g><path id="Path_6027" data-name="Path 6027" class="cls-3" d="M374.37,120.29c.13-.22.26-.44.37-.67a13.31,13.31,0,0,0-24.3-10.87l-.18.43c-.08.21-.18.41-.25.61s-.18.68-.29,1a119,119,0,0,0-141.24,71.77,6.61,6.61,0,0,0,3.63,8.61l.07,0h0l98.93,39.32L269.22,336a170.81,170.81,0,0,0-49.9-7.51c-72.08,0-136.47,45.36-156.54,110.33a6.6,6.6,0,0,0,4.28,8.3,6.35,6.35,0,0,0,2.07.32H369.52a6.67,6.67,0,0,0,6.67-6.61,6.79,6.79,0,0,0-.31-2,157.5,157.5,0,0,0-94-98.42l41.71-105L422.5,274.7a6.68,6.68,0,0,0,8.65-3.7h0A118.87,118.87,0,0,0,374.37,120.29ZM360.16,434.14H78.48a150.3,150.3,0,0,1,140.87-92.32,157.65,157.65,0,0,1,45,6.6l-14.62,36.64L262.11,390l14.78-37.27a145.22,145.22,0,0,1,83.27,81.43ZM223.62,181.45l1-2.2c.57-1.1,1.16-2.28,1.77-3.4q1.51-2.78,3.16-5.43c.67-1.1,1.33-2.11,2-3.13,1.2-1.79,2.48-3.53,3.76-5.24.68-.92,1.33-1.78,2-2.66,1.61-2,3.3-3.87,5-5.72.46-.48.93-1,1.34-1.5q3.38-3.49,7-6.61c.36-.33.76-.61,1.15-.92q3.1-2.58,6.36-4.92c.77-.55,1.57-1.1,2.36-1.56,1.84-1.25,3.75-2.47,5.69-3.59l2.7-1.49q2.88-1.56,5.87-3c.93-.41,1.8-.84,2.7-1.22,2.2-.92,4.32-1.76,6.52-2.54.78-.28,1.54-.57,2.33-.82q4-1.33,8.08-2.31c.33-.07.66-.19,1-.25a104.13,104.13,0,0,1,19.66-2.66h1c2.94-.09,5.85,0,8.75.1.71,0,1.4.1,2.1.16q3.87.27,7.71.84l2.55.4c1,.18,2,.43,3,.63a139.22,139.22,0,0,0-79.69,73.74ZM316,218.18,272.92,201a125.88,125.88,0,0,1,76.84-67.74Zm55.45,22L328.36,223l33.8-84.86a125.84,125.84,0,0,1,9.41,102ZM426.25,227c0,2.42-.09,4.84-.28,7.32-.09,1.1-.24,2.28-.36,3.42-.23,2.07-.5,4.18-.85,6.27-.21,1.25-.47,2.48-.73,3.7-.41,2-.89,4-1.42,6-.34,1.25-.66,2.5-1.1,3.7-.23.76-.52,1.49-.76,2.2l-37-14.69a139,139,0,0,0-7.4-108.28c.74.46,1.49.92,2.2,1.33,1.1.7,2.12,1.42,3.16,2.2,1.68,1.2,3.3,2.45,4.94,3.69.92.75,1.85,1.49,2.77,2.27,1.69,1.45,3.3,3,4.91,4.54.67.66,1.43,1.33,2.11,2a104.61,104.61,0,0,1,12,14.78c.52.79,1,1.61,1.49,2.4,1.18,1.85,2.32,3.76,3.39,5.7.55,1,1.09,2,1.57,3.07.92,1.8,1.77,3.6,2.56,5.43.48,1.1.92,2.2,1.38,3.3.71,1.85,1.39,3.69,2,5.54.38,1.1.76,2.27,1.1,3.42.57,2,1.08,4,1.53,6,.25,1.1.53,2.13.75,3.21.48,2.43.84,4.89,1.16,7.39.09.66.22,1.33.28,2a94.86,94.86,0,0,1,.57,9.55c.06.83,0,1.61,0,2.39Z"/><path id="Path_6028" data-name="Path 6028" class="cls-3" d="M142.79,88.11A39.93,39.93,0,1,0,182.72,128h0A39.93,39.93,0,0,0,142.79,88.11Zm0,66.54A26.63,26.63,0,1,1,169.41,128h0a26.62,26.62,0,0,1-26.62,26.63Z"/><path id="Path_6029" data-name="Path 6029" class="cls-3" d="M142.79,88.11A39.93,39.93,0,1,0,182.72,128h0A39.93,39.93,0,0,0,142.79,88.11Zm0,66.54A26.63,26.63,0,1,1,169.41,128h0a26.62,26.62,0,0,1-26.62,26.63Z"/><rect id="Rectangle_1528" data-name="Rectangle 1528" class="cls-3" x="136.14" y="61.49" width="13.31" height="19.96"/><rect id="Rectangle_1529" data-name="Rectangle 1529" class="cls-3" x="96.11" y="78.06" width="13.31" height="19.96" transform="translate(-32.15 98.45) rotate(-45)"/><rect id="Rectangle_1530" data-name="Rectangle 1530" class="cls-3" x="76.24" y="121.38" width="19.96" height="13.31"/><rect id="Rectangle_1531" data-name="Rectangle 1531" class="cls-3" x="92.81" y="161.37" width="19.96" height="13.31" transform="translate(-88.7 121.9) rotate(-45)"/><rect id="Rectangle_1532" data-name="Rectangle 1532" class="cls-3" x="136.14" y="174.62" width="13.31" height="19.96"/><rect id="Rectangle_1533" data-name="Rectangle 1533" class="cls-3" x="176.14" y="158.06" width="13.31" height="19.96" transform="translate(-65.29 178.47) rotate(-45)"/><rect id="Rectangle_1534" data-name="Rectangle 1534" class="cls-3" x="189.37" y="121.38" width="19.96" height="13.31"/><rect id="Rectangle_1535" data-name="Rectangle 1535" class="cls-3" x="172.81" y="81.39" width="19.96" height="13.31" transform="translate(-8.72 155.04) rotate(-45)"/></g></g></svg>