<svg id="Layer_1" data-name="Layer 1" xmlns="http://www.w3.org/2000/svg" viewBox="0 0 30 30"><defs><style>.cls-1{opacity:0.6;}.cls-2{fill:#f2a437;}.cls-3{fill:#4869ef;}</style></defs><title>tour</title><g class="cls-1"><path class="cls-2" d="M19.54,10.84H16.17a.68.68,0,0,1-.07-.28.63.63,0,0,1,1.1-.42.29.29,0,0,0,.29.08.26.26,0,0,0,.19-.23,1.09,1.09,0,0,1,1.06-.94,1.07,1.07,0,0,1,1.07,1.07A1.06,1.06,0,0,1,19.54,10.84Z"/></g><g class="cls-1"><path class="cls-2" d="M16.68,20l2.21-4.76a.22.22,0,0,1,.4,0L22.45,22H17.38l-.71-1.32A.82.82,0,0,1,16.68,20Z"/></g><g class="cls-1"><path class="cls-2" d="M7.07,18.53,11,10.17a.38.38,0,0,1,.7,0L17.19,22H8.31L7.06,19.71A1.51,1.51,0,0,1,7.07,18.53Z"/></g><path class="cls-3" d="M22.37,23h2a.29.29,0,0,0,0-.57h-.75V19.94a2.42,2.42,0,0,0,2.11-2.38V14.14a2.4,2.4,0,0,0-4.79,0v3.42a2.41,2.41,0,0,0,2.11,2.38v2.49h-1C21.67,22.43,21.61,23,22.37,23Zm2.83-5.44a1.83,1.83,0,0,1-1.54,1.8V18.18l.76-.81a.3.3,0,0,0,0-.41.28.28,0,0,0-.4,0l-.34.36v-.91l.76-.81a.3.3,0,0,0,0-.41.28.28,0,0,0-.4,0l-.34.36V15.1a.29.29,0,1,0-.57,0v1.28l-.29-.31a.29.29,0,1,0-.42.39l.71.75v2.15a1.83,1.83,0,0,1-1.54-1.8V14.14a1.83,1.83,0,0,1,3.65,0Z"/><path class="cls-3" d="M19,10.84h-.45a1.76,1.76,0,0,0,.16-.72A1.62,1.62,0,0,0,15.6,9.5a1.13,1.13,0,0,0-.51-.12,1.18,1.18,0,0,0-1.18,1.18,1.14,1.14,0,0,0,.24.72.29.29,0,0,0,.22.11H19a.28.28,0,1,0,0-.55Zm-1.12,0H14.52a.67.67,0,0,1-.06-.28.63.63,0,0,1,.63-.63.64.64,0,0,1,.47.21.28.28,0,0,0,.29.08A.27.27,0,0,0,16,10a1.07,1.07,0,1,1,1.85.85Z"/><path class="cls-3" d="M21.69,22.52,19,16.72l-1-2.07a.3.3,0,0,0-.27-.18.31.31,0,0,0-.28.18l-1,2.07-1.49,3.22-3.93-8.65h0L10.19,9.2A.31.31,0,0,0,9.91,9a.29.29,0,0,0-.27.18L8.7,11.28h0L3.59,22.52a.3.3,0,0,0,0,.29.29.29,0,0,0,.25.14H21.42a.29.29,0,0,0,.25-.14A.28.28,0,0,0,21.69,22.52Zm-3.9-7,.59,1.28-.59.6-.6-.6ZM9.91,10.06l.59,1.28-.59.59-.58-.59ZM4.33,22.34,9.06,11.93l.64.64a.3.3,0,0,0,.21.09.31.31,0,0,0,.22-.09l.63-.64,4,8.86h0l.67,1.47,0,.08Zm11.83,0-.76-1.68,1.52-3.29.65.65a.31.31,0,0,0,.22.09A.3.3,0,0,0,18,18l.65-.65,2.3,5Z"/></svg>