<svg id="Layer_1" data-name="Layer 1" xmlns="http://www.w3.org/2000/svg" viewBox="0 0 30 30"><defs><style>.cls-1{opacity:0.6;}.cls-2{fill:#f2a437;}.cls-3{fill:#4869ef;}</style></defs><title>track booking</title><g class="cls-1"><path class="cls-2" d="M9.62,7.56a3.49,3.49,0,0,0-3.49,3.49,7.24,7.24,0,0,0,1.55,3.7,19.83,19.83,0,0,0,1.49,1.92.59.59,0,0,0,.45.2.61.61,0,0,0,.46-.2,21.83,21.83,0,0,0,1.49-1.92,7.3,7.3,0,0,0,1.54-3.7A3.49,3.49,0,0,0,9.62,7.56Z"/></g><g class="cls-1"><path class="cls-2" d="M21.75,13a3.49,3.49,0,0,0-3.49,3.49,7.21,7.21,0,0,0,1.55,3.7,20.7,20.7,0,0,0,1.48,1.92.61.61,0,0,0,.92,0,20.7,20.7,0,0,0,1.48-1.92,7.21,7.21,0,0,0,1.55-3.7A3.49,3.49,0,0,0,21.75,13Z"/></g><path class="cls-3" d="M7.79,9.13a3,3,0,0,1,3,3,6.28,6.28,0,0,1-1.34,3.21c-.64.93-1.27,1.64-1.29,1.67a.55.55,0,0,1-.4.18.53.53,0,0,1-.39-.18,17.81,17.81,0,0,1-1.3-1.67,6.28,6.28,0,0,1-1.34-3.21,3,3,0,0,1,3-3m0,4.44a1.41,1.41,0,1,0-1.41-1.4,1.41,1.41,0,0,0,1.41,1.4m0-5.14a3.74,3.74,0,0,0-3.73,3.74,6.88,6.88,0,0,0,1.46,3.61,18.84,18.84,0,0,0,1.35,1.74,1.25,1.25,0,0,0,.92.41,1.23,1.23,0,0,0,.92-.41,19.51,19.51,0,0,0,1.35-1.74,6.88,6.88,0,0,0,1.46-3.61A3.74,3.74,0,0,0,7.79,8.43Zm0,4.44a.7.7,0,1,1,.5-.2.7.7,0,0,1-.5.2Z"/><path class="cls-3" d="M16.34,18.12H15a1.41,1.41,0,0,1-1.26-1.51,2.28,2.28,0,0,0-2-2.45h-1c-.22.37-.43.7-.59.94h1.54A1.4,1.4,0,0,1,13,16.61a2.28,2.28,0,0,0,2,2.46h1.63Z"/><path class="cls-3" d="M19.73,14.35a3,3,0,0,1,3,3,6.31,6.31,0,0,1-1.34,3.22c-.64.93-1.27,1.64-1.29,1.67a.56.56,0,0,1-.4.17.54.54,0,0,1-.4-.17s-.65-.74-1.29-1.67a6.31,6.31,0,0,1-1.34-3.22,3,3,0,0,1,3-3m0,4.44a1.41,1.41,0,1,0-1.41-1.41,1.41,1.41,0,0,0,1.41,1.41m0-5.14A3.73,3.73,0,0,0,16,17.38,6.82,6.82,0,0,0,17.46,21a17.58,17.58,0,0,0,1.35,1.74,1.2,1.2,0,0,0,.92.41,1.22,1.22,0,0,0,.92-.41A21.92,21.92,0,0,0,22,21a6.82,6.82,0,0,0,1.46-3.61,3.73,3.73,0,0,0-3.73-3.73Zm0,4.44a.71.71,0,1,1,.71-.71.71.71,0,0,1-.71.71Z"/></svg>