<svg id="Layer_1" data-name="Layer 1" xmlns="http://www.w3.org/2000/svg" viewBox="0 0 35 35"><defs><style>.cls-1{fill:#fff;}</style></defs><title>Artboard 1</title><path class="cls-1" d="M20.44,10a13.28,13.28,0,0,1,2.14.5,14.38,14.38,0,0,1,3.48,1.58.47.47,0,0,0,.26.08h3.84l.31,0v0l-.18.28a7.63,7.63,0,0,0-1,2.13.27.27,0,0,0,0,.23,6.52,6.52,0,0,1-1.84,9.33,6.48,6.48,0,0,1-3.47,1,6.3,6.3,0,0,1-1.56-.2,6.59,6.59,0,0,1-3.2-1.89l-.35-.39c-.47.69-.93,1.37-1.4,2.08-.46-.7-.92-1.38-1.37-2.05l0,0,0,0a6.49,6.49,0,0,1-4,2.29,6.53,6.53,0,0,1-7.43-5.45,6.35,6.35,0,0,1,.12-2.58,6.49,6.49,0,0,1,1-2.2.31.31,0,0,0,0-.19,7.53,7.53,0,0,0-.92-2c-.1-.15-.22-.3-.33-.45v0h4a.34.34,0,0,0,.17-.05,13.91,13.91,0,0,1,2.93-1.42,15,15,0,0,1,2.27-.62,18.6,18.6,0,0,1,6.59-.1ZM18.8,18.67a5.2,5.2,0,1,0,5.08-5.17A5.2,5.2,0,0,0,18.8,18.67ZM11,13.48a5.19,5.19,0,1,0,5.2,5.21A5.19,5.19,0,0,0,11,13.48Zm.26-1.36a6.61,6.61,0,0,1,6.24,5.67,6.61,6.61,0,0,1,6.15-5.64,14.83,14.83,0,0,0-5.79-1.21A16,16,0,0,0,11.26,12.12Z"/><path class="cls-1" d="M24,15.39a3.22,3.22,0,1,1-3.22,3.22A3.22,3.22,0,0,1,24,15.39Zm2.1,3.22a2.11,2.11,0,0,0-4.21,0A2.12,2.12,0,0,0,24,20.71,2.1,2.1,0,0,0,26.08,18.61Z"/><path class="cls-1" d="M10.93,15.39A3.22,3.22,0,1,1,7.7,18.61,3.22,3.22,0,0,1,10.93,15.39ZM13,18.6a2.11,2.11,0,0,0-4.22,0,2.15,2.15,0,0,0,2.12,2.11A2.12,2.12,0,0,0,13,18.6Z"/><path class="cls-1" d="M24,17.54a1.07,1.07,0,1,1-1.07,1.08A1.06,1.06,0,0,1,24,17.54Z"/><path class="cls-1" d="M10.92,17.53a1.08,1.08,0,1,1,0,2.16,1.08,1.08,0,0,1,0-2.16Z"/></svg>