<svg id="Layer_1" data-name="Layer 1" xmlns="http://www.w3.org/2000/svg" viewBox="0 0 30 30"><defs><style>.cls-1{opacity:0.6;}.cls-2{fill:#f2a437;}.cls-3{fill:#fff;}.cls-4{fill:#4869ef;}</style></defs><title>visa</title><g class="cls-1"><path class="cls-2" d="M21.09,5H10.29A1.64,1.64,0,0,0,8.61,6.6V22a1.64,1.64,0,0,0,1.68,1.6h10.8A1.65,1.65,0,0,0,22.78,22V6.6A1.65,1.65,0,0,0,21.09,5Z"/></g><path class="cls-3" d="M19.52,5.71H8.88A1.67,1.67,0,0,0,7.22,7.38v16A1.67,1.67,0,0,0,8.88,25H19.52a1.67,1.67,0,0,0,1.67-1.66v-16A1.67,1.67,0,0,0,19.52,5.71Z"/><g class="cls-1"><path class="cls-2" d="M19.27,21.43h-8a.32.32,0,0,0-.33.32.33.33,0,0,0,.33.32h8a.32.32,0,0,0,.33-.32A.32.32,0,0,0,19.27,21.43Z"/><path class="cls-2" d="M19.27,20.15h-8a.33.33,0,0,0-.33.32.32.32,0,0,0,.33.32h8a.32.32,0,0,0,.33-.32A.32.32,0,0,0,19.27,20.15Z"/><path class="cls-2" d="M15.28,8.68A4.24,4.24,0,0,0,11,12.82,4.24,4.24,0,0,0,15.28,17a4.24,4.24,0,0,0,4.32-4.15A4.23,4.23,0,0,0,15.28,8.68Z"/></g><path class="cls-4" d="M19.52,5.71H8.88A1.67,1.67,0,0,0,7.22,7.38v16A1.67,1.67,0,0,0,8.88,25H19.52a1.67,1.67,0,0,0,1.67-1.66v-16A1.67,1.67,0,0,0,19.52,5.71Zm1,17.63a1,1,0,0,1-1,1H8.88a1,1,0,0,1-1-1v-16a1,1,0,0,1,1-1H19.52a1,1,0,0,1,1,1Z"/><path class="cls-4" d="M18.19,21.67h-8a.34.34,0,0,0,0,.67h8a.34.34,0,1,0,0-.67Z"/><path class="cls-4" d="M18.19,20.34h-8a.34.34,0,0,0,0,.67h8a.34.34,0,1,0,0-.67Z"/><path class="cls-4" d="M14.2,8.37a4.33,4.33,0,1,0,4.33,4.33A4.33,4.33,0,0,0,14.2,8.37Zm3.52,3.32a6.09,6.09,0,0,0-2-.55,6.09,6.09,0,0,0-.55-2A3.68,3.68,0,0,1,17.72,11.69Zm-1.89,1.89a8.64,8.64,0,0,0,0-.88,8.51,8.51,0,0,0,0-.88c1.33.2,2,.63,2,.88S17.16,13.37,15.83,13.58ZM14.2,16.35c-.25,0-.67-.7-.87-2l.87,0c.3,0,.59,0,.88,0C14.88,15.65,14.45,16.35,14.2,16.35Zm0-2.66a9.39,9.39,0,0,1-.95,0,9.39,9.39,0,0,1,0-1,9.59,9.59,0,0,1,0-1,9.39,9.39,0,0,1,.95,0,9.46,9.46,0,0,1,1,0,9.59,9.59,0,0,1,0,1,9.39,9.39,0,0,1,0,1A9.46,9.46,0,0,1,14.2,13.69Zm-3.65-1c0-.25.7-.68,2-.88a8.51,8.51,0,0,0,0,.88,8.64,8.64,0,0,0,0,.88C11.25,13.37,10.55,13,10.55,12.7ZM14.2,9c.25,0,.68.71.88,2-.29,0-.58,0-.88,0s-.58,0-.87,0C13.53,9.75,14,9,14.2,9Zm-1,.14a6.1,6.1,0,0,0-.54,2,6.09,6.09,0,0,0-2,.55A3.69,3.69,0,0,1,13.19,9.18Zm-2.5,4.53a6.35,6.35,0,0,0,2,.55,5.85,5.85,0,0,0,.55,2A3.69,3.69,0,0,1,10.69,13.71Zm4.52,2.5a5.85,5.85,0,0,0,.55-2,6.35,6.35,0,0,0,2-.55A3.69,3.69,0,0,1,15.21,16.21Z"/></svg>