<svg xmlns="http://www.w3.org/2000/svg" width="31" height="31" viewBox="0 0 31 31">
  <g id="Group_5008" data-name="Group 5008" transform="translate(-0.221)">
    <circle id="Ellipse_260" data-name="Ellipse 260" cx="15.5" cy="15.5" r="15.5" transform="translate(0.221)" fill="none"/>
    <g id="meal_1_" data-name="meal (1)" transform="translate(6.979 5.939)">
      <g id="Group_4949" data-name="Group 4949" transform="translate(0 10.241)">
        <g id="Group_4948" data-name="Group 4948">
          <path id="Path_6593" data-name="Path 6593" d="M39.564,286.515a.869.869,0,0,0-1.213-.1l-2.524,2.1a2.711,2.711,0,0,1-1.735.628H31.107a.813.813,0,0,1,0-1.626h2.865a.813.813,0,0,0,0-1.626H29.216a2.547,2.547,0,0,0-2.209,1.279l-.364.634a5.336,5.336,0,0,1-.927,1.187l-1.49,1.434,2.146,3.566,1.438-1.345a1.968,1.968,0,0,1,1.344-.531h3.794a3.758,3.758,0,0,0,2.436-.9l4.061-3.456A.888.888,0,0,0,39.564,286.515Z" transform="translate(-24.226 -285.894)" fill="#3e3e3e"/>
        </g>
      </g>
      <g id="Group_4951" data-name="Group 4951" transform="translate(0.319)">
        <g id="Group_4950" data-name="Group 4950">
          <path id="Path_6594" data-name="Path 6594" d="M48.111,7.782a6.867,6.867,0,0,0-5.474-6.107,1.383,1.383,0,1,0-2.7,0,6.867,6.867,0,0,0-5.474,6.107H33.143V9.006H49.429V7.782Z" transform="translate(-33.143)" fill="#3e3e3e"/>
        </g>
      </g>
    </g>
  </g>
</svg>
