<svg id="Layer_1" data-name="Layer 1" xmlns="http://www.w3.org/2000/svg" viewBox="0 0 128 128"><defs><style>.cls-1{fill:#fff;}</style></defs><title>mmk</title><path class="cls-1" d="M61.14,17.7c9.48-.18,18.68,3.23,27.45,10.17H79l2.73,7h20.24V18.8l-7-2.74v7.11C84.2,13.5,72.68,8.75,61,9,39.09,9.53,23.63,27,23,27.69l3.25,7.22C26.38,34.74,41.14,18.16,61.14,17.7Z"/><path class="cls-1" d="M63.76,110.3c-9.48.18-18.67-3.23-27.44-10.17H46l-2.74-7H23V109.2L30,111.94v-7.11C40.7,114.5,52.22,119.25,63.9,119c21.92-.52,37.38-17.94,38-18.68l-3.24-7.22C98.53,93.26,83.77,109.84,63.76,110.3Z"/><polygon class="cls-1" points="35.96 57.93 35.96 79.2 42.36 79.2 42.36 47.65 34.43 47.65 25.27 66.94 16.08 47.65 8.1 47.65 8.1 79.2 14.54 79.2 14.54 57.93 22.93 76 27.57 76 35.96 57.93"/><polygon class="cls-1" points="83.61 79.2 83.61 47.65 75.68 47.65 66.53 66.94 57.33 47.65 49.35 47.65 49.35 79.2 55.79 79.2 55.79 57.93 64.18 76 68.82 76 77.21 57.93 77.21 79.2 83.61 79.2"/><polygon class="cls-1" points="107.23 60.81 119.09 47.65 110.84 47.65 97.72 61.98 97.72 47.65 90.6 47.65 90.6 79.2 97.72 79.2 97.72 71.41 102.28 66.36 111.34 79.2 119.9 79.2 107.23 60.81"/></svg>