<svg id="iconfinder_weather-07_1530387" xmlns="http://www.w3.org/2000/svg" width="23.082" height="21.071" viewBox="0 0 23.082 21.071">
  <path id="Path_5802" data-name="Path 5802" d="M171.634,184h1.659l.378-.362a.533.533,0,0,1,.739,0l.378.362h1.659a.494.494,0,0,1,.5-.522h1.975a5.674,5.674,0,0,0-3.783-8.488,5.7,5.7,0,0,0-6.007,8.489h1.995A.494.494,0,0,1,171.634,184Z" transform="translate(-162.499 -169.041)" fill="#67a7ff"/>
  <path id="Path_5803" data-name="Path 5803" d="M155.295,163.755a5.693,5.693,0,0,1,10.562,2.951.523.523,0,0,1,1.044,0,6.737,6.737,0,1,0-12.819,2.9h1.175A5.768,5.768,0,0,1,155.295,163.755Z" transform="translate(-148.623 -155.166)" fill="#3e3e3e"/>
  <path id="Path_5804" data-name="Path 5804" d="M331.77,249.936a.523.523,0,0,0,1.044,0A.523.523,0,0,0,331.77,249.936Z" transform="translate(-314.536 -238.395)" fill="#3e3e3e"/>
  <path id="Path_5805" data-name="Path 5805" d="M320.978,256.69a5.813,5.813,0,0,1-.808,2.9h1.172a6.8,6.8,0,0,0,.681-2.9A.523.523,0,0,1,320.978,256.69Z" transform="translate(-303.743 -245.149)" fill="#3e3e3e"/>
  <path id="Path_5806" data-name="Path 5806" d="M243.544,93.783V91.439a.523.523,0,0,0-1.044,0v2.343A.523.523,0,0,0,243.544,93.783Zm-.522-2.344Z" transform="translate(-231.481 -90.935)" fill="#3e3e3e"/>
  <path id="Path_5807" data-name="Path 5807" d="M165.275,114.275l-1.172-2.03a.524.524,0,0,0-.905.527l1.172,2.03A.524.524,0,0,0,165.275,114.275Zm-.451.264-1.172-2.03Z" transform="translate(-157.633 -110.526)" fill="#3e3e3e"/>
  <path id="Path_5808" data-name="Path 5808" d="M105.554,170.9l2.03,1.172a.524.524,0,0,0,.527-.905L106.081,170A.521.521,0,0,0,105.554,170.9Zm.264-.451,2.03,1.172Z" transform="translate(-103.834 -164.423)" fill="#3e3e3e"/>
  <path id="Path_5809" data-name="Path 5809" d="M84.749,250.234h2.343a.523.523,0,0,0,0-1.044H84.749A.523.523,0,0,0,84.749,250.234Zm0-.522Z" transform="translate(-84.245 -238.171)" fill="#3e3e3e"/>
  <path id="Path_5810" data-name="Path 5810" d="M370.462,249.19h-2.343a.523.523,0,0,0,0,1.044h2.343A.523.523,0,0,0,370.462,249.19Zm-2.343.522Z" transform="translate(-347.885 -238.171)" fill="#3e3e3e"/>
  <path id="Path_5811" data-name="Path 5811" d="M351.491,172.015l2.03-1.172a.524.524,0,0,0-.527-.905l-2.03,1.172A.524.524,0,0,0,351.491,172.015Zm1.766-1.622-2.03,1.172Z" transform="translate(-332.158 -164.37)" fill="#3e3e3e"/>
  <path id="Path_5812" data-name="Path 5812" d="M305.893,114.8l1.172-2.03a.524.524,0,0,0-.905-.527l-1.165,2.03A.521.521,0,0,0,305.893,114.8Zm.721-2.293-1.172,2.03Z" transform="translate(-289.554 -110.524)" fill="#3e3e3e"/>
  <path id="Path_5813" data-name="Path 5813" d="M293.1,298.35h-8.043a.523.523,0,0,0,0,1.044H293.1A.523.523,0,0,0,293.1,298.35Z" transform="translate(-270.603 -283.908)" fill="#3e3e3e"/>
  <path id="Path_5814" data-name="Path 5814" d="M91.433,299.394h2.55a.523.523,0,0,0,0-1.044H85.939a.523.523,0,0,0,0,1.044h5.493Z" transform="translate(-85.352 -283.908)" fill="#3e3e3e"/>
  <path id="Path_5815" data-name="Path 5815" d="M135.537,301.293h-5.594l-.606-.58-1.766-1.691-.378-.362a.532.532,0,0,0-.739,0l-.378.362-1.753,1.677-.62.592h-5.593a.523.523,0,0,0,0,1.044h4.3c.5,0,1.008.034,1.5,0a1.076,1.076,0,0,0,.642-.412l.07-.065.04-.041.746-.714.123-.118,1.289-1.232c.463.453.923.914,1.393,1.365.244.235.487.469.74.7l.145.129c.086.077.172.155.26.23.348.3,1.106.163,1.532.163h4.652A.523.523,0,0,0,135.537,301.293Z" transform="translate(-115.282 -284.059)" fill="#3e3e3e"/>
  <path id="Path_5816" data-name="Path 5816" d="M160.2,378.57H146.759a.522.522,0,0,0,0,1.044H160.2A.522.522,0,0,0,160.2,378.57Z" transform="translate(-141.937 -358.543)" fill="#3e3e3e"/>
</svg>
