<svg id="Icon" xmlns="http://www.w3.org/2000/svg" viewBox="0 0 512 512"><defs><style>.cls-1{fill:#f2a437;opacity:0.6;}.cls-2{fill:#4869ef;}</style></defs><title>17_My Account</title><path class="cls-1" d="M281.76,286.73c-46.13,0-88,16.5-115,30.36-.44.23-.87.48-1.31.73A138.73,138.73,0,0,0,402,320.45c-1.56-1-3.81-2.63-5.25-3.37C369.73,303.23,327.89,286.73,281.76,286.73Z"/><circle class="cls-1" cx="283.72" cy="209.3" r="59.11"/><path class="cls-2" d="M246.36,273.41a64.11,64.11,0,1,1,64.1-64.11A64.18,64.18,0,0,1,246.36,273.41Zm0-118.21a54.11,54.11,0,1,0,54.1,54.1A54.16,54.16,0,0,0,246.36,155.2Z"/><path class="cls-2" d="M249.13,390.73c-79.24,0-143.71-64.46-143.71-143.71s64.47-143.71,143.71-143.71S392.84,167.78,392.84,247,328.37,390.73,249.13,390.73Zm0-277.42c-73.73,0-133.71,60-133.71,133.71s60,133.71,133.71,133.71,133.71-60,133.71-133.71S322.86,113.31,249.13,113.31Z"/><path class="cls-2" d="M248.86,390.3a143.65,143.65,0,0,1-123.32-69.91L122.89,316l4.81-2.7c.38-.21.76-.43,1.15-.63,27.46-14.1,70.1-30.91,117.24-30.91s89.77,16.81,117.23,30.9a53.39,53.39,0,0,1,4.65,2.92l1.08.73,4.07,2.7-2.6,4.13A143.1,143.1,0,0,1,248.86,390.3ZM136.94,319.76a133.73,133.73,0,0,0,222.43,2.12c-.23-.14-.44-.26-.62-.35-26.48-13.59-67.52-29.8-112.66-29.8C202.9,291.73,163.46,306.57,136.94,319.76Z"/></svg>