<svg id="Layer_1" data-name="Layer 1" xmlns="http://www.w3.org/2000/svg" viewBox="0 0 128 128"><defs><style>.cls-1{fill:#fecb00;}.cls-2{fill:#fff;}.cls-3{fill:#34b233;}.cls-4{fill:#ea2839;}</style></defs><title>myanmar_language</title><rect id="Rectangle_1930" data-name="Rectangle 1930" class="cls-1" x="9" y="27.33" width="110" height="73.33"/><path id="Rectangle_1930-2" data-name="Rectangle 1930" class="cls-2" d="M119,27.33v73.34H9V27.33H119m0-7H9a7,7,0,0,0-7,7v73.34a7,7,0,0,0,7,7H119a7,7,0,0,0,7-7V27.33a7,7,0,0,0-7-7Z"/><g id="Group_4269" data-name="Group 4269"><rect id="Rectangle_1931" data-name="Rectangle 1931" class="cls-3" x="9" y="51.33" width="110" height="49.34"/><rect id="Rectangle_1932" data-name="Rectangle 1932" class="cls-4" x="9" y="76.15" width="110" height="24.51"/><g id="Group_4273" data-name="Group 4273"><path id="pt" class="cls-2" d="M55.18,66.58,64,39.49l8.8,27.09Z"/><g id="Group_4269-2" data-name="Group 4269-2"><path id="Path_6181" data-name="Path 6181" class="cls-2" d="M71.12,71.76,48.07,88.5l8.8-27.09Z"/></g><g id="Group_4270" data-name="Group 4270"><path id="Path_6182" data-name="Path 6182" class="cls-2" d="M61.28,75,38.23,58.21H66.72Z"/></g><g id="Group_4271" data-name="Group 4271"><path id="Path_6183" data-name="Path 6183" class="cls-2" d="M61.28,58.21H89.77L66.72,75Z"/></g><g id="Group_4272" data-name="Group 4272"><path id="Path_6184" data-name="Path 6184" class="cls-2" d="M71.14,61.41,80,88.5,56.9,71.76Z"/></g></g></g></svg>