<svg id="Icon" xmlns="http://www.w3.org/2000/svg" viewBox="0 0 512 512"><defs><style>.cls-1{opacity:0.6;}.cls-2{fill:#f2a437;}.cls-3{fill:#4869ef;}</style></defs><title>12_Nationality</title><g class="cls-1"><path class="cls-2" d="M301,221.58H236.28a18.22,18.22,0,0,0-18.21,18.2v44A18.22,18.22,0,0,0,236.28,302h.77v66.23h0a3.42,3.42,0,0,0,3.41,3.42h56.39a3.4,3.4,0,0,0,3.39-3.44V302H301a18.21,18.21,0,0,0,18.2-18.2v-44A18.21,18.21,0,0,0,301,221.58Z"/><path class="cls-2" d="M268.63,207.34A33.68,33.68,0,1,0,235,173.66,33.7,33.7,0,0,0,268.63,207.34Z"/></g><path class="cls-3" d="M219.55,376a7.8,7.8,0,0,1-7.79-7.79V306a22.62,22.62,0,0,1-19-22.2v-44a22.64,22.64,0,0,1,22.58-22.59H280.1a22.65,22.65,0,0,1,22.59,22.59v44a22.67,22.67,0,0,1-19,22.29V368.2A7.77,7.77,0,0,1,276,376Zm55.4-7.78Zm-54.44-1H275V297.61h4.38c8.38,0,14.59-6.23,14.6-13.83v-44A13.88,13.88,0,0,0,280.1,226H215.36a13.89,13.89,0,0,0-13.83,13.83v44a13.91,13.91,0,0,0,13.83,13.83h4.38l.77,4.37Z"/><path class="cls-3" d="M247.71,212.11h0a38.06,38.06,0,1,1,38.06-38.06A38.08,38.08,0,0,1,247.71,212.11Zm0-67.35A29.3,29.3,0,1,0,277,174.05,29.35,29.35,0,0,0,247.73,144.76Z"/></svg>