<svg xmlns="http://www.w3.org/2000/svg" width="18.629" height="16.763" viewBox="0 0 18.629 16.763">
  <g id="Group_4764" data-name="Group 4764" transform="translate(0 0)">
    <path id="Path_6457" data-name="Path 6457" d="M2.577-212.431c-2.844,0-5.688,0-8.532,0-.588,0-.783-.09-.78-.77q.019-4.9,0-9.792a.632.632,0,0,1,.391-.639c.755-.382,1.5-.787,2.248-1.176a.259.259,0,0,0,.161-.269c0-1.176,0-2.353,0-3.529,0-.428.155-.587.582-.588H8.456c.5,0,.641.147.641.651,0,1.157,0,2.314,0,3.471a.255.255,0,0,0,.161.266c.768.4,1.529.808,2.3,1.2a.576.576,0,0,1,.34.573q-.006,5,0,10.006c0,.421-.164.586-.587.586H2.577Zm-5.583-15.818v.25c0,1.932,0,3.865,0,5.8a.354.354,0,0,0,.218.371q2.6,1.356,5.193,2.731a.331.331,0,0,0,.353,0Q5.372-220.484,8-221.857a.271.271,0,0,0,.172-.28q-.007-2.956,0-5.914c0-.062-.005-.125-.009-.2Zm-.94,4.417-1.319.694,1.319.693ZM9.1-222.442l1.322-.7L9.1-223.83Z" transform="translate(6.735 229.19)" fill="#fff"/>
    <path id="Path_6458" data-name="Path 6458" d="M8.615-218.582c-1.059,0-2.119,0-3.178,0-.335,0-.536-.172-.543-.449a.452.452,0,0,1,.378-.468,1.37,1.37,0,0,1,.231-.014h6.221c.395,0,.613.164.615.459s-.219.473-.623.473h-3.1Z" transform="translate(0.7 224.168)" fill="#fff"/>
    <path id="Path_6459" data-name="Path 6459" d="M8.6-222.452c-1.053,0-2.106,0-3.158,0-.343,0-.547-.179-.547-.465a.45.45,0,0,1,.375-.45,1.332,1.332,0,0,1,.232-.014h6.219c.4,0,.611.16.618.457s-.216.474-.62.474Z" transform="translate(0.698 226.176)" fill="#fff"/>
    <path id="Path_6460" data-name="Path 6460" d="M9.609-214.708c-.749,0-1.5,0-2.247,0-.329,0-.529-.181-.531-.461a.45.45,0,0,1,.37-.454,1.029,1.029,0,0,1,.192-.015q2.218,0,4.436,0a1.029,1.029,0,0,1,.249.025.46.46,0,0,1,.335.447.461.461,0,0,1-.365.442,1.4,1.4,0,0,1-.251.016H9.609Z" transform="translate(-0.307 222.158)" fill="#fff"/>
  </g>
</svg>
