<svg id="Icon" xmlns="http://www.w3.org/2000/svg" viewBox="0 0 512 512"><defs><style>.cls-1{fill:#1e7dff;}.cls-2{fill:#333;}.cls-3{fill:#fff;}</style></defs><title>21_Online Banking</title><polygon class="cls-1" points="233.97 366.24 238.37 366.24 273.63 366.24 278.04 366.24 278.04 380.78 233.97 380.78 233.97 366.24"/><path class="cls-2" d="M442.24,180H69.76a6.56,6.56,0,0,1,0-13.11H442.24a6.56,6.56,0,0,1,0,13.11Z"/><path class="cls-2" d="M94.56,392.81A6.56,6.56,0,0,1,88,386.25V175.15a6.55,6.55,0,1,1,13.1,0v211.1A6.56,6.56,0,0,1,94.56,392.81Z"/><path class="cls-2" d="M129.93,392.81a6.56,6.56,0,0,1-6.55-6.56V175.15a6.55,6.55,0,1,1,13.1,0v211.1A6.56,6.56,0,0,1,129.93,392.81Z"/><path class="cls-1" d="M148.55,359.16v21.62H75.93v-21.5a7.28,7.28,0,0,1,7.34-7.2h58.07A7.15,7.15,0,0,1,148.55,359.16Z"/><path class="cls-2" d="M238.87,392.81a6.56,6.56,0,0,1-6.55-6.56V175.15a6.55,6.55,0,1,1,13.1,0v211.1A6.56,6.56,0,0,1,238.87,392.81Z"/><path class="cls-2" d="M273.14,392.81a6.56,6.56,0,0,1-6.55-6.56V175.15a6.55,6.55,0,1,1,13.1,0v211.1A6.56,6.56,0,0,1,273.14,392.81Z"/><path class="cls-1" d="M292.31,359.16v21.62H219.69v-21.5a7.28,7.28,0,0,1,7.34-7.2H285.1A7.15,7.15,0,0,1,292.31,359.16Z"/><path class="cls-2" d="M382.35,392.81a6.56,6.56,0,0,1-6.55-6.56V175.15a6.55,6.55,0,1,1,13.1,0v211.1A6.56,6.56,0,0,1,382.35,392.81Z"/><path class="cls-2" d="M417.17,392.81a6.56,6.56,0,0,1-6.55-6.56V175.15a6.55,6.55,0,1,1,13.1,0v211.1A6.56,6.56,0,0,1,417.17,392.81Z"/><path class="cls-1" d="M436.07,359.16v21.62H363.45v-21.5a7.28,7.28,0,0,1,7.34-7.2h58.06A7.15,7.15,0,0,1,436.07,359.16Z"/><path class="cls-1" d="M452.19,132.66,257,61.26a9.08,9.08,0,0,0-4.85,0L57.75,132.66c-3.09,1.32-5.29,4.41-4.41,7.93A6.67,6.67,0,0,0,60,146.32H449.54a7.54,7.54,0,0,0,7.06-5.73A7.4,7.4,0,0,0,452.19,132.66Z"/><path class="cls-3" d="M67.44,415.54a5.16,5.16,0,0,1-5.16-5.16V392a5.16,5.16,0,0,1,5.16-5.16H441.19a5.16,5.16,0,0,1,5.17,5.16v18.41a5.16,5.16,0,0,1-5.17,5.16"/><path class="cls-2" d="M441.19,422.1V409a1.38,1.38,0,0,0-1.38,1.39v-17h-371v17A1.39,1.39,0,0,0,67.44,409V422.1a11.73,11.73,0,0,1-11.71-11.72V392a11.73,11.73,0,0,1,11.71-11.72H441.19A11.74,11.74,0,0,1,452.91,392v18.41A11.74,11.74,0,0,1,441.19,422.1Z"/><path class="cls-3" d="M43.42,444.51c-3.24,0-5.87-2.31-5.87-5.17v-18.4c0-2.86,2.63-5.17,5.87-5.17H468.58c3.24,0,5.87,2.31,5.87,5.17v18.4c0,2.86-2.63,5.17-5.87,5.17Z"/><path class="cls-2" d="M468.58,451.07H43.43c-6.86,0-12.43-5.26-12.43-11.73v-18.4c0-6.46,5.57-11.72,12.43-11.72H468.58c6.85,0,12.42,5.26,12.42,11.72v18.4C481,445.81,475.43,451.07,468.58,451.07ZM44.1,438H467.9V422.33H44.1Z"/></svg>