<svg id="Icon" xmlns="http://www.w3.org/2000/svg" viewBox="0 0 512 512"><defs><style>.cls-1{fill:#fff;}.cls-2{fill:#333;}.cls-3{fill:#1e7dff;}</style></defs><title>22_Other Channel</title><rect class="cls-1" x="95.04" y="138.09" width="369.4" height="191.86"/><path class="cls-2" d="M471,336.51H88.48v-205H471ZM101.59,323.39H457.88V144.65H101.59Z"/><rect class="cls-1" x="47.55" y="182.05" width="369.4" height="191.86"/><path class="cls-2" d="M423.51,380.48H41v-205H423.51ZM54.12,367.35H410.4V188.61H54.12Z"/><path class="cls-3" d="M385.52,259.31a48.89,48.89,0,0,1-48.88-48.88c0-.14,0-.27,0-.41H126.54c0,.14,0,.27,0,.41a48.89,48.89,0,0,1-48.87,48.88v36.57a48.89,48.89,0,0,1,48.87,48.88c0,.4,0,.78-.06,1.18H336.7c0-.4-.06-.78-.06-1.18a48.88,48.88,0,0,1,48.88-48.88c.44,0,.86.05,1.3.06v-36.7C386.38,259.26,386,259.31,385.52,259.31ZM232.26,327.24A49.26,49.26,0,1,1,281.51,278,49.26,49.26,0,0,1,232.26,327.24Z"/><path class="cls-2" d="M239.05,292.19a7.35,7.35,0,0,0-1.56-5,15.56,15.56,0,0,0-5.52-3.49q-9.65-3.85-14-7.79t-4.39-11.59a15.11,15.11,0,0,1,4.66-11.39q4.65-4.47,12.43-5.21v-8.62h6.49v8.78a18.22,18.22,0,0,1,11.65,6.06q4.3,5,4.17,12.71l-.08.2H239.33q0-4.45-1.72-6.64A5.52,5.52,0,0,0,233,258a5.05,5.05,0,0,0-4.28,1.8,7.27,7.27,0,0,0-1.4,4.58,6.86,6.86,0,0,0,1.49,4.58,16,16,0,0,0,5.58,3.56q9.48,4.05,14,8.07t4.45,11.5q0,7.13-4.48,11.45t-12,5.11v8.22h-6.49v-8.26a22.12,22.12,0,0,1-13.16-5.54q-5.25-4.75-5.08-14l.12-.25h13.46q0,5.08,2.2,7.3a7.69,7.69,0,0,0,5.73,2.23,5.64,5.64,0,0,0,4.46-1.72A6.57,6.57,0,0,0,239.05,292.19Z"/></svg>