<svg id="Icon" xmlns="http://www.w3.org/2000/svg" viewBox="0 0 512 512"><defs><style>.cls-1{fill:#fff;}.cls-2{fill:#333;}.cls-3{fill:#1e7dff;}</style></defs><title>19_Oway Pay</title><rect class="cls-1" x="87.34" y="181.11" width="306.67" height="212.9" rx="1.43"/><path class="cls-2" d="M378.92,400.36H102.42A21.45,21.45,0,0,1,81,378.93V196.19a21.45,21.45,0,0,1,21.42-21.42h276.5a21.45,21.45,0,0,1,21.43,21.42V378.93A21.45,21.45,0,0,1,378.92,400.36Zm-276.5-212.9a8.75,8.75,0,0,0-8.74,8.73V378.93a8.75,8.75,0,0,0,8.74,8.73h276.5a8.74,8.74,0,0,0,8.75-8.73V196.19a8.75,8.75,0,0,0-8.75-8.73Z"/><rect class="cls-1" x="125.94" y="137.78" width="285.44" height="148.25" rx="1.05" transform="translate(-71.73 177) rotate(-32.41)"/><path class="cls-2" d="M191.37,353.11A17.54,17.54,0,0,1,176.59,345L109,238.61a17.5,17.5,0,0,1,5.39-24.11L336.65,73.43a17.27,17.27,0,0,1,13.16-2.3,17.45,17.45,0,0,1,10.94,7.68l67.54,106.4a17.48,17.48,0,0,1-5.39,24.09L200.68,350.38A17.3,17.3,0,0,1,191.37,353.11ZM346,83.4a4.67,4.67,0,0,0-2.53.74L121.23,225.22a4.78,4.78,0,0,0-1.47,6.58l67.55,106.39a4.76,4.76,0,0,0,6.57,1.48L416.1,198.59a4.78,4.78,0,0,0,1.47-6.58L350,85.62a4.8,4.8,0,0,0-4-2.22Z"/><path class="cls-3" d="M360.92,136.25a37.78,37.78,0,0,1-52.14-11.64l-.15-.27-137.08,87c.06.09.13.17.18.25a37.78,37.78,0,0,1-11.63,52.13l15.15,23.86a37.77,37.77,0,0,1,52.12,11.65c.16.26.29.53.45.79L364.94,213c-.17-.26-.36-.49-.52-.75a37.77,37.77,0,0,1,11.64-52.13c.29-.18.58-.32.87-.49l-15.2-24C361.46,135.86,361.2,136.07,360.92,136.25ZM289.06,244a38.06,38.06,0,1,1,11.74-52.53A38.06,38.06,0,0,1,289.06,244Z"/><path class="cls-2" d="M279,218.36a5.72,5.72,0,0,0-3.09-2.62,12,12,0,0,0-5.05,0q-7.89,1.49-12.38.73t-7.67-5.74a11.7,11.7,0,0,1-1.67-9.36,15.45,15.45,0,0,1,5.95-8.54l-3.58-5.63,4.24-2.69,3.64,5.73a13.54,13.54,0,0,1,18.09,5.69l0,.17-8.82,5.6a8.29,8.29,0,0,0-3.87-3.62,4.28,4.28,0,0,0-3.9.47,3.92,3.92,0,0,0-2,2.95,5.61,5.61,0,0,0,1,3.57,5.28,5.28,0,0,0,2.86,2.36,12.24,12.24,0,0,0,5.12,0c5.24-.86,9.39-1,12.44-.51s5.6,2.41,7.67,5.67a11.76,11.76,0,0,1,1.82,9.32,15.13,15.13,0,0,1-5.74,8.32l3.4,5.36-4.23,2.69-3.42-5.39a17.13,17.13,0,0,1-10.88,1.84q-5.4-.94-9.09-7l0-.21,8.78-5.57c1.4,2.2,2.89,3.49,4.46,3.85a6,6,0,0,0,4.66-.92,4.39,4.39,0,0,0,2.2-3A5.18,5.18,0,0,0,279,218.36Z"/><rect class="cls-1" x="181.26" y="246.72" width="44.19" height="11.46" transform="translate(-103.63 148.31) rotate(-32.41)"/><rect class="cls-1" x="87.34" y="222.05" width="306.67" height="212.9" rx="1.43"/><path class="cls-2" d="M378.92,441.3H102.42A21.45,21.45,0,0,1,81,419.87V237.13a21.45,21.45,0,0,1,21.42-21.43h276.5a21.46,21.46,0,0,1,21.43,21.43V419.87A21.46,21.46,0,0,1,378.92,441.3ZM102.42,228.4a8.75,8.75,0,0,0-8.74,8.73V419.87a8.75,8.75,0,0,0,8.74,8.73h276.5a8.74,8.74,0,0,0,8.75-8.73V237.13a8.75,8.75,0,0,0-8.75-8.73Z"/><path class="cls-3" d="M422.18,363.58H343.73a15.13,15.13,0,0,1-15.09-15.09v-40a15.13,15.13,0,0,1,15.09-15.08h78.45Z"/></svg>