<svg xmlns="http://www.w3.org/2000/svg" viewBox="0 0 45 45"><path d="M45,30c0,8.3-6.7,15-15,15H15C6.7,45,0,38.3,0,30V15C0,6.7,6.7,0,15,0h15c8.3,0,15,6.7,15,15V30z" fill="#0A56BB"/><g fill-rule="evenodd"><path d="M22.5 10.9c4.2-.2 8.2 3.4 8.7 8 .3 2.7-.3 5.1-2 7.3-4 5-11.6 4.1-14.5-1.6-2.3-4.6-.6-10.3 3.8-12.7 1.2-.7 2.5-1 4-1zm7 9.2c0-1.9-.6-3.6-1.8-5-2.4-2.8-6.3-3.3-9.1-1.2-3.6 2.7-4.1 8.3-1 11.6 2.5 2.7 6.5 3 9.2.7 1.9-1.6 2.7-3.7 2.7-6.1z" fill="#fff"/><path d="M14.2 28.2c5.5 4.9 11.1 4.7 16.7.1 0 .8.2 1.5-.5 2.1-1.9 1.7-3.9 3.1-6.4 3.5-2.3.4-4.4-.1-6.3-1.2-1-.6-1.9-1.4-2.8-2.1-.8-.6-.9-1.4-.7-2.4z" fill="#F1A337"/></g></svg>