<svg xmlns="http://www.w3.org/2000/svg" width="55" height="40" viewBox="0 0 55 40"><defs><style>.a{fill:#fff;}.b{fill:#0091c7;}</style></defs><g transform="translate(-5964 -2451)"><rect class="a" width="55" height="40" rx="4" transform="translate(5964 2451)"/><g transform="translate(5963.784 2452.356)"><g transform="translate(9.371 24.859)"><path d="M12.921,37.132a3.134,3.134,0,0,1-2.4.375,1.276,1.276,0,0,1-1.119-1.6c.17-1.1.364-2.2.572-3.292a.893.893,0,0,1,.3-.538.661.661,0,0,1,.579-.037.593.593,0,0,1,.187.505c-.164,1.07-.363,2.135-.554,3.2-.12.673.125.982.809,1.011.9.037,1.248-.3,1.425-1.36.158-.948.3-1.9.484-2.841a.9.9,0,0,1,.342-.51.54.54,0,0,1,.494-.015.55.55,0,0,1,.2.453c-.166,1.07-.355,2.137-.558,3.2-.129.678.13,1.041.814,1.073a1.172,1.172,0,0,0,1.377-1.14c.173-1.038.362-2.074.556-3.108a.594.594,0,0,1,.668-.556c.417.045.388.391.34.676-.188,1.127-.363,2.26-.611,3.376a2.047,2.047,0,0,1-2.007,1.581A2.53,2.53,0,0,1,12.921,37.132Z" transform="translate(-9.371 -31.927)"/><path d="M41.417,37.495c-.093.468-.172.949-.288,1.421-.1.4-.43.624-.729.5-.347-.139-.31-.407-.25-.727.3-1.618.608-3.237.858-4.865a2.121,2.121,0,0,1,2.137-1.873,3.809,3.809,0,0,1,1.269.135c.7.2.983.752.857,1.654-.1.739-.234,1.476-.4,2.2a2.123,2.123,0,0,1-2.157,1.635C42.293,37.588,41.867,37.528,41.417,37.495Zm1.21-.738a1.14,1.14,0,0,0,1.251-.983c.136-.706.288-1.412.352-2.125a.9.9,0,0,0-.33-.722,1.247,1.247,0,0,0-1.853.9c-.107.618-.2,1.238-.3,1.856C41.613,36.444,41.868,36.756,42.627,36.757Z" transform="translate(-17.953 -31.927)"/><path d="M35.063,35.366c-.026.114-.043.2-.066.286-.191.714.087,1.087.836,1.1.539.01,1.078.006,1.617,0,.232,0,.5.022.451.3-.032.192-.254.5-.4.5a16.975,16.975,0,0,1-2.661-.1c-.754-.107-1.081-.835-.922-1.739.121-.691.239-1.383.368-2.072A2.148,2.148,0,0,1,36.4,31.946a3.518,3.518,0,0,1,.914.05,1.372,1.372,0,0,1,1.223,1.829c-.056.33-.119.659-.179.989a.586.586,0,0,1-.656.556C36.824,35.356,35.948,35.366,35.063,35.366Zm.122-.833c.688,0,1.3.012,1.917-.012a.428.428,0,0,0,.3-.245,1.453,1.453,0,0,0,.1-.676,1.025,1.025,0,0,0-.31-.657,1.234,1.234,0,0,0-1.84.719C35.307,33.931,35.251,34.2,35.185,34.532Z" transform="translate(-16.214 -31.924)"/><path d="M23.921,35.382H21.773c-.1.522-.187,1.059-.318,1.584a1.055,1.055,0,0,1-.326.517.511.511,0,0,1-.458.056.5.5,0,0,1-.217-.4c.074-.667.183-1.331.293-1.994.073-.436.175-.868.25-1.3a2.11,2.11,0,0,1,2.124-1.891,3.5,3.5,0,0,1,.915.053,1.376,1.376,0,0,1,1.213,1.837c-.183,1.037-.354,2.076-.558,3.109a.952.952,0,0,1-.324.525.544.544,0,0,1-.5.044.557.557,0,0,1-.209-.451C23.72,36.507,23.828,35.955,23.921,35.382Zm-2-.849c.654,0,1.284.012,1.912-.012a.437.437,0,0,0,.288-.262,1.2,1.2,0,0,0,.092-.629c-.06-.259-.164-.608-.361-.717a1.25,1.25,0,0,0-1.816.857C21.989,34,21.967,34.248,21.925,34.533Z" transform="translate(-12.464 -31.925)"/><path d="M50.89,35.38H48.738c-.1.536-.189,1.073-.316,1.6a.9.9,0,0,1-.3.484.6.6,0,0,1-.5.066.487.487,0,0,1-.2-.407c.076-.667.187-1.331.3-1.993.073-.437.173-.869.246-1.3A2.112,2.112,0,0,1,50.1,31.947a4.175,4.175,0,0,1,.915.056c1.258.231,1.31.99,1.179,1.891-.146,1-.337,1.986-.533,2.974a1.164,1.164,0,0,1-.3.585.527.527,0,0,1-.494.083.609.609,0,0,1-.229-.485C50.685,36.505,50.8,35.965,50.89,35.38ZM48.9,34.508c.125.01.231.025.337.025.524,0,1.049.015,1.571-.012a.438.438,0,0,0,.288-.262,1.208,1.208,0,0,0,.093-.629c-.06-.259-.164-.608-.362-.717a1.249,1.249,0,0,0-1.816.857C48.956,34.006,48.935,34.249,48.9,34.508Z" transform="translate(-19.993 -31.926)"/><path d="M29.4,36.247q.636-1.388,1.272-2.775c.178-.389.355-.778.538-1.164.153-.323.417-.49.745-.322s.239.456.107.725c-.693,1.411-1.375,2.828-2.088,4.229a1.482,1.482,0,0,1-.564.57.562.562,0,0,1-.859-.432c-.167-1.118-.314-2.239-.473-3.358-.045-.317-.123-.63-.154-.949a.821.821,0,0,1,.063-.523.745.745,0,0,1,.51-.283c.109,0,.3.246.317.4.182,1.285.334,2.576.5,3.864Z" transform="translate(-14.547 -31.919)"/><path d="M56.644,33.907c.436-.533.841-1.033,1.251-1.529a2.1,2.1,0,0,1,.291-.3.47.47,0,0,1,.7.015c.262.249.094.451-.059.638-.487.595-.961,1.2-1.493,1.756a1.726,1.726,0,0,0-.434.977c-.093.526-.17,1.056-.29,1.576a.755.755,0,0,1-.3.435.626.626,0,0,1-.506.053.487.487,0,0,1-.2-.411c.076-.636.2-1.266.288-1.9a1.179,1.179,0,0,0-.063-.6c-.266-.6-.577-1.186-.857-1.783-.137-.292-.213-.6.168-.781s.563.067.717.365C56.113,32.907,56.372,33.39,56.644,33.907Z" transform="translate(-22.072 -31.923)"/></g><g transform="translate(19.958 6.631)"><path class="b" d="M33.507,7.451c-.507.324-1.037.608-1.506.97a6.34,6.34,0,0,0-2.489,4.006,4.842,4.842,0,0,0,.675,3.58,4.084,4.084,0,0,0,1.682,1.372,1.827,1.827,0,0,0,2.3-.666,2.75,2.75,0,0,0-.529-3.72,1.962,1.962,0,0,0-2.982.914,2.994,2.994,0,0,0-.122,1.934,3.309,3.309,0,0,1-.622-1.476,5.668,5.668,0,0,1,2.1-5.5,4.32,4.32,0,0,1,1.593-.973A5.969,5.969,0,0,1,35.192,7.7,5.26,5.26,0,0,1,38.751,16.8a6.522,6.522,0,0,1-2.9,1.458,7.974,7.974,0,0,1-2.928.258,6.744,6.744,0,0,1-3.685-1.494,8.188,8.188,0,0,1-2.7-3.8,6.231,6.231,0,0,1-.346-2.49A4.112,4.112,0,0,1,29.638,6.72,5.461,5.461,0,0,1,33.507,7.451Z" transform="translate(-24.648 -6.631)"/><path class="b" d="M35.029,20.925a13.293,13.293,0,0,1-.98,1.167A4.969,4.969,0,0,1,31.2,23.436,6.245,6.245,0,0,1,26.532,22.2a6.015,6.015,0,0,1-2.4-3.987,4.488,4.488,0,0,1,1.156-3.946,8.366,8.366,0,0,0,3.451,5.415,7.54,7.54,0,0,0,6.235,1.175Z" transform="translate(-24.058 -8.763)"/></g></g></g></svg>