<svg xmlns="http://www.w3.org/2000/svg" width="55" height="40" viewBox="0 0 55 40"><defs><style>.a{fill:#fff;}.b{fill:#0053aa;}</style></defs><g transform="translate(-5964 -2451)"><rect class="a" width="55" height="40" rx="4" transform="translate(5964 2451)"/><g transform="translate(5960.99 2449.583)"><g transform="translate(14.01 11.417)"><rect class="b" width="2.014" height="9.634" rx="1.007" transform="translate(0.317 0.349)"/><rect class="b" width="2.014" height="9.634" rx="1.007" transform="translate(6.812 0) rotate(45)"/><rect class="b" width="2.014" height="11.469" rx="1.007" transform="translate(25.717 0.087) rotate(39.893)"/><rect class="b" width="2.014" height="7.662" rx="1.007" transform="translate(26.494 0.482) rotate(90)"/><rect class="b" width="2.014" height="7.662" rx="1.007" transform="translate(26.494 7.815) rotate(90)"/><rect class="b" width="2.014" height="7.23" rx="1.007" transform="matrix(-0.784, 0.621, -0.621, -0.784, 8.478, 9.035)"/><g transform="translate(10.453 0.485)"><path class="a" d="M31.788,15.384a1.007,1.007,0,0,0-1.007-1.007H27.164v2.014h3.617A1.007,1.007,0,0,0,31.788,15.384Z" transform="translate(-27.164 -12.51)"/><path class="a" d="M31.09,20.909a1.007,1.007,0,1,0,0-2.014H27.164v2.014Z" transform="translate(-27.164 -13.438)"/><path class="b" d="M32.6,16.461A2.322,2.322,0,0,0,33.683,14.5v-.146a2.323,2.323,0,0,0-2.324-2.324h-4.2v1.867h3.617a1.007,1.007,0,1,1,0,2.014H27.164v1.577H31.09a1.007,1.007,0,1,1,0,2.014H27.164v1.79h4.642a2.324,2.324,0,0,0,2.324-2.324v-.319A2.325,2.325,0,0,0,32.6,16.461Z" transform="translate(-27.164 -12.028)"/></g><rect class="b" width="2.014" height="9.26" rx="1.007" transform="translate(9.655 0.485)"/></g><g transform="translate(23.603 22.454)"><path class="b" d="M32.735,28.2a2.717,2.717,0,0,1-1.088,2.316,5.133,5.133,0,0,1-3.11.811h-.785a.452.452,0,0,0-.45.455v2.161a.452.452,0,0,1-.45.455h-.32a.452.452,0,0,1-.45-.455V25.761a.452.452,0,0,1,.45-.455H28.8Q32.735,25.306,32.735,28.2ZM27.3,29.877a.453.453,0,0,0,.45.455H28.4a4.266,4.266,0,0,0,2.347-.5,1.784,1.784,0,0,0,.725-1.587,1.672,1.672,0,0,0-.682-1.465,3.723,3.723,0,0,0-2.124-.482h-.914a.452.452,0,0,0-.45.455Z" transform="translate(-26.082 -25.306)"/><path class="b" d="M41.62,34.949a.426.426,0,0,1-.418-.326l-.15-.648H41a3.109,3.109,0,0,1-1.118.872,3.7,3.7,0,0,1-1.392.227,2.66,2.66,0,0,1-1.747-.524,1.829,1.829,0,0,1-.633-1.492q0-2.073,3.632-2.173l.857-.025a.423.423,0,0,0,.416-.418v-.018a1.635,1.635,0,0,0-.379-1.19,1.652,1.652,0,0,0-1.214-.384,4.914,4.914,0,0,0-1.74.366.432.432,0,0,1-.549-.224l-.014-.033a.416.416,0,0,1,.233-.555,5.871,5.871,0,0,1,.815-.253,5.734,5.734,0,0,1,1.324-.157,3.04,3.04,0,0,1,1.987.544,2.151,2.151,0,0,1,.647,1.742V34.53a.424.424,0,0,1-.429.419Zm-2.908-.73a2.441,2.441,0,0,0,1.666-.531,1.872,1.872,0,0,0,.606-1.486v-.183a.424.424,0,0,0-.446-.418l-.69.026a4.466,4.466,0,0,0-1.952.384,1.135,1.135,0,0,0-.6,1.058,1.024,1.024,0,0,0,.373.856A1.647,1.647,0,0,0,38.713,34.218Z" transform="translate(-28.14 -25.858)"/><path class="b" d="M45.794,28.12h.28a.433.433,0,0,1,.4.233L48,31.623a11.67,11.67,0,0,1,.67,1.732h.055q.088-.286.373-.978.274-.669,1.751-4.016a.433.433,0,0,1,.4-.241h.288a.383.383,0,0,1,.4.517l-2.983,6.478a3.5,3.5,0,0,1-1.118,1.472,2.733,2.733,0,0,1-1.57.435,5.531,5.531,0,0,1-.65-.038.4.4,0,0,1-.376-.373h0a.408.408,0,0,1,.46-.374q.182.012.381.012a1.714,1.714,0,0,0,1.669-1.076l.347-.727a.335.335,0,0,0,0-.294L45.4,28.644A.383.383,0,0,1,45.794,28.12Z" transform="translate(-30.016 -25.884)"/></g><path class="b" d="M14.408,31.532v3.926a.176.176,0,0,0,.176.176h3.738a.176.176,0,0,0,.127-.3l-3.738-3.926A.176.176,0,0,0,14.408,31.532Z" transform="translate(-0.082 -4.094)"/><path class="b" d="M55.629,16.228V12.3a.177.177,0,0,0-.176-.176H51.714a.176.176,0,0,0-.128.3l3.738,3.926A.176.176,0,0,0,55.629,16.228Z" transform="translate(-7.706 -0.145)"/></g></g></svg>