<svg xmlns="http://www.w3.org/2000/svg" width="55" height="40" viewBox="0 0 55 40"><defs><style>.a{fill:#fff;}.b{fill:#333;}.c{fill:#1e7dff;}.d{fill:#002955;font-size:7px;font-family:Montserrat-SemiBold, Montserrat;font-weight:600;letter-spacing:-0.02em;}</style></defs><g transform="translate(-5745 -2371)"><rect class="a" width="55" height="40" rx="4" transform="translate(5745 2371)"/><g transform="translate(5453.388 2269.403)"><g transform="translate(310.041 113.124)"><g transform="translate(0 0)"><g transform="translate(0 0)"><g transform="translate(0.68 2.415)"><rect class="a" width="3.638" height="11.087" transform="translate(0.284 0.284)"/><path class="b" d="M-4856.108-4184.2h-4.207v-11.655h4.207Zm-3.638-.569h3.07v-10.519h-3.07Z" transform="translate(4860.314 4195.855)"/></g><g transform="translate(13.569 2.415)"><rect class="a" width="3.638" height="11.087" transform="translate(0.284 0.284)"/><path class="b" d="M-4535.678-4184.2h-4.206v-11.655h4.206Zm-3.638-.569h3.069v-10.519h-3.069Z" transform="translate(4539.884 4195.855)"/></g><g transform="translate(14.907 3.463)"><path class="b" d="M-4505.465-4167.559h-1.125a.332.332,0,0,1-.327-.336v-1.8a.332.332,0,0,1,.327-.336h1.125a.331.331,0,0,1,.326.336v1.8A.332.332,0,0,1-4505.465-4167.559Zm-1.046-.406h.967v-1.666h-.967Z" transform="translate(4506.917 4170.036)"/><path class="b" d="M-4505.465-4077.206h-1.125a.332.332,0,0,1-.327-.336v-1.8a.332.332,0,0,1,.327-.336h1.125a.332.332,0,0,1,.326.336v1.8A.332.332,0,0,1-4505.465-4077.206Zm-1.046-.406h.967v-1.666h-.967Z" transform="translate(4506.917 4083.351)"/><path class="b" d="M-4505.465-3986.852h-1.125a.332.332,0,0,1-.327-.336v-1.8a.332.332,0,0,1,.327-.337h1.125a.332.332,0,0,1,.326.337v1.8A.331.331,0,0,1-4505.465-3986.852Zm-1.046-.406h.967v-1.666h-.967Z" transform="translate(4506.917 3996.666)"/></g><g transform="translate(1.786 3.463)"><path class="b" d="M-4831.62-4167.559h-1.126a.332.332,0,0,1-.326-.336v-1.8a.331.331,0,0,1,.326-.336h1.126a.332.332,0,0,1,.326.336v1.8A.332.332,0,0,1-4831.62-4167.559Zm-1.046-.406h.966v-1.666h-.966Z" transform="translate(4833.072 4170.036)"/><path class="b" d="M-4831.62-4077.206h-1.126a.332.332,0,0,1-.326-.336v-1.8a.332.332,0,0,1,.326-.336h1.126a.332.332,0,0,1,.326.336v1.8A.332.332,0,0,1-4831.62-4077.206Zm-1.046-.406h.966v-1.666h-.966Z" transform="translate(4833.072 4083.351)"/><path class="b" d="M-4831.62-3986.852h-1.126a.331.331,0,0,1-.326-.336v-1.8a.332.332,0,0,1,.326-.337h1.126a.332.332,0,0,1,.326.337v1.8A.332.332,0,0,1-4831.62-3986.852Zm-1.046-.406h.966v-1.666h-.966Z" transform="translate(4833.072 3996.666)"/></g><rect class="c" width="18.521" height="1.343" rx="0.672" transform="translate(0 1.841)"/><g transform="translate(4.269 0)"><rect class="a" width="9.358" height="13.502" transform="translate(0.284 0.284)"/><path class="b" d="M-4760.02-4244.069h-9.926v-14.07h9.926Zm-9.357-.564h8.789v-12.941h-8.789Z" transform="translate(4769.946 4258.139)"/></g><g transform="translate(5.65 1.021)"><path class="b" d="M-4734.494-4230.284h-1.927a.377.377,0,0,1-.415-.336v-1.8a.377.377,0,0,1,.415-.336h1.927a.377.377,0,0,1,.415.336v1.8A.377.377,0,0,1-4734.494-4230.284Zm-1.936-.406h1.944v-1.666h-1.944Z" transform="translate(4736.835 4232.761)"/><path class="b" d="M-4734.494-4139.931h-1.927a.377.377,0,0,1-.415-.336v-1.805a.378.378,0,0,1,.415-.336h1.927a.378.378,0,0,1,.415.336v1.805A.377.377,0,0,1-4734.494-4139.931Zm-1.936-.406h1.944V-4142h-1.944Z" transform="translate(4736.835 4146.076)"/><path class="b" d="M-4734.494-4049.577h-1.927a.377.377,0,0,1-.415-.336v-1.8a.377.377,0,0,1,.415-.337h1.927a.377.377,0,0,1,.415.337v1.8A.377.377,0,0,1-4734.494-4049.577Zm-1.936-.406h1.944v-1.665h-1.944Z" transform="translate(4736.835 4059.391)"/></g><g transform="translate(9.872 1.021)"><path class="b" d="M-4629.7-4230.284h-1.928a.376.376,0,0,1-.413-.336v-1.8a.377.377,0,0,1,.413-.336h1.928a.378.378,0,0,1,.415.336v1.8A.377.377,0,0,1-4629.7-4230.284Zm-1.936-.406h1.944v-1.666h-1.944Z" transform="translate(4632.04 4232.761)"/><path class="b" d="M-4629.7-4139.931h-1.928a.377.377,0,0,1-.413-.336v-1.805a.377.377,0,0,1,.413-.336h1.928a.378.378,0,0,1,.415.336v1.805A.377.377,0,0,1-4629.7-4139.931Zm-1.936-.406h1.944V-4142h-1.944Z" transform="translate(4632.04 4146.076)"/><path class="b" d="M-4629.7-4049.577h-1.928a.377.377,0,0,1-.413-.336v-1.8a.377.377,0,0,1,.413-.337h1.928a.378.378,0,0,1,.415.337v1.8A.377.377,0,0,1-4629.7-4049.577Zm-1.936-.406h1.944v-1.665h-1.944Z" transform="translate(4632.04 4059.391)"/></g><g transform="translate(7.229 6.862)"><path class="a" d="M-4689.849-4034.457l-1.64,1.976a.092.092,0,0,0-.03.068v2.75h3.536v-2.75a.092.092,0,0,0-.03-.068l-1.708-1.976A.094.094,0,0,0-4689.849-4034.457Z" transform="translate(4691.762 4034.725)"/><path class="c" d="M-4693.495-4033.384h-4.023v-4.772a.338.338,0,0,1,.093-.232l1.643-1.98.012-.011a.34.34,0,0,1,.458,0l.019.02,1.7,1.969a.337.337,0,0,1,.1.235Zm-3.536-.487h3.049v-4.228l-1.556-1.8-1.493,1.8Z" transform="translate(4697.518 4040.468)"/></g><path class="c" d="M-4663.99-3973.655h-1.458v-3.477c0-.137.073-.249.162-.249h1.134c.09,0,.162.111.162.249Z" transform="translate(4673.979 3987.133)"/></g></g></g><rect class="c" width="13.744" height="4.964" rx="1.5" transform="translate(312.523 109)"/><g transform="translate(313.703 110.241)"><path class="a" d="M-4738.63-4297.2v-.75a.128.128,0,0,0-.13-.127h-.585a.128.128,0,0,0-.13.127v.75a.129.129,0,0,1-.13.127h-.386a.13.13,0,0,1-.13-.127v-2.295a.129.129,0,0,1,.13-.127h.386a.128.128,0,0,1,.13.127v.73a.128.128,0,0,0,.13.127h.585a.128.128,0,0,0,.13-.127v-.73a.128.128,0,0,1,.13-.127h.386a.128.128,0,0,1,.13.127v2.295a.129.129,0,0,1-.13.127h-.386A.128.128,0,0,1-4738.63-4297.2Z" transform="translate(4740.12 4299.624)"/><path class="a" d="M-4697.07-4297.022a1.366,1.366,0,0,1-1.029-2.259.162.162,0,0,1,.045-.044c1.187-.719,2.313-.039,2.313,1A1.287,1.287,0,0,1-4697.07-4297.022Zm0-2.017a.651.651,0,0,0-.674.715.655.655,0,0,0,.674.722.655.655,0,0,0,.674-.722A.652.652,0,0,0-4697.07-4299.039Z" transform="translate(4701.004 4299.623)"/><path class="a" d="M-4647.663-4297.2v-1.733a.129.129,0,0,0-.131-.127h-.367a.129.129,0,0,1-.13-.128v-.307a.128.128,0,0,1,.13-.127h1.638a.127.127,0,0,1,.129.127v.307a.128.128,0,0,1-.129.128h-.365a.128.128,0,0,0-.129.127v1.733a.129.129,0,0,1-.131.127h-.385A.128.128,0,0,1-4647.663-4297.2Z" transform="translate(4653.876 4299.624)"/><path class="a" d="M-4610.364-4297.2v-2.3a.128.128,0,0,1,.13-.127h1.3a.128.128,0,0,1,.13.127v.307a.129.129,0,0,1-.13.128h-.653a.128.128,0,0,0-.13.127v.165a.128.128,0,0,0,.13.127h.551a.129.129,0,0,1,.131.127v.307a.128.128,0,0,1-.131.127h-.551a.128.128,0,0,0-.13.126v.2a.128.128,0,0,0,.13.127h.653a.129.129,0,0,1,.13.127v.308a.13.13,0,0,1-.13.127h-1.3A.131.131,0,0,1-4610.364-4297.2Z" transform="translate(4618.431 4299.624)"/><path class="a" d="M-4577.9-4297.2v-2.295a.127.127,0,0,1,.129-.127h.386a.128.128,0,0,1,.13.127v1.737a.128.128,0,0,0,.13.126h.534a.129.129,0,0,1,.13.127v.3a.128.128,0,0,1-.13.127h-1.18A.128.128,0,0,1-4577.9-4297.2Z" transform="translate(4588.026 4299.624)"/></g></g><text class="d" transform="translate(5752 2405)"><tspan x="0" y="0">Pay @ Hotel</tspan></text></g></svg>