<svg xmlns="http://www.w3.org/2000/svg" width="55" height="40" viewBox="0 0 55 40"><defs><style>.a{fill:#fff;}.b{fill:#fa3;stroke:#faa534;stroke-width:0.5px;}.c{fill:#05b;fill-rule:evenodd;}.d{fill:#0a56bb;stroke:#0a56bb;stroke-width:0.2px;}</style></defs><g transform="translate(-5964 -2451)"><rect class="a" width="55" height="40" rx="4" transform="translate(5964 2451)"/><g transform="translate(5970.273 2459.71)"><g transform="translate(10.946 16.209)"><path class="b" d="M2994.294,4051.983a1.327,1.327,0,0,0-.824.275,1.872,1.872,0,0,0-.577.8,2.937,2.937,0,0,0-.218,1.151,1.281,1.281,0,0,0,.247.849.9.9,0,0,0,.727.292,2.914,2.914,0,0,0,.985-.208v.63a3.108,3.108,0,0,1-1.118.207,1.5,1.5,0,0,1-1.162-.457,1.823,1.823,0,0,1-.419-1.282,3.523,3.523,0,0,1,.313-1.485,2.483,2.483,0,0,1,.844-1.043,2.083,2.083,0,0,1,1.2-.356,2.363,2.363,0,0,1,1.159.283l-.278.6a2.41,2.41,0,0,0-.4-.179A1.423,1.423,0,0,0,2994.294,4051.983Z" transform="translate(-2991.935 -4051.353)"/><path class="b" d="M3002.955,4055.2a2.871,2.871,0,0,1-.22,1.131,1.8,1.8,0,0,1-.6.781,1.471,1.471,0,0,1-.879.272,1.194,1.194,0,0,1-.908-.353,1.321,1.321,0,0,1-.338-.958,2.9,2.9,0,0,1,.212-1.122,1.837,1.837,0,0,1,.6-.8,1.454,1.454,0,0,1,.889-.285,1.175,1.175,0,0,1,.912.358A1.374,1.374,0,0,1,3002.955,4055.2Zm-.711-.03a.815.815,0,0,0-.147-.516.5.5,0,0,0-.417-.186.688.688,0,0,0-.5.22,1.471,1.471,0,0,0-.343.6,2.683,2.683,0,0,0-.122.8.815.815,0,0,0,.149.524.532.532,0,0,0,.438.181.689.689,0,0,0,.487-.209,1.431,1.431,0,0,0,.332-.585A2.765,2.765,0,0,0,3002.244,4055.17Z" transform="translate(-2996.471 -4052.767)"/><path class="b" d="M3009.312,4054l-.386,1.877a3.375,3.375,0,0,0-.093.595q0,.408.378.408a.666.666,0,0,0,.427-.176,1.558,1.558,0,0,0,.378-.5,3.066,3.066,0,0,0,.253-.761l.3-1.444h.7l-.7,3.4h-.555l.065-.632h-.025a1.829,1.829,0,0,1-.511.525,1.058,1.058,0,0,1-.574.167.813.813,0,0,1-.62-.234.953.953,0,0,1-.215-.671,2.015,2.015,0,0,1,.035-.383c.022-.125.046-.253.071-.38l.367-1.8Z" transform="translate(-3001.032 -4052.839)"/><path class="b" d="M3017.886,4057.323l.424-2.068a2.366,2.366,0,0,0,.052-.4q0-.4-.384-.4a.657.657,0,0,0-.424.176,1.563,1.563,0,0,0-.378.506,3,3,0,0,0-.25.75l-.294,1.444h-.7l.7-3.4h.55l-.062.631h.027a1.8,1.8,0,0,1,.512-.528,1.053,1.053,0,0,1,.571-.165.793.793,0,0,1,.618.236.929.929,0,0,1,.223.664,3.016,3.016,0,0,1-.07.556l-.409,2.01Z" transform="translate(-3005.411 -4052.76)"/><path class="b" d="M3025.558,4055.908a1.265,1.265,0,0,0,.452-.095v.548a1.228,1.228,0,0,1-.286.091,1.609,1.609,0,0,1-.356.041c-.547,0-.819-.253-.819-.761a2.156,2.156,0,0,1,.046-.4l.362-1.753h-.481l.063-.339.568-.252.384-.714h.435l-.155.756h.835l-.117.548h-.828l-.364,1.759a1.277,1.277,0,0,0-.041.282.286.286,0,0,0,.076.211A.3.3,0,0,0,3025.558,4055.908Z" transform="translate(-3010.212 -4051.869)"/><path class="b" d="M3030.861,4057.384a1.222,1.222,0,0,1-.917-.341,1.313,1.313,0,0,1-.329-.954,2.761,2.761,0,0,1,.231-1.133,1.939,1.939,0,0,1,.625-.811,1.477,1.477,0,0,1,.887-.287,1.139,1.139,0,0,1,.748.223.771.771,0,0,1,.267.632.98.98,0,0,1-.5.875,2.65,2.65,0,0,1-1.42.316h-.128l-.005.095v.09a.79.79,0,0,0,.169.534.63.63,0,0,0,.5.195,1.658,1.658,0,0,0,.427-.059,2.975,2.975,0,0,0,.5-.2v.577a2.64,2.64,0,0,1-.528.192A2.32,2.32,0,0,1,3030.861,4057.384Zm.457-2.972a.734.734,0,0,0-.539.265,1.53,1.53,0,0,0-.364.7h.086a1.923,1.923,0,0,0,.879-.165.507.507,0,0,0,.316-.466.321.321,0,0,0-.1-.245A.4.4,0,0,0,3031.318,4054.412Z" transform="translate(-3013.099 -4052.76)"/><path class="b" d="M3038.865,4053.858a1.262,1.262,0,0,1,.321.037l-.152.674a1.133,1.133,0,0,0-.3-.043.866.866,0,0,0-.672.349,1.99,1.99,0,0,0-.411.91l-.318,1.539h-.7l.7-3.4h.55l-.063.631h.027a1.878,1.878,0,0,1,.5-.529A.945.945,0,0,1,3038.865,4053.858Z" transform="translate(-3017.036 -4052.76)"/></g><g transform="translate(17.087)"><path class="c" d="M3050.268,4016.33a1.959,1.959,0,1,1-1.962-1.958A1.958,1.958,0,0,1,3050.268,4016.33Z" transform="translate(-3028.64 -4014.372)"/><path class="c" d="M3019.615,4016.33a1.959,1.959,0,1,1-1.959-1.958A1.957,1.957,0,0,1,3019.615,4016.33Z" transform="translate(-3011.423 -4014.372)"/><path class="c" d="M3030.5,4030.948h-1.05v-5.45a1.365,1.365,0,0,0-1.366-1.362h-5.153a.94.94,0,0,0-.9.329l-3.88,4.644a.924.924,0,0,0,1.415,1.188l3.534-4.229v4.881h-17.149v2.181h17.13v8.787a1.159,1.159,0,0,0,2.318,0v-8.787h.381v8.787a1.158,1.158,0,0,0,2.315,0v-8.787h2.408Z" transform="translate(-3005.945 -4019.846)"/><path class="c" d="M3021.274,4018.373h-1.717v3.5a.8.8,0,0,0-.606.29l-1.206,1.453c-.035-.127-.073-.269-.117-.417a2.756,2.756,0,0,0-2.468-2.273h-2.977a2.59,2.59,0,0,0-2.438,2.281l-1.156,4.086h1.684l1.023-3.712h.408l-.952,3.712h5.923l-1.053-3.712h.425l.569,1.906h0a.8.8,0,0,0,1.4.325l2.174-2.623a.8.8,0,0,0,.054-.952h1.034Z" transform="translate(-3007.431 -4016.619)"/></g><g transform="translate(0 10.083)"><path class="d" d="M2969.6,4038.864a2.523,2.523,0,0,1-.19,1.021,1.554,1.554,0,0,1-.536.682,1.391,1.391,0,0,1-.795.231,1.077,1.077,0,0,1-.822-.306,1.189,1.189,0,0,1-.291-.848,2.451,2.451,0,0,1,.2-1,1.577,1.577,0,0,1,.555-.693,1.362,1.362,0,0,1,.794-.241,1.036,1.036,0,0,1,.8.307A1.18,1.18,0,0,1,2969.6,4038.864Zm-1.121-.735a.773.773,0,0,0-.514.2,1.317,1.317,0,0,0-.362.547,2.234,2.234,0,0,0-.128.764.8.8,0,0,0,.166.547.589.589,0,0,0,.468.193.763.763,0,0,0,.509-.194,1.275,1.275,0,0,0,.354-.544,2.242,2.242,0,0,0,.125-.771.817.817,0,0,0-.164-.543A.557.557,0,0,0,2968.475,4038.129Z" transform="translate(-2966.962 -4037.563)"/><path class="d" d="M2974.02,4041.754l-.267-2.269h.473l.112,1.227c.022.218.03.42.03.608h.014c.041-.1.087-.214.144-.337s.1-.215.133-.271l.639-1.227h.511l-1.227,2.269Z" transform="translate(-2970.776 -4038.561)"/><path class="d" d="M2979.244,4041.741a.787.787,0,0,1-.854-.864,1.856,1.856,0,0,1,.155-.756,1.345,1.345,0,0,1,.433-.54,1.045,1.045,0,0,1,.609-.191.8.8,0,0,1,.515.15.518.518,0,0,1,.182.421.652.652,0,0,1-.343.584,1.854,1.854,0,0,1-.971.211h-.09l0,.062v.06a.505.505,0,0,0,.117.357.434.434,0,0,0,.345.131,1.076,1.076,0,0,0,.291-.041,1.929,1.929,0,0,0,.346-.132v.384a1.987,1.987,0,0,1-.362.128A1.649,1.649,0,0,1,2979.244,4041.741Zm.313-1.982a.517.517,0,0,0-.37.177,1.039,1.039,0,0,0-.25.467h.06a1.364,1.364,0,0,0,.6-.111.341.341,0,0,0,.217-.311.208.208,0,0,0-.065-.163A.289.289,0,0,0,2979.557,4039.759Z" transform="translate(-2973.381 -4038.507)"/><path class="d" d="M2984.735,4039.389a.9.9,0,0,1,.223.026l-.106.449a.829.829,0,0,0-.209-.029.609.609,0,0,0-.462.231,1.37,1.37,0,0,0-.283.608l-.217,1.026h-.485l.485-2.269h.378l-.044.42h.019a1.3,1.3,0,0,1,.341-.353A.661.661,0,0,1,2984.735,4039.389Z" transform="translate(-2976.08 -4038.507)"/><path class="d" d="M2990.555,4040.757a.893.893,0,0,0,.31-.062v.365a.905.905,0,0,1-.193.063,1.188,1.188,0,0,1-.248.026c-.373,0-.563-.17-.563-.507a1.282,1.282,0,0,1,.036-.268l.247-1.169h-.332l.044-.226.388-.169.264-.476h.3l-.106.505h.571l-.079.366h-.566l-.25,1.173a.769.769,0,0,0-.028.189.2.2,0,0,0,.049.14A.208.208,0,0,0,2990.555,4040.757Z" transform="translate(-2979.797 -4037.914)"/><path class="d" d="M2994.465,4040.571l.291-1.38a1.587,1.587,0,0,0,.038-.26.24.24,0,0,0-.266-.276.554.554,0,0,0-.43.255,1.737,1.737,0,0,0-.293.7l-.2.958h-.484l.674-3.193h.485l-.117.537c-.035.173-.087.375-.15.6l-.038.155h.016a1.163,1.163,0,0,1,.345-.314.742.742,0,0,1,.365-.1.555.555,0,0,1,.427.159.649.649,0,0,1,.15.456,1.514,1.514,0,0,1-.049.357l-.286,1.34Z" transform="translate(-2981.655 -4037.377)"/><path class="d" d="M2999.847,4041.741a.856.856,0,0,1-.632-.228.869.869,0,0,1-.228-.636,1.847,1.847,0,0,1,.16-.756,1.318,1.318,0,0,1,.433-.54,1.046,1.046,0,0,1,.61-.191.787.787,0,0,1,.511.15.513.513,0,0,1,.185.421.652.652,0,0,1-.343.584,1.863,1.863,0,0,1-.972.211h-.09l0,.062v.06a.517.517,0,0,0,.115.357.44.44,0,0,0,.348.131,1.082,1.082,0,0,0,.291-.041,2.029,2.029,0,0,0,.345-.132v.384a2,2,0,0,1-.365.128A1.607,1.607,0,0,1,2999.847,4041.741Zm.313-1.982a.521.521,0,0,0-.37.177,1,1,0,0,0-.25.467h.06a1.359,1.359,0,0,0,.6-.111.339.339,0,0,0,.215-.311.2.2,0,0,0-.065-.163A.277.277,0,0,0,3000.16,4039.759Z" transform="translate(-2984.951 -4038.507)"/></g></g></g></svg>