<svg xmlns="http://www.w3.org/2000/svg" width="55" height="40" viewBox="0 0 55 40"><defs><style>.a{fill:#fff;}.b{fill:#4055a4;}.c{fill:#dee11d;}</style></defs><g transform="translate(-5895 -2378)"><rect class="a" width="55" height="40" rx="4" transform="translate(5895 2378)"/><g transform="translate(5904 2390)"><g transform="translate(0)"><path class="a" d="M2858.919,3865.436v8.829s-.166,1.221-2.062,1.24-1.826-1.24-1.826-1.24v-8.792h-3.208v2.7a2.949,2.949,0,0,0-2.365-2.624h-6.96l.807,1.147v8.444l-4.706-12.184-3.172,8.444,1.556,3.926,1.452-3.81,2.893,6.872h5.983l-1.217-1.349-.022-5.229.242,1.27s2.426.019,2.662,0a3.725,3.725,0,0,0,2.917-3.046v4.844s.535,3.506,4.911,3.506,5.089-3.516,5.089-3.516v-8.592h1.02l.436-.839Zm-10.764,5.343-2.023-.008v-2.926l2.322.006a1.82,1.82,0,0,1,.75,1.451A2.019,2.019,0,0,1,2848.155,3870.778Z" transform="translate(-2825.211 -3862.956)"/><path class="a" d="M2813.462,3878.388h3.906l3.064-6.045,2.482,6.045h4.026l-6.24-15.432-5.983,14.3-1.256.539Z" transform="translate(-2813.462 -3862.956)"/><path class="b" d="M2814.407,3879.338h3.225l3.321-6.712,2.7,6.712h3.21l-5.618-14.187-5.765,13.608-1.072.256Z" transform="translate(-2813.967 -3864.13)"/><path class="b" d="M2836.388,3872.509l1.216,3.1,1.364-3.425,3.045,7.156h5.179l-.832-.974-.007-9.638h2.707a2.157,2.157,0,0,1,.947,1.758,2.362,2.362,0,0,1-1.264,1.761h-2.128l.358,1.726h2.524a4.219,4.219,0,0,0,2.743-2.937h.389v5.02a4.441,4.441,0,0,0,4.8,3.284c4.049-.183,4.748-3.313,4.748-3.313v-8.83h1.05l.327-.293h-3.811v8.579a2.186,2.186,0,0,1-2.187,1.461c-1.751-.024-2.244-.578-2.293-1.551v-8.469h-2.745v2.739h-.253a3.616,3.616,0,0,0-2.247-2.76h-6.576l.65.913.007,8.81v.916l-4.969-12.389Z" transform="translate(-2825.725 -3864.13)"/><path class="b" d="M2835.427,3881.112" transform="translate(-2825.211 -3872.667)"/><path class="c" d="M2814.407,3890.484h3.221l2.226-4.5a8.458,8.458,0,0,0-3.211,1.213c-.217.4-1.165,2.7-1.165,2.7l-1.072.256Z" transform="translate(-2813.968 -3875.275)"/><path class="c" d="M2886.581,3868.915h3.821l-.327.313h-1.05v2.024s-1.185,2.279-2.443,2.626Z" transform="translate(-2852.573 -3866.143)"/></g></g></g></svg>