<svg xmlns="http://www.w3.org/2000/svg" width="55" height="40" viewBox="0 0 55 40"><defs><style>.a,.d{fill:#fff;}.b{fill:#fbb22f;}.b,.c,.d{fill-rule:evenodd;}.c{fill:#ea2230;}.e{fill:none;stroke:#fff;stroke-miterlimit:2.613;stroke-width:0.216px;}</style></defs><g transform="translate(-5763 -2294)"><rect class="a" width="55" height="40" rx="4" transform="translate(5763 2294)"/><g transform="translate(5773.992 2304.193)"><g transform="translate(0)"><path class="b" d="M2689.587,3718.447l.525-.014.521-.038.511-.065.5-.09.495-.114.487-.137.476-.161.466-.184.455-.207.443-.222.426-.25.417-.266.4-.285.386-.305.373-.321.354-.341.342-.355.32-.373.3-.385.286-.4.266-.416.248-.429.224-.439.208-.457.182-.465.161-.476.14-.484.113-.5.09-.506.065-.509.039-.521.013-.529-.013-.523-.039-.518-.065-.51-.09-.5-.113-.493-.14-.483-.161-.474-.182-.462-.208-.453-.224-.441-.248-.424-.266-.418-.286-.4-.3-.381-.32-.374-.342-.355-.354-.336-.373-.322-.386-.3-.4-.287-.417-.266-.426-.243-.443-.224-.455-.208-.466-.183-.476-.16-.487-.14-.495-.115-.5-.09-.511-.065-.521-.039-.525-.014-.525.014-.521.039-.511.065-.5.09-.493.115-.485.14-.474.16-.464.183-.452.208-.438.224-.427.243-.414.266-.4.287-.387.3-.368.322-.355.336-.338.355-.321.374-.3.381-.282.4-.266.418-.245.424-.227.441-.2.453-.184.462-.158.474-.14.483-.113.493-.089.5-.064.51-.04.518-.012.523.012.529.04.521.064.509.089.506.113.5.14.484.158.476.184.465.2.457.227.439.245.429.266.416.282.4.3.385.321.373.338.355.355.341.368.321.387.305.4.285.414.266.427.25.438.222.452.207.464.184.474.161.485.137.493.114.5.09.511.065.521.038.525.014Z" transform="translate(-2665.672 -3698.004)"/><path class="c" d="M2656.7,3718.447l.522-.014.521-.038.51-.065.5-.09.491-.114.486-.137.474-.161.464-.184.453-.207.438-.222.429-.25.412-.266.4-.285.386-.305.369-.321.354-.341.339-.355.321-.373.3-.385.283-.4.264-.416.246-.429.225-.439.2-.457.184-.465.158-.476.138-.484.114-.5.09-.506.065-.509.04-.521.013-.529-.013-.523-.04-.518-.065-.51-.09-.5-.114-.493-.138-.483-.158-.474-.184-.462-.2-.453-.225-.441-.246-.424-.264-.418-.283-.4-.3-.381-.321-.374-.339-.355-.354-.336-.369-.322-.386-.3-.4-.287-.412-.266-.429-.243-.438-.224-.453-.208-.464-.183-.474-.16-.486-.14-.491-.115-.5-.09-.51-.065-.521-.039-.522-.014-.529.014-.521.039-.51.065-.507.09-.492.115-.486.14-.476.16-.465.183-.455.208-.441.224-.427.243-.417.266-.4.287-.386.3-.37.322-.355.336-.344.355-.32.374-.3.381-.285.4-.267.418-.248.424-.223.441-.208.453-.183.462-.161.474-.138.483-.114.493-.091.5-.066.51-.038.518-.013.523.013.529.038.521.066.509.091.506.114.5.138.484.161.476.183.465.208.457.223.439.248.429.267.416.285.4.3.385.32.373.344.355.355.341.37.321.386.305.4.285.417.266.427.25.441.222.455.207.465.184.476.161.486.137.492.114.507.09.51.065.521.038.529.014Z" transform="translate(-2646.462 -3698.004)"/><path class="b" d="M2684.593,3706.639h5.429v-.554h-4.963l-.466.554Z" transform="translate(-2668.711 -3702.719)"/><path class="b" d="M2682.637,3709.6h6.244v-.556h-5.916l-.328.556Z" transform="translate(-2667.57 -3704.448)"/><path class="b" d="M2681.178,3712.559h6.851V3712h-6.609l-.242.556Z" transform="translate(-2666.719 -3706.172)"/><path class="b" d="M2680.177,3715.524h7.268v-.555h-7.1l-.171.555Z" transform="translate(-2666.135 -3707.903)"/><path class="b" d="M2680.516,3729.845h7.042v-.556h-7.214l.172.556Z" transform="translate(-2666.232 -3716.259)"/><path class="b" d="M2681.644,3732.808h6.522v-.554h-6.78l.258.554Z" transform="translate(-2666.84 -3717.988)"/><path class="b" d="M2683.274,3735.764h5.791v-.556h-6.139l.347.556Z" transform="translate(-2667.739 -3719.712)"/><path class="b" d="M2685.5,3738.721h4.784v-.558h-5.268l.484.558Z" transform="translate(-2668.958 -3721.437)"/><path class="b" d="M2679.59,3718.478h7.513v-.554H2679.7l-.108.554Z" transform="translate(-2665.792 -3709.627)"/><path class="b" d="M2690.583,3726.889h2.865v-.555h-2.762l-.1.555Z" transform="translate(-2672.206 -3714.534)"/><path class="b" d="M2691.131,3723.927h2.637v-.559h-2.536l-.1.559Z" transform="translate(-2672.526 -3712.804)"/><path class="b" d="M2679.132,3723.368h.746v.559h-.712l-.035-.559Z" transform="translate(-2665.525 -3712.804)"/><path class="d" d="M2671.741,3720.538l-.047,0-.047-.008-.047-.005-.043-.008-.042-.007-.045-.007-.044-.006-.049-.007-.047-.006-.055,0-.064,0-.064,0h-.074l-.078,0-.091.009-.1.006-.067.01-.066.01-.06.02-.052.021-.047.024-.044.028-.035.035-.032.03-.02.039-.018.038-.007.042v.039l.01.047.015.043.026.045.036.043.069.066.083.051.1.045.1.039.109.034.115.039.113.042.112.045.1.057.1.073.087.087.071.107.055.131.036.155.014.187-.014.217-.023.162-.042.141-.055.131-.067.114-.081.1-.091.087-.1.075-.106.066-.111.052-.115.044-.117.034-.12.027-.117.021-.114.012-.114.006-.107,0h-.149l-.138,0h-.121l-.113,0-.1,0-.094-.007-.082-.007-.08-.01-.072-.009-.066-.013-.065-.011-.059-.015-.059-.013-.055-.022-.057-.021-.057-.02.154-.761.032.006.037.01.05.013.058.014.063.014.067.014.077.016.082.014.087.014.089.014.094.009.1.011.1,0,.1,0h.1l.1,0,.1-.021.079-.027.061-.037.049-.049.036-.048.027-.056.017-.056.014-.051.006-.1-.029-.086-.062-.069-.084-.059-.1-.051-.122-.051-.135-.05-.133-.054-.139-.062-.131-.072-.12-.091-.11-.106-.086-.131-.062-.155-.032-.187,0-.221.016-.135.024-.127.036-.116.042-.111.055-.1.063-.089.071-.087.087-.076.1-.065.11-.055.125-.053.136-.037.158-.032.169-.023.183-.014.205-.005h.127l.117.005.108,0,.1,0,.086.008.08.005.068.009.062,0,.06.007.049.011.045.007.04.008.034.005.031,0,.033.007.026,0-.176.779Z" transform="translate(-2659.523 -3710.644)"/><path class="e" d="M2671.741,3720.538h0l-.047,0-.047-.008-.047-.005-.043-.008-.042-.007-.045-.007-.044-.006-.049-.007-.047-.006-.055,0-.064,0-.064,0h-.074l-.078,0-.091.009-.1.006h0l-.067.01-.066.01-.06.02-.052.021-.047.024-.044.028-.035.035-.032.03-.02.039-.018.038-.007.042v.039l.01.047.015.043.026.045.036.043h0l.069.066.083.051.1.045.1.039.109.034.115.039.113.042.112.045.1.057.1.073.087.087.071.107.055.131.036.155.014.187-.014.217h0l-.023.162-.042.141-.055.131-.067.114-.081.1-.091.087-.1.075-.106.066-.111.052-.115.044-.117.034-.12.027-.117.021-.114.012-.114.006-.107,0h-.149l-.138,0h-.121l-.113,0-.1,0-.094-.007-.082-.007-.08-.01-.072-.009-.066-.013-.065-.011-.059-.015-.059-.013-.055-.022-.057-.021-.057-.02.154-.761h0l.032.006.037.01.05.013.058.014.063.014.067.014.077.016.082.014.087.014.089.014.094.009.1.011.1,0,.1,0h.1l.1,0h0l.1-.021.079-.027.061-.037.049-.049.036-.048.027-.056.017-.056.014-.051h0l.006-.1-.029-.086-.062-.069-.084-.059-.1-.051-.122-.051-.135-.05-.133-.054-.139-.062-.131-.072-.12-.091-.11-.106-.086-.131-.062-.155-.032-.187,0-.221h0l.016-.135.024-.127.036-.116.042-.111.055-.1.063-.089.071-.087.087-.076.1-.065.11-.055.125-.053.136-.037.158-.032.169-.023.183-.014.205-.005h.127l.117.005.108,0,.1,0,.086.008.08.005.068.009.062,0,.06.007.049.011.045.007.04.008.034.005.031,0,.033.007.026,0-.176.779" transform="translate(-2659.523 -3710.644)"/><path class="d" d="M2676.809,3717.841h.955l-.142.835h.576l-.124.779-.609-.016-.33,1.922,0,.069.016.06.035.045.045.037.061.025.069.021.076.012.083.008.074,0,.07-.007.062-.01.055-.013.045-.014.031-.01.02-.008.008,0-.12.642-.025.016-.025.014-.023.014-.024.012-.023.01-.028.013-.03.009-.033.01-.034.01-.034.009-.043.006-.04.009-.045.006-.052.007-.055.007-.059.007h-.262l-.139-.011-.121-.015-.109-.019-.093-.025-.08-.031-.065-.033-.058-.043-.044-.044-.035-.048-.026-.06-.016-.059-.01-.065,0-.072v-.074l.011-.081.009-.086.66-3.762Z" transform="translate(-2663.772 -3709.579)"/><path class="e" d="M2676.809,3717.841h.955l-.142.835h.576l-.124.779-.609-.016-.33,1.922h0l0,.069.016.06.035.045.045.037.061.025.069.021.076.012.083.008h0l.074,0,.07-.007.062-.01.055-.013.045-.014.031-.01.02-.008.008,0-.12.642h0l-.025.016-.025.014-.023.014-.024.012-.023.01-.028.013-.03.009-.033.01-.034.01-.034.009-.043.006-.04.009-.045.006-.052.007-.055.007-.059.007h-.262l-.139-.011-.121-.015-.109-.019-.093-.025-.08-.031-.065-.033-.058-.043-.044-.044-.035-.048-.026-.06-.016-.059-.01-.065,0-.072v-.074l.011-.081.009-.086.66-3.762" transform="translate(-2663.772 -3709.579)"/><path class="e" d="M2681.515,3721.82h0l-.011.058,0,.063.006.065.014.066.024.065.028.065.037.065.042.058.048.058.051.052.057.052.061.041.063.038.068.031.069.024.07.014h0l.088.014.087.01.087.011.091.007.09,0h.092l.09,0,.094-.007.093-.014.093-.018.1-.021.093-.03.1-.038.1-.042.1-.054.1-.06-.136.848h0l-.057.029-.054.029-.056.018-.051.022-.051.018-.057.017-.056.012-.057.011-.062.012-.069.006-.072.007-.08.008-.09,0h-.091l-.11,0h-.114l-.167,0-.172-.016-.172-.024-.173-.042-.168-.049-.162-.068-.156-.086-.146-.1-.133-.117-.117-.141-.1-.159-.084-.183-.058-.2-.038-.231-.011-.255.019-.282h0l.012-.109.022-.129.028-.135.038-.146.052-.148.062-.149.081-.151.1-.144.109-.136.135-.134.151-.116.174-.1.2-.083.226-.064.246-.042.281-.014h0l.135.005.141.014.141.023.142.034.138.052.135.061.124.085.113.1.1.119.086.138.068.159.048.183.028.206,0,.233-.024.263-.052.289-.019.212h-2.511l.158-.679h1.511l0-.086v-.084l-.009-.075-.011-.07-.025-.064-.024-.061-.035-.05-.035-.048-.041-.041-.046-.036-.051-.031-.052-.027-.055-.02-.056-.014-.057-.011-.062-.008h0l-.065,0-.063.01-.058.014-.059.021-.058.028-.051.031-.054.038-.043.041-.045.048-.042.05-.038.057-.03.059-.032.063-.024.069-.021.067-.014.073-.138.713" transform="translate(-2666.327 -3710.644)"/><path class="d" d="M2697.742,3718.664l-.045-.024-.045-.02-.051-.024-.049-.025-.054-.02-.057-.021-.059-.02-.061-.019-.066-.018-.067-.014-.072-.014-.072-.01-.079-.007-.079-.008h-.256l-.089.008-.093.01-.1.018-.1.027-.1.038-.1.049-.1.06-.094.077-.091.089-.085.11-.082.129-.077.15-.071.172-.066.195-.056.22-.022.123-.013.122-.007.121,0,.117.009.117.024.112.031.1.038.1.05.094.064.089.073.08.083.073.092.061.106.052.118.045.131.032.045.01.052.011.063.007.068.008.076.006h.164l.088-.006.089-.012.09-.016.086-.025.087-.027.085-.038.08-.045.073-.055.067-.061-.154.92-.021.018-.021.022-.028.023-.031.021-.038.028-.049.024-.055.024-.062.02-.08.024-.09.018-.1.014-.121.013-.134.007-.155,0-.176,0-.194-.01-.159-.019-.158-.034-.158-.052-.159-.07-.152-.081-.144-.1-.138-.12-.127-.138-.115-.154-.1-.174-.083-.193-.062-.21-.041-.231-.014-.244.008-.27.038-.287.028-.139.031-.14.035-.133.034-.128.036-.122.045-.12.044-.114.05-.107.052-.107.051-.1.058-.1.062-.089.063-.087.07-.084.068-.074.072-.072.08-.071.079-.065.083-.06.085-.054.1-.052.092-.044.1-.042.1-.038.108-.033.106-.028.109-.024.118-.021.118-.017.124-.014.123-.006.132,0,.111,0,.106.006.1.01.1.014.1.013.092.021.089.018.085.02.079.021.069.02.066.022.055.02.049.018.041.014.031.013.021.008-.173.954Z" transform="translate(-2674.331 -3709.361)"/><path class="e" d="M2697.742,3718.664h0l-.045-.024-.045-.02-.051-.024-.049-.025-.054-.02-.057-.021-.059-.02-.061-.019-.066-.018-.067-.014-.072-.014-.072-.01-.079-.007-.079-.008h-.256l-.089.008-.093.01-.1.018-.1.027-.1.038-.1.049-.1.06-.094.077-.091.089-.085.11-.082.129-.077.15-.071.172-.066.195-.056.22h0l-.022.123-.013.122-.007.121,0,.117.009.117.024.112.031.1.038.1.05.094.064.089.073.08.083.073.092.061.106.052.118.045.131.032h0l.045.01.052.011.063.007.068.008.076.006h.164l.088-.006.089-.012.09-.016.086-.025.087-.027.085-.038.08-.045.073-.055.067-.061-.154.92h0l-.021.018-.021.022-.028.023-.031.021-.038.028-.049.024-.055.024-.062.02-.08.024-.09.018-.1.014-.121.013-.134.007-.155,0-.176,0-.194-.01h0l-.159-.019-.158-.034-.158-.052-.159-.07-.152-.081-.144-.1-.138-.12-.127-.138-.115-.154-.1-.174-.083-.193-.062-.21-.041-.231-.014-.244.008-.27.038-.287h0l.028-.139.031-.14.035-.133.034-.128.036-.122.045-.12.044-.114.05-.107.052-.107.051-.1.058-.1.062-.089.063-.087.07-.084.068-.074.072-.072.08-.071.079-.065.083-.06.085-.054.1-.052.092-.044.1-.042.1-.038.108-.033.106-.028.109-.024.118-.021.118-.017.124-.014.123-.006.132,0h0l.111,0,.106.006.1.01.1.014.1.013.092.021.089.018.085.02.079.021.069.02.066.022.055.02.049.018.041.014.031.013.021.008-.173.954" transform="translate(-2674.331 -3709.361)"/><path class="d" d="M2718.626,3722.391h-.955l.069-.383v-.034l-.056.069-.056.062-.061.054-.062.049-.062.047-.062.036-.063.031-.065.032-.065.024-.065.016-.066.017-.067.011-.069.01-.066.007-.069,0h-.069l-.179-.014-.165-.037-.152-.06-.138-.077-.124-.1-.11-.117-.1-.129-.084-.144-.067-.156-.055-.161-.039-.169-.028-.177-.008-.176,0-.179.017-.176.031-.176.051-.2.063-.193.071-.176.086-.166.091-.156.1-.138.107-.124.113-.114.121-.1.129-.086.131-.076.13-.059.138-.048.138-.031.139-.02.142-.006.1,0,.1.01.09.019.083.023.08.029.068.029.066.039.064.04.056.039.051.047.044.044.041.044.036.044.03.045.028.042.021.041h0l.243-1.356h.936l-.778,4.511Z" transform="translate(-2686.727 -3709.601)"/><path class="e" d="M2718.626,3722.391h-.955l.069-.383v-.034h0l-.056.069-.056.062-.061.054-.062.049-.062.047-.062.036-.063.031-.065.032-.065.024-.065.016-.066.017-.067.011-.069.01-.066.007-.069,0h-.069l-.179-.014-.165-.037-.152-.06-.138-.077-.124-.1-.11-.117-.1-.129-.084-.144-.067-.156-.055-.161-.039-.169-.028-.177-.008-.176,0-.179.017-.176.031-.176h0l.051-.2.063-.193.071-.176.086-.166.091-.156.1-.138.107-.124.113-.114.121-.1.129-.086.131-.076.13-.059.138-.048.138-.031.139-.02.142-.006h0l.1,0,.1.01.09.019.083.023.08.029.068.029.066.039.064.04.056.039.051.047.044.044.041.044.036.044.03.045.028.042.021.041h0l.243-1.356h.936l-.778,4.511" transform="translate(-2686.727 -3709.601)"/><path class="b" d="M2718.619,3723.867l.1-.009.089-.019.082-.025.081-.038.072-.042.068-.052.065-.058.06-.063.051-.069.048-.075.045-.079.038-.083.035-.087.029-.09.023-.092.018-.094.016-.095.01-.1v-.094l0-.1-.01-.09-.013-.086-.026-.082-.027-.081-.036-.067-.04-.064-.045-.058-.051-.047-.059-.04-.062-.029-.065-.017-.071-.008-.094.008-.086.013-.08.028-.078.034-.07.045-.07.056-.057.058-.061.066-.051.074-.048.08-.044.083-.038.089-.036.093-.027.093-.028.1-.019.1-.017.15.008.167.023.168.046.162.067.142.09.114.115.077.138.028Z" transform="translate(-2688.281 -3711.911)"/><path class="d" d="M2664.064,3722.708l-.139.766h-.869l.024-.142.018-.127.012-.1.014-.05-.048.054-.055.056-.064.051-.073.049-.083.048-.087.04-.089.042-.094.036-.1.03-.1.025-.1.02-.1.015-.1.006-.1,0-.1-.01-.094-.015-.119-.032-.112-.034-.1-.045-.086-.051-.075-.056-.069-.062-.057-.064-.047-.071-.042-.072-.034-.075-.028-.076-.022-.076-.014-.079-.01-.08-.007-.077v-.074l.009-.135.021-.128.035-.12.044-.118.055-.111.063-.1.073-.1.081-.087.087-.079.1-.072.1-.065.1-.057.111-.045.114-.041.117-.03.12-.021h.008l.016,0,.025,0,.038,0,.042-.008.048,0,.05-.007.06-.006.059-.008.059-.007.063,0,.056-.006.055,0,.05,0,.049,0h.117l.083,0,.075,0h.077l.061,0,.049,0,.033,0h.011l.007-.024.021-.062.016-.072.007-.065-.012-.076-.031-.071-.041-.062-.056-.051-.065-.044-.073-.031-.084-.021-.089-.006-.1-.006-.1,0h-.106l-.111,0-.114.008-.11.01-.112.01-.107.014-.1.014-.1.017-.089.017-.083.018-.076.021-.064.021-.048.023-.038.021.244-.831.075-.031.077-.028.083-.025.083-.017.083-.016.09-.014.088-.014.094-.007.1-.008h.1l.1-.006h.329l.12.006h.122l.1.008.1.017.108.024.109.032.108.042.1.046.1.061.1.063.083.076.077.084.069.091.051.1.033.111.022.117v.13l-.022.137-.346,1.822Z" transform="translate(-2654.9 -3710.683)"/><path class="e" d="M2664.064,3722.708l-.139.766h-.869l.024-.142.018-.127.012-.1.014-.05h0l-.048.054-.055.056-.064.051-.073.049-.083.048-.087.04-.089.042-.094.036-.1.03-.1.025-.1.02-.1.015-.1.006-.1,0-.1-.01-.094-.015h0l-.119-.032-.112-.034-.1-.045-.086-.051-.075-.056-.069-.062-.057-.064-.047-.071-.042-.072-.034-.075-.028-.076-.022-.076-.014-.079-.01-.08-.007-.077v-.074h0l.009-.135.021-.128.035-.12.044-.118.055-.111.063-.1.073-.1.081-.087.087-.079.1-.072.1-.065.1-.057.111-.045.114-.041.117-.03.12-.021h.008l.016,0,.025,0,.038,0,.042-.008.048,0,.05-.007.06-.006.059-.008.059-.007.063,0,.056-.006.055,0,.05,0,.049,0h.117l.083,0,.075,0h.077l.061,0,.049,0,.033,0h.011l.007-.024.021-.062.016-.072.007-.065h0l-.012-.076-.031-.071-.041-.062-.056-.051-.065-.044-.073-.031-.084-.021-.089-.006h0l-.1-.006-.1,0h-.106l-.111,0-.114.008-.11.01-.112.01-.107.014-.1.014-.1.017-.089.017-.083.018-.076.021-.064.021-.048.023-.038.021.244-.831h0l.075-.031.077-.028.083-.025.083-.017.083-.016.09-.014.088-.014.094-.007.1-.008h.1l.1-.006h.329l.12.006h.122l.1.008.1.017.108.024.109.032.108.042.1.046.1.061.1.063.083.076.077.084.069.091.051.1.033.111.022.117v.13l-.022.137-.346,1.822" transform="translate(-2654.9 -3710.683)"/><path class="c" d="M2664.732,3724.623l0-.016-.014-.017-.021-.011-.036-.005-.037-.008-.046,0h-.1l-.054,0-.06.008-.054.005-.056.009-.051.006-.049.011-.041.01-.039.01-.022.008-.029.01-.039.014-.038.017-.043.021-.047.024-.046.023-.046.028-.046.035-.047.034-.041.04-.037.043-.036.044-.021.049-.022.055-.011.055,0,.116.018.094.037.069.045.053.049.034.061.02.055.01.053,0,.1,0,.093-.01.09-.014.081-.02.069-.024.064-.031.058-.031.052-.039.045-.034.042-.042.034-.038.029-.042.023-.04.021-.042.017-.038.011-.039.026-.1.026-.115.021-.111.016-.091Z" transform="translate(-2656.4 -3713.5)"/><path class="d" d="M2649.734,3722.368h-.937l.781-4.527h1.631l.155,2.687,1.128-2.687h1.7l-.8,4.527h-.938l.593-3.383h-.037l-1.4,3.383h-1.058l-.007-.142-.026-.375-.029-.534-.036-.615-.033-.616-.033-.54-.023-.394-.007-.166h-.051l-.573,3.383Z" transform="translate(-2647.824 -3709.579)"/><path class="e" d="M2649.734,3722.368h-.937l.781-4.527h1.631l.155,2.687,1.128-2.687h1.7l-.8,4.527h-.938l.593-3.383h-.037l-1.4,3.383h-1.058l-.007-.142-.026-.375-.029-.534-.036-.615-.033-.616-.033-.54-.023-.394-.007-.166h-.051l-.573,3.383" transform="translate(-2647.824 -3709.579)"/><path class="d" d="M2705.173,3722.708l-.144.766h-.865l.006-.142,0-.125v-.092l.007-.041-.044.051-.052.053-.061.046-.07.049-.072.044-.083.042-.086.041-.088.035-.092.027-.1.028-.1.017-.1.015-.1.006-.1,0-.091-.01-.094-.015-.124-.032-.11-.034-.1-.045-.092-.051-.076-.056-.064-.062-.056-.064-.048-.071-.041-.072-.033-.075-.027-.076-.017-.076-.016-.079-.009-.08-.008-.077v-.074l.008-.135.021-.128.03-.12.045-.118.052-.111.065-.1.073-.1.08-.087.09-.079.094-.072.1-.065.108-.057.106-.045.114-.041.114-.03.117-.021h.008l.015,0,.025,0,.034,0,.045-.008.048,0,.053-.007.052-.006.06-.008.063-.007.059,0,.058-.006.056,0,.048,0,.048,0h.12l.084,0,.079,0h.077l.064,0,.057,0,.029,0h.015l.007-.024.01-.062.012-.072.005-.065-.013-.076-.027-.071-.046-.062-.052-.051-.061-.044-.072-.031-.076-.021-.084-.006-.1-.006-.1,0h-.108l-.11,0-.115.008-.11.01-.11.01-.106.014-.1.014-.1.017-.091.017-.082.018-.077.021-.06.021-.051.023-.035.021.241-.831.074-.031.081-.028.081-.025.081-.017.085-.016.089-.014.088-.014.094-.007.1-.008h.1l.1-.006h.325l.116.006h.117l.1.008.1.017.106.024.113.032.106.042.106.046.1.061.1.063.088.076.078.084.069.091.051.1.038.111.025.117v.13l-.017.137-.36,1.822Z" transform="translate(-2678.895 -3710.683)"/><path class="d" d="M2709.179,3727.656l.021-.021.142-.765-.042-.007-.141.766.021-.021v.05l.016,0,0-.017-.021.021Z" transform="translate(-2683.044 -3714.842)"/><path class="d" d="M2707.078,3728.675l.02.023h.865v-.049h-.865l.019.026h-.039l0,.023h.024l-.02-.023Z" transform="translate(-2681.829 -3715.885)"/><path class="d" d="M2707.137,3727.743l-.03-.026-.014.055,0,.093v.124l-.005.142h.039l.009-.142.006-.124,0-.093v-.029l-.03-.026.034.026Z" transform="translate(-2681.834 -3715.341)"/><path class="d" d="M2704,3728.186h0l.1.014.092.011.1,0,.1-.007.1-.014.1-.018.1-.027.1-.027.088-.036.088-.04.083-.042.073-.049.071-.049.064-.046.056-.056.044-.053-.033-.026-.045.051-.05.048-.06.048-.066.048-.072.041-.082.042-.084.042-.086.033-.09.028-.1.027-.1.019-.092.012-.1.008-.1,0-.092-.011-.091-.012h0l-.006.041Z" transform="translate(-2680.032 -3715.341)"/><path class="d" d="M2701.99,3726.334h0l0,.074.005.077.012.083.012.079.019.078.028.077.031.081.044.072.048.073.056.063.068.067.08.055.089.054.1.045.114.035.125.032.007-.042-.124-.031-.108-.036-.093-.043-.091-.05-.07-.054-.063-.06-.055-.064-.048-.066-.039-.072-.031-.073-.027-.071-.018-.077-.014-.08-.009-.075-.007-.077,0-.074h-.048Z" transform="translate(-2678.863 -3714.534)"/><path class="d" d="M2703.228,3723.153h0l-.121.021-.116.033-.115.035-.109.048-.108.056-.1.068-.095.073-.087.083-.085.086-.07.1-.07.1-.05.114-.047.119-.031.124-.021.13-.009.135h.048l0-.135.02-.124.031-.117.046-.118.05-.106.063-.1.072-.1.074-.085.091-.076.1-.073.1-.063.107-.054.1-.048.115-.039.111-.032.114-.019h0v-.042Z" transform="translate(-2678.863 -3712.678)"/><path class="d" d="M2705.672,3722.98h-.039l-.048.008-.048,0-.056,0-.058.007-.059,0-.063.007-.06.006-.052.008-.053.006-.048,0-.045.009-.035,0-.026,0-.014,0h-.008v.042h.008l.021,0,.019,0,.035,0,.045-.006.048,0,.053-.008.052-.007.06-.007.063-.007.059,0,.058-.009.056,0,.048,0h.087v-.049Z" transform="translate(-2680.596 -3712.577)"/><path class="d" d="M2707.133,3723.018l.021-.016h-.015l-.029,0-.057,0-.065-.007h-.156l-.084-.008h-.082v.049h.166l.079.006h.142l.057.005.029,0h.015l.021-.018-.021.018.017,0,0-.02-.042-.008Z" transform="translate(-2681.592 -3712.577)"/><path class="d" d="M2707.819,3722.543h0l0,.064-.012.07-.01.062-.006.022.042.008.008-.024.009-.062.01-.076.01-.064h-.045Z" transform="translate(-2682.244 -3712.322)"/><path class="d" d="M2706.883,3721.662v0l.08,0,.071.021.069.03.058.042.048.047.042.06.028.062.012.072h.042l-.014-.079-.028-.077-.047-.066-.055-.055-.066-.048-.075-.031-.08-.02-.086-.01v.044Z" transform="translate(-2681.717 -3711.782)"/><path class="d" d="M2703.331,3721.815l.036.02.034-.017.044-.024.06-.02.075-.021.084-.017.089-.018.1-.016.1-.014.106-.014.111-.01.11-.011.115-.006h.32l.1,0v-.042l-.1,0-.1-.008h-.108l-.11.008-.115.006-.11.01-.111.01-.106.015-.107.013-.1.018-.09.016-.084.017-.075.021-.067.021-.051.023-.041.025.034.021-.041-.007Z" transform="translate(-2679.645 -3711.771)"/><path class="d" d="M2703.586,3720.083l-.014.017-.241.832.041.007.243-.831-.015.019-.013-.043-.01,0,0,.012.014-.017Z" transform="translate(-2679.645 -3710.887)"/><path class="d" d="M2705.478,3719.688h0l-.117-.006-.117,0h-.324l-.1.007-.1,0-.1.009-.094,0-.094.014-.085.014-.088.018-.082.017-.082.024-.078.028-.077.03.013.042.077-.031.078-.027.076-.026.083-.016.087-.017.085-.015.087-.012.094-.008.1-.007.1,0h.425l.117,0h.117v-.042Z" transform="translate(-2680.002 -3710.651)"/><path class="d" d="M2708.81,3720.87h0l.017-.141v-.13l-.023-.121-.038-.115-.055-.106-.071-.1-.081-.087-.085-.075-.1-.067-.1-.061-.11-.049-.108-.042-.112-.03-.109-.025-.106-.016-.1-.009v.042l.1.007.1.017.107.025.106.03.108.042.1.047.1.055.094.066.086.075.076.08.068.091.047.1.038.108.023.114v.13l-.016.135h0l.042.007Z" transform="translate(-2682.151 -3710.664)"/><path class="d" d="M2709.54,3724.319h0l.362-1.82-.042-.007-.362,1.82h0l.042.007Z" transform="translate(-2683.242 -3712.293)"/><path class="b" d="M2705.841,3724.619l-.007-.019-.016-.016-.021-.012-.036-.01-.036,0-.046,0h-.052l-.053,0-.053.007-.056.008-.055.006-.053.008-.051.01-.043.008-.046.01-.035.007-.024,0-.029.01-.033.01-.039.013-.044.021-.041.021-.048.024-.045.031-.046.031-.044.038-.039.038-.037.046-.031.046-.024.052-.021.056-.01.058,0,.117.017.093.027.07.041.053.051.034.06.021.058.009.06,0,.1,0,.1-.009.091-.018.079-.023.076-.028.065-.031.062-.036.056-.041.048-.038.041-.044.039-.042.032-.044.022-.042.017-.042.015-.041.01-.039.013-.1.015-.1.016-.1.007-.086Z" transform="translate(-2680.399 -3713.496)"/><path class="d" d="M2724.6,3726.924l.008-.081.027-.093.048-.083.06-.072.072-.059.085-.041.088-.029.1-.01.1.01.089.029.083.041.073.059.058.072.049.083.026.093.008.081h-.1l0-.064-.021-.076-.034-.068-.045-.06-.054-.047-.065-.035-.077-.024-.08-.007-.079.007-.076.024-.066.035-.054.047-.046.06-.035.068-.021.076-.006.064Z" transform="translate(-2692.053 -3714.606)"/><path class="d" d="M2725.341,3727.287v-.208h.19l.041,0,.039.007.027.01.024.014.017.021.013.021.007.023,0,.025,0,.031-.007.024-.01.021-.007.008h-.145l.013,0,.025,0,.02-.006.018-.008.014-.01.008-.01,0-.018v-.024l0-.018,0-.014-.012-.008-.01,0-.017,0-.017,0h-.142v.135Z" transform="translate(-2692.487 -3714.969)"/><path class="d" d="M2724.593,3727.579l0,.019.01.1.027.092.049.083.059.069.072.058.085.045.089.028.1.01.1-.01.088-.028.083-.045.073-.058.058-.069.049-.083.026-.092.01-.1,0-.019h-.1l0,.019-.008.084-.021.075-.034.066-.045.058-.053.048-.065.039-.077.024-.08.007-.079-.007-.076-.024-.065-.039-.054-.048-.045-.058-.034-.066-.021-.075-.006-.084v-.019Z" transform="translate(-2692.049 -3715.261)"/><path class="d" d="M2725.341,3727.579v.209h.087v-.172h.086l.1.172h.068l-.1-.172h.024l.023-.006.021-.009.018-.012.006-.01h-.145l-.018,0h-.086v0Z" transform="translate(-2692.487 -3715.261)"/><path class="e" d="M2724.59,3726.943h0l.01-.1.027-.093.048-.083.06-.071.071-.059.085-.041.089-.029.1-.01h0l.1.01.088.029.084.041.073.059.058.071.049.083.026.093.009.1h0l-.009.1-.026.093-.049.083-.058.07-.073.058-.084.045-.088.028-.1.01h0l-.1-.01-.089-.028-.085-.045-.071-.058-.06-.07-.048-.083-.027-.093-.01-.1m.4.189h-.087v-.417h.19l.041,0,.039.008.027.009.024.013.018.021.013.021.006.022.005.025h0l-.005.031-.006.024-.01.021-.012.018-.019.013-.021.008-.023.006h-.024l.1.172h-.069l-.1-.172h-.086v.172m.086-.206h0l.031-.008.025,0,.021-.006.018-.008.013-.009.008-.01,0-.018v-.024h0l0-.018-.005-.015-.012-.008-.009,0-.017,0-.017,0h-.142v.138h.086m0,.416h0l.08-.007.077-.024.065-.038.053-.048.045-.057.034-.066.021-.075.007-.083h0l-.007-.083-.021-.076-.034-.068-.045-.06-.053-.047-.065-.035-.077-.024-.08-.007h0l-.079.007-.076.024-.066.035-.054.047-.045.06-.035.068-.021.076-.006.083h0l.006.083.021.075.035.066.045.057.054.048.066.038.076.024.079.007" transform="translate(-2692.049 -3714.606)"/><path class="d" d="M2710.17,3723.483h.973l.347-1.963.015-.076.021-.076.021-.074.027-.077.034-.076.042-.072.045-.068.055-.067.064-.057.067-.056.079-.052.09-.041.1-.035.11-.028.12-.021.135-.007h.087l.154-.887-.1.008-.093.011-.086.018-.083.022-.075.027-.074.038-.068.036-.065.042-.062.049-.058.048-.056.055-.054.055-.053.059-.052.065-.051.064-.048.069.1-.624h-.969l-.645,3.693Z" transform="translate(-2683.635 -3710.693)"/><path class="e" d="M2710.17,3723.483h.973l.347-1.963h0l.015-.076.021-.076.021-.074.027-.077.034-.076.042-.072.045-.068.055-.067.064-.057.067-.056.079-.052.09-.041.1-.035.11-.028.12-.021.135-.007h.087l.154-.887h0l-.1.008-.093.011-.086.018-.083.022-.075.027-.074.038-.068.036-.065.042-.062.049-.058.048-.056.055-.054.055-.053.059-.052.065-.051.064-.048.069.1-.624h-.969l-.645,3.693h0" transform="translate(-2683.635 -3710.693)"/><path class="d" d="M2688.248,3723.483h.989l.331-1.963.014-.076.018-.073.018-.072.023-.07.028-.068.035-.065.04-.062.049-.058.055-.054.062-.051.077-.039.082-.039.1-.032.107-.026.117-.017.134-.012h.01l.013,0,.018,0h.017l.017,0,.015,0,.008,0h0l0-.014.012-.04.013-.063.016-.076.025-.089.023-.1.032-.1.031-.1.028-.066.035-.066.034-.064.034-.059.031-.051.024-.042.017-.024.008-.01h0l-.014,0-.015,0-.026,0h-.022l-.029,0-.023,0h-.027l-.106.008-.1.011-.089.018-.083.02-.079.029-.073.032-.066.034-.062.041-.057.046-.056.052-.051.051-.052.058-.052.061-.048.064-.052.069-.052.069.124-.624h-.988l-.646,3.693Z" transform="translate(-2670.844 -3710.693)"/><path class="e" d="M2688.248,3723.483h.989l.331-1.963h0l.014-.076.018-.073.018-.072.023-.07.028-.068.035-.065.04-.062.049-.058.055-.054.062-.051.077-.039.082-.039.1-.032.107-.026.117-.017.134-.012h.01l.013,0,.018,0h.017l.017,0,.015,0,.008,0h0l0-.014.012-.04.013-.063.016-.076.025-.089.023-.1.032-.1.031-.1h0l.028-.066.035-.066.034-.064.034-.059.031-.051.024-.042.017-.024.008-.01h0l-.014,0-.015,0-.026,0h-.022l-.029,0-.023,0h-.027l-.106.008-.1.011-.089.018-.083.02-.079.029-.073.032-.066.034-.062.041-.057.046-.056.052-.051.051-.052.058-.052.061-.048.064-.052.069-.052.069.124-.624h-.988l-.646,3.693h0" transform="translate(-2670.844 -3710.693)"/><path class="b" d="M2724.615,3736.88v-.012l.027-.091.048-.077.06-.07.071-.055.085-.042.089-.024.1-.01.1.01.088.024.084.042.073.055.058.07.049.077.026.091v.012h-.1l-.021-.07-.034-.067-.045-.057-.054-.049-.066-.038-.077-.024-.08-.008-.08.008-.076.024-.065.038-.054.049-.046.057-.034.067-.021.07Z" transform="translate(-2692.063 -3720.465)"/><path class="b" d="M2725.341,3737.248v-.119h.231l.039.007.027.007.024.013.017.018.013.021.007.024,0,.03h-.07v-.016l0-.018,0-.014-.012-.006-.01-.008-.017,0-.017,0h-.142v.068Z" transform="translate(-2692.487 -3720.833)"/><path class="b" d="M2724.59,3737.493l.01-.077h.1v0l-.006.073Z" transform="translate(-2692.049 -3721)"/><path class="b" d="M2725.341,3737.493v-.077h.087v.069h.086l.031,0,.025,0,.02-.008.018-.006.014-.009.008-.012,0-.018v-.008h.07l0,.025-.007.021-.01.019-.012.012Z" transform="translate(-2692.487 -3721)"/><path class="b" d="M2726.667,3737.493l-.008-.073v0h.1l.01.077Z" transform="translate(-2693.256 -3721)"/><path class="b" d="M2724.59,3737.6v.01l.01.1.027.093.049.083.059.073.072.059.085.042.089.027.1.01.1-.01.088-.027.083-.042.073-.059.058-.073.049-.083.026-.093.01-.1v-.01h-.1v.01l-.008.083-.021.076-.034.065-.045.058-.053.049-.065.039-.077.023-.08.008L2725,3738l-.076-.023-.065-.039-.054-.049-.045-.058-.034-.065-.021-.076-.006-.083v-.01Z" transform="translate(-2692.049 -3721.108)"/><path class="b" d="M2725.341,3737.6v.2h.087v-.174h.086l.1.174h.068l-.1-.174h.024l.023-.006.021-.008.018-.012h-.329Z" transform="translate(-2692.487 -3721.108)"/><path class="d" d="M2683.839,3720.84l-.028-.206-.049-.184-.068-.158-.086-.138-.1-.118-.114-.1-.124-.084-.135-.061-.138-.052-.141-.034-.141-.024-.142-.014-.135-.005-.28.015-.247.043-.225.063-.2.084-.174.1-.152.116-.135.133-.108.137-.1.144-.081.151-.062.148-.052.148-.038.145-.028.135-.022.128-.012.11-.019.282.011.255.039.231.058.2.084.183.1.159.118.14.133.118.146.1.156.086.162.068.168.049.173.042.172.024.172.017.168,0h.113l.11,0h.092l.089,0,.08-.008.072-.007.069-.005.062-.012.057-.011.056-.012.057-.017.051-.018.051-.022.056-.019.054-.028.058-.029.136-.848-.1.06-.1.053-.1.042-.1.039-.093.029-.1.021-.093.018-.093.014-.094.007-.09,0h-.092l-.09,0-.091-.007-.088-.011-.086-.01-.088-.014-.07-.015-.069-.024-.068-.031-.062-.039-.061-.041-.056-.052-.052-.052-.048-.058-.042-.058-.037-.065-.028-.065-.024-.064-.014-.065-.006-.065,0-.059.009-.044h2.235l.018-.212.052-.289.024-.263Zm-.933.318h-1.261v0h0l.009-.047.014-.073.021-.067.024-.069.032-.062.03-.059.038-.057.042-.05.045-.048.043-.041.054-.039.051-.031.058-.028.059-.021.058-.013.063-.01.065-.005.062.008.057.011.056.014.055.02.052.027.052.031.046.036.041.041.035.048.035.05.024.061.025.064.012.07.009.075v.084Z" transform="translate(-2666.327 -3710.644)"/></g></g></g></svg>