<svg xmlns="http://www.w3.org/2000/svg" width="55" height="40" viewBox="0 0 55 40"><defs><style>.a{fill:#fff;}.b{fill:#fa3;}.c{fill:#05b;}</style></defs><g transform="translate(-5828 -2358)"><rect class="a" width="55" height="40" rx="4" transform="translate(5828 2358)"/><g transform="translate(5840 2364)"><g transform="translate(0)"><g transform="translate(17.342)"><g transform="translate(0.653 0.465)"><path class="a" d="M2698.453,3857.069l-2.745-3.717-1.547,1.125-1.66-2.247,1.64-1.191a2.639,2.639,0,0,1,1.563-.494,2.727,2.727,0,0,1,2.2,1.07l4.028,5.455Z" transform="translate(-2692.501 -3850.545)"/></g><path class="a" d="M2694.953,3850.476a2.271,2.271,0,0,1,1.824.88l3.481,4.714h-2.321l-2.67-3.616a.358.358,0,0,0-.287-.145.349.349,0,0,0-.209.068l-1.261.917-1.106-1.5,1.261-.916a2.184,2.184,0,0,1,1.289-.405m0-.93h0a3.092,3.092,0,0,0-1.836.583l-1.26.915-.759.551.558.754,1.107,1.5.548.744.747-.544.8-.582,2.332,3.157.278.378h4.634l-1.1-1.483-3.481-4.713a3.192,3.192,0,0,0-2.572-1.258Z" transform="translate(-2691.098 -3849.546)"/></g><g transform="translate(3.476)"><g transform="translate(1.43 0.465)"><path class="a" d="M2676.962,3857.069l-2.745-3.716-5.111,3.716h-4.748l8.292-6.03a2.639,2.639,0,0,1,1.562-.494,2.727,2.727,0,0,1,2.2,1.07l4.028,5.455Z" transform="translate(-2664.359 -3850.545)"/></g><path class="a" d="M2672.568,3850.476a2.269,2.269,0,0,1,1.823.88l3.481,4.714h-2.321l-2.67-3.616a.357.357,0,0,0-.288-.145.348.348,0,0,0-.208.07l-5.075,3.69h-3.166l7.134-5.189a2.189,2.189,0,0,1,1.29-.405m0-.93h0a3.1,3.1,0,0,0-1.836.583l-7.135,5.189-2.313,1.683h6.329l.245-.178,4.615-3.356,2.331,3.156.279.378h4.634l-1.1-1.483-3.481-4.713a3.192,3.192,0,0,0-2.572-1.258Z" transform="translate(-2661.284 -3849.546)"/></g><g transform="translate(0 7.451)"><g transform="translate(0.465 0.465)"><path class="a" d="M2656.989,3886.09a2.173,2.173,0,0,1-2.178-2.165v-15.194a2.174,2.174,0,0,1,2.178-2.166h24.181a2.175,2.175,0,0,1,2.18,2.166v3.938H2677.3a3.66,3.66,0,1,0,0,7.32h6.054v3.937a2.174,2.174,0,0,1-2.18,2.165Z" transform="translate(-2654.811 -3866.566)"/></g><path class="a" d="M2680.635,3866.5a1.709,1.709,0,0,1,1.715,1.7v3.472h-5.589a4.125,4.125,0,1,0,0,8.25h5.589v3.472a1.708,1.708,0,0,1-1.715,1.7h-24.181a1.707,1.707,0,0,1-1.713-1.7V3868.2a1.708,1.708,0,0,1,1.713-1.7h24.181m0-.93h-24.181a2.64,2.64,0,0,0-2.643,2.631v15.195a2.64,2.64,0,0,0,2.643,2.63h24.181a2.641,2.641,0,0,0,2.645-2.63v-4.4h-6.52a3.2,3.2,0,1,1,0-6.39h6.52v-4.4a2.641,2.641,0,0,0-2.645-2.631Z" transform="translate(-2653.811 -3865.566)"/></g><g transform="translate(19.267 14.017)"><g transform="translate(0.465 0.465)"><path class="a" d="M2699.453,3887.076a3.2,3.2,0,1,1,0-6.393h6.514a1.373,1.373,0,0,1,1.374,1.368v3.659a1.372,1.372,0,0,1-1.374,1.365Zm.079-4.157a.915.915,0,1,0,.926.915A.922.922,0,0,0,2699.532,3882.918Z" transform="translate(-2696.236 -3880.683)"/></g><path class="a" d="M2705.433,3880.613a.907.907,0,0,1,.908.9v3.659a.906.906,0,0,1-.908.9h-6.514a2.731,2.731,0,1,1,0-5.463h6.514m-6.436,4.065a1.38,1.38,0,1,0-1.391-1.381,1.385,1.385,0,0,0,1.391,1.381m6.436-5h-6.514a3.662,3.662,0,1,0,0,7.323h6.514a1.836,1.836,0,0,0,1.839-1.831v-3.659a1.838,1.838,0,0,0-1.839-1.833Zm-6.436,4.065a.45.45,0,1,1,.461-.45.456.456,0,0,1-.461.45Z" transform="translate(-2695.236 -3879.683)"/></g><g transform="translate(0.93 0.93)"><path class="b" d="M2696.272,3853.448a.349.349,0,0,1,.209-.068.358.358,0,0,1,.287.145l2.67,3.615h2.32l-3.481-4.714a2.3,2.3,0,0,0-3.113-.475l-1.26.916,1.107,1.5Zm0,0" transform="translate(-2676.187 -3851.545)"/><path class="b" d="M2675.675,3853.449a.351.351,0,0,1,.208-.069.358.358,0,0,1,.288.145l2.67,3.615h2.321l-3.482-4.714a2.3,2.3,0,0,0-3.113-.475l-7.134,5.189h3.166Zm0,0" transform="translate(-2662.028 -3851.545)"/><path class="c" d="M2673.675,3876.864a4.145,4.145,0,0,1,4.155-4.125h5.589v-3.472a1.709,1.709,0,0,0-1.715-1.7h-24.181a1.708,1.708,0,0,0-1.712,1.7v15.195a1.706,1.706,0,0,0,1.712,1.7H2681.7a1.708,1.708,0,0,0,1.715-1.7v-3.472h-5.589a4.145,4.145,0,0,1-4.155-4.125Zm0,0" transform="translate(-2655.811 -3860.115)"/><path class="c" d="M2706.5,3881.683h-6.515a2.731,2.731,0,1,0,0,5.463h6.515a.906.906,0,0,0,.908-.9v-3.66A.907.907,0,0,0,2706.5,3881.683Zm-6.436,4.065a1.38,1.38,0,1,1,1.391-1.381A1.385,1.385,0,0,1,2700.067,3885.748Z" transform="translate(-2677.969 -3867.666)"/><g transform="translate(2.879 12.485)"><path class="a" d="M2668.1,3878.388a1.143,1.143,0,0,1,.855.312,1.189,1.189,0,0,1,.306.87,2.441,2.441,0,0,1-.21,1.022,1.641,1.641,0,0,1-.581.71,1.509,1.509,0,0,1-.859.247,1.082,1.082,0,0,1-1.189-1.182,2.383,2.383,0,0,1,.218-1.022,1.659,1.659,0,0,1,.594-.711A1.55,1.55,0,0,1,2668.1,3878.388Zm.326,1.191a.609.609,0,0,0-.1-.375.344.344,0,0,0-.294-.135.535.535,0,0,0-.385.176,1.242,1.242,0,0,0-.281.485,1.96,1.96,0,0,0-.1.633q0,.508.423.508a.521.521,0,0,0,.374-.174,1.193,1.193,0,0,0,.271-.471A2.041,2.041,0,0,0,2668.424,3879.579Z" transform="translate(-2664.365 -3878.388)"/><path class="a" d="M2674.745,3882.357l.042-.943c0-.1.011-.249.024-.439s.029-.344.046-.46h-.017a7.338,7.338,0,0,1-.257.819l-.4,1.023h-.861l-.14-2.379h.772v1.075c0,.255-.006.436-.017.544h.017q.1-.372.186-.619l.364-1h.906l-.042,1q-.019.271-.07.619h.017c.01-.031.021-.064.033-.1s.046-.134.1-.294.227-.569.51-1.225h.815l-1.139,2.379Z" transform="translate(-2667.983 -3879.238)"/><path class="a" d="M2682.577,3882.308h-.654l.021-.259h-.016a.721.721,0,0,1-.256.232.688.688,0,0,1-.311.069.592.592,0,0,1-.508-.235,1.116,1.116,0,0,1-.174-.673,2.074,2.074,0,0,1,.155-.766,1.453,1.453,0,0,1,.39-.59.787.787,0,0,1,.522-.2.611.611,0,0,1,.313.079.688.688,0,0,1,.241.257h.017l.112-.294h.656Zm-.88-.611a.265.265,0,0,0,.2-.123.927.927,0,0,0,.154-.328,1.5,1.5,0,0,0,.057-.4.483.483,0,0,0-.042-.219.139.139,0,0,0-.131-.083c-.108,0-.2.089-.291.266a1.326,1.326,0,0,0-.13.591C2681.515,3881.6,2681.575,3881.7,2681.7,3881.7Z" transform="translate(-2671.992 -3879.189)"/><path class="a" d="M2685.719,3879.978h.823l.092,1.18,0,.13v.183h.017q.078-.277.106-.347t.506-1.146h.88l-1.418,2.679a1.432,1.432,0,0,1-.472.561,1.193,1.193,0,0,1-.658.172,1.254,1.254,0,0,1-.325-.036v-.645a.909.909,0,0,0,.23.025.543.543,0,0,0,.3-.076.672.672,0,0,0,.208-.24l.049-.086Z" transform="translate(-2674.449 -3879.238)"/><path class="a" d="M2662.711,3890.683l.084-.219.2-.486.709-1.622h.711v1.663a4.079,4.079,0,0,1-.055.664c.015-.039.108-.281.282-.726l.641-1.6h.819l-1.344,3.07h-.976v-1.3c0-.217.009-.443.027-.68a6.2,6.2,0,0,1-.249.733l-.536,1.25h-.918l-.1-3.07h.783l-.021,1.54A5.932,5.932,0,0,1,2662.711,3890.683Z" transform="translate(-2662.002 -3883.72)"/><path class="a" d="M2672.21,3892.172h-.654l.021-.258h-.017a.723.723,0,0,1-.256.232.689.689,0,0,1-.311.069.592.592,0,0,1-.508-.235,1.115,1.115,0,0,1-.174-.673,2.08,2.08,0,0,1,.155-.767,1.461,1.461,0,0,1,.391-.59.789.789,0,0,1,.521-.2.618.618,0,0,1,.314.079.7.7,0,0,1,.241.258h.017l.112-.295h.656Zm-.881-.611a.264.264,0,0,0,.2-.123.924.924,0,0,0,.153-.328,1.5,1.5,0,0,0,.057-.4.484.484,0,0,0-.042-.219.14.14,0,0,0-.131-.083c-.108,0-.2.089-.291.266a1.327,1.327,0,0,0-.13.591Q2671.147,3891.561,2671.33,3891.561Z" transform="translate(-2666.447 -3884.466)"/><path class="a" d="M2676.416,3891.2h-.819l.7-3.268h.819Z" transform="translate(-2669.274 -3883.492)"/><path class="a" d="M2679.353,3891.2h-.819l.7-3.268h.819Z" transform="translate(-2670.844 -3883.492)"/><path class="a" d="M2682.7,3892.215a.949.949,0,0,1-.7-.249.935.935,0,0,1-.249-.692,1.767,1.767,0,0,1,.177-.8,1.261,1.261,0,0,1,.484-.54,1.366,1.366,0,0,1,.713-.184,1,1,0,0,1,.632.18.581.581,0,0,1,.23.481.736.736,0,0,1-.331.648,1.693,1.693,0,0,1-.958.226h-.125v.033c0,.208.115.311.347.311a1.113,1.113,0,0,0,.328-.049,2.229,2.229,0,0,0,.366-.156V3892a2,2,0,0,1-.442.167A2.144,2.144,0,0,1,2682.7,3892.215Zm.334-1.914a.313.313,0,0,0-.242.146.672.672,0,0,0-.135.33h.062a.648.648,0,0,0,.362-.087.266.266,0,0,0,.131-.23.162.162,0,0,0-.042-.113A.176.176,0,0,0,2683.031,3890.3Z" transform="translate(-2672.564 -3884.466)"/><path class="a" d="M2688.022,3891.061a1.133,1.133,0,0,0,.387-.1v.611a1.63,1.63,0,0,1-.719.141.735.735,0,0,1-.475-.133.536.536,0,0,1-.162-.438,1.964,1.964,0,0,1,.051-.395l.178-.844h-.326l.087-.4.461-.186.29-.5h.546l-.1.477h.609l-.133.611h-.611l-.178.8a1.371,1.371,0,0,0-.034.221A.117.117,0,0,0,2688.022,3891.061Z" transform="translate(-2675.35 -3883.966)"/></g></g></g></g></g></svg>