<svg xmlns="http://www.w3.org/2000/svg" width="55" height="40" viewBox="0 0 55 40"><defs><style>.a{fill:#fff;}.b{fill:none;}.c{fill:#05b;}.d{fill:#f16522;}.e{fill:#0057a2;}</style></defs><g transform="translate(-5895 -2451)"><rect class="a" width="55" height="40" rx="4" transform="translate(5895 2451)"/><g transform="translate(5905 2460)"><path class="b" d="M2884.641,4038.671a6.4,6.4,0,0,0-.6-.879v2.478a6.608,6.608,0,0,0,.631-.953A.873.873,0,0,0,2884.641,4038.671Z" transform="translate(-2852.126 -4027.954)"/><path class="c" d="M2828.068,4036.181c.821-.034,1.562-.062,2.3-.095.494-.023.988-.026,1.476-.086a.875.875,0,0,0,.752-.758.887.887,0,0,0-.569-.846,1.91,1.91,0,0,0-.643-.123c-.713-.023-1.429-.019-2.141-.031-.407-.006-.561-.142-.624-.539q-.267-1.665-.53-3.331a1.165,1.165,0,0,0-1.25-1.013c-.652.031-1.307.05-1.958.078-.371.017-.743.03-1.112.062a1.145,1.145,0,0,0-1.007,1.278c-.014,2.832-.011,5.662-.05,8.491h6.27q-.4-1.03-.769-2.071A5.122,5.122,0,0,1,2828.068,4036.181Z" transform="translate(-2819.321 -4023.443)"/><path class="c" d="M2869.689,4039.065a1.991,1.991,0,0,0,1.479-1.087c.365-.61.772-1.2,1.157-1.8a1.421,1.421,0,0,0-.035-1.714c-.566-.793-1.149-1.574-1.7-2.379a1.939,1.939,0,0,0-1.722-.869q-2.22,0-4.436,0a1.007,1.007,0,0,0-.385.04c-.71.3-1.426.584-2.117.925a1.68,1.68,0,0,1-1.471.086c-.687-.281-1.385-.531-2.084-.779a.781.781,0,0,0-1.112.577,1.436,1.436,0,0,0,.911,1.618c.724.272,1.44.563,2.179.795a2.632,2.632,0,0,0,1.171.156,18.715,18.715,0,0,0,1.986-.575c.109-.032.219-.065.367-.107v.439q0,2.936,0,5.872h5.811v-1.2Zm.017-4.792a6.445,6.445,0,0,1,.6.879.872.872,0,0,1,.034.646,6.6,6.6,0,0,1-.631.953Z" transform="translate(-2837.788 -4024.436)"/><path class="c" d="M2827.906,4016.839c-.4.01-.8.064-1.2.1a2.744,2.744,0,0,1-1.784-.154,1.464,1.464,0,0,0-.67-.137,2.536,2.536,0,0,0-2.512,1.433,2.567,2.567,0,0,0,.345,2.9,2.633,2.633,0,0,0,4.627-1.9c.2-.025.376-.049.553-.071a1.185,1.185,0,0,0,1.021-.734,5.411,5.411,0,0,0,.222-.623A.582.582,0,0,0,2827.906,4016.839Z" transform="translate(-2818.64 -4016.641)"/><path class="c" d="M2874.58,4017.892a2.771,2.771,0,1,0,2.772,2.794A2.77,2.77,0,0,0,2874.58,4017.892Z" transform="translate(-2845.581 -4017.31)"/><path class="d" d="M2836.713,4025.034q.133,1.817.27,3.636a1.329,1.329,0,0,0,1.483,1.372c.674,0,1.345,0,2.019,0v-.679c-1.624-.07-2.283-.574-2.339-1.7h1.474c.012.548.408.754.865.818V4027.2l-.629-.1c-.622-.1-1.609-.263-1.609-1.386s1.043-1.542,2.238-1.563v-.545l-2.435,0A1.233,1.233,0,0,0,2836.713,4025.034Z" transform="translate(-2826.806 -4020.365)"/><path class="d" d="M2846.733,4032.062c0-.376-.3-.476-.767-.561v1.208C2846.489,4032.653,2846.733,4032.41,2846.733,4032.062Z" transform="translate(-2831.758 -4024.59)"/><path class="d" d="M2848.019,4023.6l-2.053,0v.546c.973.079,2.005.434,2.069,1.572H2846.6a.727.727,0,0,0-.638-.647v1.13l.732.114c.937.15,1.507.561,1.507,1.351,0,.931-.529,1.648-2.239,1.7v.656c.849,0,1.7.006,2.542,0a1.2,1.2,0,0,0,1.319-1.426q-.12-1.8-.266-3.6A1.349,1.349,0,0,0,2848.019,4023.6Z" transform="translate(-2831.758 -4020.361)"/><path class="d" d="M2842.907,4027.216c0,.37.229.434.895.542v-1.09C2843.408,4026.668,2842.907,4026.782,2842.907,4027.216Z" transform="translate(-2830.121 -4022.004)"/><g transform="translate(2.166 17.155)"><path class="d" d="M2821.725,4054.793c.078-.445.032-.577-.132-.577-.259,0-.336.286-.523,1.346s-.209,1.345.05,1.345c.209,0,.291-.219.423-.961h.819l-.05.291c-.2,1.1-.773,1.362-1.314,1.362-.951,0-1.06-.577-.8-2.038.264-1.5.641-2.038,1.52-2.038.764,0,.965.483.833,1.241l-.046.248h-.819Z" transform="translate(-2820.076 -4053.525)"/><path class="d" d="M2826.18,4058.617a2.073,2.073,0,0,1,.01-.335h-.01a.722.722,0,0,1-.627.412c-.491,0-.619-.363-.528-.874a1.014,1.014,0,0,1,.851-.956l.337-.094a.358.358,0,0,0,.3-.324c.032-.181-.018-.275-.159-.275s-.246.082-.3.4h-.71a1.077,1.077,0,0,1,1.119-1c.573,0,.941.182.806.956l-.255,1.45a1.62,1.62,0,0,0-.036.643Zm.141-1.077.059-.357h-.009c-.055.077-.169.071-.3.137a.464.464,0,0,0-.237.385c-.032.2.023.324.146.324C2826.162,4058.029,2826.262,4057.864,2826.321,4057.54Z" transform="translate(-2822.708 -4054.617)"/><path class="d" d="M2830.708,4057.694a.56.56,0,0,0,0,.292.164.164,0,0,0,.154.1.292.292,0,0,0,.282-.253c.1-.527-1.151-.214-.951-1.34a1.082,1.082,0,0,1,1.142-.928c.614,0,.869.313.76.934h-.709c.045-.252-.022-.329-.159-.329a.254.254,0,0,0-.25.231c-.087.489,1.155.159.955,1.3a1.149,1.149,0,0,1-1.16.994c-.687,0-.9-.352-.787-1Z" transform="translate(-2825.363 -4054.617)"/><path class="d" d="M2835.073,4053.691h.819l-.228,1.279h.01a.748.748,0,0,1,.641-.406c.337,0,.61.187.5.808l-.4,2.242h-.819l.346-1.961c.042-.247,0-.352-.14-.352s-.219.1-.26.352l-.346,1.961h-.819Z" transform="translate(-2827.728 -4053.614)"/><path class="d" d="M2844.019,4053.525c.865,0,1.06.571.8,2.038s-.655,2.038-1.52,2.038-1.06-.571-.8-2.038S2843.155,4053.525,2844.019,4053.525Zm-.6,3.383c.259,0,.336-.285.523-1.345s.209-1.346-.05-1.346-.336.286-.523,1.346S2843.164,4056.908,2843.424,4056.908Z" transform="translate(-2832.014 -4053.525)"/><path class="d" d="M2847.964,4055.645h.792l-.064.362h.01a.746.746,0,0,1,.673-.439c.359,0,.61.17.5.808l-.4,2.242h-.819l.345-1.961c.042-.247,0-.352-.141-.352s-.218.1-.259.352l-.346,1.961h-.819Z" transform="translate(-2834.713 -4054.617)"/><path class="d" d="M2855.834,4053.691h1.229c.978,0,.864.934.682,1.961s-.4,1.961-1.374,1.961h-1.228Zm.282,3.186h.168c.328,0,.4-.165.587-1.225s.173-1.225-.154-1.225h-.169Z" transform="translate(-2838.833 -4053.614)"/><path class="d" d="M2861.784,4057.3l-.068.39c-.055.319.036.4.15.4.146,0,.255-.111.323-.517h.737a1.532,1.532,0,0,1-.378.83,1.033,1.033,0,0,1-.782.291c-.792,0-.969-.428-.773-1.561s.586-1.565,1.323-1.565c.655,0,.924.352.737,1.428l-.054.3Zm.568-.67c.055-.313.028-.456-.145-.456s-.25.143-.3.456l-.023.132h.45Z" transform="translate(-2841.923 -4054.617)"/><path class="d" d="M2866.1,4053.691h.819l-.691,3.922h-.819Z" transform="translate(-2844.323 -4053.614)"/><path class="d" d="M2868.451,4054.641h.819l-.523,2.972h-.819Zm.168-.95h.819l-.131.736h-.819Z" transform="translate(-2845.672 -4053.614)"/><path class="d" d="M2871.135,4055.734h.846l-.145,2.136h.009l.6-2.136h.847l-1.124,2.972h-.965Z" transform="translate(-2847.387 -4054.707)"/><path class="d" d="M2876.055,4057.3l-.068.39c-.054.319.036.4.15.4.145,0,.255-.111.323-.517h.737a1.525,1.525,0,0,1-.377.83,1.034,1.034,0,0,1-.782.291c-.791,0-.969-.428-.773-1.561s.587-1.565,1.324-1.565c.656,0,.923.352.737,1.428l-.055.3Zm.569-.67c.055-.313.027-.456-.145-.456s-.25.143-.3.456l-.023.132h.45Z" transform="translate(-2849.556 -4054.617)"/><path class="d" d="M2880.122,4055.645h.792l-.083.473h.009a.78.78,0,0,1,.646-.55h.132l-.165.923a.837.837,0,0,0-.2-.022c-.291,0-.483.137-.55.527l-.287,1.621h-.819Z" transform="translate(-2851.915 -4054.617)"/><path class="d" d="M2883.163,4058.958a.672.672,0,0,0,.178.021.322.322,0,0,0,.314-.225,1.134,1.134,0,0,0,0-.22l-.159-2.8h.846l-.1,2h.009l.591-2h.819l-1.2,3.07c-.264.682-.519.869-.96.869a3.947,3.947,0,0,1-.46-.022Z" transform="translate(-2853.755 -4054.707)"/></g><path class="e" d="M2850.066,4065.187h-34.648v-.547h34.739Z" transform="translate(-2815.418 -4042.315)"/></g></g></svg>