<svg xmlns="http://www.w3.org/2000/svg" width="55" height="40" viewBox="0 0 55 40"><defs><style>.a{fill:#fff;}.b{fill:#ee1c25;}.c{fill:red;}.d{fill:#0000ab;}.e{fill:#5e5f5e;}</style></defs><g transform="translate(-5811 -2451)"><rect class="a" width="55" height="40" rx="4" transform="translate(5811 2451)"/><g transform="translate(5817.947 2462.242)"><g transform="translate(17.002 8.134)"><path class="b" d="M2679.322,4039.853c.481-.007.963-.006,1.446,0,.007.569,0,1.138,0,1.708.535-.528.974-1.148,1.491-1.693.631-.037,1.27-.017,1.9-.009-.546.588-1.123,1.146-1.666,1.736.573.964,1.183,1.907,1.746,2.876-.583,0-1.167.021-1.749-.006-.344-.615-.643-1.254-.977-1.875-.254.244-.5.5-.736.76-.035.373,0,.75-.015,1.124-.482,0-.965.008-1.446,0Z" transform="translate(-2679.322 -4039.836)"/><path class="b" d="M2692.1,4039.843a5.143,5.143,0,0,1,.776-.01c.7,0,1.394-.015,2.093,0a1.234,1.234,0,0,1,1.1.654,1.069,1.069,0,0,1-.59,1.487c.169.135.41.157.567.321a1.256,1.256,0,0,1-.423,2.026,8.62,8.62,0,0,1-2.268.149c-.417-.013-.836.024-1.255-.012,0-1.539,0-3.078,0-4.616m1.443.918c-.012.293,0,.586-.007.879a6.977,6.977,0,0,0,.932-.023.435.435,0,0,0,.109-.777,3.006,3.006,0,0,0-1.034-.079m-.007,1.778c.006.313-.008.626.01.938a5.592,5.592,0,0,0,1.067-.043.456.456,0,0,0,.308-.609.516.516,0,0,0-.491-.286C2694.136,4042.533,2693.838,4042.538,2693.54,4042.54Z" transform="translate(-2686.91 -4039.823)"/><path class="b" d="M2703.6,4039.839c1.157-.012,2.314-.007,3.472-.007a2.155,2.155,0,0,1,.578.032c-.012.3,0,.607-.009.911q-1.292,1.338-2.575,2.686a3.5,3.5,0,0,0,.573.02c.7,0,1.4,0,2.1,0q.006.49,0,.98c-1.357.024-2.715,0-4.072.009a1.55,1.55,0,0,1-.339-.028c.016-.308-.005-.616.009-.923.685-.744,1.4-1.466,2.1-2.2a5.34,5.34,0,0,0,.459-.507c-.766-.006-1.534,0-2.3,0C2703.595,4040.487,2703.591,4040.164,2703.6,4039.839Z" transform="translate(-2693.58 -4039.825)"/></g><path class="c" d="M2648.371,4026.094l-3.638-6.3-3.635,6.3-3.636,6.3h14.545Zm.264,4.965h-8.759l2.43-4.207,2.428-4.207,2.429,4.207,2.43,4.207Z" transform="translate(-2637.462 -4019.795)"/><path class="d" d="M2648.371,4037.2l-3.638-6.3-3.635,6.3-3.636,6.3h14.545Zm.264,4.965h-8.759l2.43-4.207,2.428-4.206,2.429,4.206,2.43,4.207Z" transform="translate(-2637.462 -4026.39)"/><g transform="translate(17.072 14.099)"><path class="e" d="M2679.494,4054.63h1.184a1.272,1.272,0,0,1,.566.107.94.94,0,0,1,.356.309,1.359,1.359,0,0,1,.2.468,2.453,2.453,0,0,1,.063.565,2.2,2.2,0,0,1-.094.726,1.22,1.22,0,0,1-.262.432.831.831,0,0,1-.359.232,1.645,1.645,0,0,1-.475.08h-1.184Zm.8.661v1.595h.2a.735.735,0,0,0,.355-.062.417.417,0,0,0,.165-.219,1.547,1.547,0,0,0,.06-.507,1.08,1.08,0,0,0-.134-.635.529.529,0,0,0-.443-.171Z" transform="translate(-2679.494 -4054.58)"/><path class="e" d="M2686.446,4054.63h.8v2.919h-.8Z" transform="translate(-2683.622 -4054.58)"/><path class="e" d="M2689.847,4057.549v-2.919h1.329a1.718,1.718,0,0,1,.565.072.613.613,0,0,1,.315.266,1,1,0,0,1,.028.892.771.771,0,0,1-.251.286.907.907,0,0,1-.28.115.751.751,0,0,1,.207.107.878.878,0,0,1,.127.154,1.165,1.165,0,0,1,.112.181l.386.846h-.9l-.426-.892a.673.673,0,0,0-.144-.225.309.309,0,0,0-.2-.068h-.07v1.185Zm.8-1.736h.336a1.1,1.1,0,0,0,.211-.04.211.211,0,0,0,.129-.092.294.294,0,0,0,.05-.169.286.286,0,0,0-.079-.217.436.436,0,0,0-.3-.076h-.35Z" transform="translate(-2685.642 -4054.58)"/><path class="e" d="M2696.717,4054.63h2.136v.623h-1.337v.464h1.24v.595h-1.24v.576h1.375v.661h-2.174Z" transform="translate(-2689.722 -4054.58)"/><path class="e" d="M2704.709,4056.281l.7.239a1.564,1.564,0,0,1-.222.555.99.99,0,0,1-.376.336,1.263,1.263,0,0,1-.571.114,1.493,1.493,0,0,1-.687-.138,1.157,1.157,0,0,1-.46-.487,1.815,1.815,0,0,1-.193-.891,1.64,1.64,0,0,1,.34-1.113,1.21,1.21,0,0,1,.963-.389,1.2,1.2,0,0,1,.767.223,1.321,1.321,0,0,1,.414.685l-.7.177a.728.728,0,0,0-.077-.195.483.483,0,0,0-.164-.16.433.433,0,0,0-.217-.055.456.456,0,0,0-.415.247,1.164,1.164,0,0,0-.109.575,1.207,1.207,0,0,0,.13.665.425.425,0,0,0,.366.18.418.418,0,0,0,.346-.145A.952.952,0,0,0,2704.709,4056.281Z" transform="translate(-2693.393 -4054.507)"/><path class="e" d="M2709.583,4054.63h2.423v.721h-.813v2.2h-.8v-2.2h-.812Z" transform="translate(-2697.362 -4054.58)"/><path class="e" d="M2719.385,4054.63h1.325a.841.841,0,0,1,.648.233.942.942,0,0,1,.215.663.966.966,0,0,1-.235.691.942.942,0,0,1-.717.249h-.437v1.083h-.8Zm.8,1.245h.2a.455.455,0,0,0,.324-.091.308.308,0,0,0,.093-.232.347.347,0,0,0-.081-.233.387.387,0,0,0-.3-.1h-.227Z" transform="translate(-2703.183 -4054.58)"/><path class="e" d="M2726.255,4057.067h-.9l-.126.481h-.814l.969-2.919h.869l.969,2.919h-.835Zm-.165-.632-.285-1.049-.281,1.049Z" transform="translate(-2706.167 -4054.58)"/><path class="e" d="M2730.553,4054.63h.885l.519.985.521-.985h.88l-1,1.7v1.223h-.8v-1.223Z" transform="translate(-2709.815 -4054.58)"/></g></g></g></svg>