<svg xmlns="http://www.w3.org/2000/svg" width="55" height="40" viewBox="0 0 55 40"><defs><style>.a,.e{fill:#fff;}.b{fill:#ce0e2d;}.c{fill:#002856;}.d{fill:#007078;}.e{fill-rule:evenodd;}</style></defs><g transform="translate(-5967 -2376)"><rect class="a" width="55" height="40" rx="4" transform="translate(5967 2376)"/><g transform="translate(5979.547 2386.844)"><path class="b" d="M2979.148,3853.9h7.253a1.413,1.413,0,0,1,1.4,1.84l-3.377,14.493a2.46,2.46,0,0,1-2.262,1.837h-7.249a1.413,1.413,0,0,1-1.406-1.837l3.376-14.493A2.46,2.46,0,0,1,2979.148,3853.9Z" transform="translate(-2973.463 -3853.897)"/><g transform="translate(6.646)"><path class="c" d="M2997.914,3853.9h8.338c1.011,0,.555.827.317,1.84l-3.375,14.493c-.237,1.011-.163,1.837-1.177,1.837h-8.336a1.409,1.409,0,0,1-1.4-1.837l3.375-14.493A2.462,2.462,0,0,1,2997.914,3853.9Z" transform="translate(-2992.226 -3853.897)"/></g><g transform="translate(14.652)"><path class="d" d="M3020.517,3853.9h7.249a1.41,1.41,0,0,1,1.4,1.84l-3.373,14.493a2.465,2.465,0,0,1-2.266,1.837h-7.247a1.411,1.411,0,0,1-1.406-1.837l3.375-14.493A2.463,2.463,0,0,1,3020.517,3853.9Z" transform="translate(-3014.828 -3853.897)"/></g><g transform="translate(17.914 10.1)"><path class="e" d="M3025.255,3885.944h.684l.193-.657h-.68Zm.542-1.813-.232.777a3.775,3.775,0,0,1,.4-.174c.142-.032.355-.059.355-.059l.167-.544h-.688m.344-1.117-.229.748a3.713,3.713,0,0,1,.393-.154,2.062,2.062,0,0,1,.351-.049l.162-.544h-.678m1.51,0-.883,2.925h.238l-.187.6h-.234l-.057.185h-.839l.055-.185h-1.707l.17-.561h.173l.9-2.969.176-.6h.858l-.089.3a1.6,1.6,0,0,1,.444-.22c.217-.057,1.461-.078,1.461-.078l-.184.6h-.295" transform="translate(-3024.039 -3882.414)"/></g><g transform="translate(21.907 10.104)"><path class="a" d="M3035.311,3882.424h.915l.011.34c-.008.059.043.085.149.085h.185l-.168.563h-.5c-.427.03-.59-.153-.578-.36Z" transform="translate(-3035.311 -3882.424)"/></g><g transform="translate(20.645 11.251)"><path class="a" d="M3033.131,3887.185h-.873l.147-.5h1l.142-.458h-.985l.167-.567h2.744l-.171.567h-.921l-.144.458h.922l-.151.5h-1l-.178.212h.4l.1.632c.01.063.01.1.032.131a.52.52,0,0,0,.212.034h.123l-.187.615h-.312c-.047,0-.12,0-.219-.008a.624.624,0,0,1-.221-.094.3.3,0,0,1-.162-.214l-.1-.631-.454.621a.768.768,0,0,1-.667.346h-.635l.168-.549h.242a.362.362,0,0,0,.177-.052.258.258,0,0,0,.135-.11Z" transform="translate(-3031.748 -3885.66)"/></g><g transform="translate(11.986 11.403)"><path class="a" d="M3007.786,3886.09h2.311l-.17.551H3009l-.146.469h.947l-.174.57h-.947l-.228.765c-.027.085.227.1.318.1l.472-.064-.191.629h-1.064a.978.978,0,0,1-.244-.034.252.252,0,0,1-.168-.122.246.246,0,0,1-.058-.246l.306-1.015h-.524l.174-.579H3008l.139-.469h-.525Z" transform="translate(-3007.302 -3886.09)"/></g><g transform="translate(12.362 10.097)"><path class="a" d="M3010.027,3882.718h.949l-.174.578h-1.294l-.14.122c-.06.057-.081.034-.161.076a.944.944,0,0,1-.425.108h-.418l.168-.553h.126a.448.448,0,0,0,.212-.031.511.511,0,0,0,.142-.182l.238-.433h.943Z" transform="translate(-3008.364 -3882.404)"/></g><g transform="translate(14.176 10.1)"><path class="e" d="M3015.152,3883.673a1.487,1.487,0,0,1,.7-.312c.1-.019.732-.013.732-.013l.1-.315h-1.334Zm1.251.242h-1.322l-.082.267h1.147a1.088,1.088,0,0,1,.173,0l.083-.264m-1.714-1.5h.807l-.117.406a2.44,2.44,0,0,1,.435-.278,4.021,4.021,0,0,1,.578-.124l1.308-.009-.444,1.483a1.71,1.71,0,0,1-.219.494.562.562,0,0,1-.219.2.877.877,0,0,1-.3.1c-.087.005-.219.008-.4.01h-1.261l-.355,1.172c-.032.116-.047.172-.027.2a.144.144,0,0,0,.121.059l.554-.052-.189.643h-.62c-.2,0-.342,0-.442-.013a.526.526,0,0,1-.266-.05c-.055-.051-.144-.12-.142-.187a2.357,2.357,0,0,1,.073-.315l1.13-3.749" transform="translate(-3013.486 -3882.414)"/></g><g transform="translate(15.86 12.496)"><path class="a" d="M3020.113,3889.177l-.074.355a.491.491,0,0,1-.144.267.58.58,0,0,1-.435.154l-.449.018,0,.4c-.005.113.024.1.042.12a.185.185,0,0,0,.061.037l.142-.009.427-.026-.178.589h-.491a1.581,1.581,0,0,1-.682-.073c-.083-.053-.093-.119-.091-.232l.03-1.568h.784l-.011.319h.189a.269.269,0,0,0,.136-.023.135.135,0,0,0,.051-.081l.079-.251Z" transform="translate(-3018.238 -3889.177)"/></g><g transform="translate(3.261 4.627)"><path class="a" d="M2985.952,3866.961c-.026.13-.529,2.45-.531,2.451a1.7,1.7,0,0,1-.454,1.021.81.81,0,0,1-.534.187.5.5,0,0,1-.558-.475l-.006-.108s.1-.629.1-.631.529-2.116.623-2.4a.268.268,0,0,0,.008-.032,7.5,7.5,0,0,1-1.221-.017c-.009.023-.034.155-.034.155l-.538,2.383-.045.2-.093.661a.976.976,0,0,0,.117.493c.246.428.947.491,1.342.491a2.613,2.613,0,0,0,1.313-.306,1.953,1.953,0,0,0,.84-1.312l.061-.236s.544-2.2.637-2.482c0-.016,0-.025.009-.032A7.944,7.944,0,0,1,2985.952,3866.961Z" transform="translate(-2982.67 -3866.961)"/></g><g transform="translate(7.145 6.389)"><path class="a" d="M2996.043,3874.537c-.363-.005-.493-.005-.92.017l-.015-.032c.036-.162.077-.323.113-.486l.051-.222c.081-.345.155-.747.167-.869.007-.073.032-.255-.176-.255a.685.685,0,0,0-.276.085c-.051.185-.155.7-.2.934-.105.5-.112.553-.161.8l-.028.033c-.378-.005-.508-.005-.939.017l-.02-.037c.071-.292.143-.589.213-.885a12.4,12.4,0,0,0,.274-1.508l.036-.024c.419-.058.521-.071.979-.164l.04.042-.072.254c.077-.046.153-.092.23-.133a1.454,1.454,0,0,1,.586-.137.5.5,0,0,1,.51.288c.087.206.03.459-.083.959l-.061.255c-.115.557-.134.658-.2,1.04Z" transform="translate(-2993.634 -3871.936)"/></g><g transform="translate(10.036 6.939)"><path class="a" d="M3002.8,3875.54c-.221,0-.363-.006-.5,0s-.272.008-.476.018l-.011-.018-.013-.019a3.758,3.758,0,0,1,.114-.359,2.38,2.38,0,0,0,.1-.364c.064-.281.1-.474.13-.646s.046-.307.068-.469l.015-.014.019-.014.5-.075c.142-.019.287-.047.513-.091l.008.02.006.02c-.04.173-.085.345-.123.522s-.085.347-.123.52c-.081.367-.115.5-.134.6s-.025.145-.057.333l-.021.018Z" transform="translate(-3001.796 -3873.489)"/></g><g transform="translate(11.699 6.432)"><path class="a" d="M3008.146,3873.319a1.864,1.864,0,0,1-.212.595.351.351,0,0,1-.274.178c-.028,0-.209,0-.211-.269a1.707,1.707,0,0,1,.059-.414c.094-.425.21-.783.5-.783C3008.231,3872.627,3008.248,3872.892,3008.146,3873.319Zm.956.04c.127-.562.031-.824-.1-.982a1.072,1.072,0,0,0-.873-.321,1.6,1.6,0,0,0-1.1.381,1.774,1.774,0,0,0-.487.946c-.079.343-.17.963.4,1.191a1.684,1.684,0,0,0,.592.1,1.554,1.554,0,0,0,1.164-.455,2.087,2.087,0,0,0,.4-.856" transform="translate(-3006.491 -3872.056)"/></g><g transform="translate(22.226 6.456)"><path class="a" d="M3037.21,3874.7c-.44,0-.567,0-.973.013l-.025-.033c.108-.417.219-.834.318-1.258a9.052,9.052,0,0,0,.2-1.1l.032-.027c.441-.062.562-.079,1.015-.164l.013.039c-.083.344-.164.687-.246,1.035-.168.724-.227,1.089-.291,1.467Z" transform="translate(-3036.213 -3872.125)"/></g><g transform="translate(20.824 6.464)"><path class="a" d="M3033.994,3873.426a2.043,2.043,0,0,1-.219.592.493.493,0,0,1-.354.173c-.028,0-.208,0-.213-.266a1.729,1.729,0,0,1,.061-.414c.1-.418.208-.77.5-.77C3033.994,3872.742,3034.09,3873,3033.994,3873.426Zm.869.043c.129-.559-.387-.051-.47-.235-.125-.288-.048-.867-.552-1.062a1.222,1.222,0,0,0-1.045.379,1.785,1.785,0,0,0-.484.941c-.079.338-.17.957.395,1.176a1.1,1.1,0,0,0,.507.09c.567-.029,1-.889,1.321-1.227.248-.269.289.1.329-.062" transform="translate(-3032.253 -3872.147)"/></g><g transform="translate(14.395 6.389)"><path class="a" d="M3016.51,3874.537c-.367-.005-.493-.005-.919.017l-.015-.032c.036-.162.077-.323.115-.486l.051-.222c.08-.345.155-.747.165-.869.008-.073.034-.255-.176-.255a.676.676,0,0,0-.276.085c-.051.185-.157.7-.206.934-.1.5-.111.553-.156.8l-.034.033c-.375-.005-.5-.005-.936.017l-.019-.037c.07-.292.144-.589.212-.885a12.852,12.852,0,0,0,.274-1.508l.031-.024c.422-.058.526-.071.983-.164l.036.042-.066.254c.074-.046.151-.092.227-.133a1.461,1.461,0,0,1,.588-.137.5.5,0,0,1,.512.288c.085.206.026.459-.087.959l-.057.255c-.123.557-.137.658-.2,1.04Z" transform="translate(-3014.104 -3871.936)"/></g><g transform="translate(17.4 4.62)"><path class="a" d="M3025.147,3866.945l-.3,0c-.79.011-1.1.007-1.234-.008l-.032.158-.284,1.313s-.675,2.782-.707,2.913c.688-.008.972-.008,1.09.005.026-.13.188-.91.188-.91s.136-.568.143-.59a.355.355,0,0,1,.087-.082h.062a2.9,2.9,0,0,0,1.788-.388,1.89,1.89,0,0,0,.712-1.132,1.683,1.683,0,0,0,.049-.393.826.826,0,0,0-.142-.5C3026.3,3866.955,3025.763,3866.947,3025.147,3866.945Zm.394,1.362a.957.957,0,0,1-.493.652,1.568,1.568,0,0,1-.7.109h-.165l.011-.065s.3-1.306.3-1.3l.011-.067,0-.051.121.014.634.053a.515.515,0,0,1,.274.657" transform="translate(-3022.587 -3866.939)"/></g><g transform="translate(23.851 6.412)"><path class="a" d="M3043.775,3872.041l-.035-.042c-.449.093-.53.107-.943.164l-.03.03a.163.163,0,0,0-.006.018v-.007c-.308.71-.3.557-.551,1.117,0-.025,0-.041,0-.067l-.064-1.212-.038-.042c-.472.093-.484.107-.918.164l-.034.03c0,.013,0,.029-.007.046l0,.007c.051.278.039.216.1.654.024.217.059.433.083.646.044.356.068.531.119,1.074-.295.486-.363.669-.646,1.1l.019.039c.425-.014.524-.014.837-.014l.071-.08C3041.965,3875.149,3043.775,3872.041,3043.775,3872.041Z" transform="translate(-3040.801 -3871.999)"/></g><g transform="translate(10.492 6.163)"><path class="a" d="M3004.026,3871.887c.242-.167.272-.4.07-.52a.827.827,0,0,0-.809.087c-.244.163-.272.4-.066.518A.821.821,0,0,0,3004.026,3871.887Z" transform="translate(-3003.083 -3871.298)"/></g><g transform="translate(23.177 10.117)"><path class="a" d="M3040.463,3882.46l-.354.606a.7.7,0,0,1-.65.365l-.563-.01.164-.546h.109a.3.3,0,0,0,.133-.019.167.167,0,0,0,.071-.066l.21-.33Z" transform="translate(-3038.896 -3882.46)"/></g></g></g></svg>