<svg xmlns="http://www.w3.org/2000/svg" width="55" height="40" viewBox="0 0 55 40"><defs><style>.a{fill:#fff;}.b{fill:#05b;}.c{fill:#f9a533;}</style></defs><g transform="translate(-5645 -2344)"><rect class="a" width="55" height="40" rx="4" transform="translate(5645 2344)"/><g transform="translate(5652 2357)"><g transform="translate(12.682 0.204)"><g transform="translate(0.465 0.465)"><path class="b" d="M2519.449,3720.129a.465.465,0,0,1-.459-.54l1.839-11.295a.465.465,0,0,1,.459-.39h2.942a.465.465,0,0,1,.459.54l-1.837,11.3a.466.466,0,0,1-.459.39Z" transform="translate(-2518.983 -3707.904)"/></g><path class="a" d="M2523.694,3707.834l-1.838,11.294h-2.943l1.839-11.294h2.941m0-.93h-2.941a.93.93,0,0,0-.918.781L2518,3718.979a.93.93,0,0,0,.918,1.08h2.943a.93.93,0,0,0,.918-.781l1.837-11.295a.93.93,0,0,0-.918-1.08Zm0,1.86h0Z" transform="translate(-2517.984 -3706.904)"/></g><g transform="translate(0 0.204)"><g transform="translate(0.465 0.465)"><path class="b" d="M2497.815,3720.129a.465.465,0,0,1-.45-.348l-2.508-9.627a10.593,10.593,0,0,0-2.771-1.14.465.465,0,0,1-.352-.583l.055-.19a.464.464,0,0,1,.447-.337h4.635a1.718,1.718,0,0,1,1.855,1.427l.992,5.073,2.235-6.193a.464.464,0,0,1,.437-.307h3.165a.465.465,0,0,1,.43.643l-4.677,11.294a.464.464,0,0,1-.43.287Z" transform="translate(-2491.717 -3707.904)"/></g><path class="a" d="M2505.022,3707.834h0m0,0-4.677,11.294h-3.065l-2.555-9.813a11,11,0,0,0-3.077-1.291l.054-.19h4.635a1.255,1.255,0,0,1,1.393,1.016l.991,5.079.331,1.673,2.8-7.768h3.165m0-.93h-3.167a.93.93,0,0,0-.875.615l-1.664,4.609-.669-3.429a2.177,2.177,0,0,0-2.312-1.794H2491.7a.93.93,0,0,0-.895.675l-.054.19a.931.931,0,0,0,.705,1.166,10.045,10.045,0,0,1,2.464.992l2.458,9.436a.93.93,0,0,0,.9.7h3.065a.929.929,0,0,0,.859-.574l4.661-11.253a.931.931,0,0,0-.84-1.328Zm0,1.86h0Z" transform="translate(-2490.718 -3706.904)"/></g><g transform="translate(25.579 0.204)"><g transform="translate(0.465 0.465)"><path class="b" d="M2554.94,3720.129a.466.466,0,0,1-.456-.372l-.267-1.3h-3.034l-.5,1.371a.465.465,0,0,1-.437.3h-3.064a.465.465,0,0,1-.429-.645l4.385-10.454a1.805,1.805,0,0,1,1.788-1.125h2.365a.464.464,0,0,1,.455.37l2.354,11.295a.464.464,0,0,1-.456.56Zm-1.391-4.926-.425-2.063-.754,2.063Z" transform="translate(-2546.714 -3707.904)"/></g><path class="a" d="M2554.753,3707.834l2.353,11.294h-2.7l-.344-1.677h-3.738l-.614,1.677h-3.064l4.385-10.454a1.354,1.354,0,0,1,1.359-.84h2.365m-3.583,7.3h2.414l-.869-4.226-1.545,4.226m3.583-8.229h-2.365a2.283,2.283,0,0,0-2.229,1.439l-4.373,10.426a.93.93,0,0,0,.858,1.29h3.064a.929.929,0,0,0,.873-.61l.39-1.067h2.33l.191.934a.93.93,0,0,0,.911.743h2.7a.93.93,0,0,0,.911-1.12l-2.353-11.295a.93.93,0,0,0-.911-.74Z" transform="translate(-2545.714 -3706.904)"/></g><g transform="translate(17.435)"><g transform="translate(0.465 0.465)"><path class="b" d="M2532.99,3720.09a8.665,8.665,0,0,1-3.526-.687.466.466,0,0,1-.254-.5l.439-2.535a.467.467,0,0,1,.294-.356.474.474,0,0,1,.165-.03.466.466,0,0,1,.291.1,4.651,4.651,0,0,0,2.576.688c.7,0,1.521-.161,1.521-.617,0-.364-.633-.7-1.3-1.052-1.167-.618-2.765-1.463-2.765-3.436,0-3.326,3.526-4.2,5.391-4.2a8.906,8.906,0,0,1,2.811.524.464.464,0,0,1,.293.514l-.42,2.426a.465.465,0,0,1-.683.328,4.862,4.862,0,0,0-2.134-.474c-.647,0-1.3.15-1.3.487,0,.23.657.583,1.186.868,1.231.664,2.919,1.573,2.919,3.619C2538.489,3718.936,2535.2,3720.09,2532.99,3720.09Z" transform="translate(-2529.203 -3707.466)"/></g><path class="a" d="M2535.282,3707.4a8.5,8.5,0,0,1,2.646.493l-.419,2.426a5.325,5.325,0,0,0-2.359-.532c-.95,0-1.765.272-1.765.952,0,1.277,4.105,1.552,4.105,4.487,0,2.829-3.028,3.869-5.035,3.869a8.229,8.229,0,0,1-3.322-.64l.439-2.535a5.1,5.1,0,0,0,2.867.791c1.067,0,1.986-.314,1.986-1.083,0-1.532-4.068-1.569-4.068-4.488,0-3.1,3.466-3.74,4.926-3.74m0-.93c-2.025,0-5.856.976-5.856,4.67,0,2.253,1.813,3.212,3.013,3.847a5.574,5.574,0,0,1,1.014.62,2.289,2.289,0,0,1-1.014.174,4.265,4.265,0,0,1-2.285-.587.93.93,0,0,0-1.5.567l-.438,2.535a.931.931,0,0,0,.509.995,9.167,9.167,0,0,0,3.729.734c2.4,0,5.965-1.278,5.965-4.8,0-2.324-1.9-3.349-3.164-4.028-.224-.121-.522-.281-.735-.419a2.794,2.794,0,0,1,.629-.062,4.43,4.43,0,0,1,1.909.417.93.93,0,0,0,1.365-.656l.42-2.426a.93.93,0,0,0-.586-1.028,9.423,9.423,0,0,0-2.976-.554Z" transform="translate(-2528.203 -3706.466)"/></g><g transform="translate(0 0.204)"><g transform="translate(0.465 0.465)"><path class="c" d="M2499.256,3714.929a.465.465,0,0,1-.442-.321,8.448,8.448,0,0,0-2.56-3.5,11.047,11.047,0,0,0-4.168-2.1.466.466,0,0,1-.352-.584l.055-.19a.464.464,0,0,1,.447-.337h4.635a1.718,1.718,0,0,1,1.855,1.427l.986,5.044a.465.465,0,0,1-.341.54A.455.455,0,0,1,2499.256,3714.929Z" transform="translate(-2491.717 -3707.904)"/></g><path class="a" d="M2496.337,3707.834a1.255,1.255,0,0,1,1.393,1.016l.991,5.079a8.8,8.8,0,0,0-2.709-3.714,11.4,11.4,0,0,0-4.365-2.191l.054-.19h4.635m0-.93H2491.7a.93.93,0,0,0-.895.675l-.054.19a.93.93,0,0,0,.705,1.166,10.6,10.6,0,0,1,3.969,2,7.987,7.987,0,0,1,2.411,3.281.933.933,0,0,0,.884.638.915.915,0,0,0,.236-.031.929.929,0,0,0,.677-1.076l-.986-5.053a2.177,2.177,0,0,0-2.312-1.794Z" transform="translate(-2490.718 -3706.904)"/></g></g></g></svg>