<svg id="popular" xmlns="http://www.w3.org/2000/svg" width="30" height="30" viewBox="0 0 30 30">
  <rect id="Rectangle_2138" data-name="Rectangle 2138" width="30" height="30" fill="none"/>
  <g id="Group_3206" data-name="Group 3206" transform="translate(3.475 1.861)">
    <circle id="Ellipse_251" data-name="Ellipse 251" cx="8.988" cy="8.988" r="8.988" transform="translate(2.531 1.348)" fill="#67a7ff"/>
    <path id="Path_6052" data-name="Path 6052" d="M34.167,25.223l-.461-.8c-1.3-2.268-1.607-2.535-2.915-4.8-.049-.086-.046-.094.007-.164A10.337,10.337,0,0,0,32.928,13.3v-.022c-.018-.17-.034-.341-.049-.511-.034-.373-.07-.758-.132-1.136a9.831,9.831,0,0,0-2.215-4.817,10.006,10.006,0,0,0-6.422-3.552,10.114,10.114,0,0,0-9.593,4.164,9.887,9.887,0,0,0-1.78,7.328,9.816,9.816,0,0,0,1.994,4.718c.049.064.05.068.011.135-.859,1.486-.715.974-1.571,2.462q-.9,1.569-1.807,3.137a.788.788,0,0,0-.032.847.771.771,0,0,0,.812.316l.336-.047.334-.047.747-.1c.612-.083,1.223-.166,1.834-.252l.036,0a.173.173,0,0,1,.01.023q.369.912.745,1.821.261.636.522,1.272a.731.731,0,0,0,.648.505.715.715,0,0,0,.708-.424c.046-.085.1-.168.145-.252l.705-1.22c1.2-2.083,1.405-2.166,2.609-4.252l.019-.032h0a9.178,9.178,0,0,0,2.383.009l.039,0h.018a.186.186,0,0,1,.036.051c1.473,2.557,1.949,3.113,3.427,5.668a.983.983,0,0,0,.265.32.719.719,0,0,0,.418.14.656.656,0,0,0,.183-.026.781.781,0,0,0,.492-.469q.648-1.559,1.285-3.122l.006-.014q1.125.162,2.252.315l.193.027c.314.044.639.089.962.115a.817.817,0,0,0,.5-.128A.7.7,0,0,0,34.167,25.223Zm-17.436-.1c.235-.372.485-.779.787-1.282a.73.73,0,0,0-.151-.957.706.706,0,0,0-.569-.151.734.734,0,0,0-.5.346c-.1.16-.2.321-.3.481-.174.284-.348.567-.528.848a.162.162,0,0,1-.082.053c-.633.092-1.266.178-1.9.264l-.2.027,2.506-4.1a9.928,9.928,0,0,0,4.245,2.415l-2.531,4.114-.167-.407c-.207-.5-.415-1.007-.626-1.509A.118.118,0,0,1,16.73,25.127ZM31.442,13.636a8.729,8.729,0,0,1-8.668,8.355h-.061a8.685,8.685,0,1,1,8.728-8.355Zm-3.485,9.506a.719.719,0,0,0,.053.717c.118.19.235.381.351.572.147.241.294.482.444.721a.078.078,0,0,1,.007.1q-.316.753-.624,1.509l-.175.426L25.48,23.067a10.2,10.2,0,0,0,4.247-2.413l2.5,4.1L30.6,24.532c-.153-.022-.306-.043-.46-.06a.11.11,0,0,1-.1-.064c-.222-.37-.516-.856-.823-1.338a.72.72,0,0,0-.655-.343A.712.712,0,0,0,27.957,23.142Z" transform="translate(-11.217 -3.166)" fill="#3e3e3e"/>
    <path id="Path_6053" data-name="Path 6053" d="M54.788,32.987l.652-.636a.9.9,0,0,0,.311-.679.883.883,0,0,0-.787-.9c-.979-.148-1.863-.281-2.761-.4-.062-.009-.067-.014-.092-.067q-.269-.551-.541-1.1-.327-.662-.651-1.326a.913.913,0,0,0-1.71,0q-.312.645-.632,1.287-.277.56-.551,1.121c-.035.071-.047.08-.118.09-.493.067-.985.14-1.477.214-.4.06-.8.119-1.2.176a.9.9,0,0,0-.807.621.916.916,0,0,0,.291,1c.4.383.793.77,1.188,1.157q.383.375.767.751a.185.185,0,0,1,.031.035.1.1,0,0,1,0,.035c-.171.937-.316,1.791-.446,2.61a1.433,1.433,0,0,0,.023.662.792.792,0,0,0,.458.5,1,1,0,0,0,.839-.059q1.2-.623,2.4-1.259a.156.156,0,0,1,.189,0c.606.326,1.217.644,1.827.963l.588.307a1.009,1.009,0,0,0,.469.125.854.854,0,0,0,.512-.175.879.879,0,0,0,.353-.916c-.07-.4-.137-.8-.205-1.2-.086-.51-.172-1.019-.263-1.528-.011-.06-.009-.074.044-.124Q54.137,33.625,54.788,32.987ZM51.6,34.272c.077.418.148.836.22,1.268l.021.126L51.72,35.6c-.379-.2-.743-.389-1.1-.589a1.055,1.055,0,0,0-1.1,0c-.365.2-.736.4-1.116.6l-.107.056.2-1.149.023-.123c.012-.061.024-.122.033-.184a.972.972,0,0,0-.3-.9c-.238-.225-.471-.454-.7-.683l-.345-.338.712-.1c.236-.034.471-.067.707-.1a1.017,1.017,0,0,0,.824-.615c.168-.352.342-.7.515-1.052l.109-.221.322.65c.108.22.216.44.325.659a.951.951,0,0,0,.784.563c.4.047.817.111,1.216.173l.177.027c-.147.164-.3.33-.451.494-.176.186-.354.361-.53.521A.987.987,0,0,0,51.6,34.272Z" transform="translate(-38.521 -22.726)" fill="#3e3e3e"/>
  </g>
</svg>
