<svg xmlns="http://www.w3.org/2000/svg" width="17.346" height="17.371" viewBox="0 0 17.346 17.371">
  <g id="Group_152" data-name="Group 152" transform="translate(0 0)">
    <path id="Path_43" data-name="Path 43" d="M4317.6,4616.912h-1.762v-5.468a1.794,1.794,0,0,0-1.788-1.789h-4.726c-.051,0-.076.026-.127.051,0,0-.027,0-.027.025a.351.351,0,0,0-.1.076l-3.653,3.628c-.025.025-.051.078-.077.1a.025.025,0,0,1-.026.025c-.025.051-.025.076-.051.127h0v3.22h-1.763a1.645,1.645,0,0,0-1.634,1.633v3.807a1.646,1.646,0,0,0,1.634,1.635h1.763v1.431a1.6,1.6,0,0,0,1.609,1.608h7.332a1.6,1.6,0,0,0,1.61-1.608v-1.431h1.762a1.647,1.647,0,0,0,1.635-1.635v-3.807A1.607,1.607,0,0,0,4317.6,4616.912Zm-2.81-5.468v5.468H4306.3V4614.3h1.84a1.793,1.793,0,0,0,1.788-1.788v-1.839h4.113A.747.747,0,0,1,4314.786,4611.444Zm-5.875-.051v1.124a.77.77,0,0,1-.767.767h-1.124Zm5.313,14.613h-7.357a.578.578,0,0,1-.587-.587V4622.3h8.507v3.143A.566.566,0,0,1,4314.224,4626.006Zm3.985-3.653a.622.622,0,0,1-.613.613h-1.762v-.664h.588a.511.511,0,0,0,0-1.022h-11.752a.511.511,0,0,0,0,1.022h.588v.664h-1.763a.622.622,0,0,1-.613-.613v-3.807a.622.622,0,0,1,.613-.613h14.1a.622.622,0,0,1,.613.613Z" transform="translate(-4301.86 -4609.656)" fill="#2b3033"/>
    <path id="Path_44" data-name="Path 44" d="M4312.4,4621.739h-5.212a.511.511,0,1,0,0,1.022h5.212a.511.511,0,0,0,0-1.022Z" transform="translate(-4301.106 -4607.766)" fill="#2b3033"/>
    <path id="Path_45" data-name="Path 45" d="M4314.611,4617.631h-.179a.511.511,0,0,0,0,1.022h.179a.511.511,0,0,0,0-1.022Z" transform="translate(-4299.973 -4608.408)" fill="#2b3033"/>
    <path id="Path_46" data-name="Path 46" d="M4312.866,4617.631h-.178a.511.511,0,1,0,0,1.022h.178a.511.511,0,0,0,0-1.022Z" transform="translate(-4300.247 -4608.408)" fill="#2b3033"/>
  </g>
</svg>
