<svg id="Layer_1" data-name="Layer 1" xmlns="http://www.w3.org/2000/svg" viewBox="0 0 128 128"><defs><style>.cls-1{fill:#707070;}</style></defs><title>register</title><path class="cls-1" d="M58.38,84.62a7.58,7.58,0,0,0,7.5,7.49h15v13.94a16.53,16.53,0,0,1-10,2.93H19.64q-7.08,0-11.36-4T4,93.81q0-3.11.2-6.06A60.87,60.87,0,0,1,5,81.36,48.75,48.75,0,0,1,6.58,75,29.4,29.4,0,0,1,9.1,69.3a20.84,20.84,0,0,1,3.63-4.75,15.46,15.46,0,0,1,5-3.13,17.6,17.6,0,0,1,6.53-1.17,3.57,3.57,0,0,1,2.29,1,38.73,38.73,0,0,0,9.05,5.35,25.33,25.33,0,0,0,9.64,1.79,25.33,25.33,0,0,0,9.64-1.79,38.73,38.73,0,0,0,9-5.35,3.54,3.54,0,0,1,2.29-1,16.24,16.24,0,0,1,12.71,5.62H65.88a7.6,7.6,0,0,0-7.5,7.5Zm2.77-27.21A21.67,21.67,0,0,1,45.25,64a21.69,21.69,0,0,1-15.91-6.59,21.67,21.67,0,0,1-6.59-15.9,21.67,21.67,0,0,1,6.59-15.9A21.65,21.65,0,0,1,45.25,19a21.63,21.63,0,0,1,15.9,6.59,21.64,21.64,0,0,1,6.6,15.9A21.64,21.64,0,0,1,61.15,57.41ZM101.5,71.5h20.62A1.9,1.9,0,0,1,124,73.37V84.62a1.9,1.9,0,0,1-1.88,1.87H101.5v20.62a1.76,1.76,0,0,1-.56,1.31,1.79,1.79,0,0,1-1.31.56H88.37a1.93,1.93,0,0,1-1.88-1.87V86.49H65.88a1.77,1.77,0,0,1-1.32-.55A1.79,1.79,0,0,1,64,84.62V73.37a1.9,1.9,0,0,1,1.88-1.87H86.49V50.88a1.8,1.8,0,0,1,.57-1.32A1.78,1.78,0,0,1,88.37,49H99.63a1.9,1.9,0,0,1,1.87,1.87Z"/></svg>