<svg xmlns="http://www.w3.org/2000/svg" width="23.083" height="16.23" viewBox="0 0 23.083 16.23"><defs><style>.a{fill:#0a56bb;}</style></defs><g transform="translate(-4 -21.813)"><g transform="translate(4 21.813)"><g transform="translate(0 0)"><path class="a" d="M6.705,31.28V21.813H4v16.23H6.705v-2.7H24.378v2.7h2.7V31.28Z" transform="translate(-4 -21.813)"/></g></g><g transform="translate(8.046 25.852)"><g transform="translate(0 0)"><path class="a" d="M27.15,42.906a2.056,2.056,0,0,0-2.056,2.056v2.056h4.111V44.962A2.056,2.056,0,0,0,27.15,42.906Z" transform="translate(-25.094 -42.906)"/></g></g><g transform="translate(13.287 25.852)"><g transform="translate(0 0)"><path class="a" d="M64.959,42.906H55.275a2.056,2.056,0,0,0-2.056,2.056v2.056h13.8V44.962A2.056,2.056,0,0,0,64.959,42.906Z" transform="translate(-53.219 -42.906)"/></g></g></g></svg>