<svg xmlns="http://www.w3.org/2000/svg" width="63.373" height="11.513" viewBox="0 0 63.373 11.513"><path d="M12.071-6.449a.525.525,0,0,1-.189.348L9.249-3.533,9.873.094a1.1,1.1,0,0,1,.007.145A.427.427,0,0,1,9.8.5.256.256,0,0,1,9.583.6a.587.587,0,0,1-.29-.087L6.036-1.2,2.778.515A.616.616,0,0,1,2.488.6.264.264,0,0,1,2.26.5.427.427,0,0,1,2.184.239,1.178,1.178,0,0,1,2.2.094l.624-3.627L.181-6.1A.553.553,0,0,1,0-6.449q0-.268.406-.334l3.642-.53,1.632-3.3q.138-.3.355-.3t.355.3l1.632,3.3,3.642.53Q12.071-6.718,12.071-6.449Zm12.825,0a.525.525,0,0,1-.189.348L22.075-3.533,22.7.094a1.1,1.1,0,0,1,.007.145A.427.427,0,0,1,22.63.5.256.256,0,0,1,22.409.6a.587.587,0,0,1-.29-.087L18.861-1.2,15.6.515a.616.616,0,0,1-.29.087A.264.264,0,0,1,15.085.5a.427.427,0,0,1-.076-.258,1.178,1.178,0,0,1,.015-.145l.624-3.627L13.007-6.1a.553.553,0,0,1-.181-.348q0-.268.406-.334l3.642-.53,1.632-3.3q.138-.3.355-.3t.355.3l1.632,3.3,3.642.53Q24.9-6.718,24.9-6.449Zm12.825,0a.525.525,0,0,1-.189.348L34.9-3.533,35.524.094a1.1,1.1,0,0,1,.007.145A.427.427,0,0,1,35.455.5.256.256,0,0,1,35.234.6a.587.587,0,0,1-.29-.087L31.687-1.2,28.429.515a.616.616,0,0,1-.29.087A.264.264,0,0,1,27.911.5a.427.427,0,0,1-.076-.258,1.178,1.178,0,0,1,.015-.145l.624-3.627L25.832-6.1a.553.553,0,0,1-.181-.348q0-.268.406-.334l3.642-.53,1.632-3.3q.138-.3.355-.3t.355.3l1.632,3.3,3.642.53Q37.722-6.718,37.722-6.449Zm12.825,0a.525.525,0,0,1-.189.348L47.726-3.533,48.35.094a1.1,1.1,0,0,1,.007.145A.427.427,0,0,1,48.281.5.256.256,0,0,1,48.059.6a.587.587,0,0,1-.29-.087L44.512-1.2,41.255.515a.616.616,0,0,1-.29.087A.264.264,0,0,1,40.736.5.427.427,0,0,1,40.66.239a1.178,1.178,0,0,1,.015-.145L41.3-3.533,38.658-6.1a.553.553,0,0,1-.181-.348q0-.268.406-.334l3.642-.53,1.632-3.3q.138-.3.355-.3t.355.3l1.632,3.3,3.642.53Q50.548-6.718,50.548-6.449Zm12.825,0a.525.525,0,0,1-.189.348L60.551-3.533,61.175.094a1.1,1.1,0,0,1,.007.145A.427.427,0,0,1,61.106.5.256.256,0,0,1,60.885.6a.587.587,0,0,1-.29-.087L57.337-1.2,54.08.515A.616.616,0,0,1,53.79.6.264.264,0,0,1,53.561.5a.427.427,0,0,1-.076-.258A1.178,1.178,0,0,1,53.5.094l.624-3.627L51.483-6.1a.553.553,0,0,1-.181-.348q0-.268.406-.334l3.642-.53,1.632-3.3q.138-.3.355-.3t.355.3l1.632,3.3,3.642.53Q63.373-6.718,63.373-6.449Z" transform="translate(0 10.911)" fill="#faa534"/></svg>