<svg xmlns="http://www.w3.org/2000/svg" width="12.958" height="12.358" viewBox="0 0 12.958 12.358">
  <path id="iconfinder_star_1608851" d="M76.958,36.789a.563.563,0,0,1-.2.374L73.929,39.92l.67,3.894a1.177,1.177,0,0,1,.008.156.459.459,0,0,1-.082.276.275.275,0,0,1-.238.113.63.63,0,0,1-.311-.093l-3.5-1.838-3.5,1.838a.662.662,0,0,1-.311.093.283.283,0,0,1-.245-.113.459.459,0,0,1-.082-.276,1.262,1.262,0,0,1,.016-.156l.67-3.894-2.835-2.757A.593.593,0,0,1,64,36.789q0-.288.436-.358l3.909-.568L70.1,32.319q.148-.319.382-.319t.382.319l1.752,3.543,3.909.568Q76.958,36.5,76.958,36.789Z" transform="translate(-64 -32)" fill="#faa534"/>
</svg>
