<svg id="Layer_1" data-name="Layer 1" xmlns="http://www.w3.org/2000/svg" viewBox="0 0 128 128"><defs><style>.cls-1{fill:#616161;}</style></defs><title>topup</title><path class="cls-1" d="M47.68,46.52l7.58-15.64s.56.94,1.23,1l7.42-16.41a6.63,6.63,0,0,1,.31-.59c-4.08-1-8.47-.43-10.2,3.52l-13.22,28Z"/><path class="cls-1" d="M33.94,45.6H25c-6.48,0-10.83,4.08-10.83,10.15V109c0,5.62,5.06,10.55,10.83,10.55H96.36c5.53,0,9.86-4.63,9.86-10.55V93.89H85.42c-5.57,0-10.11-6.27-10.11-11.82s4.54-11.82,10.11-11.82h20.8v-6.9A9.79,9.79,0,0,0,96.36,53.2H33.94V45.6Z"/><path class="cls-1" d="M106.29,75.88H87.21a6.38,6.38,0,1,0,0,12.75h19.08c.43,0,.9-.27.9-.69V76.52C107.19,76.09,106.72,75.88,106.29,75.88Zm-18.8,9.44a3,3,0,1,1,3-3A3,3,0,0,1,87.49,85.32Z"/><path class="cls-1" d="M106,46.42H94.54l4.26-8.17c-6.32-3.45-6.48-8.67-6.16-11.08l-7.06-3.41A10,10,0,0,1,74.33,28.5L65.75,46.42h-10L71,13.56a8.19,8.19,0,0,1,4.62-4.42,11.74,11.74,0,0,1,8.9.54l23.17,9.82a10.26,10.26,0,0,1,5.56,5.56,9.3,9.3,0,0,1-.29,7.23Z"/><path class="cls-1" d="M86.41,48H75.26a2.2,2.2,0,0,1-1.87-1.1c-1.15-1.77-1.28-6-.24-8.36,1.94-4.35,7-6.52,11.06-4.73a8.37,8.37,0,0,1,4.4,4.7,8.81,8.81,0,0,1-.11,6.64c-.06.13-.12.34-.19.56C88,46.82,87.62,48,86.41,48Z"/></svg>