<svg id="Icon" xmlns="http://www.w3.org/2000/svg" viewBox="0 0 512 512"><defs><style>.cls-1{opacity:0.6;}.cls-2{fill:#f2a437;}.cls-3{fill:#4869ef;}</style></defs><title>08_topup</title><g class="cls-1"><rect class="cls-2" x="169.39" y="237.44" width="201.61" height="149.21" rx="1.85"/></g><g class="cls-1"><path class="cls-2" d="M220.84,212.44l17.36-35.82s1.3,2.15,2.83,2.33l17-37.59a14.69,14.69,0,0,1,.73-1.35c-9.35-2.27-19.4-1-23.36,8.07l-30.3,64.19Z"/></g><path class="cls-3" d="M177.76,212v6.53H166.89c-4.39,0-4.39,10.88,0,10.88H329.18c8.42,0,14.1,6.36,14.1,14.78V255.5H304.13a31.55,31.55,0,1,0,0,63.1h39.15v30c0,8.37-5.68,15.68-14.1,15.68H165.79c-8.42,0-16.31-7.31-16.31-15.68V226.76c0-10.51,7.89-14.77,16.31-14.77h12m8.47-8.47H165.79c-14.83,0-24.79,9.34-24.79,23.24V348.62c0,12.87,11.59,24.16,24.79,24.16H329.18c12.66,0,22.58-10.61,22.58-24.16v-38.5H304.13a23.07,23.07,0,1,1,0-46.14h47.63v-19.8c0-13.26-9.71-23.26-22.58-23.26h-143v-17.4Z"/><path class="cls-3" d="M351.92,272.88H308.23a14.6,14.6,0,1,0,0,29.2h43.69c1,0,2.06-.62,2.06-1.59V274.35C354,273.34,352.92,272.88,351.92,272.88Zm-43.06,21.61a6.8,6.8,0,1,1,6.8-6.8A6.79,6.79,0,0,1,308.86,294.49Z"/><path class="cls-3" d="M344.37,212.21H318.21L328,193.49c-14.47-7.9-14.86-19.85-14.12-25.37l-16.16-7.8c-6.78,11.59-18.38,12.49-25.77,10.85l-19.66,41H229.45l34.75-75.27a18.8,18.8,0,0,1,10.58-10.13c6-2.31,13.44-1.86,20.4,1.24l53.05,22.5A23.41,23.41,0,0,1,361,163.28a21.22,21.22,0,0,1-.66,16.55Zm-15-6.78h10.76l14-28.47a14.49,14.49,0,0,0,.47-11.24,16.63,16.63,0,0,0-9.09-8.94l-53.07-22.51c-5.37-2.4-10.92-2.79-15.25-1.12a11.94,11.94,0,0,0-6.84,6.59l-30.33,65.69H248l20.38-42.53,2.89,1c1.57.56,15.4,5.06,21.82-9.48l1.41-3.22,27.36,13.21-1,2.84c-.18.54-4.26,13.94,13.05,21.59l3.32,1.46Z"/><path class="cls-3" d="M301.85,228H273.52a5.58,5.58,0,0,1-4.74-2.81c-2.94-4.48-3.25-15.19-.63-21.23,4.94-11.06,17.79-16.57,28.11-12a21.24,21.24,0,0,1,11.2,11.95,22.21,22.21,0,0,1-.3,16.86c-.14.34-.29.87-.46,1.44C305.87,225,304.93,228,301.85,228Zm-27.57-6.78H299.9c.12-.36.23-.73.31-1,.25-.85.51-1.65.72-2.15l0,0a15.35,15.35,0,0,0,.18-11.69,14.49,14.49,0,0,0-7.6-8.18c-7-3-15.73.86-19.17,8.55C272.42,211.17,273.08,219.08,274.28,221.25Z"/></svg>