<svg id="tour" xmlns="http://www.w3.org/2000/svg" width="30" height="30" viewBox="0 0 30 30">
  <rect id="Rectangle_2142" data-name="Rectangle 2142" width="30" height="30" fill="none"/>
  <g id="Group_4932" data-name="Group 4932" transform="translate(3.07 3.298)">
    <rect id="Rectangle_2136" data-name="Rectangle 2136" width="23" height="19" rx="3" transform="translate(0.93 4.702)" fill="#67a7ff"/>
    <path id="Path_6045" data-name="Path 6045" d="M29.468,14.783a3.8,3.8,0,0,0-3.84-3.814c-.609,0-1.217,0-1.831,0H23.15a.206.206,0,0,1-.192-.132.807.807,0,0,0-.546-.5.206.206,0,0,1-.147-.2V9.932c0-.333,0-.661,0-.988a1.878,1.878,0,0,0-1.1-1.765,2.213,2.213,0,0,0-.346-.126c-.062-.019-.107-.033-.152-.048a.093.093,0,0,0-.03,0H14.021a.1.1,0,0,0-.03,0l-.124.039a2.847,2.847,0,0,0-.283.1,1.786,1.786,0,0,0-1.176,1.584c-.026.38-.019.764-.013,1.136l0,.272a.206.206,0,0,1-.146.2.805.805,0,0,0-.555.5.207.207,0,0,1-.193.133h-.027c-.189,0-.378,0-.567,0-.224,0-.451,0-.677,0h-.064l-.4,0a12.86,12.86,0,0,0-1.316.054,3.744,3.744,0,0,0-3.262,3.594c-.017,1.227-.014,2.5-.011,3.623q0,.738,0,1.476v2.558c0,1.9,0,3.153,0,5.138a3.087,3.087,0,0,0,2.45,3.051,3.3,3.3,0,0,0,.722.077q8.97.006,17.94,0a3.133,3.133,0,0,0,3.172-3.153C29.476,22.089,29.476,18.673,29.468,14.783ZM10.241,28.729a.206.206,0,0,1-.207.207H8.377a1.522,1.522,0,0,1-1.585-1.581c0-1.749,0-2.708,0-4.421V18.514q0-1.8,0-3.6a2.22,2.22,0,0,1,2.346-2.34h.9a.206.206,0,0,1,.207.207ZM14,8.873a.278.278,0,0,1,.038-.144.216.216,0,0,1,.025-.032.346.346,0,0,1,.216-.088.913.913,0,0,1,.1,0h5.839a1.318,1.318,0,0,1,.216.015.206.206,0,0,1,.179.114.665.665,0,0,1,.045.3c0,.312,0,.625,0,.939v.163a.206.206,0,0,1-.147.2.8.8,0,0,0-.545.491.206.206,0,0,1-.193.132H14.88a.206.206,0,0,1-.192-.131.791.791,0,0,0-.539-.492.206.206,0,0,1-.149-.2V9.917C14,9.566,14,9.219,14,8.873Zm8.773,19.844a.206.206,0,0,1-.207.207H12.079a.206.206,0,0,1-.207-.207V12.783a.207.207,0,0,1,.207-.207l1.481,0h.1c1.264,0,2.571-.008,3.866.01a2.113,2.113,0,0,1,1.938,1.371,2.284,2.284,0,0,1,.027,1.9l-.017.039a.207.207,0,0,1-.13.12.381.381,0,0,1-.082.015c-.412.038-.838.088-1.215.131l-.521.06a.844.844,0,0,0-.636.378l-1.021,1.486q-.927,1.347-1.851,2.7a.8.8,0,0,0,.211,1.166c.97.675,1.932,1.336,2.858,1.965a.788.788,0,0,0,1.162-.224q.7-1.01,1.393-2.022l.166-.241q.651-.948,1.3-1.9a.923.923,0,0,0,.119-.82c-.144-.531-.287-1.091-.426-1.664a.434.434,0,0,1-.006-.181.206.206,0,0,1,.016-.045,3.957,3.957,0,0,0-.085-3.906.206.206,0,0,1,.179-.31H22.57a.206.206,0,0,1,.207.207Zm-3.227-9.77q-1.037,1.513-2.078,3.021a.207.207,0,0,1-.287.053l-1.241-.853a.207.207,0,0,1-.053-.287l.412-.6c.5-.717.968-1.395,1.428-2.1a.873.873,0,0,1,.8-.468,2.7,2.7,0,0,0,.49-.043l.079-.012h0a.205.205,0,0,1,.228.153l.008.032c.082.319.161.628.235.939A.207.207,0,0,1,19.55,18.947Zm7.818,9.565a1.567,1.567,0,0,1-1.1.431l-.09,0c-.207-.011-.431-.015-.705-.015-.192,0-.382,0-.57,0l-.278,0a.214.214,0,0,1-.147-.06.205.205,0,0,1-.061-.147V12.819a.206.206,0,0,1,.2-.207l.235-.007h.025a7.587,7.587,0,0,1,1.167.023,2.14,2.14,0,0,1,1.809,2.061c.011.462.009.933.007,1.389v.544q0,1.614,0,3.228v.291c0,2.59-.005,4.461.013,7.1A1.712,1.712,0,0,1,27.368,28.513Z" transform="translate(-5.178 -7)" fill="#3e3e3e"/>
  </g>
</svg>
