<svg xmlns="http://www.w3.org/2000/svg" width="31" height="31" viewBox="0 0 31 31">
  <g id="Group_5010" data-name="Group 5010" transform="translate(-0.367)">
    <circle id="Ellipse_260" data-name="Ellipse 260" cx="15.5" cy="15.5" r="15.5" transform="translate(0.367)" fill="none"/>
    <g id="Group_4957" data-name="Group 4957" transform="translate(6.981 7.24)">
      <g id="guide">
        <path id="Path_6598" data-name="Path 6598" d="M141.911,10.359l-2.4-.384V9.4a3.273,3.273,0,0,0,1.96-2.995V5.063h1.633a.327.327,0,0,0,.327-.327V4.362a1.424,1.424,0,0,0-1.422-1.422h-.554a3.267,3.267,0,0,0-6.5,0H134.4a1.424,1.424,0,0,0-1.422,1.422v.374a.327.327,0,0,0,.327.327h1.633V6.4A3.273,3.273,0,0,0,136.9,9.4v.578l-2.4.384a2.974,2.974,0,0,0-2.5,2.935V16.4a.327.327,0,0,0,.327.327h11.76a.327.327,0,0,0,.327-.327V13.294a2.974,2.974,0,0,0-2.5-2.935ZM135.593,6.4V5.063h1.176a.327.327,0,1,0,0-.653h-3.136V4.362a.77.77,0,0,1,.769-.769h7.609a.77.77,0,0,1,.769.769V4.41h-3.071a.327.327,0,0,0,0,.653h1.111V6.4a2.613,2.613,0,0,1-5.227,0Z" transform="translate(-127.688)" fill="#3e3e3e"/>
        <path id="Path_6600" data-name="Path 6600" d="M.327,143.76a.327.327,0,0,0,0,.653h1.96a.327.327,0,0,0,0-.653H1.633v-5.332l4.695-1.878a.327.327,0,0,0,0-.607l-4.695-1.878v-1.739a.327.327,0,1,0-.653,0V143.76Z" transform="translate(0 -127.688)" fill="#3e3e3e"/>
      </g>
    </g>
  </g>
</svg>
