<svg id="Icon" xmlns="http://www.w3.org/2000/svg" viewBox="0 0 512 512"><defs><style>.cls-1{opacity:0.4;}.cls-2,.cls-3{fill:#f2a437;}.cls-3{opacity:0.6;}.cls-4{fill:#4869ef;}</style></defs><title>04_tour</title><g class="cls-1"><path class="cls-2" d="M326.61,184.88H277.8a9.13,9.13,0,0,1,15-10.13,4,4,0,0,0,6.95-2.19,15.49,15.49,0,1,1,26.87,12.32Z"/></g><path class="cls-3" d="M286.18,318l32-69A3.2,3.2,0,0,1,324,249l45.72,97.86H296.35l-10.26-19.1A12.18,12.18,0,0,1,286.18,318Z"/><path class="cls-4" d="M367.54,361h29.59a4.13,4.13,0,1,0,0-8.25H386.27V316.61a34.68,34.68,0,0,0,30.52-34.39v-49.5a34.65,34.65,0,0,0-69.29,0v49.5A34.68,34.68,0,0,0,378,316.61v36.14H363.17C357.4,352.75,356.57,361,367.54,361Zm41-78.78a26.43,26.43,0,0,1-22.27,26.07V291.14l11-11.73a4.12,4.12,0,0,0-6-5.64l-5,5.3V265.8l11-11.73a4.12,4.12,0,0,0-6-5.64l-5,5.31v-7.2a4.13,4.13,0,0,0-8.25,0v18.57l-4.25-4.53a4.12,4.12,0,1,0-6,5.64l10.27,11v31.11a26.43,26.43,0,0,1-22.27-26.07v-49.5a26.4,26.4,0,0,1,52.79,0Z"/><path class="cls-4" d="M319,184.88h-6.64a23.5,23.5,0,1,0-42.75-19.46,17.12,17.12,0,0,0-24.56,15.44,17,17,0,0,0,3.56,10.46,4,4,0,0,0,3.17,1.56H319a4,4,0,0,0,0-8Zm-16.21,0H254a9.13,9.13,0,0,1,15-10.13,4,4,0,0,0,6.95-2.19,15.49,15.49,0,1,1,26.87,12.32Z"/><path class="cls-4" d="M357.81,354.05l-38.76-84-13.86-30a4.38,4.38,0,0,0-8,0l-13.85,30L261.8,316.63l-57-125.29h0l-13.61-30.16a4.35,4.35,0,0,0-4-2.58,4.26,4.26,0,0,0-3.91,2.58l-13.6,30.16h0L95.61,354.07a4.42,4.42,0,0,0,.27,4.19,4.33,4.33,0,0,0,3.65,2h254.3a4.38,4.38,0,0,0,4-6.22Zm-56.6-101.7,8.6,18.6-8.6,8.59L292.62,271Zm-114-78.76,8.44,18.6-8.44,8.43-8.43-8.43ZM106.35,351.5l68.57-150.79,9.21,9.21a4.38,4.38,0,0,0,6.19,0l9.21-9.21L257.84,329s0,0,0,0l9.66,21.23.58,1.28Zm171.38,0-11.06-24.33,22-47.74,9.4,9.41a4.39,4.39,0,0,0,6.2,0l9.41-9.41L347,351.5Z"/></svg>