<svg id="Icon" xmlns="http://www.w3.org/2000/svg" viewBox="0 0 512 512"><defs><style>.cls-1{opacity:0.6;}.cls-2{fill:#f2a437;}.cls-3{fill:#4869ef;}</style></defs><title>11_Trackbooking</title><g class="cls-1"><path class="cls-2" d="M196.66,164a41.24,41.24,0,0,0-41.19,41.19c0,11.26,6.14,26,18.24,43.7a245.47,245.47,0,0,0,17.57,22.7,7.22,7.22,0,0,0,10.77,0,243.86,243.86,0,0,0,17.57-22.7c12.1-17.74,18.24-32.44,18.24-43.7A41.24,41.24,0,0,0,196.66,164Z"/></g><g class="cls-1"><path class="cls-2" d="M339.8,228.1a41.24,41.24,0,0,0-41.19,41.2c0,11.25,6.14,25.95,18.24,43.7a242.9,242.9,0,0,0,17.57,22.69,7.22,7.22,0,0,0,10.77,0A242.9,242.9,0,0,0,362.76,313c12.1-17.75,18.24-32.45,18.24-43.7A41.24,41.24,0,0,0,339.8,228.1Z"/></g><path class="cls-3" d="M175,182.63a35.82,35.82,0,0,1,35.79,35.78c0,9.77-5.33,22.54-15.85,38a211.54,211.54,0,0,1-15.26,19.72,6.27,6.27,0,0,1-9.35,0,209.59,209.59,0,0,1-15.26-19.72c-10.52-15.41-15.85-28.18-15.85-38A35.82,35.82,0,0,1,175,182.63M175,235a16.63,16.63,0,1,0-16.62-16.63A16.65,16.65,0,0,0,175,235m0-60.68a44.1,44.1,0,0,0-44,44C131,230,136.65,244,148.29,261a218,218,0,0,0,15.92,20.56,14.53,14.53,0,0,0,21.67,0A219,219,0,0,0,201.81,261c11.63-17,17.28-31,17.28-42.61a44.1,44.1,0,0,0-44.05-44Zm0,52.42a8.37,8.37,0,1,1,8.37-8.37,8.38,8.38,0,0,1-8.37,8.37Z"/><path class="cls-3" d="M275.92,288.72H260.37c-8.19,0-14.85-8-14.85-17.81,0-16-10.84-29-24.15-29H210.2c-2.56,4.39-5.06,8.24-7,11.14h18.19c8.19,0,14.86,8,14.86,17.81,0,16,10.83,28.94,24.14,28.94h19.28Z"/><path class="cls-3" d="M316,244.21A35.83,35.83,0,0,1,351.74,280c0,9.77-5.34,22.54-15.85,37.95a211.17,211.17,0,0,1-15.26,19.72,6.27,6.27,0,0,1-9.35,0A213.14,213.14,0,0,1,296,317.94c-10.51-15.41-15.85-28.18-15.85-37.95A35.83,35.83,0,0,1,316,244.21m0,52.41A16.63,16.63,0,1,0,299.33,280,16.66,16.66,0,0,0,316,296.62m0-60.68a44.1,44.1,0,0,0-44,44.05c0,11.63,5.65,25.56,17.28,42.61a222.44,222.44,0,0,0,15.89,20.52,14.54,14.54,0,0,0,21.71.05,223.14,223.14,0,0,0,15.93-20.57C354.35,305.55,360,291.62,360,280A44.1,44.1,0,0,0,316,235.94Zm0,52.42a8.37,8.37,0,1,1,8.37-8.37,8.38,8.38,0,0,1-8.37,8.37Z"/></svg>