<svg id="transport" xmlns="http://www.w3.org/2000/svg" width="30" height="30" viewBox="0 0 30 30">
  <rect id="Rectangle_2140" data-name="Rectangle 2140" width="30" height="30" fill="none"/>
  <g id="Group_4930" data-name="Group 4930" transform="translate(3.598 2.053)">
    <rect id="Rectangle_1540" data-name="Rectangle 1540" width="18" height="19" rx="3" transform="translate(2.402 2.947)" fill="#67a7ff"/>
    <g id="Group_3200" data-name="Group 3200">
      <path id="Path_6046" data-name="Path 6046" d="M37.285,77.234H35.166a.74.74,0,1,0,0,1.48h2.119a.74.74,0,1,0,0-1.48Z" transform="translate(-29.08 -61.496)" fill="#3e3e3e"/>
      <path id="Path_6047" data-name="Path 6047" d="M78.3,77.234H76.178a.74.74,0,1,0,0,1.48H78.3a.74.74,0,0,0,0-1.48Z" transform="translate(-61.481 -61.496)" fill="#3e3e3e"/>
      <path id="Path_6048" data-name="Path 6048" d="M31.675,10.455,29.458,8.6V6.683a1.977,1.977,0,0,0-1.975-1.975H24.9l.778-1.616A.762.762,0,0,0,24.993,2H15.624a.762.762,0,0,0-.7,1.059l.7,1.649H13.312a1.977,1.977,0,0,0-1.975,1.975V8.691l-2.1,1.764a.761.761,0,0,0-.272.584v2.529a.762.762,0,0,0,1.523,0V11.394l.853-.715V21.831a1.977,1.977,0,0,0,1.975,1.975h.031l-1.884,2.912a.762.762,0,0,0,1.279.827l.851-1.315h13.79l.779,1.294a.762.762,0,0,0,1.305-.785L27.691,23.8a1.978,1.978,0,0,0,1.767-1.964V10.583l.966.81v2.174a.762.762,0,1,0,1.523,0V11.038A.761.761,0,0,0,31.675,10.455Zm-14.9-6.932h7.006l-.57,1.185H17.277ZM13.312,6.231H27.483a.458.458,0,0,1,.452.452V7.936H12.86V6.683A.458.458,0,0,1,13.312,6.231ZM27.935,9.459v5.723H12.86V9.459ZM14.574,24.708l.583-.9H25.92l.543.9Zm12.909-2.424H13.312a.458.458,0,0,1-.452-.452V16.7H27.935v5.127A.458.458,0,0,1,27.483,22.283Z" transform="translate(-8.961 -2)" fill="#3e3e3e"/>
    </g>
  </g>
</svg>
