<svg id="Layer_1" data-name="Layer 1" xmlns="http://www.w3.org/2000/svg" viewBox="0 0 256 256"><defs><style>.cls-1{fill:#015aff;}.cls-2{fill:#fff;}.cls-3{fill:#3cd4e2;}.cls-4{fill:red;}</style></defs><title>UMTA</title><ellipse class="cls-1" cx="128" cy="128" rx="128" ry="101.38"/><ellipse class="cls-2" cx="128.77" cy="128.69" rx="96.67" ry="72.36"/><path class="cls-2" d="M134.07,191.25a2.61,2.61,0,0,1,.8-1.79,3.81,3.81,0,0,0,.32-.41,3.75,3.75,0,0,0,.41-4,6,6,0,0,1-.1-6.33c.95-1.67.23-3.56-.59-5.18-3-6-4.09-12.61-4.9-18.85a12.67,12.67,0,0,0-3-7.07l-.1-.11a4.08,4.08,0,0,0-.45-.47,4,4,0,0,0-1-.68,4.34,4.34,0,0,0-.69,1,4,4,0,0,1-1.55,1.45c-.64.37-1.29.72-1.94,1.07a23.78,23.78,0,0,0-5.64,3.75,2.94,2.94,0,0,1-2.17.77,9.54,9.54,0,0,1-1.94-.25,13.17,13.17,0,0,1-4.4-2.15l-.89-.57a1.28,1.28,0,0,1-.42-1.7c.15-.4.29-.81.43-1.21a18,18,0,0,1,1-2.59c1.35-2.5,1-5.05.52-7.45-.27-1.2-.57-2.41-.87-3.59-.23-.93-.47-1.86-.69-2.8-.13-.57-.34-.61-.57-.61h-.36a2.1,2.1,0,0,1-2.09-1.63,10.52,10.52,0,0,0-.61-1.48,1.73,1.73,0,0,1,.41-2.32c.24-.2.32-.35,0-1-.57-1.22-.94-1.9-2-1.9l-.3,0h-.17a1.86,1.86,0,0,1-1.47-1c-.46-.66-.92-1.3-1.39-2-1.11-1.57-2.27-3.19-3.38-4.8a3.1,3.1,0,0,1-.32-2.7,2.91,2.91,0,0,1,1.72-1.89c.47-.17.49-.29.45-.58a4.25,4.25,0,0,1,0-.71,3.27,3.27,0,0,0,0-.44,2.1,2.1,0,0,1,2.08-2.54A1.55,1.55,0,0,0,99.49,105v-.13a2.27,2.27,0,0,0,0-.41,3.22,3.22,0,0,1,1.43-3.88c1-.66,1.13-1.79,1.09-3.29v-.18c-.06-2.61.09-2.82,2.64-3.75a7.69,7.69,0,0,1,2.48-.34h.22a.9.9,0,0,0,1-.74,25.69,25.69,0,0,1,1.85-4c.32-.58.64-1.18.93-1.78.05-.1.11-.2.17-.3a1.15,1.15,0,0,0,.15-.29,9.82,9.82,0,0,1,3.49-5.41c.11-.09.18-.22.16-.59s0-1.06,0-1.61c.18-3.13,1.2-4.43,4.19-5.35a2.83,2.83,0,0,0,1.38-1.15c.14-.18.28-.35.43-.52a5.89,5.89,0,0,1,4.48-2.09,7.36,7.36,0,0,1,1.71.22l.22,0v-.11A4.33,4.33,0,0,1,128.94,66a4.58,4.58,0,0,0,.93-1.65,4.07,4.07,0,0,1,1.92-2l.14-.1a1.38,1.38,0,0,1,.69-.19,4.8,4.8,0,0,1,2.74,1.66,4.27,4.27,0,0,1,1.32,2.45.84.84,0,0,0,.63.95,3.16,3.16,0,0,1,1.56,1.67c2.1,3.84,1.41,7.76.35,11.43a7.32,7.32,0,0,1-2.65,4.19c-1.34,1-2.21,2.62-2.72,5.08-.12.59-.2,1.19-.28,1.82a17.43,17.43,0,0,1-.57,3l.08,0a26.3,26.3,0,0,0,2.6-1.15,3.18,3.18,0,0,1,1.52-.39,6.27,6.27,0,0,1,2,.44l.41.14a1.38,1.38,0,0,1,.86,1.29c.06.36.12.69.18,1a21,21,0,0,1,.32,2.27,2.06,2.06,0,0,0,1.29,1.81l.49.27c2.06,1.1,2.3,1.31,1.8,3.09-.09.34-.21.76-.33,1.3l-.05.22c-.26,1.14-.43,1.89-.26,2.17a5.15,5.15,0,0,0,2.16.85,3,3,0,0,1,2,2.11c.42,1.2,1.24,1.35,2.55,1.49.31,0,.62.07.94.13h0c.2,0,.44-.22.64-.42l.34-.3a1.76,1.76,0,0,1,1.1-.44,2.13,2.13,0,0,1,1.45.78,3.45,3.45,0,0,0,.28.26,1.16,1.16,0,0,1,.47.84,1.41,1.41,0,0,1-.59,1,1.7,1.7,0,0,0-.19.19,5.93,5.93,0,0,1-3.13,2.39,1,1,0,0,0-.49.38,25.48,25.48,0,0,1-6.34,5.94c-1,.72-2,1.47-2.9,2.25l-.36.26a2.22,2.22,0,0,0-.32.24,6.78,6.78,0,0,1-5.05,2.14c-1.74,0-4.11,3.1-4.1,4.85a7.53,7.53,0,0,1-.86,4.15.79.79,0,0,0-.13.39c.2.45.37,1,.54,1.44a6.53,6.53,0,0,0,1.9,3.29,8.34,8.34,0,0,1,3.38,8,1.09,1.09,0,0,0,.46,1.16,1.52,1.52,0,0,1,.44,2.32,6.69,6.69,0,0,0-1.1,3.3,2.68,2.68,0,0,1-1,2,3.5,3.5,0,0,0-1.1,1.8,2.72,2.72,0,0,0,.84,3.23c.83.73,1.71,1.53,2.55,2.39a8.09,8.09,0,0,1,2.26,6.28,12.31,12.31,0,0,0,1.21,5.59c.41.93.78,1.89,1.14,2.82.22.59.45,1.17.68,1.76a2.19,2.19,0,0,1-.06,1.87c-1.59,3.57-4.62,5.65-7.55,7.65l-.71.48a.89.89,0,0,1-.48.14h-.13l-.57.08Z"/><path class="cls-3" d="M132.62,62.58h0c1.17,0,3.57,2.41,3.54,3.58a1.36,1.36,0,0,0,1,1.45,2.72,2.72,0,0,1,1.3,1.43c2,3.65,1.38,7.32.31,11A6.75,6.75,0,0,1,136.27,84a8.65,8.65,0,0,0-2.92,5.4c-.4,1.91-.35,3.91-1.27,5.8,1.29-.55,2.62-1,3.84-1.66a2.65,2.65,0,0,1,1.28-.33,7.58,7.58,0,0,1,2.25.56c.41.13.46.55.52.92.17,1.06.41,2.12.49,3.2a2.55,2.55,0,0,0,1.55,2.22c3,1.62,2.39,1.08,1.71,4.09s-.76,3,2.21,3.85a2.55,2.55,0,0,1,1.69,1.79c.68,2,2.42,1.68,3.87,2h.13c.5,0,.88-.53,1.27-.84a1.28,1.28,0,0,1,.78-.33c.57,0,1,.57,1.4.93.7.58-.07,1-.38,1.35a5.45,5.45,0,0,1-2.85,2.21,1.35,1.35,0,0,0-.79.6c-2.37,3.47-6.05,5.45-9.16,8.08-.22.19-.51.32-.71.53a6.3,6.3,0,0,1-4.69,2c-2.11,0-4.61,3.39-4.6,5.36a7,7,0,0,1-.79,3.88,1.09,1.09,0,0,0-.17.84c.75,1.71,1,3.74,2.6,5a7.87,7.87,0,0,1,3.19,7.5,1.58,1.58,0,0,0,.69,1.64,1,1,0,0,1,.29,1.61,7.12,7.12,0,0,0-1.18,3.55,2.2,2.2,0,0,1-.84,1.65,4,4,0,0,0-1.27,2.05,3.2,3.2,0,0,0,1,3.77c.86.77,1.72,1.54,2.52,2.37a7.6,7.6,0,0,1,2.12,5.9,12.85,12.85,0,0,0,1.25,5.82c.66,1.49,1.2,3,1.82,4.56a1.69,1.69,0,0,1-.06,1.47c-1.65,3.72-4.93,5.75-8.08,7.92-.08.06-.21,0-.39.06,0-.86.65-1.32,1-1.9a4.24,4.24,0,0,0,.43-4.53A5.52,5.52,0,0,1,136,179c1.09-1.94.25-4-.58-5.66-3-5.91-4-12.26-4.85-18.68a13.14,13.14,0,0,0-3.18-7.35,4.12,4.12,0,0,0-.61-.64c-.66-.52-1-.79-1.34-.79s-.63.39-1.13,1.24a3.61,3.61,0,0,1-1.36,1.27c-2.64,1.51-5.45,2.71-7.69,4.9a2.49,2.49,0,0,1-1.81.62,9.26,9.26,0,0,1-1.83-.24c-1.93-.42-3.49-1.63-5.13-2.66-.45-.28-.37-.66-.21-1.07a31.81,31.81,0,0,1,1.45-3.74c1.38-2.55,1.16-5.16.57-7.81-.47-2.14-1.06-4.26-1.56-6.39-.15-.64-.45-1-1.07-1h-.36a1.6,1.6,0,0,1-1.6-1.29,11.6,11.6,0,0,0-.64-1.54,1.24,1.24,0,0,1,.27-1.69c.57-.48.46-1,.17-1.58-.52-1.13-1-2.2-2.42-2.2l-.36,0h-.11c-.48,0-.78-.39-1-.76-1.59-2.25-3.21-4.48-4.77-6.74a2.67,2.67,0,0,1,1.15-3.82c.58-.2.88-.49.79-1.13,0-.37,0-.75,0-1.12a1.6,1.6,0,0,1,1.63-2A2,2,0,0,0,100,105a2.46,2.46,0,0,0,0-.67,2.73,2.73,0,0,1,1.23-3.32c1.23-.86,1.34-2.36,1.31-3.72-.06-2.57-.12-2.56,2.3-3.43a7.79,7.79,0,0,1,2.53-.32,1.41,1.41,0,0,0,1.46-1.09,47.8,47.8,0,0,1,2.75-5.73,3.24,3.24,0,0,0,.36-.69,9.31,9.31,0,0,1,3.31-5.13,1.15,1.15,0,0,0,.36-1c0-.52,0-1,0-1.56.17-2.89,1-4,3.83-4.89,1-.3,1.43-1.14,2-1.81a5.35,5.35,0,0,1,4.1-1.92,6.41,6.41,0,0,1,1.59.2,1.8,1.8,0,0,0,.37,0c.36,0,.5-.22.48-.65a3.81,3.81,0,0,1,1.34-2.94,4.92,4.92,0,0,0,1-1.83,3.91,3.91,0,0,1,1.86-1.84.75.75,0,0,1,.41-.12m0-1h0a1.82,1.82,0,0,0-1,.28l-.15.1a4.56,4.56,0,0,0-2.12,2.26,4.17,4.17,0,0,1-.81,1.46A5,5,0,0,0,127,68.82a7.76,7.76,0,0,0-1.42-.14,6.36,6.36,0,0,0-4.86,2.26q-.24.27-.45.54c-.42.52-.7.85-1.13,1-3.17,1-4.36,2.5-4.56,5.81,0,.57,0,1.13,0,1.66a1.27,1.27,0,0,1,0,.2,10.28,10.28,0,0,0-3.64,5.66l-.09.14a3.45,3.45,0,0,0-.19.34c-.29.6-.61,1.19-.92,1.77a26.19,26.19,0,0,0-1.89,4.08c-.11.36-.18.38-.51.39h-.22a8.1,8.1,0,0,0-2.63.37c-2.77,1-3,1.4-3,4.24v.18c0,1.33-.11,2.33-.87,2.86A3.71,3.71,0,0,0,99,104.61a2.1,2.1,0,0,1,0,.28V105a1,1,0,0,1-.76,1.11,2.62,2.62,0,0,0-2.55,3.09c0,.1,0,.23,0,.37a4.21,4.21,0,0,0,0,.79l-.11.05a3.37,3.37,0,0,0-2,2.21,3.61,3.61,0,0,0,.39,3.15c1.11,1.61,2.26,3.23,3.38,4.8l1.39,2a2.36,2.36,0,0,0,1.89,1.19H101c.65,0,.9.33,1.49,1.59a2.09,2.09,0,0,1,.13.35l0,0a2.21,2.21,0,0,0-.54,2.94,11.33,11.33,0,0,1,.59,1.41,2.58,2.58,0,0,0,2.57,2l.3,0h.06a.8.8,0,0,1,.07.22c.22.94.46,1.88.69,2.8.3,1.17.6,2.39.87,3.59.51,2.29.8,4.74-.47,7.09a16.68,16.68,0,0,0-1.08,2.66c-.15.42-.28.81-.43,1.2a1.72,1.72,0,0,0,.63,2.31l.87.57a13.64,13.64,0,0,0,4.58,2.22,9.74,9.74,0,0,0,2.05.27,3.46,3.46,0,0,0,2.53-.92,23.59,23.59,0,0,1,5.52-3.67c.65-.34,1.31-.7,2-1.07a4.5,4.5,0,0,0,1.73-1.64c.09-.14.24-.41.37-.6.2.13.45.33.58.43a4,4,0,0,1,.39.41l.1.11a12.15,12.15,0,0,1,2.92,6.8c.82,6.28,1.87,12.92,4.95,19,.8,1.58,1.43,3.24.61,4.7a6.52,6.52,0,0,0,.08,6.82,3.26,3.26,0,0,1-.37,3.46c-.08.11-.18.24-.29.37a3.07,3.07,0,0,0-.92,2.13l0,1.16,1.15-.16h.08a1.34,1.34,0,0,0,.74-.22l.71-.49c3-2,6.08-4.16,7.73-7.86a2.76,2.76,0,0,0,.07-2.28c-.24-.57-.46-1.16-.68-1.74-.36-.94-.73-1.9-1.15-2.85a11.72,11.72,0,0,1-1.17-5.36,8.61,8.61,0,0,0-2.4-6.66c-.85-.87-1.74-1.67-2.58-2.42a2.18,2.18,0,0,1-.69-2.69,3,3,0,0,1,.92-1.55,3.18,3.18,0,0,0,1.23-2.4,6.3,6.3,0,0,1,1-3.06,2,2,0,0,0-.58-3c-.14-.1-.29-.2-.24-.69a8.93,8.93,0,0,0-3.58-8.42,6.16,6.16,0,0,1-1.72-3c-.15-.44-.31-.89-.49-1.34a.11.11,0,0,1,0-.06,7.88,7.88,0,0,0,.93-4.42c0-1.49,2.14-4.33,3.59-4.33a7.3,7.3,0,0,0,5.42-2.31,2.12,2.12,0,0,1,.23-.16,4.7,4.7,0,0,0,.41-.3c.91-.77,1.91-1.51,2.87-2.22a26.16,26.16,0,0,0,6.47-6.07.41.41,0,0,1,.18-.17,6.4,6.4,0,0,0,3.41-2.57,1.82,1.82,0,0,0,.14-.14,1.88,1.88,0,0,0,.75-1.42,1.63,1.63,0,0,0-.65-1.22,1.88,1.88,0,0,1-.25-.24,2.7,2.7,0,0,0-1.81-.92,2.23,2.23,0,0,0-1.42.55,4.1,4.1,0,0,0-.37.33,3.47,3.47,0,0,1-.3.27l-.88-.12c-1.32-.14-1.81-.27-2.11-1.14a3.5,3.5,0,0,0-2.38-2.44,9.72,9.72,0,0,1-1.85-.63,8.75,8.75,0,0,1,.31-1.79l.05-.22c.12-.52.23-.94.33-1.27.6-2.16.07-2.55-2.05-3.68l-.5-.27a1.55,1.55,0,0,1-1-1.4,21.22,21.22,0,0,0-.34-2.32c-.05-.32-.11-.64-.16-1v0a1.91,1.91,0,0,0-1.21-1.7l-.4-.13a6.64,6.64,0,0,0-2.17-.47,3.79,3.79,0,0,0-1.76.44,17.42,17.42,0,0,1-1.69.78c.15-.68.24-1.36.32-2s.16-1.2.28-1.77c.49-2.34,1.29-3.86,2.53-4.78a7.82,7.82,0,0,0,2.84-4.46c1.08-3.77,1.79-7.81-.4-11.82a3.66,3.66,0,0,0-1.81-1.89c-.29-.12-.32-.16-.31-.47a4.62,4.62,0,0,0-1.46-2.81c-.4-.42-1.8-1.79-3.08-1.83h0Z"/><path class="cls-4" d="M63.59,154.44a20.88,20.88,0,0,1-7.32-1.21A16.12,16.12,0,0,1,50.84,150a13.83,13.83,0,0,1-3.28-4.76,14.67,14.67,0,0,1-1.11-5.59V110.15a4.73,4.73,0,0,0-.31-1.85,3.24,3.24,0,0,0-1.27-1.3,6.53,6.53,0,0,0-1.84-.72,13.21,13.21,0,0,0-1.93-.35l-.47-.05v-3.47H60.16v3.5l-.5,0a13.13,13.13,0,0,0-2.12.3,13.49,13.49,0,0,0-1.87.5,1.85,1.85,0,0,0-1.13,1.11,5.6,5.6,0,0,0-.33,2v27.5a23.79,23.79,0,0,0,.38,4.1,11.46,11.46,0,0,0,1.48,3.91,9.27,9.27,0,0,0,3.14,3,11,11,0,0,0,5.5,1.15,11.93,11.93,0,0,0,5.54-1.16,9.56,9.56,0,0,0,3.49-3.06,12.21,12.21,0,0,0,1.74-3.81,15.88,15.88,0,0,0,.52-4V117a33.25,33.25,0,0,0-.49-6.26c-.38-1.89-.91-2.65-1.29-3a7.6,7.6,0,0,0-2.8-1.27,16.18,16.18,0,0,0-2.8-.54l-.48,0v-3.48H87.32v3.5l-.49,0a14.68,14.68,0,0,0-2.47.41,7,7,0,0,0-2.57,1.07,4.7,4.7,0,0,0-1.26,3,38.72,38.72,0,0,0-.41,6.1v21.65a16.5,16.5,0,0,1-1.58,7.43,15.31,15.31,0,0,1-4.18,5.19A16.84,16.84,0,0,1,69,153.59,18.87,18.87,0,0,1,63.59,154.44Z"/><path class="cls-1" d="M86.81,102.92v2.49a16.19,16.19,0,0,0-2.57.43A7.48,7.48,0,0,0,81.49,107,5.13,5.13,0,0,0,80,110.33a39.73,39.73,0,0,0-.41,6.18v21.65a15.89,15.89,0,0,1-1.53,7.2,14.53,14.53,0,0,1-4,5,16.39,16.39,0,0,1-5.21,2.72,18.16,18.16,0,0,1-5.24.82,20.33,20.33,0,0,1-7.14-1.17,15.54,15.54,0,0,1-5.26-3.18A13.22,13.22,0,0,1,48,145,14,14,0,0,1,47,139.6V110.15a5.12,5.12,0,0,0-.36-2.05,3.68,3.68,0,0,0-1.46-1.53,6.78,6.78,0,0,0-2-.79,14.38,14.38,0,0,0-2-.37v-2.49H59.64v2.49a14.16,14.16,0,0,0-2.2.32,12.93,12.93,0,0,0-2,.53,2.32,2.32,0,0,0-1.42,1.4,6.16,6.16,0,0,0-.36,2.14v27.5a23.94,23.94,0,0,0,.39,4.19,11.5,11.5,0,0,0,1.55,4.08A9.56,9.56,0,0,0,59,148.73,11.41,11.41,0,0,0,64.71,150a12.3,12.3,0,0,0,5.78-1.23,9.9,9.9,0,0,0,3.68-3.23,12.61,12.61,0,0,0,1.81-4,16.44,16.44,0,0,0,.53-4.17V117a32.58,32.58,0,0,0-.5-6.36,5.55,5.55,0,0,0-1.47-3.25,8.07,8.07,0,0,0-3-1.37,18.66,18.66,0,0,0-2.89-.56v-2.49H86.81m1-1H67.63v4.48l1,.07a16.1,16.1,0,0,1,2.71.53,7,7,0,0,1,2.61,1.17c.25.21.73.82,1.11,2.65a33,33,0,0,1,.48,6.16v20.42a15.76,15.76,0,0,1-.5,3.91,12,12,0,0,1-1.67,3.65A8.9,8.9,0,0,1,70,147.82a11.31,11.31,0,0,1-5.3,1.11,10.43,10.43,0,0,1-5.24-1.09,8.65,8.65,0,0,1-3-2.82,10.75,10.75,0,0,1-1.4-3.71,22.79,22.79,0,0,1-.38-4V109.8A5.13,5.13,0,0,1,55,108a1.31,1.31,0,0,1,.84-.8,12,12,0,0,1,1.79-.48,13.22,13.22,0,0,1,2-.29l1,0v-4.51H40.12v4.46l.93.09a13.73,13.73,0,0,1,1.86.34,5.8,5.8,0,0,1,1.7.66,2.74,2.74,0,0,1,1.06,1.07,4.22,4.22,0,0,1,.27,1.64V139.6a15,15,0,0,0,1.14,5.78,14.44,14.44,0,0,0,3.4,4.94,16.86,16.86,0,0,0,5.61,3.39,21.41,21.41,0,0,0,7.5,1.24,19.21,19.21,0,0,0,5.54-.87,17.07,17.07,0,0,0,5.53-2.89A15.62,15.62,0,0,0,79,145.82a17,17,0,0,0,1.64-7.66V116.51a39.13,39.13,0,0,1,.39-6c.3-1.84.8-2.47,1.08-2.68a6.45,6.45,0,0,1,2.36-1,13.72,13.72,0,0,1,2.38-.4l1,0v-4.51Z"/><path class="cls-4" d="M124.12,153.5V150l.49,0c.61,0,1.42-.11,2.41-.24a4.69,4.69,0,0,0,1.84-.51A3.77,3.77,0,0,0,130,147.9a4.71,4.71,0,0,0,.36-1.91L126,111.27l-12,41.42h-2.18l-11.28-41.77-2,34.2c.08.43.13.83.18,1.18a3.36,3.36,0,0,0,.5,1.74,5.41,5.41,0,0,0,2.35,1.26A12,12,0,0,0,104,150l.48,0v3.49H87.33V150l.46-.05a16.2,16.2,0,0,0,2.57-.51,4.3,4.3,0,0,0,1.93-1A5.61,5.61,0,0,0,94,145.72l2.55-35.78a5.36,5.36,0,0,0-1.07-2,4.8,4.8,0,0,0-1.93-1.26,8,8,0,0,0-2.36-.5l-.48,0v-3.49h14.51L115,138.59l7.9-29.44a34.48,34.48,0,0,0,.9-3.57,18.49,18.49,0,0,0,.4-2.43l0-.49h14v3.5l-.49,0a14.23,14.23,0,0,0-3.61.8,1.78,1.78,0,0,0-1,1.1,6,6,0,0,0-.31,1.94l4.48,35.91v0a5.11,5.11,0,0,0,.3,1.88,2.84,2.84,0,0,0,1.1,1.24,5.07,5.07,0,0,0,1.63.58,11.75,11.75,0,0,0,2,.32l.49,0v3.5Z"/><path class="cls-1" d="M137.71,103.17v2.5a11.14,11.14,0,0,0-2,.31,11.54,11.54,0,0,0-1.78.53,2.31,2.31,0,0,0-1.3,1.4,6.71,6.71,0,0,0-.33,2.14L136.77,146a5.47,5.47,0,0,0,.34,2.07,3.16,3.16,0,0,0,1.29,1.48,5.79,5.79,0,0,0,1.8.65,11.58,11.58,0,0,0,2.05.33V153H124.63v-2.49a24.08,24.08,0,0,0,2.46-.24,5.12,5.12,0,0,0,2.06-.6,4.18,4.18,0,0,0,1.28-1.53,5,5,0,0,0,.41-2.16l-4.48-36.22h-.43l-12.24,42.44h-1.41l-11.7-43.32h-.36L98,145.16c.29,1.49.22,2.57.82,3.23a6.07,6.07,0,0,0,2.56,1.4,12.88,12.88,0,0,0,2.53.7V153H87.85v-2.49A16.34,16.34,0,0,0,90.5,150a4.64,4.64,0,0,0,2.15-1.15,5.89,5.89,0,0,0,1.86-3l2.56-35.91a5.75,5.75,0,0,0-1.21-2.28,5.27,5.27,0,0,0-2.13-1.41,8.79,8.79,0,0,0-2.51-.52v-2.5h13.6L115,140.56l8.4-31.27c.35-1.15.66-2.35.91-3.6a21.74,21.74,0,0,0,.41-2.52h13m1-1h-15l0,1a19.15,19.15,0,0,1-.39,2.35,31.94,31.94,0,0,1-.89,3.5v0L115,136.62l-9.17-33.72-.2-.75H90.2v4.49l1,0a7.82,7.82,0,0,1,2.21.47,4.34,4.34,0,0,1,1.73,1.13A4.78,4.78,0,0,1,96,110l-2.54,35.66a5,5,0,0,1-1.56,2.42,3.85,3.85,0,0,1-1.7.9,16.42,16.42,0,0,1-2.5.49l-.91.1V154H105v-4.49l-1-.05a12.74,12.74,0,0,1-2.26-.65,5.06,5.06,0,0,1-2.1-1.09v0l0,0a3.16,3.16,0,0,1-.37-1.46c0-.34-.1-.72-.18-1.14l1.86-31,10.36,38.35.21.76h3l.21-.74,11.16-38.64,4,32.2a3.9,3.9,0,0,1-.31,1.66,3.13,3.13,0,0,1-.95,1.13,4.52,4.52,0,0,1-1.61.42c-1,.13-1.75.21-2.35.24l-1,0V154h19.68v-4.5l-1,0a11.85,11.85,0,0,1-1.87-.31,4.63,4.63,0,0,1-1.44-.49,2.31,2.31,0,0,1-.93-1,4.72,4.72,0,0,1-.26-1.69v-.12L133.31,110a5.33,5.33,0,0,1,.29-1.74,1.21,1.21,0,0,1,.73-.8,10.6,10.6,0,0,1,1.6-.47,11,11,0,0,1,1.83-.29l1,0v-4.5Z"/><path class="cls-4" d="M152.62,153.84v-3.51l.47,0c.51,0,1.33-.14,2.41-.28.57-.08.63-.14.68-.19a1.14,1.14,0,0,1,.39-.29,2.5,2.5,0,0,0,1.16-1.11,4.71,4.71,0,0,0,.39-2.1v-40.2H158c-.58,0-1.31,0-2.17,0l-4.84.15a2.42,2.42,0,0,0-1.74.83c-2.44,2.6-2.2,10.07-2.2,10.15l0,.53h-2.52V102.32h36.28v15.56h-2.52l0-.53c0-.08.23-7.55-2.2-10.16a2.44,2.44,0,0,0-1.74-.83l-4.83-.14c-.87,0-1.6,0-2.18,0h-.11V146a5.18,5.18,0,0,0,.36,2,2.43,2.43,0,0,0,1.16,1.25.92.92,0,0,1,.39.36c0,.05.09.13.62.27a12,12,0,0,0,2.44.45l.49,0v3.53Z"/><path class="cls-1" d="M180.31,102.83v14.53h-1.47s.41-11.36-4.43-11.51l-4.84-.14q-1.31-.06-2.19-.06h-.63V146a5.56,5.56,0,0,0,.4,2.15,2.93,2.93,0,0,0,1.4,1.51c.34.17,0,.39,1.12.68a12.85,12.85,0,0,0,2.55.46v2.53H153.13V150.8c.53-.05,1.34-.14,2.44-.28s.82-.32,1.24-.54a3,3,0,0,0,1.38-1.33,5.26,5.26,0,0,0,.44-2.33V105.61H158c-.59,0-1.32,0-2.19,0l-4.84.14c-4.83.15-4.43,11.52-4.43,11.52h-1.47V102.83h35.24m1-1H144v16.54h3.57l0-1.06c-.07-2,.16-7.75,2.06-9.78a1.9,1.9,0,0,1,1.37-.67l4.84-.14,1.76-.06v39.69a4.21,4.21,0,0,1-.33,1.86,1.88,1.88,0,0,1-.92.88,2,2,0,0,0-.5.37l-.42.07c-1.07.14-1.88.23-2.39.28l-.94.08v4.5h21.15v-4.55l-1,0a12.6,12.6,0,0,1-2.33-.44,2.84,2.84,0,0,1-.36-.11,1.5,1.5,0,0,0-.55-.48,1.88,1.88,0,0,1-.92-1,4.71,4.71,0,0,1-.32-1.76V106.68c.5,0,1.08,0,1.75,0l4.85.15a1.89,1.89,0,0,1,1.37.66c1.9,2,2.13,7.76,2.06,9.79l0,1.06h3.56V101.8Z"/><path class="cls-4" d="M199,154.06v-3.5l.48,0a13.89,13.89,0,0,0,3.6-.68c.72-.26,1.15-.57,1.15-.83a5.2,5.2,0,0,0-.06-.71,3.24,3.24,0,0,0-.15-.72l-3.28-10.9H187.14c-.48,1.49-.88,2.81-1.19,3.94S185.31,143,185,144s-.42,1.81-.51,2.43a10.57,10.57,0,0,0-.14,1.48c0,.26,0,1.07,1.51,1.72a11.87,11.87,0,0,0,3.92.88l.49,0v3.51H173.86v-3.5l.46,0a8.8,8.8,0,0,0,1.78-.39,5.16,5.16,0,0,0,1.68-.81,7.5,7.5,0,0,0,1.66-1.87,13.66,13.66,0,0,0,1.2-2.77c2.05-6.3,4.34-13.44,6.8-21.23s4.7-14.86,6.64-21l.11-.36h3.06L211,145.78a8.79,8.79,0,0,0,.92,2.11,7,7,0,0,0,1.43,1.54,5.33,5.33,0,0,0,1.55.74,7,7,0,0,0,1.66.35l.49,0v3.52Zm.36-21.56-5.49-17.27-5.42,17.27Z"/><path class="cls-1" d="M196.88,102.61l13.65,43.32a9,9,0,0,0,1,2.23,7.3,7.3,0,0,0,1.53,1.67,5.69,5.69,0,0,0,1.73.83,7.4,7.4,0,0,0,1.79.37v2.51h-17V151a14.46,14.46,0,0,0,3.73-.71c1-.35,1.49-.79,1.49-1.31a6.28,6.28,0,0,0-.06-.78,4.44,4.44,0,0,0-.17-.81l-3.39-11.25H186.77c-.54,1.65-1,3.09-1.32,4.31s-.64,2.36-.91,3.4-.42,1.84-.52,2.48a10.33,10.33,0,0,0-.14,1.56c0,.94.6,1.67,1.81,2.19a12.2,12.2,0,0,0,4.1.92v2.51H174.37V151a10,10,0,0,0,1.88-.41,5.36,5.36,0,0,0,1.84-.9,8,8,0,0,0,1.79-2,13.69,13.69,0,0,0,1.24-2.88q3.09-9.45,6.81-21.24t6.64-21h2.31M187.77,133h12.31l-6.2-19.49L187.77,133m9.86-31.43h-3.81l-.23.71q-2.91,9.21-6.64,21c-2.46,7.8-4.75,14.94-6.8,21.23a13.8,13.8,0,0,1-1.15,2.67,7,7,0,0,1-1.55,1.73,4.56,4.56,0,0,1-1.5.72,9.32,9.32,0,0,1-1.68.37l-.93.09v4.47h17.48v-4.5l-1-.06a11.4,11.4,0,0,1-3.75-.84c-1.2-.52-1.2-1-1.2-1.25a9.87,9.87,0,0,1,.14-1.41c.09-.6.26-1.4.5-2.38s.57-2.17.9-3.37c.28-1,.64-2.23,1.07-3.57h12.87l3.17,10.53a3.61,3.61,0,0,1,.13.64,4.69,4.69,0,0,1,0,.58,2.44,2.44,0,0,1-.8.42,13.85,13.85,0,0,1-3.47.65l-1,.07v4.49h19.08v-4.52l-1,0a6.33,6.33,0,0,1-1.53-.33,4.88,4.88,0,0,1-1.41-.66,6.42,6.42,0,0,1-1.3-1.41,8.71,8.71,0,0,1-.86-2l-13.65-43.32-.23-.72ZM189.17,132l4.72-15.05L198.68,132Z"/><path class="cls-2" d="M19.43,91.31,21.76,87l8.09,4.37A7.68,7.68,0,0,1,31.92,93a5.67,5.67,0,0,1,1.21,2.22,5.47,5.47,0,0,1,.19,2.34,9.94,9.94,0,0,1-1.18,3.27A21.72,21.72,0,0,1,30.8,103a7,7,0,0,1-1.64,1.72,5.71,5.71,0,0,1-2,.85,4.84,4.84,0,0,1-2.06.08,8.88,8.88,0,0,1-2.51-.84l-8.09-4.37,2.33-4.32,8.28,4.48a2.63,2.63,0,0,0,2.08.3,3.17,3.17,0,0,0,1.91-3.51,2.64,2.64,0,0,0-1.41-1.57Z"/><path class="cls-2" d="M25,82.31l3-3.52,10.39.88L31.76,74.2l3-3.56,11.84,9.9-3,3.56-10.32-.87,6.5,5.44-3,3.54Z"/><path class="cls-2" d="M38.5,67.23l3.64-3.32L52.53,75.33l-3.64,3.31Z"/><path class="cls-2" d="M49.79,67.21a7.82,7.82,0,0,1-1.6-6.07A8.29,8.29,0,0,1,51.93,56a8.49,8.49,0,0,1,6.2-1.82,7.68,7.68,0,0,1,5.08,3.52A9.24,9.24,0,0,1,65,61.82a6.61,6.61,0,0,1-.67,3.77,9.23,9.23,0,0,1-3.07,3.32,10.41,10.41,0,0,1-4.13,1.88,6.66,6.66,0,0,1-3.85-.52A8.55,8.55,0,0,1,49.79,67.21Zm4-2.8a5,5,0,0,0,2.66,2.23,3.45,3.45,0,0,0,4-2.78,5.59,5.59,0,0,0-1.35-3.44,4.65,4.65,0,0,0-2.57-2.09,3.16,3.16,0,0,0-2.59.58,3,3,0,0,0-1.37,2.21A5.08,5.08,0,0,0,53.83,64.41Z"/><path class="cls-2" d="M62.87,49.15l4.13-2,9.1,5.1-3.7-7.7,4.17-2,6.7,13.91-4.18,2-9-5,3.68,7.63-4.17,2Z"/><path class="cls-2" d="M90.21,45.81a7.85,7.85,0,0,1,.73-6.23,8.32,8.32,0,0,1,5.38-3.47,8.51,8.51,0,0,1,6.44.58,7.69,7.69,0,0,1,3.44,5.14,9.14,9.14,0,0,1,.13,4.53,6.66,6.66,0,0,1-2,3.26,9.17,9.17,0,0,1-4.08,2,10.32,10.32,0,0,1-4.52.23,6.63,6.63,0,0,1-3.4-1.89A8.58,8.58,0,0,1,90.21,45.81ZM95,44.68a5,5,0,0,0,1.65,3,3.05,3.05,0,0,0,2.61.43,3.1,3.1,0,0,0,2.15-1.55,5.61,5.61,0,0,0,0-3.7A4.64,4.64,0,0,0,99.78,40a3.14,3.14,0,0,0-2.62-.4,3,3,0,0,0-2.08,1.55A5.11,5.11,0,0,0,95,44.68Z"/><path class="cls-2" d="M108.61,33.88l12.08-1.29.35,3.3-7.17.76.29,2.68,6.12-.65.34,3.1-6.13.65.67,6.28-4.91.52Z"/><path class="cls-2" d="M133,32.22l6.44.55,1.69,9.57,3.26-9.15,6.43.55-1.31,15.38-4-.34,1-11.73-4.09,11.47-3.63-.31-2.08-12-1,11.73-4-.34Z"/><path class="cls-2" d="M154,34.28l5.31,1.26,1.91,5.81L165.59,37l5.28,1.26-8.09,7.3-1.5,6.29-4.79-1.14L158,44.44Z"/><path class="cls-2" d="M176.43,54.14,171.2,52.2l-1.62,2.11-4.7-1.74,11-12.39,5,1.87.21,16.55-4.82-1.79Zm.2-3.48.29-5.82-3.56,4.6Z"/><path class="cls-2" d="M189.55,45.62l4,2.23,1.08,10.38,4.15-7.47L202.84,53l-7.5,13.49-4.05-2.25L190.21,54l-4.12,7.41-4-2.24Z"/><path class="cls-2" d="M207.33,55.89l5,4.09-4,8.85,7.87-5.7,5,4.09-9.77,12-3.12-2.55,7.46-9.11-9.86,7.14-2.82-2.3,5.06-11.07-7.45,9.11-3.12-2.55Z"/><path class="cls-2" d="M221.27,86.89l-3.58-4.28-2.45,1L212,79.8l15.68-5.32,3.44,4.12-8,14.48-3.3-4ZM223.18,84l3.13-4.9-5.37,2.22Z"/><path class="cls-2" d="M223.57,94l13.48-7.52,4,7.15a12.21,12.21,0,0,1,1.37,3.22,3.68,3.68,0,0,1-.29,2.38,4.1,4.1,0,0,1-1.82,1.87,4.13,4.13,0,0,1-4.29,0,6.09,6.09,0,0,1-1.37-1.2,4.68,4.68,0,0,1,.12,1.39,4.86,4.86,0,0,1-.32,1.08,6.58,6.58,0,0,1-.5,1.07l-2.75,4.26-2.71-4.85,2.84-4.59a3.45,3.45,0,0,0,.61-1.36,2.14,2.14,0,0,0-.27-1.23l-.21-.38L226,98.29ZM234,93.81l1,1.81a7.49,7.49,0,0,0,.82,1,1.33,1.33,0,0,0,.81.46,1.37,1.37,0,0,0,.93-.17,1.4,1.4,0,0,0,.77-1,3.09,3.09,0,0,0-.54-1.8l-1.06-1.89Z"/><path class="cls-2" d="M26.26,147.6l6.21,13.1L29,162.33l-2.08-4.39-10.51,5-2-4.31,10.51-5-2.09-4.39Z"/><path class="cls-2" d="M20.74,170.84l12.34-9.29,4.78,6.36a11.33,11.33,0,0,1,1.73,2.93,3.57,3.57,0,0,1,0,2.35,4.78,4.78,0,0,1-3.67,3,4.28,4.28,0,0,1-2.11-.3,5.66,5.66,0,0,1-1.5-1,3.18,3.18,0,0,1,.11,2.43,7.19,7.19,0,0,1-.37,1.12L29.88,183l-3.24-4.3,2.23-4.88a3.55,3.55,0,0,0,.43-1.4,1.94,1.94,0,0,0-.41-1.15l-.26-.34-5,3.77ZM31,169.14l1.21,1.61a6.41,6.41,0,0,0,.93.88A1.21,1.21,0,0,0,34,172a1.36,1.36,0,0,0,.9-.3,1.39,1.39,0,0,0,.63-1.07,2.92,2.92,0,0,0-.75-1.66l-1.26-1.67Z"/><path class="cls-2" d="M40.94,189.82l-4-3.66-2.28,1.37-3.59-3.29,14.71-7.46,3.84,3.51-6.16,15.3-3.68-3.37Zm1.53-3.13L45,181.45l-5,3Z"/><path class="cls-2" d="M52.3,182.91l4.14,2.79-3.31,11.15,9-7.3,4,2.7-13.37,9.61L48.53,199Z"/><path class="cls-2" d="M66.91,192.46,78.41,198,77,201l-7.2-3.5-1.07,2.21L75.38,203,74,205.79l-6.68-3.23L66,205.29l7.41,3.6L71.88,212l-11.71-5.67Z"/><path class="cls-2" d="M80.36,198.77l4.51,1.55-3.79,11,7,2.42-1.23,3.59-11.55-4Z"/><path class="cls-2" d="M107.3,219l-5.34-.87-1.16,2.39-4.8-.78,8.2-14.31,5.14.84,3.25,16.17-4.93-.8Zm-.44-3.46-.79-5.75L103.51,215Z"/><path class="cls-2" d="M114.6,217.46l4.55-.08a3.46,3.46,0,0,0,.52,1.71,2.51,2.51,0,0,0,2.06,1,2.32,2.32,0,0,0,1.6-.41,1.43,1.43,0,0,0,.6-1.08,1.41,1.41,0,0,0-.48-1.1,6,6,0,0,0-2.39-1,10.35,10.35,0,0,1-4.39-2.08,3.79,3.79,0,0,1-1.21-3,4.08,4.08,0,0,1,.8-2.21,4.6,4.6,0,0,1,2.15-1.57,9.6,9.6,0,0,1,3.82-.42,7.77,7.77,0,0,1,4.46,1.3,4.77,4.77,0,0,1,1.68,3.59l-4.51.05a2.09,2.09,0,0,0-2.24-2.09,1.91,1.91,0,0,0-1.27.29,1.09,1.09,0,0,0-.46.84.89.89,0,0,0,.32.68,4,4,0,0,0,1.57.64,19.81,19.81,0,0,1,4.41,1.57,4.71,4.71,0,0,1,1.89,1.8,4.32,4.32,0,0,1,.51,2.31,4.9,4.9,0,0,1-1,2.7,5.07,5.07,0,0,1-2.38,1.79,9.18,9.18,0,0,1-3.74.47q-3.94-.18-5.38-1.76A6,6,0,0,1,114.6,217.46Z"/><path class="cls-2" d="M130.64,218.1l4.51-.56a3.53,3.53,0,0,0,.7,1.64A2.5,2.5,0,0,0,138,220a2.35,2.35,0,0,0,1.55-.57,1.47,1.47,0,0,0,.48-1.15,1.41,1.41,0,0,0-.59-1,6.14,6.14,0,0,0-2.49-.74,10.44,10.44,0,0,1-4.59-1.6,3.76,3.76,0,0,1-1.52-2.89,4,4,0,0,1,.55-2.29,4.55,4.55,0,0,1,2-1.79,9.65,9.65,0,0,1,3.75-.83,7.76,7.76,0,0,1,4.57.82,4.74,4.74,0,0,1,2.06,3.38l-4.47.54a2.41,2.41,0,0,0-.85-1.47,2.36,2.36,0,0,0-1.61-.37,1.92,1.92,0,0,0-1.23.42,1.12,1.12,0,0,0-.37.89.89.89,0,0,0,.39.64,4,4,0,0,0,1.63.47,19.66,19.66,0,0,1,4.56,1.09,4.69,4.69,0,0,1,2.07,1.58,4.48,4.48,0,0,1,.76,2.25,4.86,4.86,0,0,1-.66,2.78,5.1,5.1,0,0,1-2.17,2,9.3,9.3,0,0,1-3.67.87c-2.63.16-4.47-.23-5.54-1.18A6,6,0,0,1,130.64,218.1Z"/><path class="cls-2" d="M146.46,214.47a7.31,7.31,0,0,1,6.41-9.29,8.08,8.08,0,0,1,6.22,1,7.83,7.83,0,0,1,3.09,5.33,9.56,9.56,0,0,1-.1,4.53,6.48,6.48,0,0,1-2.11,3.12,8.66,8.66,0,0,1-4.05,1.72,9.92,9.92,0,0,1-4.4,0,6.51,6.51,0,0,1-3.2-2.09A8.86,8.86,0,0,1,146.46,214.47Zm4.7-.83a5.21,5.21,0,0,0,1.46,3.15,3.29,3.29,0,0,0,4.67-.83,5.76,5.76,0,0,0,.18-3.69,4.77,4.77,0,0,0-1.43-3,3,3,0,0,0-2.53-.57,2.93,2.93,0,0,0-2.1,1.42A5.24,5.24,0,0,0,151.16,213.64Z"/><path class="cls-2" d="M175.11,209l4.37-.07a7.62,7.62,0,0,1-.37,3.2,5.62,5.62,0,0,1-1.59,2.38,8.35,8.35,0,0,1-3.07,1.62,10,10,0,0,1-4.14.56,6.52,6.52,0,0,1-3.41-1.61,8.7,8.7,0,0,1-2.54-4.14,8,8,0,0,1,.14-6.23,7.76,7.76,0,0,1,4.86-3.72,7.85,7.85,0,0,1,4.73-.27,6.9,6.9,0,0,1,3.47,2.69l-3.73,2.18a3.24,3.24,0,0,0-.75-.84,2.94,2.94,0,0,0-4.49,1.61,5.62,5.62,0,0,0,.31,3.09,5.72,5.72,0,0,0,1.82,3.11,2.64,2.64,0,0,0,2.37.24,2.67,2.67,0,0,0,1.74-1.36A4.72,4.72,0,0,0,175.11,209Z"/><path class="cls-2" d="M178,198.17l4.38-1.9,6.15,14.16-4.39,1.91Z"/><path class="cls-2" d="M199.61,201.79l-4.72,2.67.6,2.59-4.24,2.39-2.54-16.29,4.53-2.56,12.65,10.58-4.35,2.46Zm-2.51-2.42-4.21-4,1.26,5.66Z"/><path class="cls-2" d="M196.72,188.69l11.57-8.75,2.3,3-3.89,2.94,7,9.27-3.81,2.88-7-9.28L199,191.73Z"/><path class="cls-2" d="M209.36,178.67l3.44-3.32,10.71,11.13-3.45,3.31Z"/><path class="cls-2" d="M220.54,178.91a7.31,7.31,0,0,1-1.43-11.2,8.13,8.13,0,0,1,5.28-3.43,7.8,7.8,0,0,1,5.86,1.91,9.49,9.49,0,0,1,2.95,3.44,6.44,6.44,0,0,1,.51,3.73,8.59,8.59,0,0,1-1.86,4,9.84,9.84,0,0,1-3.31,2.91,6.57,6.57,0,0,1-3.78.58A8.89,8.89,0,0,1,220.54,178.91Zm2.94-3.76a5.24,5.24,0,0,0,3.19,1.37,3.29,3.29,0,0,0,2.93-3.74,5.76,5.76,0,0,0-2.33-2.86,4.76,4.76,0,0,0-3.05-1.26,3,3,0,0,0-2.26,1.27,2.9,2.9,0,0,0-.61,2.46A5.2,5.2,0,0,0,223.48,175.15Z"/><path class="cls-2" d="M224.9,160.41l1.87-4,10.2-1.68-7.75-3.59,1.89-4.08,14,6.5-1.9,4.08-10.12,1.67,7.69,3.57-1.89,4.07Z"/></svg>