<svg id="Layer_1" data-name="Layer 1" xmlns="http://www.w3.org/2000/svg" viewBox="0 0 128 128"><defs><style>.cls-1{fill:#fff;}</style></defs><title>usd</title><path class="cls-1" d="M61.82,17.7c9.48-.18,18.67,3.23,27.44,10.17H79.63l2.73,7H102.6V18.8l-7-2.74v7.11C84.88,13.5,73.36,8.75,61.68,9c-21.91.52-37.37,17.94-38,18.68l3.25,7.22C27.05,34.74,41.82,18.16,61.82,17.7Z"/><path class="cls-1" d="M64.44,110.3c-9.48.18-18.67-3.23-27.44-10.17h9.63l-2.73-7H23.66V109.2l7.05,2.74v-7.11C41.38,114.5,52.9,119.25,64.58,119c21.91-.52,37.37-17.94,38-18.68l-3.25-7.22C99.21,93.26,84.44,109.84,64.44,110.3Z"/><path class="cls-1" d="M45.72,66V47.65H38.6V66c0,4.55-2.8,7.3-7,7.3s-7.21-2.75-7.21-7.3V47.65H17.23V66c0,8.34,5.59,13.52,14.33,13.52S45.72,74.34,45.72,66Z"/><path class="cls-1" d="M63.53,73.34c-3.34,0-7.94-1.84-11.18-4.73l-2.84,5.82a22.14,22.14,0,0,0,13.93,5c7,0,12.35-3.34,12.35-9.51C75.83,58.56,59,61.8,59,56c0-1.72,1.62-2.57,4-2.57s6.49,1.26,9.83,3.24l2.75-5.9a22.53,22.53,0,0,0-12-3.43c-7.31,0-12.22,3.61-12.22,9.33,0,11.18,16.82,7.71,16.82,13.66C68.22,72.26,66.46,73.34,63.53,73.34Z"/><path class="cls-1" d="M94.18,47.65H80.79V79.21H93.91c10,0,16.86-6.5,16.86-15.78S104,47.65,94.18,47.65Zm.18,25.56H87.92V53.64h6.13c5.41,0,9.47,4,9.47,9.83S99.64,73.21,94.36,73.21Z"/></svg>