<svg id="Icon" xmlns="http://www.w3.org/2000/svg" viewBox="0 0 512 512"><defs><style>.cls-1,.cls-4{fill:#f2a437;}.cls-1{opacity:0.6;}.cls-2{fill:#fff;}.cls-3{opacity:0.4;}.cls-5{fill:#4869ef;}</style></defs><title>05_visa</title><path class="cls-1" d="M323,146H204.24c-10.24,0-18.56,7.9-18.56,17.62V332.76c0,9.71,8.32,17.61,18.56,17.61H323c10.23,0,18.56-7.9,18.56-17.61V163.62C341.56,153.9,333.23,146,323,146Z"/><path class="cls-2" d="M305.77,153.86h-117a18.31,18.31,0,0,0-18.29,18.29V347.71A18.31,18.31,0,0,0,188.73,366h117a18.3,18.3,0,0,0,18.29-18.29V172.15A18.3,18.3,0,0,0,305.77,153.86Z"/><g class="cls-3"><path class="cls-4" d="M303,326.73H215.21a3.51,3.51,0,1,0,0,7H303a3.51,3.51,0,1,0,0-7Z"/><path class="cls-4" d="M303,312.7H215.21a3.51,3.51,0,1,0,0,7H303a3.51,3.51,0,1,0,0-7Z"/><path class="cls-4" d="M259.1,186.48c-26.22,0-47.55,20.45-47.55,45.58s21.33,45.58,47.55,45.58,47.55-20.45,47.55-45.58S285.32,186.48,259.1,186.48Z"/></g><path class="cls-5" d="M305.77,153.86h-117a18.31,18.31,0,0,0-18.29,18.29V347.71A18.31,18.31,0,0,0,188.73,366h117a18.3,18.3,0,0,0,18.29-18.29V172.15A18.3,18.3,0,0,0,305.77,153.86Zm11,193.85a11,11,0,0,1-11,11h-117a11,11,0,0,1-11-11V172.15a11,11,0,0,1,11-11h117a11,11,0,0,1,11,11Z"/><path class="cls-5" d="M291.14,329.42H203.36a3.66,3.66,0,1,0,0,7.32h87.78a3.66,3.66,0,1,0,0-7.32Z"/><path class="cls-5" d="M291.14,314.79H203.36a3.66,3.66,0,0,0,0,7.32h87.78a3.66,3.66,0,1,0,0-7.32Z"/><path class="cls-5" d="M247.25,183.12a47.55,47.55,0,1,0,47.55,47.55A47.6,47.6,0,0,0,247.25,183.12Zm38.64,36.44c-5.5-2.87-13.09-4.89-21.49-6-1.15-8.4-3.18-16-6-21.49A40.35,40.35,0,0,1,285.89,219.56Zm-20.71,20.78c.23-3.19.36-6.43.36-9.67s-.13-6.48-.36-9.67c14.54,2.25,22.31,6.92,22.31,9.67S279.72,238.09,265.18,240.34ZM247.25,270.9c-2.75,0-7.42-7.77-9.67-22.31,3.19.24,6.43.37,9.67.37s6.48-.13,9.67-.37C254.67,263.13,250,270.9,247.25,270.9Zm0-29.26c-3.77,0-7.26-.17-10.53-.44-.27-3.26-.44-6.76-.44-10.53s.17-7.27.44-10.54c3.27-.27,6.76-.43,10.53-.43s7.27.16,10.54.43c.27,3.27.44,6.77.44,10.54s-.17,7.27-.44,10.53C254.52,241.47,251,241.64,247.25,241.64Zm-40.23-11c0-2.75,7.77-7.42,22.31-9.67-.24,3.19-.37,6.43-.37,9.67s.13,6.48.37,9.67C214.79,238.09,207,233.42,207,230.67Zm40.23-40.24c2.75,0,7.42,7.77,9.67,22.32-3.19-.24-6.43-.37-9.67-.37s-6.48.13-9.67.37C239.83,198.2,244.5,190.43,247.25,190.43ZM236.14,192c-2.86,5.5-4.89,13.09-6,21.49-8.4,1.15-16,3.18-21.49,6A40.37,40.37,0,0,1,236.14,192Zm-27.53,49.75c5.5,2.86,13.09,4.89,21.5,6,1.15,8.4,3.17,16,6,21.49A40.36,40.36,0,0,1,208.61,241.78Zm49.75,27.53c2.87-5.5,4.89-13.09,6-21.5,8.4-1.15,16-3.17,21.5-6A40.38,40.38,0,0,1,258.36,269.31Z"/></svg>