<svg xmlns="http://www.w3.org/2000/svg" width="155" height="155" viewBox="0 0 155 155">
  <g id="Group_762" data-name="Group 762" transform="translate(0 -0.161)">
    <g id="wavepay" transform="translate(0 0.161)">
      <path id="Path_12724" data-name="Path 12724" d="M137.72,155H17.28A17.28,17.28,0,0,1,0,137.72V17.28A17.28,17.28,0,0,1,17.28,0H137.72A17.28,17.28,0,0,1,155,17.28V137.72A17.28,17.28,0,0,1,137.72,155Z" fill="#ffe512"/>
      <path id="Path_12725" data-name="Path 12725" d="M18.285,121.736a12.4,12.4,0,0,1-9.542,1.489c-3.475-.836-4.977-2.87-4.432-6.345.666-4.359,1.441-8.719,2.264-13.054a3.524,3.524,0,0,1,1.211-2.143,2.591,2.591,0,0,1,2.289-.145,2.422,2.422,0,0,1,.751,2.01c-.666,4.226-1.453,8.464-2.216,12.7-.472,2.676.5,3.9,3.209,4.008,3.56.157,4.953-1.211,5.655-5.389.63-3.766,1.211-7.532,1.925-11.274a3.633,3.633,0,0,1,1.356-2.022,2.119,2.119,0,0,1,1.962-.061,2.143,2.143,0,0,1,.8,1.792c-.654,4.25-1.4,8.477-2.2,12.7-.521,2.664.484,4.117,3.221,4.238,3.282.157,4.929-1.211,5.473-4.517.678-4.117,1.429-8.234,2.2-12.339a2.349,2.349,0,0,1,2.64-2.2c1.659.182,1.55,1.562,1.356,2.688-.739,4.468-1.441,8.961-2.422,13.393-.836,3.73-3.851,5.982-7.968,6.273C23.129,123.721,20.465,123.516,18.285,121.736Z"/>
      <path id="Path_12726" data-name="Path 12726" d="M97.3,123.177c-.363,1.865-.678,3.766-1.138,5.643-.388,1.586-1.707,2.422-2.894,2-1.38-.545-1.211-1.611-.993-2.882,1.211-6.418,2.422-12.848,3.4-19.3.727-4.735,4.045-7.12,8.477-7.435a15.028,15.028,0,0,1,5.025.545c2.8.775,3.9,2.979,3.4,6.563-.412,2.93-.92,5.849-1.574,8.743a8.477,8.477,0,0,1-8.549,6.466C100.774,123.516,99.079,123.31,97.3,123.177Zm4.844-2.93a4.529,4.529,0,0,0,4.965-3.9,85.31,85.31,0,0,0,1.4-8.477,3.56,3.56,0,0,0-1.32-2.87,4.953,4.953,0,0,0-7.35,3.633c-.424,2.422-.775,4.844-1.211,7.363-.545,3.015.46,4.25,3.463,4.25Z"/>
      <path id="Path_12727" data-name="Path 12727" d="M78.989,114.748c-.109.448-.17.787-.266,1.126-.751,2.834.351,4.311,3.318,4.371h6.418c.92,0,1.974.085,1.792,1.211-.133.763-1.005,1.986-1.574,2a68.07,68.07,0,0,1-10.547-.388c-3-.424-4.287-3.306-3.633-6.9.484-2.737.957-5.486,1.465-8.21a8.477,8.477,0,0,1,8.355-6.781,13.89,13.89,0,0,1,3.633.206c4.166.92,5.558,3.088,4.844,7.266-.218,1.308-.472,2.616-.714,3.923a2.313,2.313,0,0,1-2.6,2.2C85.977,114.7,82.5,114.748,78.989,114.748Zm.484-3.306h7.6a1.732,1.732,0,0,0,1.211-.981,5.873,5.873,0,0,0,.388-2.688,4.045,4.045,0,0,0-1.211-2.6c-2.252-1.417-6.66-.714-7.266,2.846-.279,1.041-.472,2.095-.727,3.391Z"/>
      <path id="Path_12728" data-name="Path 12728" d="M49.648,114.809H41.172c-.412,2.071-.739,4.2-1.211,6.285a4.214,4.214,0,0,1-1.3,2.046,2.022,2.022,0,0,1-1.816.218,2,2,0,0,1-.872-1.6c.3-2.64.727-5.28,1.211-7.907.279-1.732.69-3.439.981-5.171a8.38,8.38,0,0,1,8.477-7.508,13.974,13.974,0,0,1,3.633.218c4.129.92,5.546,3.136,4.844,7.266s-1.4,8.234-2.216,12.327a3.79,3.79,0,0,1-1.284,2.083,2.155,2.155,0,0,1-1.974.182,2.216,2.216,0,0,1-.823-1.792A47.68,47.68,0,0,1,49.648,114.809Zm-7.907-3.4h7.58a1.768,1.768,0,0,0,1.211-1.041,4.844,4.844,0,0,0,.363-2.507c-.242-1.029-.654-2.422-1.441-2.846a4.965,4.965,0,0,0-7.205,3.4A27.379,27.379,0,0,0,41.741,111.406Z"/>
      <path id="Path_12729" data-name="Path 12729" d="M126.785,114.8h-8.477c-.4,2.119-.751,4.25-1.211,6.345a3.548,3.548,0,0,1-1.211,1.925,2.325,2.325,0,0,1-1.974.254,1.913,1.913,0,0,1-.811-1.611c.3-2.652.739-5.28,1.211-7.907.291-1.732.69-3.451.981-5.183a8.368,8.368,0,0,1,8.477-7.447,16.564,16.564,0,0,1,3.633.218c4.989.92,5.195,3.936,4.674,7.508-.581,3.96-1.332,7.883-2.119,11.807a4.626,4.626,0,0,1-1.211,2.325,2.107,2.107,0,0,1-1.962.327,2.422,2.422,0,0,1-.908-1.925A51.2,51.2,0,0,1,126.785,114.8Zm-7.907-3.463c.5,0,.92.1,1.344.1h6.224a1.72,1.72,0,0,0,1.211-1.029,4.844,4.844,0,0,0,.363-2.507c-.23-1.017-.654-2.422-1.429-2.846a4.965,4.965,0,0,0-7.205,3.4A21.885,21.885,0,0,0,118.878,111.334Z"/>
      <path id="Path_12730" data-name="Path 12730" d="M63.126,118.26l5.05-11.007c.7-1.55,1.4-3.088,2.131-4.626.618-1.211,1.659-1.937,2.967-1.211s.945,1.8.424,2.87c-2.749,5.546-5.461,11.165-8.307,16.723a6.055,6.055,0,0,1-2.24,2.264,2.24,2.24,0,0,1-3.415-1.72c-.666-4.432-1.211-8.888-1.877-13.32-.17-1.211-.484-2.507-.605-3.766A3.245,3.245,0,0,1,57.5,102.4a2.93,2.93,0,0,1,2.022-1.126c.436,0,1.211.969,1.211,1.586.727,5.1,1.332,10.22,1.974,15.33Z"/>
      <path id="Path_12731" data-name="Path 12731" d="M141.365,108.984c1.732-2.119,3.342-4.105,4.965-6.055a8.2,8.2,0,0,1,1.211-1.211,1.865,1.865,0,0,1,2.761,0c1.041.981.375,1.792-.23,2.531-1.937,2.422-3.814,4.771-5.921,6.963a6.878,6.878,0,0,0-1.732,3.887c-.363,2.083-.666,4.178-1.138,6.248a3,3,0,0,1-1.211,1.72,2.422,2.422,0,0,1-2,.218,1.937,1.937,0,0,1-.787-1.635c.3-2.519.823-5.025,1.211-7.544a4.723,4.723,0,0,0-.254-2.422c-1.054-2.422-2.289-4.7-3.4-7.072-.533-1.15-.836-2.422.666-3.088s2.24.254,2.846,1.441C139.258,104.988,140.287,106.914,141.365,108.984Z"/>
      <path id="Path_12732" data-name="Path 12732" d="M82.041,25.1c-2.422,1.514-4.844,2.834-7.036,4.529A29.656,29.656,0,0,0,63.356,48.365a22.717,22.717,0,0,0,3.161,16.747,19.169,19.169,0,0,0,7.871,6.418c3.814,1.877,8,.509,10.777-3.124A12.86,12.86,0,0,0,82.743,51C77.9,47.469,71.3,49.491,68.805,55.279a14.011,14.011,0,0,0-.581,9.046,15.476,15.476,0,0,1-2.906-6.9c-1.9-10.535,2.143-18.83,9.845-25.72a20.332,20.332,0,0,1,7.447-4.553,28.36,28.36,0,0,1,7.375-.908,24.618,24.618,0,0,1,16.578,42.6c-3.778,3.633-8.622,5.4-13.575,6.818a37.37,37.37,0,0,1-13.7,1.211,31.484,31.484,0,0,1-17.22-7A38.241,38.241,0,0,1,49.43,52.07a29.183,29.183,0,0,1-1.623-11.649c.727-9.264,5.946-16.953,16.142-18.782A25.5,25.5,0,0,1,82.041,25.1Z" fill="#0091c7"/>
      <path id="Path_12733" data-name="Path 12733" d="M91.922,78.142a64.241,64.241,0,0,1-4.577,5.413,23.238,23.238,0,0,1-13.32,6.273,29.208,29.208,0,0,1-21.8-5.776A28.13,28.13,0,0,1,41.014,65.4a20.949,20.949,0,0,1,5.4-18.455A39.113,39.113,0,0,0,62.509,72.317c8.816,6.394,18.624,7.689,29.159,5.5Z" fill="#0091c7"/>
    </g>
    <g id="wavepay-2" data-name="wavepay" transform="translate(0 0.161)">
      <path id="Path_12734" data-name="Path 12734" d="M137.72,155H17.28A17.28,17.28,0,0,1,0,137.72V17.28A17.28,17.28,0,0,1,17.28,0H137.72A17.28,17.28,0,0,1,155,17.28V137.72A17.28,17.28,0,0,1,137.72,155Z" fill="#ffe512"/>
      <path id="Path_12735" data-name="Path 12735" d="M18.285,121.736a12.4,12.4,0,0,1-9.542,1.489c-3.475-.836-4.977-2.87-4.432-6.345.666-4.359,1.441-8.719,2.264-13.054a3.524,3.524,0,0,1,1.211-2.143,2.591,2.591,0,0,1,2.289-.145,2.422,2.422,0,0,1,.751,2.01c-.666,4.226-1.453,8.464-2.216,12.7-.472,2.676.5,3.9,3.209,4.008,3.56.157,4.953-1.211,5.655-5.389.63-3.766,1.211-7.532,1.925-11.274a3.633,3.633,0,0,1,1.356-2.022,2.119,2.119,0,0,1,1.962-.061,2.143,2.143,0,0,1,.8,1.792c-.654,4.25-1.4,8.477-2.2,12.7-.521,2.664.484,4.117,3.221,4.238,3.282.157,4.929-1.211,5.473-4.517.678-4.117,1.429-8.234,2.2-12.339a2.349,2.349,0,0,1,2.64-2.2c1.659.182,1.55,1.562,1.356,2.688-.739,4.468-1.441,8.961-2.422,13.393-.836,3.73-3.851,5.982-7.968,6.273C23.129,123.721,20.465,123.516,18.285,121.736Z"/>
      <path id="Path_12736" data-name="Path 12736" d="M97.3,123.177c-.363,1.865-.678,3.766-1.138,5.643-.388,1.586-1.707,2.422-2.894,2-1.38-.545-1.211-1.611-.993-2.882,1.211-6.418,2.422-12.848,3.4-19.3.727-4.735,4.045-7.12,8.477-7.435a15.028,15.028,0,0,1,5.025.545c2.8.775,3.9,2.979,3.4,6.563-.412,2.93-.92,5.849-1.574,8.743a8.477,8.477,0,0,1-8.549,6.466C100.774,123.516,99.079,123.31,97.3,123.177Zm4.844-2.93a4.529,4.529,0,0,0,4.965-3.9,85.31,85.31,0,0,0,1.4-8.477,3.56,3.56,0,0,0-1.32-2.87,4.953,4.953,0,0,0-7.35,3.633c-.424,2.422-.775,4.844-1.211,7.363-.545,3.015.46,4.25,3.463,4.25Z"/>
      <path id="Path_12737" data-name="Path 12737" d="M78.989,114.748c-.109.448-.17.787-.266,1.126-.751,2.834.351,4.311,3.318,4.371h6.418c.92,0,1.974.085,1.792,1.211-.133.763-1.005,1.986-1.574,2a68.07,68.07,0,0,1-10.547-.388c-3-.424-4.287-3.306-3.633-6.9.484-2.737.957-5.486,1.465-8.21a8.477,8.477,0,0,1,8.355-6.781,13.89,13.89,0,0,1,3.633.206c4.166.92,5.558,3.088,4.844,7.266-.218,1.308-.472,2.616-.714,3.923a2.313,2.313,0,0,1-2.6,2.2C85.977,114.7,82.5,114.748,78.989,114.748Zm.484-3.306h7.6a1.732,1.732,0,0,0,1.211-.981,5.873,5.873,0,0,0,.388-2.688,4.045,4.045,0,0,0-1.211-2.6c-2.252-1.417-6.66-.714-7.266,2.846-.279,1.041-.472,2.095-.727,3.391Z"/>
      <path id="Path_12738" data-name="Path 12738" d="M49.648,114.809H41.172c-.412,2.071-.739,4.2-1.211,6.285a4.214,4.214,0,0,1-1.3,2.046,2.022,2.022,0,0,1-1.816.218,2,2,0,0,1-.872-1.6c.3-2.64.727-5.28,1.211-7.907.279-1.732.69-3.439.981-5.171a8.38,8.38,0,0,1,8.477-7.508,13.974,13.974,0,0,1,3.633.218c4.129.92,5.546,3.136,4.844,7.266s-1.4,8.234-2.216,12.327a3.79,3.79,0,0,1-1.284,2.083,2.155,2.155,0,0,1-1.974.182,2.216,2.216,0,0,1-.823-1.792A47.68,47.68,0,0,1,49.648,114.809Zm-7.907-3.4h7.58a1.768,1.768,0,0,0,1.211-1.041,4.844,4.844,0,0,0,.363-2.507c-.242-1.029-.654-2.422-1.441-2.846a4.965,4.965,0,0,0-7.205,3.4A27.379,27.379,0,0,0,41.741,111.406Z"/>
      <path id="Path_12739" data-name="Path 12739" d="M126.785,114.8h-8.477c-.4,2.119-.751,4.25-1.211,6.345a3.548,3.548,0,0,1-1.211,1.925,2.325,2.325,0,0,1-1.974.254,1.913,1.913,0,0,1-.811-1.611c.3-2.652.739-5.28,1.211-7.907.291-1.732.69-3.451.981-5.183a8.368,8.368,0,0,1,8.477-7.447,16.564,16.564,0,0,1,3.633.218c4.989.92,5.195,3.936,4.674,7.508-.581,3.96-1.332,7.883-2.119,11.807a4.626,4.626,0,0,1-1.211,2.325,2.107,2.107,0,0,1-1.962.327,2.422,2.422,0,0,1-.908-1.925A51.2,51.2,0,0,1,126.785,114.8Zm-7.907-3.463c.5,0,.92.1,1.344.1h6.224a1.72,1.72,0,0,0,1.211-1.029,4.844,4.844,0,0,0,.363-2.507c-.23-1.017-.654-2.422-1.429-2.846a4.965,4.965,0,0,0-7.205,3.4A21.885,21.885,0,0,0,118.878,111.334Z"/>
      <path id="Path_12740" data-name="Path 12740" d="M63.126,118.26l5.05-11.007c.7-1.55,1.4-3.088,2.131-4.626.618-1.211,1.659-1.937,2.967-1.211s.945,1.8.424,2.87c-2.749,5.546-5.461,11.165-8.307,16.723a6.055,6.055,0,0,1-2.24,2.264,2.24,2.24,0,0,1-3.415-1.72c-.666-4.432-1.211-8.888-1.877-13.32-.17-1.211-.484-2.507-.605-3.766A3.245,3.245,0,0,1,57.5,102.4a2.93,2.93,0,0,1,2.022-1.126c.436,0,1.211.969,1.211,1.586.727,5.1,1.332,10.22,1.974,15.33Z"/>
      <path id="Path_12741" data-name="Path 12741" d="M141.365,108.984c1.732-2.119,3.342-4.105,4.965-6.055a8.2,8.2,0,0,1,1.211-1.211,1.865,1.865,0,0,1,2.761,0c1.041.981.375,1.792-.23,2.531-1.937,2.422-3.814,4.771-5.921,6.963a6.878,6.878,0,0,0-1.732,3.887c-.363,2.083-.666,4.178-1.138,6.248a3,3,0,0,1-1.211,1.72,2.422,2.422,0,0,1-2,.218,1.937,1.937,0,0,1-.787-1.635c.3-2.519.823-5.025,1.211-7.544a4.723,4.723,0,0,0-.254-2.422c-1.054-2.422-2.289-4.7-3.4-7.072-.533-1.15-.836-2.422.666-3.088s2.24.254,2.846,1.441C139.258,104.988,140.287,106.914,141.365,108.984Z"/>
      <path id="Path_12742" data-name="Path 12742" d="M82.041,25.1c-2.422,1.514-4.844,2.834-7.036,4.529A29.656,29.656,0,0,0,63.356,48.365a22.717,22.717,0,0,0,3.161,16.747,19.169,19.169,0,0,0,7.871,6.418c3.814,1.877,8,.509,10.777-3.124A12.86,12.86,0,0,0,82.743,51C77.9,47.469,71.3,49.491,68.805,55.279a14.011,14.011,0,0,0-.581,9.046,15.476,15.476,0,0,1-2.906-6.9c-1.9-10.535,2.143-18.83,9.845-25.72a20.332,20.332,0,0,1,7.447-4.553,28.36,28.36,0,0,1,7.375-.908,24.618,24.618,0,0,1,16.578,42.6c-3.778,3.633-8.622,5.4-13.575,6.818a37.37,37.37,0,0,1-13.7,1.211,31.484,31.484,0,0,1-17.22-7A38.241,38.241,0,0,1,49.43,52.07a29.183,29.183,0,0,1-1.623-11.649c.727-9.264,5.946-16.953,16.142-18.782A25.5,25.5,0,0,1,82.041,25.1Z" fill="#0091c7"/>
      <path id="Path_12743" data-name="Path 12743" d="M91.922,78.142a64.241,64.241,0,0,1-4.577,5.413,23.238,23.238,0,0,1-13.32,6.273,29.208,29.208,0,0,1-21.8-5.776A28.13,28.13,0,0,1,41.014,65.4a20.949,20.949,0,0,1,5.4-18.455A39.113,39.113,0,0,0,62.509,72.317c8.816,6.394,18.624,7.689,29.159,5.5Z" fill="#0091c7"/>
    </g>
    <rect id="REZJdo09_400x400" width="155" height="155" transform="translate(0 0.161)" fill="#ffe512"/>
    <g id="wavepay-3" data-name="wavepay" transform="translate(14.653 14.814)">
      <path id="Path_12744" data-name="Path 12744" d="M111.681,125.693H14.013A14.013,14.013,0,0,1,0,111.681V14.013A14.013,14.013,0,0,1,14.013,0h97.668a14.013,14.013,0,0,1,14.013,14.013v97.668A14.013,14.013,0,0,1,111.681,125.693Z" fill="#ffe512"/>
      <path id="Path_12745" data-name="Path 12745" d="M15.622,117.847a10.055,10.055,0,0,1-7.738,1.208c-2.818-.678-4.036-2.327-3.594-5.146.54-3.535,1.169-7.07,1.836-10.586a2.858,2.858,0,0,1,.982-1.738,2.1,2.1,0,0,1,1.856-.118,1.964,1.964,0,0,1,.609,1.63c-.54,3.427-1.178,6.864-1.8,10.3-.383,2.17.4,3.162,2.6,3.25,2.887.128,4.016-.982,4.586-4.37.511-3.054.982-6.108,1.561-9.142a2.946,2.946,0,0,1,1.1-1.64,1.718,1.718,0,0,1,1.591-.049,1.738,1.738,0,0,1,.648,1.453c-.53,3.447-1.139,6.874-1.787,10.3-.422,2.16.393,3.339,2.612,3.437,2.661.128,4-.982,4.439-3.663.55-3.339,1.159-6.677,1.787-10.006a1.905,1.905,0,0,1,2.141-1.787c1.345.147,1.257,1.267,1.1,2.18-.6,3.624-1.169,7.267-1.964,10.861-.678,3.024-3.123,4.851-6.461,5.087C19.55,119.457,17.39,119.29,15.622,117.847Z" transform="translate(-0.794 -19.128)"/>
      <path id="Path_12746" data-name="Path 12746" d="M96.321,119.016c-.295,1.512-.55,3.054-.923,4.576a1.9,1.9,0,0,1-2.347,1.62c-1.119-.442-.982-1.306-.805-2.337.982-5.2,1.964-10.419,2.759-15.653.589-3.84,3.28-5.774,6.874-6.029a12.186,12.186,0,0,1,4.075.442c2.268.628,3.162,2.416,2.759,5.322-.334,2.376-.746,4.743-1.277,7.09a6.874,6.874,0,0,1-6.933,5.244C99.139,119.291,97.764,119.124,96.321,119.016Zm3.928-2.376a3.673,3.673,0,0,0,4.026-3.162,69.181,69.181,0,0,0,1.139-6.874,2.887,2.887,0,0,0-1.07-2.327,4.016,4.016,0,0,0-5.961,2.946c-.344,1.964-.628,3.928-.982,5.97-.442,2.445.373,3.447,2.808,3.447Z" transform="translate(-17.419 -19.129)"/>
      <path id="Path_12747" data-name="Path 12747" d="M78.109,112.174c-.088.363-.137.638-.216.913-.609,2.3.285,3.5,2.691,3.545h5.2c.746,0,1.6.069,1.453.982-.108.619-.815,1.61-1.277,1.62a55.2,55.2,0,0,1-8.553-.314c-2.435-.344-3.476-2.681-2.946-5.6.393-2.219.776-4.448,1.188-6.658a6.874,6.874,0,0,1,6.776-5.5,11.264,11.264,0,0,1,2.946.167c3.378.746,4.507,2.5,3.928,5.892-.177,1.061-.383,2.121-.579,3.182a1.876,1.876,0,0,1-2.111,1.787C83.775,112.135,80.956,112.174,78.109,112.174Zm.393-2.681h6.167a1.4,1.4,0,0,0,.982-.8,4.763,4.763,0,0,0,.314-2.18,3.28,3.28,0,0,0-.982-2.111c-1.826-1.149-5.4-.579-5.892,2.308-.226.844-.383,1.7-.589,2.75Z" transform="translate(-14.054 -19.122)"/>
      <path id="Path_12748" data-name="Path 12748" d="M47.063,112.224H40.19c-.334,1.679-.6,3.407-.982,5.1a3.417,3.417,0,0,1-1.051,1.66,1.64,1.64,0,0,1-1.473.177,1.62,1.62,0,0,1-.707-1.3c.245-2.141.589-4.281.982-6.412.226-1.4.56-2.789.8-4.193a6.8,6.8,0,0,1,6.874-6.088,11.332,11.332,0,0,1,2.946.177c3.349.746,4.5,2.543,3.928,5.892s-1.139,6.677-1.8,10a3.074,3.074,0,0,1-1.041,1.689,1.748,1.748,0,0,1-1.6.147,1.8,1.8,0,0,1-.668-1.453A38.665,38.665,0,0,1,47.063,112.224Zm-6.412-2.759H46.8a1.434,1.434,0,0,0,.982-.845,3.928,3.928,0,0,0,.295-2.033c-.2-.835-.53-1.964-1.169-2.308a4.026,4.026,0,0,0-5.843,2.759A22.2,22.2,0,0,0,40.651,109.465Z" transform="translate(-6.802 -19.123)"/>
      <path id="Path_12749" data-name="Path 12749" d="M124.2,112.217h-6.874c-.324,1.718-.609,3.447-.982,5.146a2.877,2.877,0,0,1-.982,1.561,1.885,1.885,0,0,1-1.6.206,1.551,1.551,0,0,1-.658-1.306c.245-2.151.6-4.281.982-6.412.236-1.4.56-2.8.8-4.2a6.785,6.785,0,0,1,6.874-6.039,13.432,13.432,0,0,1,2.946.177c4.046.746,4.213,3.191,3.79,6.088-.471,3.211-1.08,6.393-1.718,9.574a3.751,3.751,0,0,1-.982,1.885,1.709,1.709,0,0,1-1.591.265,1.964,1.964,0,0,1-.736-1.561A41.522,41.522,0,0,1,124.2,112.217Zm-6.412-2.808c.4,0,.746.079,1.09.079h5.047a1.394,1.394,0,0,0,.982-.835,3.928,3.928,0,0,0,.295-2.033c-.187-.825-.53-1.964-1.159-2.308a4.026,4.026,0,0,0-5.843,2.759A17.747,17.747,0,0,0,117.785,109.409Z" transform="translate(-21.385 -19.126)"/>
      <path id="Path_12750" data-name="Path 12750" d="M62,115.021l4.095-8.926c.57-1.257,1.139-2.5,1.728-3.751.5-.982,1.345-1.571,2.406-.982s.766,1.463.344,2.327c-2.229,4.5-4.429,9.054-6.736,13.561a4.91,4.91,0,0,1-1.817,1.836,1.817,1.817,0,0,1-2.769-1.394c-.54-3.594-.982-7.208-1.522-10.8-.137-.982-.393-2.033-.491-3.054a2.632,2.632,0,0,1,.2-1.679,2.376,2.376,0,0,1,1.64-.913c.354,0,.982.786.982,1.286.589,4.134,1.08,8.288,1.6,12.432Z" transform="translate(-10.812 -19.12)"/>
      <path id="Path_12751" data-name="Path 12751" d="M140.048,107.5c1.4-1.718,2.71-3.329,4.026-4.91a6.648,6.648,0,0,1,.982-.982,1.512,1.512,0,0,1,2.239,0c.845.8.3,1.453-.187,2.052-1.571,1.964-3.093,3.869-4.8,5.646a5.578,5.578,0,0,0-1.4,3.152c-.295,1.689-.54,3.388-.923,5.067a2.435,2.435,0,0,1-.982,1.394,1.964,1.964,0,0,1-1.62.177,1.571,1.571,0,0,1-.638-1.326c.245-2.043.668-4.075.982-6.118a3.83,3.83,0,0,0-.206-1.964c-.854-1.964-1.856-3.81-2.759-5.735-.432-.933-.678-1.964.54-2.5s1.817.206,2.308,1.169C138.34,104.255,139.174,105.816,140.048,107.5Z" transform="translate(-25.412 -19.117)"/>
      <path id="Path_12752" data-name="Path 12752" d="M75.557,24.37c-1.964,1.227-3.928,2.3-5.705,3.673A24.049,24.049,0,0,0,60.4,43.234a18.422,18.422,0,0,0,2.563,13.581,15.545,15.545,0,0,0,6.383,5.2c3.093,1.522,6.491.412,8.74-2.534a10.429,10.429,0,0,0-1.964-14.111c-3.928-2.867-9.28-1.227-11.3,3.466a11.361,11.361,0,0,0-.471,7.335A12.55,12.55,0,0,1,62,50.579c-1.542-8.543,1.738-15.27,7.983-20.857a16.488,16.488,0,0,1,6.039-3.692A23,23,0,0,1,82,25.293,19.964,19.964,0,0,1,95.442,59.839c-3.064,2.946-6.992,4.38-11.008,5.529a30.3,30.3,0,0,1-11.106.982,25.532,25.532,0,0,1-13.964-5.676A31.011,31.011,0,0,1,49.112,46.238,23.666,23.666,0,0,1,47.8,36.792c.589-7.512,4.822-13.748,13.09-15.231A20.68,20.68,0,0,1,75.557,24.37Z" transform="translate(-9.028 -4.013)" fill="#0091c7"/>
      <path id="Path_12753" data-name="Path 12753" d="M82.224,72.244a52.094,52.094,0,0,1-3.712,4.389,18.844,18.844,0,0,1-10.8,5.087,23.685,23.685,0,0,1-17.676-4.684,22.811,22.811,0,0,1-9.093-15.122,16.988,16.988,0,0,1,4.38-14.965A31.718,31.718,0,0,0,58.372,67.521c7.149,5.185,15.1,6.236,23.646,4.458Z" transform="translate(-7.682 -8.877)" fill="#0091c7"/>
    </g>
  </g>
</svg>
