<svg xmlns="http://www.w3.org/2000/svg" width="18" height="18" viewBox="0 0 18 18"><g transform="translate(-123.671 -124.091)"><path d="M275.722,158.414h0a.231.231,0,0,1,0,.446h0a3.206,3.206,0,0,0-2.263,2.263h0a.231.231,0,0,1-.446,0h0a3.206,3.206,0,0,0-2.263-2.263h0a.231.231,0,0,1,0-.446h0a3.206,3.206,0,0,0,2.263-2.263h0a.231.231,0,0,1,.446,0h0A3.206,3.206,0,0,0,275.722,158.414Z" transform="translate(-136.527 -29.583)" fill="#fff"/><path d="M268.675,152.053c-.241-.065.3-.621-.1-.572a.755.755,0,0,0-.145.049c-.124.044-.247.1-.367.15a3.6,3.6,0,0,0-.718.445,3.7,3.7,0,0,0-.969,1.128,2.413,2.413,0,0,0-.312.741c-.025.183-.155.1.272.1.352,0,.328.072.256-.149a4.238,4.238,0,0,0-.163-.418,3.647,3.647,0,0,0-.868-1.21,3.872,3.872,0,0,0-1.366-.8.783.783,0,0,0-.2-.06v.3q-.145.367.05.289a1.167,1.167,0,0,0,.34-.118,3.723,3.723,0,0,0,2.138-2.166,1.155,1.155,0,0,0,.114-.342h-.6l.028.1a1.1,1.1,0,0,0,.085.243,3.819,3.819,0,0,0,2.527,2.3.543.543,0,0,0,.289-1.046,2.682,2.682,0,0,1-1.519-1.085c-.312-.477-.362-1.337-1.076-1.365-.765-.03-.817.873-1.14,1.365a2.694,2.694,0,0,1-1.429,1.053.847.847,0,0,0-.639.567.776.776,0,0,0,.376.88c.25.137.537.182.789.326a2.739,2.739,0,0,1,.739.617,2.615,2.615,0,0,1,.424.715c.129.326.174.645.538.8a.77.77,0,0,0,.88-.2,4.178,4.178,0,0,0,.376-.843,2.75,2.75,0,0,1,1.576-1.318c.334-.116.605-.289.657-.671a.775.775,0,0,0-.557-.85A.546.546,0,0,0,268.675,152.053Z" transform="translate(-129.623 -22.699)" fill="#535353"/><path d="M138.476,140.879a8.822,8.822,0,0,1-1.883-9.689,8.822,8.822,0,1,0,11.574,11.571A8.826,8.826,0,0,1,138.476,140.879Z" transform="translate(-7.008 -6.586)" fill="#67a7ff"/><path d="M131.845,133.917a8.413,8.413,0,0,1-1.746-9.177c.2-.488-.42-.763-.785-.6a9.363,9.363,0,1,0,12.313,12.315c.157-.363-.118-.989-.6-.785a8.415,8.415,0,0,1-9.178-1.746c-.491-.484-1.248.272-.757.757a9.456,9.456,0,0,0,10.22,2.022l-.6-.785a8.3,8.3,0,1,1-10.85-10.848l-.785-.6a9.453,9.453,0,0,0,2.022,10.218C131.573,135.164,132.33,134.407,131.845,133.917Z" transform="translate(0 0)" fill="#3e3e3e"/></g></svg>